<?xml version="1.0" encoding="UTF-8"?>
<svg width="138.17" height="135.68" version="1.1" viewBox="0 0 138.17 135.68" xml:space="preserve" xmlns="http://www.w3.org/2000/svg" xmlns:cc="http://creativecommons.org/ns#" xmlns:dc="http://purl.org/dc/elements/1.1/" xmlns:rdf="http://www.w3.org/1999/02/22-rdf-syntax-ns#"><metadata><rdf:RDF><cc:Work rdf:about=""><dc:format>image/svg+xml</dc:format><dc:type rdf:resource="http://purl.org/dc/dcmitype/StillImage"/><dc:title/></cc:Work></rdf:RDF></metadata><defs><clipPath id="clipPath26"><path d="m0 1069.3h1301.7v-1069.3h-1301.7z"/></clipPath></defs><g transform="matrix(1.3333 0 0 -1.3333 -232.81 995.1)"><g transform="translate(-5.7974 -17.875)"><g clip-path="url(#clipPath26)"><g transform="translate(218.35 724.31)"><path d="m0 0c-0.212-1e-3 -0.425-0.034-0.635-0.067-0.903-0.138-1.756-0.447-2.606-0.767-1.615-0.608-3.275-0.965-5.009-0.901-0.428 0-0.856-0.014-1.283 3e-3 -0.671 0.028-0.707-0.024-0.643-0.713 0.175-1.87 0.574-3.687 1.179-5.465 1.088-3.2 3.05-5.736 5.846-7.611 0.953-0.639 1.992-1.15 3.116-1.443 0.431-0.112 0.507-0.054 0.584 0.391 0.303 1.736 0.86 3.361 2.056 4.704 0.152 0.171 0.17 0.304 9e-3 0.476-0.31 0.332-0.621 0.664-0.906 1.016-0.924 1.144-1.358 2.533-1.888 3.871-0.149 0.376 0.088 0.592 0.433 0.713 0.503 0.175 1.004 0.356 1.505 0.536 0.381 0.137 0.465 0.36 0.286 0.744-0.503 1.077-0.721 2.238-0.831 3.407-0.091 0.956-0.109 1.11-1.213 1.106" fill="#f04bb8"/></g><g transform="translate(233.52 730.98)"><path d="m0 0c-0.545 0.476-1.128 0.899-1.757 1.253-2.183 1.23-3.95 2.899-5.325 5.051-0.361-0.095-0.545-0.328-0.757-0.528-1.405-1.331-2.599-2.838-3.614-4.476-1.497-2.417-2.187-5.094-2.213-7.915-0.012-1.328 0.26-2.653 0.694-3.923 0.11-0.32 0.185-0.675 0.505-0.914 0.209 0.1 0.426 0.197 0.637 0.306 1.409 0.735 2.892 1.228 4.492 1.185 0.486-0.014 0.61 0.153 0.641 0.55 0.136 1.735 0.982 3.192 1.831 4.644 0.382 0.654 0.565 0.676 1.193 0.29 0.409-0.251 0.836-0.473 1.245-0.724 0.334-0.204 0.536-0.102 0.689 0.229 0.18 0.389 0.429 0.735 0.677 1.084 0.53 0.745 1.133 1.421 1.809 2.029 0.325 0.292 0.342 0.555 0.094 0.896-0.253 0.348-0.516 0.679-0.841 0.963" fill="#dcb1ba"/></g><g transform="translate(242.53 722.8)"><path d="m0 0c-0.029 0.316-0.204 0.425-0.483 0.382-1.106-0.168-2.249-0.246-3.272-0.707-1.887-0.851-3.62-1.938-4.937-3.602-1.035-1.308-1.785-2.729-1.936-4.408-0.085-0.936-0.02-1.863 0.63-2.742 0.399 0.404 0.497 0.9 0.831 1.255 1.393 1.477 3.108 2.211 5.116 2.331 1.398 0.083 2.772 5e-3 4.121-0.415 0.526-0.163 0.577-0.098 0.738 0.415 0.324 1.027 0.222 2.073 0.065 3.1-0.226 1.474-0.736 2.896-0.873 4.391" fill="#ee91b8"/></g><g transform="translate(212.7 707.05)"><path d="m0 0c-0.308-0.681-0.54-1.39-0.778-2.098-0.419-1.245-0.995-2.409-1.732-3.504-0.539-0.8-1.185-1.504-1.81-2.222 0.211-0.289 0.481-0.457 0.752-0.628 1.424-0.905 2.925-1.647 4.506-2.242 3.601-1.355 7.193-1.389 10.769 0.057 0.905 0.367 1.813 0.767 2.509 1.48-0.037 0.093-0.047 0.149-0.078 0.189-0.081 0.106-0.171 0.205-0.258 0.306-1.1 1.268-1.981 2.658-2.286 4.336-0.085 0.469-0.356 0.477-0.681 0.432-1.748-0.239-3.385 0.24-5.016 0.757-0.595 0.188-0.697 0.423-0.499 0.996 0.157 0.454 0.314 0.908 0.46 1.365 0.117 0.366 9e-3 0.607-0.39 0.71-1.044 0.269-1.991 0.755-2.906 1.312-1.31 0.797-1.363 0.781-2.189-0.539-0.141-0.226-0.263-0.465-0.373-0.707" fill="#aa81fc"/></g><g transform="translate(239.1 693.3)"><path d="m0 0c0.711-0.464 1.501-0.688 2.325-0.804 1.029-0.143 2.07-0.208 3.089-0.397 1.773-0.328 3.424-1.005 4.98-1.976 0.255 0.249 0.333 0.504 0.426 0.755 0.351 0.953 0.677 1.916 0.867 2.913 0.369 1.938 0.756 3.873 0.441 5.87-0.33 2.1-0.847 4.13-2.006 5.945-0.605 0.947-1.274 1.846-2.119 2.599-0.229 0.205-0.448 0.375-0.715-2e-3 -1.031-1.457-2.26-2.697-3.932-3.418-0.219-0.094-0.272-0.226-0.204-0.44 0.057-0.177 0.091-0.363 0.153-0.538 0.58-1.64 0.372-3.316 0.241-4.99-0.028-0.348-0.236-0.469-0.514-0.492-0.236-0.02-0.48 0.023-0.715 0.064-0.424 0.073-0.847 0.092-1.275 0.068-0.257-0.014-0.392-0.122-0.389-0.392 0.015-1.443-0.419-2.788-0.912-4.117-0.12-0.323-2e-3 -0.478 0.259-0.648" fill="#f2abf4"/></g><g transform="translate(245.63 707.83)"><path d="m0 0c0.813 1.059 1.63 2.108 2.638 3.085-0.966 0.924-1.86 1.904-3.031 2.49-2.093 1.046-4.278 1.712-6.691 1.508-1.753-0.149-3.27-0.716-4.58-1.873-0.464-0.41-0.779-0.902-0.896-1.582 0.581 0.073 1.09 0.24 1.633 0.185 2.022-0.203 3.651-1.144 4.973-2.639 0.87-0.983 1.615-2.055 2.098-3.295 0.251-0.644 0.295-0.644 0.943-0.336 1.186 0.562 2.13 1.437 2.913 2.457" fill="#e8bbe6"/></g><g transform="translate(253.48 707.25)"><path d="m0 0c0.476 0.51 0.966 1 1.502 1.444 1.35 1.117 2.873 1.934 4.575 2.57-0.069 0.183-0.093 0.288-0.146 0.376-0.274 0.459-0.535 0.927-0.838 1.366-1.972 2.862-4.316 5.289-7.611 6.655-2.22 0.92-4.494 1.328-6.883 1.004-0.74-0.1-0.734-0.113-0.552-0.864 0.388-1.598 0.632-3.204 0.134-4.822-0.131-0.427 0.139-0.53 0.414-0.617 1.662-0.525 2.895-1.68 4.144-2.809 0.585-0.528 0.569-0.718-0.01-1.299-0.339-0.34-0.661-0.697-0.992-1.045-0.195-0.204-0.253-0.387 0.012-0.595 1.095-0.856 1.818-2.017 2.567-3.155 0.329-0.499 0.337-0.517 0.89-0.311 1.139 0.423 1.99 1.242 2.794 2.102" fill="#ee9bfe"/></g><g transform="translate(224.02 691.84)"><path d="m0 0c1.411-2.029 2.357-4.239 2.66-6.701 0.05-0.406 0.271-0.425 0.545-0.336 0.609 0.198 1.214 0.411 1.808 0.649 3.508 1.404 6.476 3.487 8.489 6.768 1.037 1.69 1.621 3.53 1.831 5.496 0 0.08 3e-3 0.16 0 0.24-0.024 0.515-0.024 0.516-0.56 0.51-0.187-2e-3 -0.374-0.018-0.561-0.014-1.422 0.032-2.821 0.178-4.118 0.833-0.576 0.291-0.624 0.315-0.946-0.221-0.898-1.497-2.301-2.428-3.689-3.377-0.599-0.409-0.773-0.354-1.126 0.279-0.262 0.469-0.567 0.903-0.909 1.316-0.165 0.198-0.301 0.246-0.527 0.065-1.084-0.862-2.364-1.334-3.645-1.802-0.582-0.213-0.604-0.262-0.504-0.871 0.172-1.053 0.655-1.976 1.252-2.834" fill="#eeb5dc"/></g><g transform="translate(225.93 720.62)"><path d="m0 0c-1.394 9e-3 -2.674-0.441-3.896-1.065-0.998-0.509-1.994-1.018-3.066-1.352-0.38-0.118-0.418-0.313-0.277-0.655 0.557-1.356 1.081-2.709 2.089-3.838 1.246-1.395 2.627-2.572 4.345-3.33 1.627-0.717 3.289-1.033 5.054-0.544 0.689 0.191 1.284 0.479 1.79 1.079-0.455 0.277-0.943 0.213-1.344 0.455-1.341 0.805-2.387 1.873-3.024 3.315-0.735 1.663-1.057 3.404-0.986 5.222 0.027 0.687 0.011 0.709-0.685 0.713" fill="#c88dbc"/></g><g transform="translate(249.21 732.28)"><path d="m0 0c-0.425 0.212-0.853 0.235-1.275 0.274-1.49 0.137-2.976 0.132-4.474 0.035-1.54-0.1-3-0.436-4.422-0.996-2.65-1.044-4.867-2.651-6.479-5.032-0.164-0.242-0.311-0.497-0.457-0.752-0.166-0.287-0.112-0.458 0.224-0.609 1.622-0.725 3.146-1.594 4.187-3.106 0.133-0.193 0.291-0.199 0.482-0.086 0.253 0.149 0.516 0.281 0.767 0.433 0.529 0.321 1.087 0.623 1.69 0.706 0.871 0.121 1.713 0.395 2.601 0.437 0.686 0.031 0.773 0.012 0.869-0.663 0.075-0.528 0.159-1.055 0.251-1.58 0.047-0.271 0.177-0.418 0.498-0.347 1.271 0.281 2.556 0.138 3.833 0.077 0.824-0.04 0.827-0.084 1.058 0.678 0.046 0.153 0.067 0.313 0.106 0.468 0.26 1.016-1e-3 2.016-0.101 3.019-0.144 1.44-0.187 2.873 0.024 4.313 0.135 0.924 0.417 1.811 0.618 2.731" fill="#b471ca"/></g><g transform="translate(225.78 700.12)"><path d="m0 0c0.867-1.442 2.187-2.554 2.982-4.052 0.098-0.185 0.252-0.163 0.407-0.066 0.973 0.608 1.989 1.198 2.729 2.07 1.281 1.511 2.358 3.157 2.855 5.13 0.397 1.583 0.582 3.158 0.025 4.723-0.362 1.018-0.752 2.055-1.871 2.562-0.113-0.13-0.117-0.262-0.111-0.39 0.02-0.458-3e-3 -0.918-0.172-1.342-0.502-1.258-1.201-2.381-2.294-3.221-1.509-1.16-3.195-1.911-5.073-2.229-0.654-0.11-0.63-0.118-0.519-0.776 0.151-0.893 0.59-1.657 1.042-2.409" fill="#d075e8"/></g><g transform="translate(257.72 729.51)"><path d="m0 0c-1.543 0.306-3.086 0.581-4.666 0.67-1.101 0.062-2.181 0.04-3.252-0.188-0.738-0.157-0.84-0.266-0.892-1.011-0.09-1.28-0.1-2.558 0.074-3.84 0.136-0.998 0.328-2.008 0.08-3.022-0.099-0.409-0.2-0.817-0.292-1.196 0.145-0.177 0.321-0.167 0.469-0.213 1.877-0.583 3.622-1.428 5.214-2.588 1.199-0.874 2.156-1.991 3.113-3.106 0.838-0.976 1.566-2.036 2.193-3.158 0.375-0.671 0.286-0.857-0.424-1.123-0.449-0.168-0.898-0.333-1.378-0.609 0.406-0.48 0.884-0.735 1.242-1.141 0.709-0.807 1.345-1.66 1.948-2.545 0.346-0.508 0.371-0.497 0.866-0.125 1.428 1.074 2.542 2.428 3.521 3.909 1.097 1.659 1.887 3.469 2.673 5.285 0.743 1.713 1.494 3.431 2.916 4.726 0.248 0.227 0.177 0.401-0.01 0.608-0.68 0.751-1.297 1.571-2.044 2.249-1.563 1.418-3.172 2.789-4.988 3.886-1.981 1.195-4.087 2.08-6.363 2.532" fill="#c24bd4"/></g><g transform="translate(235.63 721.14)"><path d="m0 0c0.787 0.586 0.833 0.41 0.143 1.248-0.813 0.987-1.89 1.65-3.034 2.181-1.042 0.482-2.094 0.94-3.047 1.587-0.274 0.186-0.504 0.192-0.669-0.11-0.574-1.052-1.284-2.048-1.55-3.237-0.417-1.858-0.663-3.725-0.253-5.633 0.434-2.022 1.223-3.811 2.977-5.043 0.547-0.385 1.106-0.732 1.841-0.654-5e-3 0.529-0.38 0.892-0.456 1.376-0.286 1.835 0.138 3.505 1.094 5.052 0.779 1.258 1.754 2.341 2.954 3.233" fill="#ba89fa"/></g><g transform="translate(220.86 711.7)"><path d="m0 0c-0.824-1.121-1.268-2.402-1.53-3.748-0.194-0.996-0.413-1.982-0.758-2.939-0.202-0.56-0.207-0.601 0.4-0.782 1.527-0.456 3.027-0.898 4.696-0.695 1.471 0.18 2.899 0.388 4.25 1.008 1.906 0.874 3.457 2.105 4.237 4.138 0.216 0.564 0.304 1.121 0.18 1.771-0.163-0.054-0.257-0.058-0.309-0.106-0.851-0.795-1.919-0.996-3.02-1.102-1.712-0.164-3.263 0.348-4.763 1.115-0.865 0.442-1.632 1.01-2.363 1.638-0.42 0.361-0.448 0.356-0.821-0.047-0.072-0.078-0.136-0.165-0.199-0.251" fill="#fabfb4"/></g><g transform="translate(238.65 698.86)"><path d="m0 0c0.663 0.029 1.319 0.021 1.977-7e-3 0.4-0.017 0.799-0.054 1.196-0.097 0.261-0.028 0.387 0.058 0.425 0.332 0.154 1.114 0.273 2.253 0.071 3.343-0.366 1.972-1.016 3.855-2.271 5.487-1.39 1.808-3.067 3.094-5.416 3.335-0.501 0.051-0.931-0.069-1.404-0.295 0.272-0.425 0.724-0.607 0.979-0.985 1.075-1.594 1.499-3.339 1.245-5.245-0.224-1.682-0.747-3.265-1.629-4.727 0.108-0.095 0.178-0.182 0.269-0.232 1.421-0.788 2.979-0.978 4.558-0.909" fill="#f6a9fe"/></g><g transform="translate(242.92 679.01)"><path d="m0 0c1.981 2.742 3.263 5.81 4.039 9.092 0.147 0.62 0.286 1.252 0.261 1.9-0.031 0.824-0.1 0.947-0.888 1.212-1.118 0.376-2.265 0.606-3.444 0.71-1.516 0.134-3.041 0.275-4.303 1.228-0.16-0.095-0.216-0.214-0.28-0.333-0.909-1.688-2.074-3.179-3.517-4.438-1.961-1.712-4.265-2.82-6.687-3.707-0.35-0.128-0.693-0.28-1.071-0.316-0.529-0.05-0.675 0.066-0.741 0.577-0.054 0.423-0.104 0.847-0.18 1.266-0.047 0.263-0.185 0.396-0.435 0.162-0.333-0.313-0.71-0.556-1.111-0.78-0.864-0.484-1.76-0.891-2.682-1.253-0.798-0.314-0.786-0.338-0.423-1.079 0.736-1.503 1.73-2.818 2.873-4.035 1.734-1.846 3.846-3.224 5.822-4.77 1.014-0.793 1.946-1.661 2.654-2.749 0.374-0.573 0.373-0.557 0.982-0.229 1.742 0.942 3.399 2.007 4.945 3.252 1.571 1.265 3.007 2.658 4.186 4.29" fill="#c255d6"/></g><g transform="translate(229.77 674.23)"><path d="m0 0c-0.061 0.052-0.121 0.105-0.184 0.155-1.276 1.012-2.637 1.91-3.874 2.976-1.986 1.713-3.678 3.643-4.754 6.066-0.235 0.53-0.256 0.519-0.938 0.293-3.647-1.208-7.354-1.491-11.126-0.7-0.757 0.159-1.508 0.338-2.264 0.499-0.54 0.115-0.55 0.105-0.71-0.449-0.044-0.154-0.076-0.311-0.107-0.468-0.29-1.464-0.205-2.918 0.091-4.373 0.378-1.859 0.878-3.686 1.458-5.489 0.689-2.14 0.836-4.327 0.768-6.556-0.023-0.745-0.252-1.472-0.173-2.223 1.725-0.432 3.423-0.142 5.115 0.035 0.739 0.077 1.48 0.172 2.21 0.345 1.93 0.456 3.769 1.149 5.567 1.98 3.522 1.628 6.587 3.838 9.004 6.9 0.436 0.552 0.441 0.566-0.083 1.009" fill="#aca5da"/></g><g transform="translate(211.57 683.03)"><path d="m0 0c3.979-0.29 7.745 0.626 11.372 2.171 0.851 0.363 1.701 0.774 2.42 1.401 0.368 0.321 0.495 0.631 0.331 1.118-0.421 1.252-1.024 2.407-1.752 3.5-0.761 1.142-1.449 2.314-1.614 3.711-0.036 0.305-0.189 0.357-0.43 0.286-0.675-0.196-1.376-0.198-2.063-0.233-2.405-0.123-4.724 0.26-6.957 1.218-1.529 0.655-2.998 1.405-4.381 2.324-0.689 0.458-0.673 0.675-0.126 1.295 0.303 0.344 0.718 0.631 0.826 1.163-0.909 0.174-1.712 0.528-2.522 0.876-0.812 0.35-1.522 0.887-2.39 1.258-0.114-0.195-0.201-0.328-0.273-0.469-1.196-2.331-1.613-4.837-1.698-7.425-0.057-1.765 0.117-3.524 0.119-5.287 1e-3 -1.236-0.128-2.445-0.525-3.62-0.199-0.588-0.205-0.61 0.345-0.823 1.44-0.561 2.847-1.211 4.365-1.566 1.638-0.382 3.274-0.776 4.953-0.898" fill="#b4b7fc"/></g><g transform="translate(260.49 685.25)"><path d="m0 0c-0.155 0.767-0.215 0.802-0.948 0.648-0.052-0.011-0.101-0.035-0.153-0.047-1.535-0.348-3.03-0.849-4.582-1.136-2.625-0.487-5.242-0.638-7.861 0.02-0.556 0.14-0.599 0.118-0.795-0.46-0.37-1.092-0.86-2.129-1.411-3.137-0.98-1.792-2.19-3.404-3.65-4.84-1.014-0.997-2.119-1.878-3.231-2.752-0.322-0.254-0.303-0.428-0.072-0.708 0.769-0.929 1.582-1.791 2.645-2.414 1.688-0.989 3.464-1.78 5.271-2.513 1.831-0.742 3.674-1.453 5.239-2.719 0.956-0.773 1.936-1.51 2.748-2.446 0.356-0.411 0.419-0.397 0.743-4e-3 0.374 0.455 0.828 0.832 1.174 1.315 1.612 2.244 3.016 4.587 3.877 7.241 0.937 2.888 1.539 5.824 1.562 9.098 0.054 1.031-0.076 2.276-0.323 3.512-0.089 0.445-0.143 0.897-0.233 1.342" fill="#ba9dda"/></g><g transform="translate(263.95 699.74)"><path d="m0 0c-0.839 2.729-2.212 5.203-3.855 7.525-0.523 0.738-1.109 1.443-1.806 2.034-0.674 0.572-0.86 0.574-1.628 0.111-1.25-0.754-2.263-1.782-3.275-2.815-0.75-0.764-1.542-1.474-2.582-1.845-0.515-0.183-0.492-0.204-0.284-0.742 0.76-1.957 1.219-3.981 1.224-6.086 3e-3 -1.364-0.248-2.708-0.521-4.039-0.262-1.281-0.627-2.542-1.174-3.736-0.264-0.576-0.461-0.615-0.985-0.265-0.432 0.289-0.86 0.584-1.412 0.671-0.05-0.581-0.046-1.112-0.129-1.644-0.162-1.033-0.45-2.029-0.735-3.029-0.175-0.618-0.16-0.63 0.48-0.796 2.103-0.547 4.227-0.532 6.352-0.186 1.634 0.266 3.231 0.696 4.829 1.131 1.747 0.474 3.512 0.932 5.357 0.612 0.279-0.048 0.4 0.104 0.438 0.342 0.079 0.5 0.1 1.013 0.224 1.501 0.302 1.176 0.323 2.38 0.368 3.576 0.048 1.253 0.017 2.506-0.122 3.762-0.147 1.332-0.373 2.647-0.764 3.918" fill="#e8a3de"/></g><g transform="translate(280.93 706.57)"><path d="m0 0c-1.06 1.703-2.251 3.31-3.602 4.803-2.09 2.309-4.5 4.172-7.325 5.49-0.567 0.265-0.6 0.27-0.854-0.273-0.431-0.918-0.821-1.855-1.236-2.78-1.373-3.055-3.074-5.87-5.798-7.939-0.44-0.335-0.475-0.418-0.165-0.837 0.482-0.653 0.814-1.384 1.16-2.103 1.074-2.231 1.737-4.578 1.991-7.051 0.135-1.309 0.123-2.613 0.141-3.922 8e-3 -0.586 0.134-0.744 0.698-0.694 1.139 0.102 2.276 0.183 3.369 0.61 1.823 0.714 3.566 1.581 5.241 2.581 2.221 1.328 4.557 2.317 7.12 2.773 0.785 0.14 1.602 0.032 2.362 0.339-0.049 1.179-0.346 2.309-0.693 3.43-0.603 1.945-1.33 3.84-2.409 5.573" fill="#c653ba"/></g><g transform="translate(219.16 745.47)"><path d="m0 0c0.756-0.166 1.518-0.294 2.277-0.436 1.761-0.329 3.5-0.742 5.169-1.394 1.626-0.635 3.151-1.461 4.478-2.614 0.27-0.235 0.51-0.383 0.782-0.013 0.078 0.107 0.184 0.194 0.282 0.286 1.486 1.399 3.115 2.615 4.921 3.558 1.972 1.03 4.069 1.737 6.263 2.145 0.388 0.072 0.792 0.132 1.228 0.378-0.263 1.341-0.659 2.598-1.413 3.736-1.126 1.7-2.453 3.233-3.823 4.734-1.281 1.403-2.551 2.808-3.372 4.559-0.521 1.112-1.113 2.189-1.416 3.39-0.085 0.339-0.208 0.489-0.618 0.34-2.211-0.804-4.19-2.031-6.013-3.472-2.773-2.193-4.986-4.895-6.791-7.939-1.186-2-1.946-4.154-2.497-6.395-0.146-0.593-0.094-0.723 0.543-0.863" fill="#f693d6"/></g><g transform="translate(253.15 739.02)"><path d="m0 0c1.147-2.531 1.984-5.121 1.876-7.945-0.026-0.674 0.088-0.787 0.77-0.822 0.805-0.041 1.585-0.225 2.357-0.411 3.026-0.728 5.776-2.049 8.231-3.97 0.568-0.445 1.137-0.887 1.695-1.345 0.241-0.198 0.419-0.176 0.599 0.069 0.697 0.947 1.39 1.892 1.761 3.032 0.637 1.961 1.066 3.97 1.326 6.009 0.335 2.629 1.103 5.107 2.385 7.423 0.284 0.512 0.623 0.993 0.94 1.487 0.136 0.212 0.153 0.375-0.111 0.515-0.542 0.287-1.055 0.635-1.612 0.886-3.5 1.577-7.156 2.449-10.877 2.373-1.931 0.023-3.702-0.179-5.471-0.474-1.973-0.328-3.795-1.066-5.592-1.892-0.606-0.278-0.591-0.297-0.307-0.935 0.61-1.367 1.412-2.635 2.03-4" fill="#da5dc4"/></g><g transform="translate(201.99 691.93)"><path d="m0 0c-0.135 1.469-0.143 2.946-0.033 4.405 0.184 2.461 0.733 4.851 1.964 7.013-0.173 0.306-0.457 0.416-0.699 0.577-2.636 1.757-4.829 3.941-6.496 6.651-0.703 1.142-1.253 2.358-1.86 3.547-0.297 0.582-0.308 0.595-0.901 0.298-0.958-0.479-1.854-1.039-2.623-1.81-1.518-1.522-2.746-3.267-3.978-5.012-0.924-1.309-1.788-2.668-3.038-3.709-1.107-0.921-2.164-1.903-3.463-2.571-0.584-0.3-0.566-0.344-0.21-0.897 1.229-1.91 2.847-3.474 4.569-4.91 2.189-1.824 4.695-3.142 7.338-4.192 2.345-0.932 4.764-1.546 7.293-1.673 0.561-0.028 1.123-0.032 1.684-0.046 0.331-9e-3 0.494 0.153 0.489 0.486-0.01 0.615 0.02 1.233-0.036 1.843" fill="#a461b2"/></g><g transform="translate(236.25 743.93)"><path d="m0 0c-2.378-1.443-4.408-3.291-6.228-5.369-0.592-0.675-1.166-1.39-1.535-2.241-0.203-0.469-0.221-0.816 0.175-1.214 0.721-0.725 1.486-1.383 2.347-1.93 0.564-0.358 1.146-0.689 1.703-1.058 0.916-0.608 1.724-1.334 2.269-2.333 0.61 0.433 1.161 0.807 1.742 1.137 1.83 1.042 3.774 1.79 5.865 2.014 1.588 0.171 3.196 0.149 4.797 0.056 0.587-0.033 1.171-0.1 1.74-0.239 0.558-0.138 0.638-0.328 0.441-0.861-0.174-0.471-0.347-0.942-0.346-1.54 0.537 0.081 0.98 0.169 1.427 0.21 1.148 0.105 2.3 0.049 3.446-0.022 0.405-0.025 0.51 0.062 0.527 0.444 0.063 1.484-0.13 2.934-0.522 4.36-0.634 2.309-1.721 4.419-2.844 6.518-0.843 1.574-1.685 3.159-1.788 5.003-0.021 0.38-0.223 0.488-0.592 0.447-0.529-0.061-1.054-0.182-1.594-0.135-0.7 0.062-1.385-0.066-2.068-0.196-0.785-0.148-1.573-0.289-2.351-0.469-2.329-0.538-4.555-1.334-6.611-2.582" fill="#d49fc2"/></g><g transform="translate(209.01 731.92)"><path d="m0 0c0-1.071 0.094-2.132 0.158-3.198 0.093-1.556 0.366-3.073 0.885-4.538 0.42-1.187 0.809-1.353 2.068-1.115 1.185 0.225 2.322 0.585 3.448 1.012 0.845 0.322 1.717 0.585 2.641 0.585 0.372 0 0.844-0.109 1.088 0.074 0.289 0.217 0.191 0.735 0.241 1.122 0.358 2.771 1.18 5.351 2.863 7.637 1.051 1.426 2.161 2.782 3.464 3.984 0.467 0.431 0.807 0.282 1.069-0.185 0.233-0.414 0.544-0.785 0.881-1.259 0.433 0.461 0.541 0.976 0.836 1.385 0.625 0.87 1.315 1.682 2.027 2.48 0.48 0.537 0.465 0.548-0.117 1.019-1.688 1.363-3.621 2.24-5.676 2.884-2.096 0.657-4.281 0.897-6.405 1.419-1.116 0.275-2.218 0.588-3.183 1.238-0.616 0.414-0.522 0.374-0.974-0.221-1.216-1.6-2.228-3.322-3.087-5.139-1.376-2.91-2.228-5.939-2.227-9.184" fill="#f097d0"/></g><g transform="translate(197.25 721.99)"><path d="m0 0c0.294 0.231 0.588 0.463 0.867 0.711 1.357 1.211 2.749 2.378 4.267 3.383 1.82 1.206 3.778 2.102 5.933 2.517 0.369 0.071 0.536 0.223 0.451 0.578-0.246 1.032-0.146 2.079-0.139 3.119 0.014 2.21 0.46 4.343 1.188 6.427 0.459 1.317 1.091 2.551 1.674 3.81 0.234 0.505 0.222 0.508-0.285 0.773-1.427 0.744-2.955 1.062-4.553 1.088-2.192 0.037-4.376-0.098-6.563-0.252-2.405-0.169-4.725 0.345-6.989 1.132-0.277 0.096-0.55 0.203-0.717 0.266-0.34 0.04-0.389-0.142-0.431-0.284-0.211-0.717-0.513-1.412-0.59-2.162-0.103-1.008-0.255-2.011-0.375-3.016-0.254-2.125-0.06-4.218 0.3-6.294 0.383-2.209 1.009-4.356 1.875-6.442 0.801-1.927 1.961-3.61 3.186-5.265 0.337-0.454 0.451-0.442 0.901-0.089" fill="#f46fe0"/></g><g transform="translate(202.59 704.86)"><path d="m0 0c1.151-0.824 2.3-1.659 3.569-2.296 0.928-0.465 1.859-0.935 2.899-1.134 0.37-0.071 0.633 0.024 0.84 0.302 0.176 0.236 0.328 0.489 0.479 0.741 0.663 1.11 1.068 2.326 1.487 3.541 0.366 1.06 0.757 2.126 1.634 2.901 0.312 0.276 0.229 0.434-0.052 0.684-1.715 1.532-3.092 3.324-4.008 5.443-0.985 2.277-1.466 4.683-1.721 7.137-0.07 0.683 0.219 0.936 0.911 0.825 0.473-0.076 0.937-0.169 1.476-0.032-0.194 0.495-0.397 0.953-0.553 1.427-0.333 1.017-0.524 2.066-0.684 3.125-0.114 0.753-0.148 0.739-0.865 0.585-2.208-0.473-4.15-1.511-5.996-2.77-1.684-1.148-3.122-2.595-4.724-3.842-0.994-0.774-2.01-1.499-3.218-1.912-0.577-0.198-0.579-0.215-0.414-0.77 0.543-1.814 1.138-3.604 1.951-5.327 1.63-3.454 3.87-6.394 6.989-8.628" fill="#bec5e2"/></g></g></g></g></svg>
