<?xml version="1.0" encoding="UTF-8"?>
<svg width="197.7mm" height="196.53mm" version="1.1" viewBox="0 0 197.7 196.53" xmlns="http://www.w3.org/2000/svg" xmlns:cc="http://creativecommons.org/ns#" xmlns:dc="http://purl.org/dc/elements/1.1/" xmlns:rdf="http://www.w3.org/1999/02/22-rdf-syntax-ns#">
 <metadata>
  <rdf:RDF>
   <cc:Work rdf:about="">
    <dc:format>image/svg+xml</dc:format>
    <dc:type rdf:resource="http://purl.org/dc/dcmitype/StillImage"/>
    <dc:title/>
   </cc:Work>
  </rdf:RDF>
 </metadata>
 <g transform="translate(-7.4203 -48.422)">
  <g transform="matrix(1.8317 0 0 -1.8317 97.879 192.97)">
   <path d="m0 0c2.695 3.567 3.251 7.567 1.954 11.758-0.971 3.135-1.47 6.255-1.111 9.532-1.029-2.034-1.171-4.221-1.084-6.422 0.104-2.675 0.467-5.383-0.475-7.96-0.801-2.189-0.476-4.251 0.227-6.339 0.078-0.233 0.024-0.594 0.489-0.569" fill="#ef7c64"/>
  </g>
  <g transform="matrix(1.8317 0 0 -1.8317 151.85 160.37)">
   <path d="m0 0c-1.896 1.711-3.752 2.854-5.952 3.345-2.19 0.49-4.383 0.396-6.581-0.047-2.961-0.596-5.927-0.798-9.069 0.286 0.292-0.536 0.663-0.665 0.993-0.796 1.856-0.737 3.777-1.267 5.782-1.228 3.001 0.059 5.88-0.411 8.608-1.679 2.034-0.946 3.977-0.227 6.219 0.119" fill="#df808a"/>
  </g>
  <g transform="matrix(1.8317 0 0 -1.8317 153.6 150.57)">
   <path d="m0 0c-4.118 2.514-8.234 2.609-12.433 0.792-2.091-0.905-4.214-1.575-6.491-1.846-0.929-0.111-1.84 0.02-2.856-0.016 0.392-0.334 0.725-0.442 1.1-0.517 2.304-0.467 4.606-0.344 6.87 0.153 2.197 0.483 4.366 0.592 6.585 0.219 1.035-0.174 2.074-0.555 3.149-0.262 1.333 0.363 2.661 0.748 4.076 1.477" fill="#f55876"/>
  </g>
  <g transform="matrix(1.8317 0 0 -1.8317 173.96 129.22)">
   <path d="m0 0c2.902 1.193 6.082 3.547 6.612 5.138-1.32 0.242-2.597 0.593-3.953 0.668-1.764 0.097-3.385-0.372-5.009-0.922-2.973-1.007-5.558-2.636-7.851-4.825 2.248-0.934 7.589-1.133 10.201-0.059" fill="#dd6056"/>
  </g>
  <g transform="matrix(1.8317 0 0 -1.8317 179.13 106.8)">
   <path d="m0 0c-2.681-4.015-6.193-6.807-11.164-7.366-1.51-0.17-3.021-0.335-4.534-0.473-0.433-0.04-0.817-0.09-1.076-0.491-0.844-1.306-1.697-2.607-2.658-4.079 1.512 0 2.804 0.022 4.095-0.01 0.64-0.016 1.117 0.171 1.608 0.609 1.48 1.323 2.999 2.616 4.783 3.523 2.852 1.45 5.751 2.753 9.075 2.552 1.297-0.078 2.543-0.427 3.802-0.699 0.472-0.102 0.794-0.065 1.074 0.337 1.392 1.999 2.787 3.996 4.465 5.907-0.511 0.126-0.863 0.273-1.222 0.292-1.858 0.103-3.636 0.611-5.426 1.046-1.818 0.442-1.768 0.43-2.822-1.148" fill="#f98a74"/>
  </g>
  <g transform="matrix(1.8317 0 0 -1.8317 142.01 176.82)">
   <path d="m0 0c-1.866 4.137-5.126 6.554-9.486 7.502-2.929 0.636-5.669 1.622-8.007 3.552-0.107 0.089-0.224 0.148-0.558 0.016 1.666-1.981 3.625-3.427 5.888-4.401 2.551-1.099 4.746-2.631 6.59-4.701 1.473-1.654 3.521-1.945 5.547-2.397 0.018 0.251 0.059 0.357 0.026 0.429" fill="#ef7690"/>
  </g>
  <g transform="matrix(1.8317 0 0 -1.8317 124.1 187.84)">
   <path d="m0 0c0.417-0.311 0.742-0.808 1.34-0.791 0.265 0.524-0.025 0.962-0.044 1.414-0.162 3.935-2.067 6.997-5.104 9.263-2.639 1.97-4.908 4.181-6.55 7.202-0.269-0.546-0.015-0.878 0.11-1.203 0.785-2.049 1.879-3.935 3.387-5.519 1.66-1.744 2.924-3.715 3.645-5.985 0.589-1.857 1.699-3.249 3.216-4.381" fill="#e19464"/>
  </g>
  <g transform="matrix(1.8317 0 0 -1.8317 116.99 192.82)">
   <path d="m0 0c0.093 0.04 0.187 0.08 0.28 0.12 0.058 0.548 0.09 1.101 0.179 1.644 0.248 1.52 0.114 3.055-0.246 4.499-0.553 2.211-1.716 4.161-3.283 5.853-0.846 0.913-1.593 1.904-2.269 2.957-0.999 1.556-1.718 3.228-2.244 5.036-0.208-0.22-0.195-0.405-0.186-0.588 0.015-0.276 4e-3 -0.558 0.056-0.828 0.43-2.238 1.178-4.361 2.36-6.317 1.238-2.049 2.015-4.274 2.192-6.64 0.186-2.472 1.785-4.015 3.161-5.736" fill="#f97c6e"/>
  </g>
  <g transform="matrix(1.8317 0 0 -1.8317 147.63 168.97)">
   <path d="m0 0c-1.501 1.984-3.277 3.674-5.69 4.547-1.788 0.647-3.639 1.045-5.561 0.97-2.338-0.091-4.592 0.342-6.787 1.107-0.631 0.22-1.235 0.517-1.98 0.834 0.224-0.579 0.594-0.762 0.931-0.965 1.909-1.153 3.922-2.054 6.126-2.477 2.298-0.44 4.491-1.218 6.315-2.678 1.721-1.376 3.685-1.567 5.718-1.681 0.297-0.017 0.658-0.111 0.928 0.343" fill="#ef908e"/>
  </g>
  <g transform="matrix(1.8317 0 0 -1.8317 127.23 180.08)">
   <path d="m0 0c1.253-0.956 2.608-1.714 4.281-2.396-0.861 4.675-3.434 7.74-7.352 9.584-3.002 1.414-5.764 3.051-8.003 5.862 0.048-0.768 0.344-1.166 0.621-1.573 1.182-1.735 2.575-3.289 4.313-4.461 2.321-1.564 4.029-3.636 5.426-6.013 0.206-0.351 0.361-0.733 0.714-1.003" fill="#fd5856"/>
  </g>
  <g transform="matrix(1.8317 0 0 -1.8317 179.15 103.97)">
   <path d="m0 0c-2.414 0.125-4.637 0.226-6.712-0.792-1.411-0.693-2.767-1.49-4.03-2.434-1.933-1.443-3.574-3.158-5.05-5.412 4.266 0.234 8.229 0.525 11.457 3.302 1.728 1.488 3.352 3.077 4.335 5.336" fill="#ff9490"/>
  </g>
  <g transform="matrix(1.8317 0 0 -1.8317 142.09 139.22)">
   <path d="m0 0c-2.244-0.336-4.338-1.22-6.194-2.602-2.322-1.729-4.85-3.034-7.727-3.573-0.181-0.034-0.364-0.073-0.536-0.136-0.125-0.045-0.353 0.026-0.335-0.317 2.599-0.11 5.036 0.506 7.421 1.432 0.643 0.25 1.238 0.594 1.893 0.833 1.943 0.71 3.955 0.834 5.988 0.914 2.186 0.087 3.801 1.372 5.664 2.643-2.158 0.856-4.181 1.104-6.174 0.806" fill="#f5865c"/>
  </g>
  <g transform="matrix(1.8317 0 0 -1.8317 116.31 73.434)">
   <path d="m0 0c-0.937-3.03-1.379-6.125-0.956-9.283 0.123-0.915 0.068-1.917 0.679-2.872 1.002 1.197 1.922 2.33 2.714 3.564 0.95 1.48 1.761 3.014 2.13 4.765 0.597 2.828 0.324 5.593-0.479 8.329-0.185 0.63-0.401 0.691-0.821 0.236-1.313-1.422-2.674-2.821-3.267-4.739" fill="#d76466"/>
  </g>
  <g transform="matrix(1.8317 0 0 -1.8317 126.5 73.682)">
   <path d="m0 0c0.194-3.612-0.963-6.813-3.122-9.679-0.724-0.96-1.447-1.92-2.163-2.886-0.216-0.291-0.532-0.566-0.428-0.979 0.407-1.621 0.834-3.237 1.279-4.951 1.04 1.171 1.976 2.24 2.93 3.293 0.343 0.379 0.326 0.825 0.382 1.287 0.207 1.694 0.104 3.412 0.463 5.096 0.641 3.011 1.64 5.865 3.482 8.372 0.952 1.295 2.255 2.2 3.573 3.041 0.83 0.53 0.949 1.078 0.726 1.951-0.546 2.145-1.125 4.29-1.171 6.903-2.089-2.027-4.247-3.432-6.367-4.885-0.611-0.418-0.685-0.869-0.444-1.533 0.587-1.62 0.768-3.327 0.86-5.03" fill="#fd6492"/>
  </g>
  <g transform="matrix(1.8317 0 0 -1.8317 109.52 66.807)">
   <path d="m0 0c0.952-2.685 1.573-5.412 1.026-8.277-0.411-2.15-1.184-4.188-2.254-6.082-0.801-1.418-1.024-2.681 0.034-4.067 0.437-0.574 0.632-1.331 0.958-1.994 0.133-0.271 0.125-0.664 0.632-0.75 0.484 1.218 1.267 2.293 1.913 3.449 0.313 0.56 0.412 1.054 0.272 1.692-0.66 2.999-0.871 6.014-0.382 9.078 0.486 3.044 1.493 5.789 3.751 8.002 1.341 1.314 1.293 1.362 0.476 3.138-0.096 0.21-0.17 0.431-0.272 0.638-0.791 1.61-1.388 3.303-2.1 5.21-1.316-2.194-2.993-3.776-4.582-5.438-0.191-0.199-0.336-0.442-0.531-0.636-0.459-0.458-0.503-0.894-0.144-1.472 0.486-0.782 0.892-1.615 1.203-2.491" fill="#d3586e"/>
  </g>
  <g transform="matrix(1.8317 0 0 -1.8317 169.5 91.795)">
   <path d="m0 0c-1.908-5.089-5.172-8.79-10.585-10.286-1.11-0.307-2.196-0.7-3.294-1.052-0.353-0.113-0.751-0.197-0.892-0.585-0.556-1.536-1.146-3.059-1.738-4.645 1.273 0.47 2.559 0.571 3.813 0.822 0.778 0.155 1.305 0.528 1.766 1.174 2.235 3.137 5.031 5.643 8.479 7.405 1.634 0.834 3.331 1.343 5.179 1.301 0.786-0.018 1.574 0.017 2.36-7e-3 0.475-0.014 0.792 0.151 0.972 0.598 0.909 2.259 1.843 4.508 3.109 6.597-0.394 0.246-0.719 0.152-1.021 0.09-1.37-0.285-2.757-0.223-4.14-0.207-0.688 9e-3 -1.375 0.152-2.063 0.17-1.432 0.035-1.438-0.023-1.945-1.375" fill="#f9647c"/>
  </g>
  <g transform="matrix(1.8317 0 0 -1.8317 100.77 73.316)">
   <path d="m0 0c-0.111-2.59-0.091-5.182 0.611-7.71 0.378-1.361 0.863-2.683 1.548-4.045 3.822 5.932 4.198 11.776 0.5 17.935-0.753-1.264-1.453-2.33-1.949-3.518-0.357-0.856-0.671-1.747-0.71-2.662" fill="#f57a74"/>
  </g>
  <g transform="matrix(1.8317 0 0 -1.8317 139.08 69.834)">
   <path d="m0 0c-1.848-1.251-3.597-2.605-4.632-4.67-1.744-3.478-2.711-7.136-2.55-11.312 0.887 0.738 1.631 1.337 2.354 1.961 2.653 2.292 4.68 4.974 5.268 8.542 0.27 1.644 0.472 3.295 0.339 4.965-0.05 0.633-0.334 0.815-0.779 0.514" fill="#db5a8c"/>
  </g>
  <g transform="matrix(1.8317 0 0 -1.8317 162.51 101.48)">
   <path d="m0 0c1.518 1.863 2.767 3.884 3.427 6.512-1.056-0.235-1.81-0.442-2.577-0.565-1.601-0.257-2.994-0.982-4.227-1.967-2.897-2.315-5.175-5.136-6.66-8.561-0.085-0.194-0.238-0.411 0.048-0.628 3.72 0.969 7.407 2.042 9.989 5.209" fill="#db8c7a"/>
  </g>
  <g transform="matrix(1.8317 0 0 -1.8317 131.52 96.001)">
   <path d="m0 0c-0.892-0.732-1.74-1.518-2.594-2.294-0.232-0.211-0.563-0.416-0.517-0.779 0.207-1.634 0.165-3.281 0.334-4.989 0.783 0.766 1.663 1.277 2.514 1.817 1.02 0.648 1.739 1.442 1.869 2.714 0.066 0.635 0.291 1.259 0.496 1.871 1.754 5.249 4.299 9.841 9.914 11.867 0.087 0.031 0.167 0.079 0.25 0.119 1.022 0.487 1.152 0.617 0.975 1.672-0.193 1.152-0.066 2.282-0.039 3.428 0.026 1.06 0.233 2.144-3e-3 3.351-2.205-1.369-4.488-2.234-6.735-3.181-0.17-0.071-0.334-0.158-0.501-0.237-0.436-0.208-0.576-0.535-0.487-1.017 0.257-1.376 0.104-2.745-0.026-4.129-0.396-4.178-2.218-7.559-5.45-10.213" fill="#e55a82"/>
  </g>
  <g transform="matrix(1.8317 0 0 -1.8317 140.01 103.25)">
   <path d="m0 0c-0.731-0.395-1.45-0.813-2.177-1.215-0.481-0.266-0.689-0.64-0.762-1.214-0.158-1.231-0.28-2.477-0.671-3.67-0.07-0.213-0.084-0.456 0.156-0.729 1.236 0.742 2.631 1.206 3.952 1.838 0.526 0.252 0.685 0.719 0.905 1.169 0.851 1.742 1.647 3.525 2.891 5.033 1.826 2.212 3.729 4.345 6.383 5.637 1.355 0.659 2.819 0.859 4.262 1.143 0.795 0.157 1.132 0.529 1.271 1.345 0.295 1.726 0.733 3.428 1.106 5.141 0.111 0.512 0.464 0.978 0.393 1.639-1.548-0.47-2.99-0.927-4.486-1.176-1.046-0.174-2.081-0.41-3.124-0.602-0.688-0.128-0.944-0.473-0.994-1.218-0.167-2.528-1.048-4.856-2.261-7.061-1.558-2.832-4.091-4.572-6.844-6.06" fill="#f37478"/>
  </g>
  <g transform="matrix(1.8317 0 0 -1.8317 152.16 90.239)">
   <path d="m0 0c1.359 2.772 1.957 5.194 1.543 6.58-2.036-0.691-3.994-1.546-5.419-3.202-2.665-3.097-4.524-6.615-5.245-10.982 3.772 1.884 7.243 3.774 9.121 7.604" fill="#f55866"/>
  </g>
  <g transform="matrix(1.8317 0 0 -1.8317 140.44 114.15)">
   <path d="m0 0c-0.656-0.257-1.269-0.434-1.823-0.725-1.552-0.816-3.101-1.673-4.214-3.072-1.299-1.633-2.288-3.448-2.892-5.463-0.67-2.237-1.8-4.238-3.221-6.077-0.393-0.508-0.859-0.96-1.446-1.608 0.671 0.167 1.004 0.415 1.315 0.677 1.669 1.409 3.153 2.998 4.192 4.925 1.162 2.152 2.638 4.044 4.65 5.397 1.65 1.11 2.452 2.693 3.123 4.419 0.172 0.442 0.482 0.891 0.316 1.527" fill="#f19686"/>
  </g>
  <g transform="matrix(1.8317 0 0 -1.8317 96.673 91.773)">
   <path d="m0 0c-0.214-0.755-0.354-1.531-0.551-2.291-0.224-0.864-0.096-1.594 0.557-2.271 0.736-0.763 1.394-1.602 1.956-2.511 0.158-0.255 0.295-0.598 0.791-0.568 0.09 1.285 0.633 2.456 1.04 3.665 0.235 0.7 0.205 1.31-0.078 2.002-0.575 1.408-1.175 2.807-1.564 4.29-0.676 2.585-0.744 5.216-0.587 7.844 0.133 2.231 1.298 4.117 2.438 5.973 0.289 0.469 0.469 0.85 0.075 1.37-1.47 1.937-2.927 3.885-4.233 6.1-0.612-1.146-0.988-2.242-1.603-3.217-0.716-1.133-1.41-2.28-2.072-3.445-0.56-0.983-0.526-0.991 0.221-1.887 3.687-4.421 5.229-9.356 3.61-15.054" fill="#d7566a"/>
  </g>
  <g transform="matrix(1.8317 0 0 -1.8317 130 138.56)">
   <path d="m0 0c-2.273-2.491-4.764-4.598-8.043-5.695 0.128-0.084 0.199-0.17 0.267-0.168 0.275 0.012 0.559 0.015 0.823 0.085 2.207 0.581 4.318 1.419 6.141 2.801 2.138 1.62 4.464 2.758 7.096 3.276 2.234 0.439 3.603 2.052 5.281 3.819-1.139 0.082-1.921 0.221-2.693 0.179-3.549-0.189-6.517-1.716-8.872-4.297" fill="#ff5888"/>
  </g>
  <g transform="matrix(1.8317 0 0 -1.8317 120.63 126.5)">
   <path d="m0 0c-0.325-2.687-0.922-5.257-2.187-7.66-0.129-0.245-0.46-0.493-0.178-0.847 0.433 0.151 0.637 0.528 0.88 0.86 1.152 1.576 2.102 3.268 2.649 5.145 0.766 2.627 2.151 4.879 3.966 6.892 0.402 0.446 0.763 0.903 0.942 1.498 0.426 1.409 0.721 2.838 0.817 4.34-4.22-2.198-6.326-5.569-6.889-10.228" fill="#f37e84"/>
  </g>
  <g transform="matrix(1.8317 0 0 -1.8317 114.6 100.48)">
   <path d="m0 0c-1.312-1.835-2.27-3.844-2.533-6.065-0.262-2.216 0.056-4.425 0.819-6.548 0.792-2.204 1.012-4.491 1.01-6.817 0-0.588-0.421-1.154-0.08-1.767 0.322 0.25 0.402 0.62 0.495 0.962 0.592 2.166 0.765 4.391 0.487 6.597-0.282 2.248-0.225 4.467 0.493 6.57 0.748 2.19 0.512 4.25-0.13 6.353-0.086 0.284-0.101 0.642-0.561 0.715" fill="#d99684"/>
  </g>
  <g transform="matrix(1.8317 0 0 -1.8317 123.85 103.45)">
   <path d="m0 0c-0.113-0.078-0.213-0.177-0.313-0.272-3.258-3.096-4.367-6.948-3.9-11.313 0.168-1.568 0.176-3.116 8e-3 -4.679-0.158-1.455-0.538-2.853-1.118-4.407 0.677 0.354 0.845 0.848 1.042 1.275 0.912 1.976 1.571 4.03 1.741 6.216 0.17 2.189 0.648 4.341 1.814 6.18 1.422 2.241 1.415 4.583 1.133 7.144-0.241-0.083-0.336-0.095-0.407-0.144" fill="#db5672"/>
  </g>
  <g transform="matrix(1.8317 0 0 -1.8317 186.95 121.7)">
   <path d="m0 0c-0.974-1.119-2.127-2.052-3.356-2.888-2.586-1.759-5.382-2.785-8.568-2.687-1.393 0.043-2.774 0.164-4.126 0.427-1.532 0.299-2.791 0.165-3.796-1.198-0.486-0.659-1.194-1.152-1.794-1.73-0.188-0.181-0.479-0.313-0.389-0.769 1.298-0.039 2.567-0.414 3.852-0.708 0.674-0.154 1.233-0.025 1.834 0.311 1.652 0.924 3.319 1.833 5.158 2.349 4.229 1.185 8.432 1.74 12.509-0.555 0.16-0.09 0.359-0.114 0.511-0.212 0.582-0.373 1.004-0.174 1.463 0.272 0.928 0.9 1.947 1.706 2.855 2.625 0.739 0.749 1.703 1.23 2.491 2.1-1.687 0.528-3.22 1.135-4.712 1.845-0.793 0.377-1.605 0.716-2.382 1.122-0.627 0.327-1.062 0.257-1.55-0.304" fill="#e17e80"/>
  </g>
  <g transform="matrix(1.8317 0 0 -1.8317 107.29 194.31)">
   <path d="m0 0c1.205 2.326 1.612 4.572 1.426 6.866-0.149 1.837-0.688 3.661-1.655 5.242-1.715 2.806-2.812 5.787-3.186 9.105-0.464-2.467-0.307-4.947 0.547-7.318 0.882-2.449 1.177-4.964 0.899-7.495-0.264-2.407 0.869-4.225 1.969-6.4" fill="#d79894"/>
  </g>
  <g transform="matrix(1.8317 0 0 -1.8317 85.886 103.73)">
   <path d="m0 0c-0.096-2.494 0.346-4.564 1.322-6.448 1.051-2.027 2.621-3.669 4.51-4.986 1.101-0.767 2.093-1.654 3.014-2.64 1.071-1.149 1.931-2.443 2.784-3.78 0.255 0.383 0.09 0.67-0.028 0.972-0.785 1.997-1.831 3.856-3.31 5.399-1.766 1.841-3.067 3.943-3.814 6.35-0.709 2.285-2.432 3.582-4.478 5.133" fill="#fd8698"/>
  </g>
  <g transform="matrix(1.8317 0 0 -1.8317 135.37 125.71)">
   <path d="m0 0c-1.876-1.224-3.326-2.917-4.425-4.887-0.587-1.051-1.267-2.034-2.029-2.972-1.199-1.475-2.612-2.698-4.213-3.752 0.353-0.231 0.599-0.019 0.835 0.087 2.048 0.922 3.898 2.181 5.35 3.869 1.755 2.041 3.762 3.695 6.222 4.738 2.216 0.94 3.249 2.857 4.54 4.9-2.446-0.092-4.472-0.803-6.28-1.983" fill="#fd8066"/>
  </g>
  <g transform="matrix(1.8317 0 0 -1.8317 95.045 111.98)">
   <path d="m0 0c0.597-2.256 1.745-4.257 3.351-5.983 0.848-0.912 1.585-1.911 2.268-2.962 0.878-1.352 1.459-2.839 2.122-4.442 0.332 0.583 0.203 1.041 0.105 1.46-0.456 1.939-1.088 3.823-2.127 5.531-1.244 2.046-2.038 4.24-2.274 6.614-0.161 1.618-0.72 3.036-1.793 4.247-0.488 0.55-0.811 1.278-1.694 1.713 0.062-0.68-0.123-1.156-0.185-1.653-0.188-1.521-0.16-3.064 0.227-4.525" fill="#fd7a6e"/>
  </g>
  <g transform="matrix(1.8317 0 0 -1.8317 105.19 99.272)">
   <path d="m0 0c-1.13-1.937-1.484-3.93-1.478-5.874 8e-3 -2.364 0.763-4.639 2.005-6.7 1.378-2.285 2.332-4.716 2.608-7.389 0.032-0.303 0.016-0.666 0.551-0.661 0.204 2.481-0.111 4.899-0.928 7.225-0.799 2.275-1.138 4.625-0.805 6.96 0.357 2.5-0.87 4.319-1.953 6.439" fill="#f56684"/>
  </g>
  <g transform="matrix(1.8317 0 0 -1.8317 82.887 162.35)">
   <path d="m0 0c0.771 0.991 1.323 2.111 2.011 3.146 1.467 2.204 3.259 4.1 5.598 5.517-0.494 0.235-0.825-0.045-1.118-0.189-1.961-0.964-3.707-2.231-5.212-3.827-0.537-0.569-1.006-1.192-1.592-1.728-1.486-1.357-3.178-2.372-4.994-3.198-2.032-0.923-2.89-2.81-4.15-4.728 4.086 0.371 7.126 2.008 9.457 5.007" fill="#f77c7a"/>
  </g>
  <g transform="matrix(1.8317 0 0 -1.8317 75.191 152.99)">
   <path d="m0 0c1.245 0.503 2.451 1.058 3.533 1.869 1.936 1.45 4.043 2.582 6.371 3.269 0.789 0.232 1.594 0.407 2.391 0.608-2.759 0.306-5.338-0.313-7.81-1.408-2.044-0.906-4.135-1.56-6.395-1.514-2.619 0.053-4.758-1.04-6.864-2.812 3.102-0.949 5.936-1.16 8.774-0.012" fill="#fb7080"/>
  </g>
  <g transform="matrix(1.8317 0 0 -1.8317 61.487 162.34)">
   <path d="m0 0c2.268-0.504 4.313-0.245 6.242 0.47 2.187 0.809 4.05 2.178 5.591 3.968 0.722 0.839 1.525 1.603 2.392 2.308 1.585 1.287 3.292 2.342 5.332 2.982-0.196 0.105-0.271 0.18-0.344 0.178-0.229-9e-3 -0.463-0.022-0.684-0.077-2.309-0.578-4.485-1.475-6.388-2.916-2.061-1.561-4.316-2.662-6.854-3.156-2.288-0.445-3.702-2.058-5.287-3.757" fill="#fd8282"/>
  </g>
  <g transform="matrix(1.8317 0 0 -1.8317 95.221 180.5)">
   <path d="m0 0c0.783 2.018 0.762 4.166 0.607 6.294-0.16 2.21-0.197 4.409 0.311 6.581 0.185 0.789 0.451 1.56 0.69 2.372-0.359-0.027-0.453-0.245-0.556-0.429-1.068-1.915-1.777-3.967-2.003-6.138-0.296-2.838-0.959-5.53-2.473-7.982-0.31-0.502-0.526-1.058-0.616-1.669-0.208-1.424-0.236-2.834 0.178-4.449 1.9 1.496 3.061 3.355 3.862 5.42" fill="#e97462"/>
  </g>
  <g transform="matrix(1.8317 0 0 -1.8317 79.958 185.52)">
   <path d="m0 0c3.141 1.901 5.31 4.518 6.157 8.17 0.325 1.403 0.364 2.839 0.653 4.238 0.493 2.389 1.296 4.665 2.635 6.752-0.526-0.326-0.946-0.722-1.305-1.198-1.263-1.677-2.274-3.497-2.86-5.508-0.702-2.407-1.887-4.547-3.58-6.34-1.677-1.775-1.74-3.95-2.105-6.119 0.23 0 0.34-0.035 0.405 5e-3" fill="#e9585c"/>
  </g>
  <g transform="matrix(1.8317 0 0 -1.8317 72.22 179.25)">
   <path d="m0 0c4.349 1.339 7.202 4.282 8.613 8.508 0.985 2.95 2.337 5.619 4.512 7.998-0.546 0.143-0.762-0.159-0.984-0.35-1.626-1.392-3.094-2.938-4.112-4.834-1.251-2.33-2.929-4.276-5.084-5.777-1.939-1.351-2.422-3.446-3.2-5.41 0.181-0.098 0.226-0.144 0.255-0.135" fill="#f3766c"/>
  </g>
  <g transform="matrix(1.8317 0 0 -1.8317 76.771 125.23)">
   <path d="m0 0c1.827-1.504 3.996-2.451 6.356-2.897 1.132-0.214 2.225-0.558 3.308-0.971 1.684-0.642 3.213-1.539 4.737-2.516-1.409 1.972-3.316 3.374-5.477 4.308-2.686 1.159-4.949 2.781-6.92 4.928-1.428 1.556-3.45 1.841-5.631 2.286 0.914-2.165 2.068-3.855 3.627-5.138" fill="#e57058"/>
  </g>
  <g transform="matrix(1.8317 0 0 -1.8317 72.886 146.63)">
   <path d="m0 0c1.89 0.169 3.698 0.697 5.443 1.504 1.807 0.836 3.723 1.333 5.727 1.551 1.013 0.11 2.002 0.031 3.131-0.033-0.463 0.399-0.88 0.503-1.323 0.589-2.309 0.449-4.612 0.336-6.88-0.186-2.154-0.496-4.286-0.547-6.461-0.201-0.95 0.151-1.893 0.527-2.879 0.317-1.477-0.314-2.912-0.755-4.387-1.544 2.448-1.429 4.919-2.239 7.629-1.997" fill="#f1828e"/>
  </g>
  <g transform="matrix(1.8317 0 0 -1.8317 84.905 113.13)">
   <path d="m0 0c-1.199 0.87-2.472 1.601-4.167 2.264 0.644-2.507 1.439-4.619 3.05-6.356 1.498-1.616 3.279-2.803 5.297-3.68 2.265-0.985 4.273-2.361 6.006-4.137 0.356-0.364 0.542-0.909 1.176-1.238-0.139 0.671-0.414 1.083-0.696 1.496-1.183 1.732-2.575 3.282-4.306 4.461-2.306 1.572-4.046 3.618-5.427 6.008-0.253 0.438-0.506 0.872-0.933 1.182" fill="#e99662"/>
  </g>
  <g transform="matrix(1.8317 0 0 -1.8317 64.946 124.24)">
   <path d="m0 0c1.472-2.068 3.173-3.798 5.551-4.671 1.788-0.656 3.635-1.045 5.563-1.012 0.919 0.016 1.835 0.03 2.764-0.115 2.145-0.335 4.22-0.844 6.297-2.004-0.226 0.663-0.665 0.868-1.021 1.086-1.903 1.166-3.915 2.103-6.122 2.521-2.546 0.481-4.86 1.468-6.927 3.022-1.83 1.377-3.942 1.272-6.105 1.173" fill="#f39278"/>
  </g>
  <g transform="matrix(1.8317 0 0 -1.8317 60.667 133.13)">
   <path d="m0 0c3.555-3.248 7.424-4.309 11.81-3.438 2.405 0.477 4.805 0.818 7.252 0.448 0.807-0.122 1.605-0.305 2.461-0.471-0.255 0.454-0.67 0.589-1.037 0.727-1.866 0.699-3.785 1.231-5.792 1.182-2.956-0.073-5.784 0.415-8.469 1.664-2.029 0.944-3.978 0.246-6.225-0.112" fill="#d5888a"/>
  </g>
  <g transform="matrix(1.8317 0 0 -1.8317 178.11 133.61)">
   <path d="m0 0c-2.63-0.177-5.239-0.562-7.694-1.599-1.173-0.495-2.345-1.008-3.451-1.788 6.223-3.043 11.949-3.128 17.773 1.365-1.04 0.643-2.082 1.014-3.105 1.421-1.129 0.45-2.33 0.682-3.523 0.601" fill="#ed6260"/>
  </g>
  <g transform="matrix(1.8317 0 0 -1.8317 126.76 216.5)">
   <path d="m0 0c-0.428 2.552-1.103 5.042-2.356 7.335-0.609 1.113-1.317 2.159-2.16 3.241-2.554-6.829-1.211-13.926 3.276-17.521 0.938 2.247 1.649 4.506 1.24 6.945" fill="#fd8e78"/>
  </g>
  <g transform="matrix(1.8317 0 0 -1.8317 117.93 222.56)">
   <path d="m0 0c-1.501 2.856-2.16 5.843-1.6 9.093 0.29 1.686 0.781 3.32 1.081 5 0.075 0.416 0.171 0.813-0.133 1.184-1.02 1.241-2.043 2.479-3.06 3.778-0.359-1.382-0.863-2.62-1.287-3.88-0.208-0.618-0.161-1.137 0.094-1.722 0.865-1.991 1.661-4.012 1.955-6.183 0.336-2.481 0.421-4.964-0.045-7.442-0.324-1.726-1.311-3.146-2.19-4.605-0.344-0.57-0.356-0.987 0.053-1.491 0.525-0.646 1.022-1.315 1.5-1.996 0.89-1.269 1.757-2.554 2.722-3.961 0.69 1.878 1.661 3.44 2.587 5.026 0.373 0.637 0.751 1.273 1.153 1.893 0.349 0.54 0.337 0.956-0.164 1.443-1.137 1.106-1.934 2.47-2.666 3.863" fill="#f15872"/>
  </g>
  <g transform="matrix(1.8317 0 0 -1.8317 139.2 224.09)">
   <path d="m0 0c-4.386 3.477-6.917 7.862-6.681 13.614 0.046 1.106 5e-3 2.217 6e-3 3.325 1e-3 0.372 3e-3 0.728-0.337 1.001-1.177 0.944-2.343 1.904-3.704 3.015-0.151-1.471-0.184-2.679-0.425-3.844-0.17-0.827 0.062-1.401 0.515-2.037 1.207-1.697 2.343-3.45 3.059-5.418 0.934-2.567 1.734-5.163 1.508-7.964-0.113-1.408-0.552-2.722-1.053-4.007-0.34-0.872-0.22-1.452 0.495-2.042 1.033-0.852 1.953-1.844 3.01-2.662 0.753-0.582 1.173-1.504 2.115-2.011 0.392 2.519 1.316 4.786 2.095 7.098 0.395 1.172 0.355 1.173-0.603 1.932" fill="#fb867c"/>
  </g>
  <g transform="matrix(1.8317 0 0 -1.8317 156.44 214.6)">
   <path d="m0 0c-0.051 1.737-0.145 3.424-0.824 5.004-1.463 3.408-3.896 6.026-6.884 8.146-0.724 0.513-1.411 1.149-2.352 1.366-0.027-6.423 4.608-13.16 10.06-14.516" fill="#f56072"/>
  </g>
  <g transform="matrix(1.8317 0 0 -1.8317 153.38 214.95)">
   <path d="m0 0c-4.638 2.451-7.737 6.081-8.639 11.378-0.186 1.092-0.402 2.178-0.625 3.263-0.093 0.449-0.187 0.922-0.689 1.132-1.447 0.605-2.785 1.426-4.318 2.293 0.184-1.599 0.36-2.918 0.479-4.243 0.057-0.64 0.287-1.085 0.808-1.507 0.787-0.638 1.486-1.394 2.176-2.143 2.196-2.385 3.719-5.175 4.788-8.215 0.711-2.021 0.396-4.105 0.235-6.169-0.095-1.224-0.125-1.232 0.954-1.805 1.756-0.933 3.496-1.889 5.102-3.071 0.206-0.152 0.419-0.392 0.779-0.131-0.058 2.048 0.136 4.118 0.467 6.174 0.337 2.091 0.339 2.063-1.517 3.044" fill="#f95888"/>
  </g>
  <g transform="matrix(1.8317 0 0 -1.8317 133.51 198.19)">
   <path d="m0 0c-0.813 0.914-1.636 1.854-2.801 2.623-0.033-0.743-0.071-1.332-0.082-1.921-0.047-2.36-0.037-4.723 0.808-6.97 1.118-2.976 3.038-5.365 5.567-7.268 0.538-0.405 0.826-0.323 0.876 0.212 0.191 2.06 0.478 4.144-0.261 6.151-0.963 2.616-2.243 5.077-4.107 7.173" fill="#e58068"/>
  </g>
  <g transform="matrix(1.8317 0 0 -1.8317 86.117 221.47)">
   <path d="m0 0c-0.16 2.615 0.024 5.185 1.225 7.581 0.812 1.62 1.768 3.171 2.993 4.493 1.265 1.366 1.711 2.747 0.857 4.47-0.424 0.856-0.221 1.907-0.795 2.864-0.932-1.261-1.93-2.337-2.933-3.407-0.366-0.39-0.313-0.844-0.32-1.3-0.049-2.88-0.403-5.7-1.365-8.442-1.136-3.24-2.843-6.014-5.875-7.812-0.238-0.141-0.449-0.328-0.681-0.479-0.346-0.224-0.516-0.514-0.416-0.935 0.569-2.403 1.1-4.813 1.42-7.411 1.222 1.03 2.263 2.002 3.469 2.769 0.857 0.546 1.672 1.157 2.499 1.749 1.011 0.723 1.025 0.733 0.65 1.917-0.408 1.286-0.646 2.603-0.728 3.943" fill="#e5646c"/>
  </g>
  <g transform="matrix(1.8317 0 0 -1.8317 73.488 223.63)">
   <path d="m0 0c1.851 1.246 3.614 2.602 4.611 4.678 0.959 1.999 1.808 4.046 2.187 6.25 0.27 1.57 0.484 3.147 0.289 4.939-1.406-1.071-2.575-2.145-3.729-3.249-3.499-3.347-4.337-7.581-4.127-12.171 0.03-0.669 0.254-0.794 0.769-0.447" fill="#e55a7a"/>
  </g>
  <g transform="matrix(1.8317 0 0 -1.8317 96.55 219.09)">
   <path d="m0 0c1.003 3.792 1.346 7.606 0.15 11.753-0.815-1.045-1.485-1.907-2.159-2.766-2.633-3.353-3.477-7.17-2.902-11.337 0.132-0.955 0.298-1.914 0.65-2.825 0.158-0.41 0.404-0.517 0.71-0.192 1.494 1.582 2.975 3.189 3.551 5.367" fill="#e1828c"/>
  </g>
  <g transform="matrix(1.8317 0 0 -1.8317 101.67 222.47)">
   <path d="m0 0c-0.622 2.51-0.699 5.008 0.075 7.523 0.479 1.555 1.129 3.026 1.819 4.489 0.256 0.543 0.495 1.094 0.745 1.64 0.181 0.396 0.221 0.75-0.035 1.168-0.795 1.299-1.4 2.7-2.154 4.137-0.545-1.257-1.345-2.332-2.02-3.479-0.385-0.653-0.395-1.271-0.256-1.985 0.529-2.724 0.855-5.441 0.434-8.244-0.501-3.333-1.451-6.39-4.004-8.755-0.268-0.249-0.451-0.588-0.712-0.846-0.363-0.36-0.313-0.705-0.107-1.126 1.049-2.147 2.027-4.326 2.799-6.712 0.881 0.779 1.304 1.78 2.051 2.523 1.114 1.106 2.139 2.3 3.201 3.459 0.381 0.415 0.46 0.795 0.12 1.342-0.932 1.501-1.532 3.155-1.956 4.866" fill="#fd7e76"/>
  </g>
  <g transform="matrix(1.8317 0 0 -1.8317 111.63 212.59)">
   <path d="m0 0c-0.073 2.659-0.918 5.146-2.12 7.693-3.912-6.543-4.18-11.907-0.444-17.936 0.834 1.416 1.703 2.684 2.196 4.183 0.655 1.992 0.423 4.041 0.368 6.06" fill="#ef7e68"/>
  </g>
  <g transform="matrix(1.8317 0 0 -1.8317 190.37 155.1)">
   <path d="m0 0c-1.872 1.799-3.909 3.078-6.404 3.47-3.566 0.559-7.094 0.406-10.539-0.776-0.24-0.083-0.587-9e-3 -0.596-0.387 5.35-4.224 11.098-5.361 17.539-2.307" fill="#dd7c5e"/>
  </g>
  <g transform="matrix(1.8317 0 0 -1.8317 189.46 156.97)">
   <path d="m0 0c-5.328-2.124-10.457-1.947-15.332 1.308-0.806 0.538-1.663 1.003-2.51 1.476-0.309 0.172-0.605 0.364-1.032 0.178-1.462-0.638-2.961-1.186-4.822-1.687 1.485-0.823 2.571-1.66 3.663-2.491 0.512-0.389 1.031-0.513 1.673-0.44 2.672 0.306 5.343 0.341 7.974-0.319 2.106-0.529 4.195-1.093 6.03-2.352 1.244-0.854 2.175-2.01 3.136-3.123 0.569-0.659 1.053-0.708 1.796-0.417 1.72 0.673 3.497 1.184 5.277 1.679 0.413 0.115 0.927-0.043 1.323 0.471-1.921 1.534-3.412 3.411-4.96 5.241-0.876 1.037-0.905 0.999-2.216 0.476" fill="#e3807e"/>
  </g>
  <g transform="matrix(1.8317 0 0 -1.8317 80.985 197.49)">
   <path d="m0 0c0.857 0.7 1.66 1.466 2.496 2.193 0.445 0.388 0.595 0.823 0.587 1.447-0.018 1.469-0.462 2.922-0.163 4.476-1.087-0.922-2.274-1.606-3.381-2.408-0.56-0.406-0.859-0.908-0.996-1.58-0.736-3.626-2.154-6.937-4.432-9.891-1.243-1.611-2.671-2.923-4.544-3.736-0.719-0.312-1.42-0.67-2.145-0.968-0.441-0.182-0.648-0.451-0.643-0.936 0.021-2.43 0.149-4.86-0.176-7.528 1.537 0.978 2.975 1.68 4.448 2.309 0.933 0.398 1.869 0.79 2.807 1.178 0.491 0.202 0.684 0.532 0.634 1.081-0.065 0.735-0.057 1.478-0.056 2.217 3e-3 4.895 1.717 9.005 5.564 12.146" fill="#ef6678"/>
  </g>
  <g transform="matrix(1.8317 0 0 -1.8317 170.18 206.26)">
   <path d="m0 0c-0.055 0.702-0.264 1.148-1.041 1.166-0.178 4e-3 -0.354 0.101-0.532 0.148-5.286 1.373-9.223 4.338-11.286 9.531-0.427 1.073-0.901 2.127-1.362 3.187-0.168 0.387-0.382 0.664-0.876 0.765-1.487 0.307-2.948 0.723-4.51 1.176 0.543-1.214 0.777-2.478 1.168-3.692 0.243-0.755 0.681-1.248 1.354-1.645 1.591-0.94 3.135-1.947 4.493-3.226 3.258-3.071 5.691-6.545 5.808-11.243 0.03-1.22 0.093-1.219 1.24-1.582 1.892-0.599 3.793-1.171 5.626-1.941 0.274-0.115 0.514-0.399 0.891-0.171-0.093 0.829-0.416 1.603-0.482 2.433-0.135 1.7-0.357 3.394-0.491 5.094" fill="#d99098"/>
  </g>
  <g transform="matrix(1.8317 0 0 -1.8317 186.87 172.35)">
   <path d="m0 0c-1.15 1.472-2.208 2.819-3.696 3.69-2.931 1.716-6.149 2.458-9.523 2.557-1.177 0.035-2.356 0.014-3.576-0.244 4.244-5.036 9.139-7.763 16.795-6.003" fill="#ed6a7c"/>
  </g>
  <g transform="matrix(1.8317 0 0 -1.8317 189.5 139.62)">
   <path d="m0 0c-4.558-3.002-9.396-3.934-14.629-1.975-1.038 0.389-2.101 0.708-3.151 1.064-0.406 0.137-0.785 0.205-1.189-0.059-1.309-0.855-2.635-1.686-4.201-2.684 1.517-0.406 2.653-1.004 3.811-1.548 0.666-0.312 1.281-0.338 1.99-0.11 3.372 1.083 6.786 1.64 10.365 1.152 2.158-0.295 4.15-0.814 5.908-2.128 0.773-0.578 1.546-1.429 2.404-1.549 0.952-0.133 1.777 0.851 2.651 1.352 1.433 0.821 2.89 1.595 4.568 2.369-2.277 1.173-4.114 2.615-5.957 4.055-1.237 0.967-1.253 0.929-2.57 0.061" fill="#f36266"/>
  </g>
  <g transform="matrix(1.8317 0 0 -1.8317 186.63 173.81)">
   <path d="m0 0c-2.132-0.474-4.279-0.596-6.455-0.269-2.178 0.326-4.184 1.005-6.023 2.264-1.77 1.213-3.222 2.767-4.807 4.177-0.497 0.441-0.968 0.662-1.623 0.448-0.302-0.1-0.632-0.121-0.951-0.164-1.114-0.151-2.229-0.297-3.528-0.468 0.985-0.991 1.853-1.809 2.56-2.765 0.592-0.8 1.391-1.132 2.359-1.222 1.841-0.17 3.658-0.492 5.397-1.143 2.697-1.008 5.268-2.235 7.304-4.356 1.105-1.151 1.791-2.574 2.563-3.938 0.266-0.47 0.564-0.652 1.101-0.571 2.324 0.35 4.657 0.61 7.139 0.754-0.909 1.341-1.682 2.687-2.429 4.049-0.489 0.89-0.997 1.77-1.488 2.658-0.249 0.45-0.552 0.672-1.119 0.546" fill="#f9987e"/>
  </g>
  <g transform="matrix(1.8317 0 0 -1.8317 178.63 189.93)">
   <path d="m0 0c-0.881-1e-3 -1.745 0.095-2.618 0.22-4.727 0.676-8.378 3.001-10.985 6.998-0.581 0.89-1.223 1.742-1.85 2.602-0.185 0.255-0.354 0.537-0.738 0.568-1.634 0.132-3.274 0.071-5.189 0.388 0.963-1.272 1.566-2.398 2.162-3.527 0.367-0.695 0.885-1.095 1.654-1.34 2.703-0.861 5.217-2.09 7.479-3.853 2.588-2.017 4.652-4.358 5.431-7.642 0.085-0.358 0.263-0.694 0.345-1.052 0.109-0.475 0.353-0.668 0.858-0.709 1.471-0.12 2.933-0.354 4.404-0.448 0.958-0.062 1.866-0.473 2.93-0.4-0.466 1.274-1.056 2.424-1.394 3.67-0.314 1.158-0.68 2.303-1.051 3.445-0.347 1.067-0.363 1.081-1.438 1.08" fill="#ef7a64"/>
  </g>
  <g transform="matrix(1.8317 0 0 -1.8317 159.99 199.66)">
   <path d="m0 0c1.611-0.79 3.208-1.704 5.207-1.667-0.614 2.113-1.134 4.091-2.529 5.661-1.543 1.738-3.321 3.2-5.317 4.4-1.585 0.952-3.282 1.612-5.195 2.198 1.52-4.551 3.504-8.467 7.834-10.592" fill="#d59682"/>
  </g>
  <g transform="matrix(1.8317 0 0 -1.8317 179.44 188.34)">
   <path d="m0 0c-0.419 1.39-1.688 3.471-2.746 4.374-3.482 2.974-7.559 4.477-12.262 4.923 3.238-6.279 8.227-9.772 15.008-9.297" fill="#f1726a"/>
  </g>
  <g transform="matrix(1.8317 0 0 -1.8317 22.18 156.33)">
   <path d="m0 0c1.167-0.502 2.172-0.96 3.196-1.367 1.129-0.45 2.335-0.663 3.528-0.577 2.627 0.188 5.235 0.568 7.684 1.618 1.156 0.496 2.324 0.991 3.417 1.795-6.512 3.109-12.228 2.997-17.825-1.469" fill="#f58c72"/>
  </g>
  <g transform="matrix(1.8317 0 0 -1.8317 33.661 103.58)">
   <path d="m0 0c0.923 0.073 1.834-0.082 2.752-0.213 4.725-0.675 8.363-3.011 10.974-6.992 0.583-0.889 1.219-1.743 1.836-2.609 0.245-0.345 0.511-0.652 0.996-0.652 1.558 3e-3 3.117 0.013 4.749-0.179-0.802 1.119-1.356 2.322-2.011 3.469-0.361 0.631-0.819 1.02-1.547 1.251-1.849 0.585-3.662 1.292-5.309 2.342-2.312 1.472-4.464 3.129-6.047 5.42-0.964 1.397-1.386 3.02-1.885 4.602-0.197 0.623-0.437 0.898-1.127 0.938-1.425 0.083-2.844 0.272-4.262 0.448-0.934 0.116-1.862 0.285-3.001 0.462 0.82-1.585 1.297-3.072 1.774-4.559 0.296-0.924 0.599-1.848 0.837-2.788 0.177-0.7 0.536-0.998 1.271-0.94" fill="#f1725a"/>
  </g>
  <g transform="matrix(1.8317 0 0 -1.8317 32.878 105.16)">
   <path d="m0 0c0.495-1.223 1.154-2.321 1.918-3.348 1.102-1.481 2.644-2.414 4.229-3.295 2.742-1.525 5.676-2.369 8.963-2.636-3.325 6.405-8.335 9.742-15.11 9.279" fill="#d7848c"/>
  </g>
  <g transform="matrix(1.8317 0 0 -1.8317 44.707 90.802)">
   <path d="m0 0c-0.74 0.197-0.978 8e-3 -0.802-0.586 0.605-2.042 1.286-4.075 2.837-5.618 2.782-2.767 5.953-4.931 10.118-6.033-0.566 1.398-1.015 2.592-1.528 3.757-2.059 4.677-5.845 7.21-10.625 8.48" fill="#f77e56"/>
  </g>
  <g transform="matrix(1.8317 0 0 -1.8317 27.012 119.4)">
   <path d="m0 0c0.548 0.084 1.105 0.107 1.658 0.164 3.75 0.383 7.253-0.223 10.388-2.474 1.248-0.896 2.378-1.905 3.471-2.977 1.728-1.696 1.757-1.732 4.104-1.243 0.968 0.201 2.003-4e-3 3.033 0.464-0.763 0.875-1.62 1.521-2.208 2.406-0.662 0.995-1.599 1.419-2.783 1.521-1.798 0.154-3.571 0.497-5.267 1.141-2.694 1.022-5.263 2.255-7.298 4.387-1.007 1.055-1.673 2.332-2.338 3.594-0.392 0.743-0.838 0.976-1.638 0.841-2.006-0.338-4.026-0.568-6.066-0.551-0.22 2e-3 -0.466 0.045-0.761-0.334 1.454-1.88 2.528-3.973 3.661-6.033 0.629-1.143 0.648-1.121 2.044-0.906" fill="#df8c8e"/>
  </g>
  <g transform="matrix(1.8317 0 0 -1.8317 25.854 121.38)">
   <path d="m0 0c1.033-1.373 2.096-2.714 3.589-3.57 4.023-2.304 8.378-2.889 13.106-2.373-3.446 5.197-12.005 8.211-16.695 5.943" fill="#eb7270"/>
  </g>
  <g transform="matrix(1.8317 0 0 -1.8317 79.719 96.07)">
   <path d="m0 0c0.663-0.733 1.402-1.396 2.196-2.18 1.238 7.983-1.829 13.497-6.807 16.419-0.28-1.793-0.625-3.543-0.199-5.337 0.809-3.397 2.482-6.33 4.81-8.902" fill="#db8e86"/>
  </g>
  <g transform="matrix(1.8317 0 0 -1.8317 45.692 89.775)">
   <path d="m0 0c4.525-1.297 8.251-3.626 10.355-8.071 0.692-1.462 1.253-2.977 1.959-4.428 0.154-0.316 0.212-0.739 0.651-0.837 1.601-0.358 3.176-0.821 4.906-1.386-0.337 1.093-0.79 1.943-0.979 2.88-0.267 1.325-0.905 2.358-2.217 2.941-0.667 0.296-1.252 0.781-1.861 1.2-2.715 1.869-4.765 4.352-6.446 7.143-1.103 1.831-1.253 3.944-1.43 6.007-0.069 0.804-0.373 1.118-1.079 1.322-1.95 0.564-3.879 1.191-5.764 1.952-0.263 0.106-0.486 0.493-0.946 0.128 0.686-2.074 0.711-4.293 0.911-6.487 0.174-1.9 0.144-1.849 1.94-2.364" fill="#f15a64"/>
  </g>
  <g transform="matrix(1.8317 0 0 -1.8317 22.524 136.76)">
   <path d="m0 0c1.717 0.829 3.581 1.206 5.467 1.439 3.66 0.453 6.941-0.599 10.004-2.529 0.899-0.566 1.828-1.086 2.751-1.613 0.274-0.157 0.54-0.302 0.907-0.144 1.471 0.633 2.98 1.171 4.748 1.712-1.339 0.776-2.381 1.591-3.433 2.393-0.543 0.412-1.077 0.577-1.786 0.526-2.02-0.147-4.039-0.387-6.076-0.036-4.031 0.695-7.918 1.678-10.499 5.221-0.899 1.235-1.858 1.478-3.153 0.728-0.312-0.181-0.702-0.224-1.051-0.345-1.513-0.524-3.055-0.953-4.792-1.341 0.925-0.935 1.746-1.715 2.509-2.548 0.937-1.022 1.839-2.076 2.73-3.138 0.489-0.582 0.942-0.678 1.674-0.325" fill="#eb9264"/>
  </g>
  <g transform="matrix(1.8317 0 0 -1.8317 73.48 69.579)">
   <path d="m0 0c4.257-3.373 6.784-7.635 6.542-13.254-0.049-1.154 0.023-2.312-0.023-3.466-0.026-0.628 0.22-1.028 0.697-1.396 0.915-0.705 1.786-1.465 2.691-2.183 0.222-0.177 0.367-0.579 0.825-0.349 0.023 0.999 0.115 2.006 0.281 3.012 0.173 1.052 0.037 1.998-0.68 2.97-1.821 2.47-3.204 5.193-3.854 8.234-0.415 1.942-0.928 3.885-0.381 5.883 0.304 1.113 0.685 2.205 1.022 3.308 0.15 0.492 0.238 0.932-0.254 1.366-1.829 1.615-3.716 3.169-5.464 5.216-0.146-0.778-0.223-1.279-0.335-1.773-0.418-1.854-1.148-3.609-1.724-5.412-0.419-1.31-0.637-1.13 0.657-2.156" fill="#e76e88"/>
  </g>
  <g transform="matrix(1.8317 0 0 -1.8317 74.502 105.45)">
   <path d="M 0,0 C -0.075,6.572 -4.702,13.278 -9.984,14.469 -10.718,8.506 -4.888,2.234 0,0" fill="#fb8884"/>
  </g>
  <g transform="matrix(1.8317 0 0 -1.8317 59.128 78.552)">
   <path d="m0 0c4.505-2.413 7.653-5.885 8.554-11.093 0.212-1.226 0.505-2.438 0.751-3.658 0.074-0.367 0.112-0.763 0.498-0.938 1.491-0.675 2.931-1.452 4.561-2.485-0.39 1.625-0.431 2.957-0.559 4.279-0.07 0.729-0.422 1.235-0.971 1.73-2.179 1.961-4.04 4.18-5.366 6.829-1.258 2.512-2.259 5.063-1.843 7.957 0.092 0.638 0.092 1.291 0.209 1.923 0.11 0.596-0.082 0.947-0.606 1.233-2.06 1.124-4.121 2.247-6.252 3.838 0.076-2.457-0.248-4.6-0.508-6.749-0.238-1.969-0.202-1.937 1.532-2.866" fill="#f59684"/>
  </g>
  <g transform="matrix(1.8317 0 0 -1.8317 43.684 203.78)">
   <path d="m 0,0 c 2.572,0.306 4.876,0.86 6.801,2.42 2.055,1.664 3.869,3.564 5.244,5.842 0.625,1.037 1.222,2.097 1.584,3.325 C 6.808,10.411 2.128,6.877 0,0" fill="#ed8678"/>
  </g>
  <g transform="matrix(1.8317 0 0 -1.8317 32.711 187.7)">
   <path d="m0 0c1.234 2.039 2.804 3.774 4.686 5.23 2.589 2.002 5.611 2.698 8.794 2.897 1.103 0.068 2.3-0.038 3.259 0.446 0.829 0.419 1.131 1.523 1.654 2.332 0.408 0.633 1.028 1.144 1.275 2.055-1.549 0-2.971-0.012-4.393 7e-3 -0.47 6e-3 -0.747-0.261-1.069-0.536-1.58-1.35-3.151-2.723-5.023-3.663-2.819-1.414-5.68-2.686-8.958-2.485-1.253 0.077-2.455 0.411-3.67 0.662-0.589 0.122-0.955 0.069-1.294-0.427-1.324-1.939-2.697-3.843-4.293-5.717 0.981-0.572 1.952-0.31 2.847-0.547 1.469-0.388 2.958-0.7 4.446-1.013 1.127-0.238 1.144-0.224 1.739 0.759" fill="#fb807a"/>
  </g>
  <g transform="matrix(1.8317 0 0 -1.8317 42.765 202.47)">
   <path d="m0 0c0.24 1.099 0.818 2.055 1.326 3.041 1.992 3.867 5.073 6.404 9.247 7.628 1.107 0.325 2.192 0.724 3.302 1.039 0.693 0.196 1.059 0.583 1.284 1.284 0.352 1.096 0.853 2.144 1.284 3.216 0.094 0.233 0.346 0.463 7e-3 0.792-1.123-0.456-2.356-0.601-3.571-0.819-0.838-0.151-1.39-0.585-1.87-1.261-2.237-3.147-5.067-5.62-8.514-7.382-1.591-0.814-3.252-1.297-5.055-1.246-0.787 0.023-1.575-0.019-2.362 9e-3 -0.545 0.019-0.851-0.214-1.048-0.708-0.869-2.184-1.802-4.34-3.14-6.662 1.828 0.122 3.375 0.368 4.948 0.298 0.922-0.04 1.821-0.255 2.755-0.219 0.751 0.029 1.236 0.209 1.407 0.99" fill="#d39488"/>
  </g>
  <g transform="matrix(1.8317 0 0 -1.8317 33.515 189.39)">
   <path d="m 0,0 c 2.697,-0.35 4.426,-0.237 6.337,0.621 2.939,1.318 5.545,3.127 7.619,5.626 0.571,0.688 1.233,1.331 1.647,2.223 C 8.501,8.78 2.236,5.381 0,0" fill="#f1928c"/>
  </g>
  <g transform="matrix(1.8317 0 0 -1.8317 60.563 202.88)">
   <path d="m0 0c-1.068-2.124-1.896-4.324-1.931-6.821 0.297 0.062 0.433 0.08 0.563 0.12 0.176 0.053 0.348 0.12 0.52 0.184 2.589 0.968 4.598 2.602 6.158 4.918 1.804 2.679 3.07 5.531 3.69 8.989-3.733-1.855-7.14-3.692-9-7.39" fill="#fd6668"/>
  </g>
  <g transform="matrix(1.8317 0 0 -1.8317 66.325 194.14)">
   <path d="m0 0c1.528 1.145 3.201 2.021 4.863 2.919 0.973 0.525 1.595 1.123 1.557 2.342-0.023 0.764 0.268 1.536 0.401 2.308 0.075 0.433 0.28 0.867 0.03 1.407-1.106-0.623-2.231-1.129-3.384-1.562-0.794-0.298-1.227-0.843-1.572-1.606-1.186-2.624-2.643-5.076-4.749-7.096-1.435-1.377-2.839-2.777-4.717-3.572-1.204-0.509-2.475-0.758-3.746-0.955-1.03-0.161-1.443-0.683-1.599-1.674-0.236-1.5-0.592-2.982-0.926-4.465-0.137-0.612-0.451-1.185-0.481-2.094 1.494 0.596 2.844 0.891 4.19 1.198 1.122 0.256 2.263 0.429 3.395 0.641 0.613 0.114 0.909 0.396 0.954 1.108 0.129 2.05 0.779 3.986 1.622 5.841 0.949 2.085 2.296 3.862 4.162 5.26" fill="#d77a62"/>
  </g>
  <g transform="matrix(1.8317 0 0 -1.8317 25.887 171.43)">
   <path d="m0 0c1.54 1.635 3.324 2.953 5.317 3.958 2.677 1.351 5.531 1.692 8.492 1.257 1.141-0.168 2.29-0.294 3.439-0.398 0.4-0.036 0.855-0.135 1.195 0.191 1.189 1.139 2.366 2.291 3.547 3.438-0.038 0.096-0.075 0.191-0.113 0.287-1.291-0.159-2.468 0.318-3.682 0.575-0.76 0.161-1.415 0.099-2.106-0.306-2.776-1.628-5.724-2.769-8.953-3.148-2.466-0.289-4.884-0.356-7.197 0.748-0.625 0.298-1.288 0.521-1.9 0.841-0.575 0.302-0.989 0.259-1.473-0.221-0.951-0.943-1.963-1.824-2.972-2.706-0.784-0.685-1.602-1.332-2.5-2.075 2.531-0.661 4.695-1.815 6.915-2.838 1.117-0.514 1.148-0.498 1.991 0.397" fill="#e76c68"/>
  </g>
  <g transform="matrix(1.8317 0 0 -1.8317 85.539 75.264)">
   <path d="m0 0c0.298-2.955 1.104-5.812 2.548-8.438 0.569-1.035 1.283-1.991 1.973-3.046 2.906 5.151 1.334 13.751-3.179 17.523-0.765-1.979-1.554-3.942-1.342-6.039" fill="#f78296"/>
  </g>
  <g transform="matrix(1.8317 0 0 -1.8317 26.123 173.51)">
   <path d="m 0,0 c 2.252,-0.684 4.45,-1.078 6.632,-0.582 2.75,0.624 5.369,1.685 7.681,3.358 0.937,0.679 1.89,1.362 2.679,2.298 C 11.064,7.205 3.609,4.998 0,0" fill="#f95c98"/>
  </g>
  <g transform="matrix(1.8317 0 0 -1.8317 22.836 153.97)">
   <path d="m0 0c4.587 3.022 9.452 4.007 14.732 2.017 1.035-0.39 2.099-0.701 3.148-1.055 0.405-0.136 0.765-0.193 1.176 0.077 1.305 0.858 2.64 1.669 3.964 2.498-3e-3 0.111-6e-3 0.223-9e-3 0.334-1.221 0.052-2.15 0.771-3.195 1.228-0.887 0.388-1.693 0.485-2.643 0.18-3.234-1.039-6.519-1.534-9.949-1.094-2.303 0.295-4.417 0.876-6.267 2.313-0.69 0.536-1.391 1.274-2.176 1.41-0.818 0.143-1.505-0.775-2.289-1.154-0.083-0.04-0.166-0.082-0.244-0.131-1.436-0.905-2.966-1.644-4.664-2.46 2.318-1.201 4.18-2.692 6.072-4.144 1.117-0.858 1.133-0.817 2.344-0.019" fill="#d5928c"/>
  </g>
  <g transform="matrix(1.8317 0 0 -1.8317 22.297 138.63)">
   <path d="m0 0c2.096-1.843 4.35-3.112 7.215-3.449 3.524-0.415 6.886-0.06 10.356 1.123-4.945 4.428-13.107 5.486-17.571 2.326" fill="#f56090"/>
  </g>
 </g>
</svg>
