<?xml version="1.0" encoding="UTF-8"?>
<svg width="202.33mm" height="203.93mm" version="1.1" viewBox="0 0 202.33 203.93" xmlns="http://www.w3.org/2000/svg" xmlns:cc="http://creativecommons.org/ns#" xmlns:dc="http://purl.org/dc/elements/1.1/" xmlns:rdf="http://www.w3.org/1999/02/22-rdf-syntax-ns#">
 <metadata>
  <rdf:RDF>
   <cc:Work rdf:about="">
    <dc:format>image/svg+xml</dc:format>
    <dc:type rdf:resource="http://purl.org/dc/dcmitype/StillImage"/>
    <dc:title/>
   </cc:Work>
  </rdf:RDF>
 </metadata>
 <g transform="translate(-5.3594 -32.216)">
  <g transform="matrix(1.9514 0 0 -1.9514 97.402 114.89)">
   <path d="m0 0c-0.151-0.243-0.141-0.473-0.01-0.718 0.183 0.24 0.112 0.471 0.01 0.718" fill="#8652f6"/>
  </g>
  <g transform="matrix(1.9514 0 0 -1.9514 85.819 121.52)">
   <path d="m0 0c0.375-0.778 1.199-1.609 2.01-1.944-0.726 0.694-1.286 1.403-2.01 1.944" fill="#5692f8"/>
  </g>
  <g transform="matrix(1.9514 0 0 -1.9514 48.548 87.524)">
   <path d="m0 0c1.189-5.924 3.577-11.298 7.177-16.145 1.372-1.847 3.02-3.409 4.895-4.754-0.024 0.064-0.03 0.145-0.073 0.189-0.455 0.469-0.914 0.934-1.375 1.397-3.075 3.08-5.24 6.749-6.822 10.764-1.133 2.877-1.541 5.947-2.138 8.964-0.626 3.162-1.25 6.326-2.428 9.344-0.707 1.81-1.877 3.253-3.502 4.321-0.161 0.106-0.325 0.323-0.579 0.056 1.552-1.88 2.459-4.087 3.057-6.414 0.658-2.558 1.268-5.132 1.788-7.722" fill="#6454c4"/>
  </g>
  <g transform="matrix(1.9514 0 0 -1.9514 101.28 98.874)">
   <path d="m0 0c-0.219-0.287-0.345-0.532-0.255-0.97 0.2 0.335 0.488 0.522 0.255 0.97" fill="#8e90f2"/>
  </g>
  <g transform="matrix(1.9514 0 0 -1.9514 130.64 66.464)">
   <path d="m0 0c-3.795-2.322-7.266-5.034-10.1-8.502-1.655-2.025-3.241-4.095-4.313-6.504-0.152-0.343-0.453-0.661-0.321-1.107 0.349 0.064 0.37 0.36 0.479 0.559 2.98 5.446 7.134 9.751 12.587 12.728 3.309 1.806 6.624 3.596 9.765 5.683 1.64 1.09 3.122 2.359 4.088 4.137 0.492 0.906 0.734 1.718 0.593 2.423-1.956-2.938-4.804-4.726-7.725-6.43-1.69-0.985-3.384-1.966-5.053-2.987" fill="#8a6ef8"/>
  </g>
  <g transform="matrix(1.9514 0 0 -1.9514 139.25 56.692)">
   <path d="m0 0c-2.108-1.035-4.251-2.004-5.934-3.742-1.211-1.251-2.647-2.25-4.04-3.294-2.093-1.568-4.03-3.306-5.76-5.279-2.825-3.222-4.791-6.879-5.766-11.06-0.439-1.887-0.479-3.783-0.229-5.747 0.327 0.255 0.174 0.518 0.183 0.755 0.069 1.811 0.192 3.592 0.844 5.332 1.35 3.602 3.179 6.898 5.717 9.8 1.456 1.665 2.936 3.305 4.643 4.717 3.366 2.785 7.18 4.887 10.924 7.093 2.002 1.179 3.951 2.426 5.641 4.037 0.217 0.207 0.476 0.406 0.498 0.757-0.29 0.044-0.409-0.104-0.552-0.205-1.068-0.752-2.157-1.461-3.385-1.944-0.942-0.37-1.875-0.774-2.784-1.22" fill="#528ef6"/>
  </g>
  <g transform="matrix(1.9514 0 0 -1.9514 55.422 65.191)">
   <path d="m0 0c-0.281-2.742-0.465-5.478 0.383-8.173 0.172-0.546 0.202-1.136 0.298-1.706 0.323-1.926 0.438-3.88 0.835-5.796 0.968-4.669 2.591-9.035 5.679-12.769 2.021-2.445 4.341-4.462 7.354-5.583 0.908-0.339 1.818-0.668 2.729-1.002-0.088 0.395-0.467 0.413-0.742 0.529-0.63 0.266-1.302 0.437-1.92 0.727-1.715 0.808-3.346 1.776-4.589 3.231-2.437 2.853-4.462 5.948-5.774 9.514-1.373 3.728-2.378 7.519-2.575 11.491-0.157 3.178-0.246 6.361-0.228 9.544 0.01 1.887-0.109 3.764-0.528 5.608-0.116 0.511-0.171 1.068-0.623 1.581-0.023-0.271-0.074-0.447-0.047-0.61 0.267-1.588 0.174-3.172-0.022-4.756-0.075-0.611-0.167-1.219-0.23-1.83" fill="#5a80fa"/>
  </g>
  <g transform="matrix(1.9514 0 0 -1.9514 38.339 78.158)">
   <path d="M 0,0 C 0.372,-0.944 1.031,-1.756 1.774,-2.507 1.223,0.179 1.489,2.956 0.53,5.564 0.498,5.426 0.438,5.289 0.439,5.152 0.449,3.988 0.277,2.846 0.08,1.703 -0.017,1.14 -0.19,0.484 0,0" fill="#784afa"/>
  </g>
  <g transform="matrix(1.9514 0 0 -1.9514 43.187 84.098)">
   <path d="m0 0c0.124-0.781 0.248-1.61 0.604-2.297 1.389-2.684 2.192-5.59 3.313-8.373 1.836-4.558 4.332-8.686 8.217-11.829 1.983-1.604 4.09-2.994 6.572-3.724 2.065-0.607 4.176-0.795 6.315-0.739 0.277 8e-3 0.599-4e-3 0.709 0.361-0.06-0.037-0.118-0.101-0.181-0.106-3.261-0.271-6.359 0.317-9.164 2.011-1.737 1.049-3.221 2.46-4.667 3.885-2.134 2.105-3.721 4.611-5.192 7.197-0.931 1.638-1.756 3.32-2.409 5.098-1.379 3.755-2.129 7.666-2.998 11.549-0.499 2.229-1.046 4.439-2.032 6.514-0.258 0.542-0.265 0.565-0.78 1.016-9e-3 -0.069-0.043-0.148-0.022-0.206 0.621-1.753 0.926-3.558 1.067-5.413 0.125-1.655 0.388-3.303 0.648-4.944" fill="#9086f4"/>
  </g>
  <g transform="matrix(1.9514 0 0 -1.9514 62.328 59.873)">
   <path d="m0 0c-0.128 1.522-0.535 2.992-1.351 4.314-0.433 0.702-0.912 1.366-1.603 1.854-0.052-0.075-0.085-0.102-0.091-0.135-0.063-0.313 0.148-0.55 0.253-0.808 0.707-1.729 1.083-3.538 1.15-5.387 0.127-3.503 0.149-7.01 0.239-10.514 0.049-1.918 0.237-3.828 0.568-5.716 0.622-3.554 1.82-6.929 3.361-10.176 0.871-1.833 2.052-3.483 3.411-5.147 0.101 0.348 6e-3 0.469-0.074 0.578-2.344 3.201-3.82 6.785-4.801 10.609-0.307 1.196-0.633 2.388-0.734 3.609-0.231 2.814-0.176 5.638-0.067 8.457 0.11 2.829-0.025 5.648-0.261 8.462" fill="#4462f2"/>
  </g>
  <g transform="matrix(1.9514 0 0 -1.9514 103.45 66.043)">
   <path d="m0 0c-1.463-1.895-2.923-3.802-4.02-5.927-1.399-2.711-2.365-5.598-2.954-8.601-0.552-2.821-0.705-5.669-0.443-8.525 0.154-1.679 0.833-3.184 1.909-4.566 0.06 0.155 0.119 0.229 0.104 0.282-0.07 0.242-0.149 0.483-0.244 0.716-1.078 2.659-1.519 5.39-1.272 8.278 0.302 3.521 1.259 6.824 2.877 9.941 1.51 2.909 3.451 5.521 5.63 7.966 2.42 2.718 4.495 5.683 6.067 8.972 0.795 1.663 1.131 3.441 0.905 5.287-0.144 1.182-0.516 2.293-1.232 3.321-0.093-0.14-0.16-0.194-0.157-0.245 9e-3 -0.181 0.021-0.365 0.069-0.538 0.698-2.51 0.276-4.881-0.935-7.131-1.774-3.298-4.024-6.277-6.304-9.23" fill="#4c96ca"/>
  </g>
  <g transform="matrix(1.9514 0 0 -1.9514 101.86 60.832)">
   <path d="m0 0c-1.598-2.29-3.085-4.645-4.267-7.178-1.369-2.933-2.234-6.034-2.903-9.189-0.454-2.141-0.368-4.313-0.198-6.503 0.237 0.354 0.201 0.757 0.197 1.152-0.01 1.015 0.059 2.019 0.208 3.029 0.834 5.635 2.925 10.739 6.455 15.217 2.223 2.82 4.355 5.701 6.287 8.727 1.04 1.63 1.832 3.371 2.049 5.326 0.096 0.857 0.011 1.688-0.263 2.519-0.314-0.137-0.267-0.398-0.311-0.589-0.398-1.749-1.09-3.376-2.009-4.91-1.586-2.645-3.484-5.077-5.245-7.601" fill="#5892de"/>
  </g>
  <g transform="matrix(1.9514 0 0 -1.9514 96.564 62.52)">
   <path d="m0 0c-0.826-2.208-2.229-4.144-3.231-6.277-2.028-4.319-3.314-8.799-3.086-13.627 0.117-2.479 0.52-4.893 1.562-7.17 0.449-0.981 0.551-1.141 1.152-1.639-0.156 0.346-0.273 0.605-0.389 0.864-0.55 1.226-1.108 2.49-1.211 3.813-0.221 2.853-0.341 5.729 0.207 8.563 1.055 5.468 3.051 10.562 6.234 15.158 1.918 2.769 3.855 5.525 5.789 8.284 0.754 1.075 1.266 2.276 1.791 3.466 0.116 0.263 0.379 0.563 0.164 0.907-0.185 0.02-0.268-0.112-0.327-0.228-0.881-1.735-2.183-3.153-3.493-4.553-2.111-2.258-4.055-4.6-5.162-7.561" fill="#627cfc"/>
  </g>
  <g transform="matrix(1.9514 0 0 -1.9514 101.02 52.665)">
   <path d="m0 0c1.59 2.338 3.988 4.005 5.493 6.701-0.3-0.137-0.412-0.157-0.476-0.222-1.079-1.09-2.364-1.9-3.635-2.732-0.416-0.273-0.863-0.538-0.99-1.096-0.191-0.838-0.404-1.671-0.608-2.506 0.072-0.048 0.144-0.097 0.216-0.145" fill="#5e96e6"/>
  </g>
  <g transform="matrix(1.9514 0 0 -1.9514 149.98 59.532)">
   <path d="m0 0c-2.927-2.282-6.134-4.121-9.41-5.82-4.036-2.093-7.648-4.676-10.609-8.159-2.28-2.682-3.943-5.71-5.338-8.915-0.687-1.579-0.786-3.221-0.675-4.897 0.021-0.312-0.029-0.716 0.522-0.882 0 0.425-9e-3 0.784 2e-3 1.142 0.04 1.307 0.194 2.599 0.581 3.854 1.47 4.765 4.339 8.559 8.17 11.662 2.663 2.158 5.651 3.774 8.761 5.199 3.173 1.453 6.151 3.248 8.815 5.525 1.584 1.354 2.699 3.007 3.2 5.053 0.242 0.989 0.2 1.967 0.106 3.05-0.172-0.144-0.251-0.177-0.269-0.231-0.071-0.205-0.138-0.414-0.177-0.627-0.45-2.465-1.708-4.417-3.679-5.954" fill="#5456f2"/>
  </g>
  <g transform="matrix(1.9514 0 0 -1.9514 79.565 74.389)">
   <path d="m0 0c-0.97-3.012-1.491-6.112-1.656-9.262-0.139-2.658 0.234-5.265 0.978-7.83 0.622-2.142 1.466-4.166 2.765-5.986 0.279-0.392 0.512-0.852 1.043-0.982-0.012 0.508-0.433 0.792-0.675 1.164-2.044 3.149-2.519 6.741-2.902 10.342-0.203 1.909 8e-3 3.826 0.179 5.739 0.199 2.244 0.583 4.439 1.196 6.607 1.068 3.779 2.749 7.313 4.284 10.905 0.941 2.2 1.863 4.398 2.242 6.782 0.052 0.329 0.106 0.637-0.083 1.088-0.146-0.377-0.251-0.604-0.323-0.84-0.393-1.289-0.938-2.506-1.644-3.654-0.985-1.604-1.943-3.224-2.74-4.934-0.412-0.884-0.897-1.754-1.055-2.722-0.355-2.187-0.931-4.313-1.609-6.417" fill="#8086fa"/>
  </g>
  <g transform="matrix(1.9514 0 0 -1.9514 91.537 40.82)">
   <path d="m0 0c-1.01-1.468-2.373-2.613-3.56-3.915-0.263-0.288-0.397-0.593-0.396-0.972 2e-3 -0.878 1e-3 -1.755 1e-3 -2.633 1.237 2.535 3.107 4.735 3.955 7.52" fill="#7094e8"/>
  </g>
  <g transform="matrix(1.9514 0 0 -1.9514 117.69 53.215)">
   <path d="M 0,0 0.182,-0.159 C 2.21,1.736 4.781,2.939 6.624,5.098 5.074,4.209 3.378,3.698 1.768,2.99 1.531,2.885 1.318,2.734 1.202,2.5 0.793,1.671 0.4,0.834 0,0" fill="#8e8af4"/>
  </g>
  <g transform="matrix(1.9514 0 0 -1.9514 85.136 67.071)">
   <path d="m0 0c-0.842-2.077-1.527-4.211-1.986-6.414-0.311-1.492-0.446-3.002-0.629-4.509-0.216-1.773-0.204-3.546-0.151-5.317 0.045-1.509 0.302-3.002 0.794-4.45 0.206 0.436 0.076 0.857 0.036 1.283-0.108 1.151-0.253 2.302-0.284 3.455-0.066 2.471 0.341 4.901 0.744 7.327 0.402 2.421 1.435 4.626 2.408 6.845 0.799 1.821 1.71 3.593 2.509 5.414 1.018 2.32 2.047 4.639 2.607 7.129 0.383 1.704 0.319 3.376-0.269 5.023-0.078 0.216-0.079 0.51-0.441 0.507-0.02-0.116-0.056-0.222-0.055-0.327 0.033-2.359-0.522-4.599-1.416-6.758-1.273-3.076-2.616-6.123-3.867-9.208" fill="#668efa"/>
  </g>
  <g transform="matrix(1.9514 0 0 -1.9514 98.005 46.153)">
   <path d="m0 0c-0.564-2.679-1.755-5.128-2.793-7.633-1.026-2.476-2.295-4.839-3.351-7.306-1.486-3.471-1.891-7.121-2.13-10.811-0.12-1.848 0.129-3.693 0.456-5.509 0.262-1.455 0.415-2.947 1.014-4.326 0.622-1.435 1.425-2.737 2.672-3.706l0.173 0.145c-0.253 0.394-0.507 0.786-0.757 1.182-0.698 1.105-1.344 2.234-1.759 3.484-1.52 4.576-1.455 9.185-0.288 13.814 0.931 3.691 2.677 7.025 4.465 10.355 1.751 3.261 3.258 6.639 3.741 10.368 0.318 2.453-0.276 4.664-1.824 6.605-0.161 0.204-0.335 0.408-0.643 0.48-0.01-0.369 0.145-0.578 0.255-0.799 1.017-2.023 1.233-4.138 0.769-6.343" fill="#8856d8"/>
  </g>
  <g transform="matrix(1.9514 0 0 -1.9514 95.623 148.65)">
   <path d="m0 0c-0.434-0.194-0.646-0.434-0.749-0.767 0.313 0.152 0.601 0.316 0.749 0.767" fill="#825ee4"/>
  </g>
  <g transform="matrix(1.9514 0 0 -1.9514 91.646 151.94)">
   <path d="M 0,0 C 0.323,-0.005 0.535,0.147 0.697,0.505 0.323,0.422 0.156,0.216 0,0" fill="#8a5cf0"/>
  </g>
  <g transform="matrix(1.9514 0 0 -1.9514 137.37 53.403)">
   <path d="m0 0c-0.54-0.714-1.084-1.424-1.627-2.136 0.053-0.063 0.105-0.126 0.158-0.189 2.329 1.505 5.15 2.04 7.359 3.811-1.707-0.491-3.451-0.702-5.17-1.04-0.292-0.057-0.536-0.203-0.72-0.446" fill="#507ef6"/>
  </g>
  <g transform="matrix(1.9514 0 0 -1.9514 115.43 57.243)">
   <path d="m0 0c-0.805-0.763-1.284-1.749-1.933-2.618-1.325-1.774-2.895-3.341-4.241-5.097-2.855-3.724-5.127-7.731-5.976-12.418-0.473-2.611-0.68-5.23-0.084-7.857 0.085-0.374 0.135-0.755 0.41-1.07 0.189 0.234 0.142 0.462 0.092 0.665-0.527 2.129-0.229 4.224 0.16 6.338 0.576 3.134 1.707 6.041 3.166 8.863 2.231 4.314 5.285 7.949 8.82 11.225 2.206 2.044 4.498 3.998 6.575 6.175 0.941 0.988 1.795 2.058 2.468 3.248-0.053 0.054-0.106 0.108-0.159 0.162-0.09-0.048-0.208-0.075-0.268-0.149-1.272-1.575-2.934-2.681-4.567-3.824-1.577-1.104-3.064-2.317-4.463-3.643" fill="#6e5cfa"/>
  </g>
  <g transform="matrix(1.9514 0 0 -1.9514 117.94 60.953)">
   <path d="m0 0c-2.292-2.071-4.408-4.301-6.26-6.774-1.372-1.832-2.442-3.848-3.505-5.868-1.123-2.133-1.877-4.391-2.395-6.735-0.053-0.243-0.136-0.516 0.122-0.837 0.083 0.236 0.14 0.365 0.175 0.5 0.788 3.08 2.113 5.92 3.789 8.615 1.25 2.01 2.663 3.867 4.376 5.518 2.481 2.389 5.247 4.449 7.709 6.856 1.505 1.47 3.043 2.902 4.264 4.631 0.658 0.932 1.088 1.981 1.315 3.076 0.137 0.663 0.372 1.368 0.195 2.095-0.278-0.069-0.313-0.261-0.377-0.423-0.798-2.028-2.091-3.735-3.61-5.245-1.874-1.862-3.837-3.637-5.798-5.409" fill="#6c68ec"/>
  </g>
  <g transform="matrix(1.9514 0 0 -1.9514 129.9 55.845)">
   <path d="m0 0c-2.012-2.096-4.184-4.01-6.417-5.858-1.622-1.343-3.118-2.816-4.57-4.332-1.645-1.716-2.764-3.809-3.934-5.852-1.805-3.153-2.742-6.612-3.372-10.157-0.264-1.485-0.01-2.959 0.441-4.392 0.062-0.197 0.106-0.431 0.409-0.478 0.216 0.46 0.029 0.913-0.033 1.363-0.218 1.591-0.245 3.183 0.021 4.767 0.711 4.239 2.451 8.023 5.134 11.369 2.053 2.559 4.435 4.784 7.074 6.731 2.87 2.116 5.5 4.482 7.771 7.246 1.4 1.705 2.261 3.617 2.485 5.805 0.108 1.045-0.109 2.046-0.5 3.093-0.266-0.293-0.233-0.518-0.24-0.732-0.087-2.381-0.724-4.555-2.3-6.409-0.634-0.745-1.292-1.458-1.969-2.164" fill="#7c5ac8"/>
  </g>
  <g transform="matrix(1.9514 0 0 -1.9514 192.73 113.35)">
   <path d="m0 0c-2.54 0.445-4.955 1.343-7.406 2.104-3.663 1.137-7.321 2.253-11.176 2.573-3.921 0.325-7.807 0.221-11.633-0.751-1.111-0.282-2.23-0.591-3.48-1.217 0.61-0.104 0.936 0.093 1.274 0.188 1.182 0.332 2.363 0.645 3.587 0.812 2.264 0.308 4.521 0.344 6.809 0.303 3.064-0.055 5.958-0.777 8.785-1.761 3.553-1.237 7.098-2.481 10.745-3.408 1.907-0.485 3.839-0.682 5.772-0.148 0.732 0.202 1.468 0.445 2.126 1.093-0.28 0-0.426 0.025-0.561-4e-3 -1.634-0.352-3.24-0.065-4.842 0.216" fill="#6c86fe"/>
  </g>
  <g transform="matrix(1.9514 0 0 -1.9514 79.934 49.933)">
   <path d="m0 0c-0.086-2.57-0.613-5.092-1.106-7.613-0.536-2.734-1.287-5.418-1.837-8.151-0.591-2.932-0.437-5.841-0.153-8.758 0.336-3.461 1.463-6.707 2.888-9.862 0.639-1.415 1.532-2.626 2.667-3.667 0.523-0.48 1.11-0.87 1.78-1.168 0.03 0.122 0.053 0.166 0.042 0.179-0.339 0.373-0.659 0.767-1.027 1.11-3.153 2.942-4.478 6.773-5.28 10.853-0.479 2.436-0.441 4.89-0.193 7.35 0.289 2.862 0.982 5.628 1.822 8.371 1.108 3.614 1.89 7.293 1.84 11.099-0.027 2.088-0.675 3.993-1.993 5.629-0.499 0.62-1.053 1.222-1.939 1.565 0.124-0.521 0.416-0.752 0.625-1.037 1.286-1.757 1.936-3.747 1.864-5.9" fill="#747edc"/>
  </g>
  <g transform="matrix(1.9514 0 0 -1.9514 137.61 130.41)">
   <path d="m0 0c3.61-1.695 6.783-3.969 9.579-6.844 3.256-3.349 5.734-7.188 7.711-11.369 1.316-2.783 2.494-5.631 3.911-8.366 0.75-1.448 1.648-2.803 2.922-3.89-1.636 2.444-2.154 5.291-3.117 7.967-0.773 2.147-1.633 4.246-3.181 6.008-0.906 1.03-1.554 2.268-2.254 3.454-0.903 1.53-1.86 3.025-2.964 4.422-2.614 3.308-5.615 6.154-9.467 7.994-2.708 1.294-5.482 2.295-8.564 1.96-0.251-0.027-0.51-0.019-0.762 9e-3 -0.902 0.1-1.769-0.047-2.669-0.324 0.293-0.132 0.574-0.138 0.794-0.057 0.742 0.274 1.509 0.162 2.258 0.174 2.007 0.031 3.968-0.276 5.803-1.138" fill="#7676fa"/>
  </g>
  <g transform="matrix(1.9514 0 0 -1.9514 191.61 121.35)">
   <path d="m0 0c-0.921 0.127-1.844 0.241-2.809 0.366 1.051-1.175 6.142-4.602 7.444-4.927-1.589 1.246-2.699 2.65-3.847 4.019-0.207 0.247-0.442 0.494-0.788 0.542" fill="#8678f4"/>
  </g>
  <g transform="matrix(1.9514 0 0 -1.9514 189.65 124.7)">
   <path d="m0 0c-1.812 1.256-3.602 2.572-5.78 3.168-1.54 0.422-3.029 0.985-4.489 1.626-3.465 1.522-7.031 2.649-10.817 3.093-3.903 0.457-7.667-0.01-11.321-1.383-1.341-0.504-2.615-1.181-3.682-2.187 0.149-0.162 0.253-0.083 0.329-0.03 2.622 1.84 5.64 2.358 8.734 2.595 2.983 0.228 5.922-0.079 8.861-0.632 4.547-0.854 8.708-2.639 12.699-4.911 2.456-1.398 4.934-2.757 7.432-4.077 1.371-0.724 2.844-1.202 4.362-1.502 0.027 0.078 0.055 0.156 0.081 0.234-0.419 0.196-0.835 0.398-1.257 0.587-1.907 0.855-3.457 2.244-5.152 3.419" fill="#7a64e2"/>
  </g>
  <g transform="matrix(1.9514 0 0 -1.9514 177.3 122.35)">
   <path d="m0 0c-2.547 1.39-5.159 2.643-7.935 3.523-2.217 0.702-4.5 1.101-6.785 1.472-2.845 0.461-5.687 0.311-8.508-0.255 0.319-0.177 0.641-0.144 0.967-0.116 1.477 0.128 2.943 0.164 4.437 0.053 5.151-0.382 9.959-1.815 14.345-4.531 3.176-1.966 6.371-3.891 9.712-5.56 1.525-0.762 3.118-1.365 4.847-1.472 1.088-0.066 2.15 0.075 3.183 0.485-0.153 0.255-0.349 0.319-0.58 0.327-2.193 0.078-4.183 0.873-6.08 1.867-2.565 1.343-5.06 2.82-7.603 4.207" fill="#7c8ad0"/>
  </g>
  <g transform="matrix(1.9514 0 0 -1.9514 187.27 116.58)">
   <path d="m0 0c-3.015 0.766-5.984 1.699-8.904 2.779-2.378 0.88-4.793 1.634-7.292 2.1-1.398 0.26-2.811 0.209-4.22 0.282-4.316 0.225-8.423-0.723-12.416-2.221-1.715-0.643-3.063-1.842-4.106-3.347 0.058-0.055 0.116-0.11 0.175-0.165 0.45 0.353 0.903 0.702 1.349 1.06 1.31 1.05 2.721 1.926 4.314 2.475 3.425 1.18 6.914 1.73 10.56 1.372 2.98-0.292 5.841-0.981 8.649-1.969 2.22-0.782 4.312-1.89 6.571-2.574 2.842-0.86 5.676-1.753 8.703-1.65 1.757 0.06 3.343 0.619 4.759 1.626 0.531 0.377 1.089 0.787 1.391 1.451-0.407 0.113-0.595-0.16-0.832-0.299-0.942-0.553-1.929-0.973-3.004-1.214-1.933-0.434-3.837-0.178-5.697 0.294" fill="#5482e4"/>
  </g>
  <g transform="matrix(1.9514 0 0 -1.9514 162.04 178.27)">
   <path d="m0 0c-1.003 4.179-2.5 8.158-4.829 11.802-1.606 2.514-3.3 4.946-5.634 6.856-0.287 0.234-0.48 0.61-1.028 0.72 0.191-0.459 0.485-0.665 0.722-0.91 0.654-0.679 1.337-1.327 1.942-2.056 2.031-2.445 3.547-5.203 4.904-8.054 0.404-0.847 0.692-1.747 0.945-2.658 0.649-2.34 1.077-4.724 1.534-7.105 0.634-3.303 1.298-6.601 2.541-9.745 0.701-1.771 1.868-3.171 3.461-4.211 0.142-0.093 0.305-0.367 0.547-0.045-1.653 2.077-2.595 4.489-3.196 7.045-0.654 2.783-1.242 5.582-1.909 8.361" fill="#6464f2"/>
  </g>
  <g transform="matrix(1.9514 0 0 -1.9514 172.75 189.71)">
   <path d="m0 0c-0.492 0.742-1.007 1.469-1.661 2.418-0.139-2.212 0.688-7.648 1.318-8.66-0.127 1.87 0.14 3.578 0.408 5.288 0.049 0.312 0.128 0.663-0.065 0.954" fill="#5e6cee"/>
  </g>
  <g transform="matrix(1.9514 0 0 -1.9514 114.13 155.52)">
   <path d="M 0,0 C -0.016,0.316 0.158,0.642 -0.155,0.946 -0.164,0.58 -0.29,0.261 0,0" fill="#644cec"/>
  </g>
  <g transform="matrix(1.9514 0 0 -1.9514 167.92 184.21)">
   <path d="m0 0c-0.176 0.811-0.229 1.673-0.617 2.41-1.239 2.354-2.005 4.888-2.935 7.361-1.836 4.885-4.393 9.303-8.495 12.675-2.523 2.073-5.264 3.68-8.559 4.232-1.44 0.241-2.873 0.287-4.317 0.281-0.33-2e-3 -0.722 0.073-0.985-0.253 1.649 0.111 3.307 0.133 4.922-0.215 1.81-0.389 3.584-0.988 5.096-2.083 1.465-1.06 2.846-2.243 4.133-3.524 2.415-2.404 4.179-5.27 5.789-8.238 0.656-1.209 1.252-2.445 1.736-3.743 1.485-3.987 2.283-8.148 3.209-12.277 0.461-2.053 0.976-4.09 1.887-6 0.182-0.383 0.311-0.815 0.72-1.126 0.144 0.403-0.016 0.625-0.082 0.864-0.308 1.117-0.608 2.226-0.715 3.396-0.19 2.087-0.341 4.184-0.787 6.24" fill="#4c4ed4"/>
  </g>
  <g transform="matrix(1.9514 0 0 -1.9514 179.43 99.789)">
   <path d="m0 0c-2.826 0.101-5.625 0.435-8.419 0.827-2.153 0.303-4.313 0.485-6.485 0.498-2.26 0.013-4.451-0.508-6.639-0.983-3.512-0.763-6.677-2.355-9.714-4.222-1.261-0.775-2.191-1.885-2.971-3.123-0.221-0.351-0.466-0.713-0.474-1.379 0.402 0.472 0.685 0.79 0.953 1.121 1.172 1.448 2.497 2.732 4.093 3.704 3.333 2.03 6.952 3.239 10.839 3.539 3.591 0.278 7.169 0.055 10.696-0.708 3.27-0.708 6.578-1.014 9.916-0.944 1.631 0.035 3.244 0.29 4.733 1.031 1.65 0.822 3.017 1.938 3.631 3.781-0.135-0.115-0.276-0.223-0.404-0.346-1.762-1.694-3.824-2.648-6.298-2.814-1.164-0.078-2.302-0.023-3.457 0.018" fill="#6894ea"/>
  </g>
  <g transform="matrix(1.9514 0 0 -1.9514 166.37 73.947)">
   <path d="m0 0c-0.418-0.279-0.895-0.471-1.344-0.703-0.176-0.09-0.442-0.116-0.301-0.502 2.928 0.472 5.939-0.224 8.881 0.567-1.835-8e-3 -3.567 0.486-5.298 0.973-0.718 0.202-1.328 0.073-1.938-0.335" fill="#8660fe"/>
  </g>
  <g transform="matrix(1.9514 0 0 -1.9514 163.57 70.902)">
   <path d="m0 0c-3.146-1.404-6.416-2.462-9.717-3.427-2.571-0.752-5.121-1.552-7.531-2.749-1.404-0.698-2.658-1.626-3.94-2.507-3.491-2.399-6.227-5.53-8.435-9.103-0.872-1.41-1.26-3.049-1.119-4.914 0.336 0.412 0.411 0.763 0.488 1.105 1.025 4.55 3.842 7.903 7.348 10.721 3.827 3.076 8.312 4.802 13.058 5.868 3.724 0.836 7.336 1.97 10.726 3.744 1.809 0.947 3.26 2.287 4.203 4.117 0.506 0.981 0.879 2.011 0.775 3.162-0.278-0.021-0.302-0.196-0.347-0.316-1.021-2.69-2.91-4.541-5.509-5.701" fill="#905ed4"/>
  </g>
  <g transform="matrix(1.9514 0 0 -1.9514 145.15 72.847)">
   <path d="m0 0c-2.745-0.941-5.412-2.053-7.934-3.501-2.116-1.216-4.03-2.714-5.909-4.254-1.862-1.526-3.423-3.34-4.785-5.324-0.13-0.188-0.394-0.354-0.177-0.687 0.107 0.113 0.214 0.206 0.297 0.315 1.965 2.595 4.308 4.788 7.01 6.599 1.565 1.049 3.099 2.154 4.864 2.859 2.658 1.061 5.408 1.841 8.142 2.677 2.941 0.899 5.867 1.859 8.617 3.273 1.152 0.592 2.094 1.431 2.899 2.421 0.469 0.578 0.894 1.204 1.051 1.989-1.759-1.618-3.782-2.745-5.97-3.553-2.682-0.991-5.4-1.887-8.105-2.814" fill="#486ef4"/>
  </g>
  <g transform="matrix(1.9514 0 0 -1.9514 180.23 105.25)">
   <path d="m0 0c-0.984 0.336-1.963 0.67-3.038 0.746-1.401 0.099-2.809 0.224-4.195 0.521-2.584 0.555-5.194 0.974-7.837 1.102-2.506 0.121-5.004-0.055-7.445-0.644-3.525-0.849-6.815-2.216-9.548-4.702-0.267-0.242-0.504-0.469-0.63-0.804 0.084-0.04 0.123-0.074 0.142-0.065 0.097 0.044 0.204 0.083 0.28 0.154 1.453 1.357 3.131 2.321 5.018 2.949 2.129 0.708 4.248 1.413 6.502 1.662 1.58 0.174 3.167 0.137 4.74 0.284 1.716 0.16 3.42-8e-3 5.084-0.229 3.662-0.486 7.205-1.541 10.715-2.705 2.16-0.716 4.326-1.453 6.573-1.867 1.265-0.233 2.54-0.517 3.867-0.278-0.115 0.266-0.324 0.203-0.489 0.233-1.685 0.307-3.306 0.825-4.836 1.588-1.591 0.794-3.225 1.481-4.903 2.055" fill="#6a58fa"/>
  </g>
  <g transform="matrix(1.9514 0 0 -1.9514 140.83 70.698)">
   <path d="m0 0c-0.727-0.523-1.579-0.885-2.4-1.265-2.501-1.156-4.963-2.371-7.256-3.923-4.117-2.789-7.33-6.337-9.353-10.907-0.78-1.761-1.254-3.6-1.202-5.672 0.257 0.195 0.235 0.344 0.251 0.486 0.195 1.783 0.662 3.502 1.548 5.054 2.873 5.035 7.03 8.804 11.922 11.806 3.513 2.156 7.38 3.497 11.271 4.773 2.098 0.688 4.207 1.353 6.236 2.223 1.218 0.522 2.419 1.123 3.532 2.086-0.24 0.024-0.363 0.077-0.438 0.038-2.088-1.092-4.397-1.397-6.652-1.906-2.609-0.588-5.217-1.181-7.459-2.793" fill="#7a56dc"/>
  </g>
  <g transform="matrix(1.9514 0 0 -1.9514 170.58 77.101)">
   <path d="m0 0c-1.305 7e-3 -2.616 0.023-3.915-0.082-1.289-0.105-2.583-0.183-3.821-0.705-1.568-0.661-3.233-1.044-4.897-1.406-4.023-0.876-7.883-2.191-11.384-4.409-3.56-2.256-6.435-5.16-8.311-8.98-0.332-0.677-0.604-1.379-0.549-2.195 0.209 0.459 0.408 0.923 0.628 1.376 0.541 1.11 1.094 2.226 1.951 3.126 2.689 2.824 5.644 5.279 9.206 6.992 3.482 1.674 7.054 2.989 10.871 3.633 3.318 0.56 6.671 0.828 10.004 1.262 1.906 0.248 3.795 0.568 5.589 1.294 0.333 0.134 0.745 0.17 0.989 0.701-2.166-0.664-4.264-0.618-6.361-0.607" fill="#724ce0"/>
  </g>
  <g transform="matrix(1.9514 0 0 -1.9514 172.96 94.878)">
   <path d="m0 0c-1.62 0.161-3.244 0.279-4.863 0.436-1.959 0.189-3.922 0.205-5.864 0.067-3.074-0.218-6.07-0.959-9.017-1.858-2.438-0.744-4.677-1.898-6.878-3.388 0.51-0.048 0.793 0.191 1.103 0.347 0.647 0.327 1.28 0.682 1.936 0.987 2.613 1.214 5.392 1.872 8.208 2.393 2.651 0.49 5.34 0.49 7.986 0.163 3.913-0.482 7.814-1.043 11.758-1.218 1.972-0.088 3.912 0.069 5.731 0.923 0.789 0.37 1.535 0.809 2.076 1.535-2.121-0.662-4.271-0.913-6.442-0.839-1.914 0.066-3.826 0.262-5.734 0.452" fill="#887afe"/>
  </g>
  <g transform="matrix(1.9514 0 0 -1.9514 178.71 91.366)">
   <path d="m0 0c-2.592 0.499-5.186 1.032-7.837 0.377-0.207-0.051-0.433-0.023-0.65-0.034-3.181-0.151-6.366-0.101-9.532-0.623-3.843-0.634-7.445-1.83-10.699-3.99-1.912-1.269-3.677-2.71-5.029-4.595-0.264-0.367-0.578-0.714-0.631-1.211 0.35-0.037 0.375 0.234 0.501 0.379 0.904 1.035 1.723 2.15 2.887 2.934 3.206 2.16 6.596 3.908 10.399 4.777 2.898 0.663 5.786 1.318 8.792 1.224 2.135-0.067 4.272 0.025 6.405-0.252 1.829-0.238 3.683-0.276 5.515-0.494 2.136-0.253 4.26-0.261 6.387 0.037 0.335 0.047 0.685 0.069 0.979 0.453-1.399 0.028-2.705-0.029-3.986 0.257-1.166 0.26-2.329 0.535-3.501 0.761" fill="#6c74da"/>
  </g>
  <g transform="matrix(1.9514 0 0 -1.9514 153.71 61.564)">
   <path d="m0 0c-0.693-0.607-1.384-1.216-2.076-1.824 0.029-0.065 0.058-0.13 0.087-0.196 2.692 0.875 5.58 0.948 8.417 2.174-0.285 0.092-0.356 0.141-0.419 0.131-1.689-0.262-3.38-0.234-5.076-0.086-0.311 0.027-0.661 0.039-0.933-0.199" fill="#5062f6"/>
  </g>
  <g transform="matrix(1.9514 0 0 -1.9514 187.26 103.8)">
   <path d="m0 0c-0.959-0.043-1.918-0.098-2.954-0.152 0.891-0.706 7-3.224 8.156-3.298-0.898 0.528-1.794 1.063-2.626 1.696-0.606 0.461-1.189 0.95-1.794 1.412-0.228 0.175-0.473 0.356-0.782 0.342" fill="#886cca"/>
  </g>
  <g transform="matrix(1.9514 0 0 -1.9514 113.95 102.31)">
   <path d="M 0,0 C 0.405,0.351 1.007,0.499 1.183,1.088 0.522,1.012 0.328,0.434 0,0" fill="#6658fa"/>
  </g>
  <g transform="matrix(1.9514 0 0 -1.9514 158.88 82.182)">
   <path d="m0 0c-4.749-0.51-9.348-1.512-13.676-3.62-2.585-1.259-5.094-2.616-7.253-4.542-0.333-0.297-0.749-0.542-0.863-1.027 0.272-0.02 0.432 0.18 0.621 0.327 5.252 4.115 11.18 6.458 17.866 6.824 1.409 0.077 2.822 0.15 4.222 0.314 1.939 0.227 3.871 0.519 5.799 0.82 1.98 0.309 3.904 0.802 5.557 2.016 0.741 0.544 1.453 1.119 1.872 2.007-0.289 0.078-0.43-0.058-0.571-0.146-1.629-1.007-3.431-1.549-5.288-1.903-2.739-0.523-5.518-0.773-8.286-1.07" fill="#4e4cfc"/>
  </g>
  <g transform="matrix(1.9514 0 0 -1.9514 176.77 83.989)">
   <path d="m0 0c-1.861-0.487-3.752-0.765-5.652-0.982-2.406-0.274-4.818-0.506-7.231-0.701-1.771-0.143-3.527-0.386-5.255-0.773-2.163-0.484-4.178-1.409-6.188-2.319-3.209-1.452-5.921-3.633-8.459-6.02-1.5-1.41-2.4-3.208-2.753-5.434 0.418 0.409 0.548 0.791 0.73 1.139 0.452 0.868 0.902 1.736 1.468 2.538 1.882 2.671 4.423 4.587 7.245 6.12 4.05 2.2 8.466 3.07 13.027 3.351 1.843 0.113 3.688-0.01 5.534 0.188 2.63 0.283 5.247 0.606 7.775 1.402 1.98 0.623 3.692 1.685 4.927 3.394 0.544 0.753 1.016 1.561 1.159 2.611-0.19-0.045-0.239-0.042-0.258-0.064-0.095-0.108-0.191-0.218-0.272-0.337-1.425-2.086-3.331-3.468-5.797-4.113" fill="#4e70ea"/>
  </g>
  <g transform="matrix(1.9514 0 0 -1.9514 177.15 88.054)">
   <path d="m0 0c-0.527-0.261-1.197-0.182-1.857-0.694 3.134-0.321 5.939-1.53 9.019-1.44-0.148 0.1-0.256 0.225-0.383 0.25-1.479 0.286-2.818 0.932-4.119 1.645-0.873 0.479-1.7 0.716-2.66 0.239" fill="#5a8cd6"/>
  </g>
  <g transform="matrix(1.9514 0 0 -1.9514 34.204 120.08)">
   <path d="m0 0c0.583-0.413 1.039-1.004 1.552-1.514 1.594-1.584 3.047-3.305 4.758-4.775 2.66-2.285 5.535-4.212 8.827-5.463 2.246-0.853 4.583-1.349 6.975-1.522 1.68-0.121 3.329 0.139 4.996 0.708-0.121 0.083-0.151 0.121-0.181 0.121-0.108 0-0.218-5e-3 -0.324-0.024-2.151-0.385-4.278-0.46-6.425 0.147-2.235 0.633-4.459 1.293-6.508 2.392-5.084 2.725-9.418 6.358-12.924 10.951-2.043 2.678-3.961 5.45-6.1 8.055-1.011 1.23-2.138 2.328-3.555 3.128 1.823-1.843 2.876-4.164 4.172-6.33 1.301-2.172 2.597-4.358 4.737-5.874" fill="#7a84f6"/>
  </g>
  <g transform="matrix(1.9514 0 0 -1.9514 113.33 221.28)">
   <path d="m0 0c0.282 1.013 0.612 2.002 0.979 2.989 1.177 3.163 2.619 6.205 4.096 9.232 1.77 3.627 2.72 7.46 3.02 11.476 0.235 3.14-0.162 6.213-0.772 9.28-0.295 1.482-0.799 2.859-1.661 4.095-0.395 0.565-0.759 1.181-1.535 1.547 0.031-0.505 0.283-0.77 0.468-1.063 0.698-1.104 1.344-2.23 1.766-3.478 1.569-4.647 1.497-9.322 0.26-14.016-0.837-3.172-2.165-6.139-3.78-8.989-1.883-3.325-3.441-6.793-4.241-10.548-0.586-2.752-0.139-5.333 1.652-7.591 0.184-0.232 0.354-0.526 0.8-0.554-0.141 0.314-0.236 0.543-0.345 0.766-1.076 2.198-1.369 4.471-0.707 6.854" fill="#5c96d4"/>
  </g>
  <g transform="matrix(1.9514 0 0 -1.9514 126.99 213.09)">
   <path d="m0 0c-0.488-0.883-0.97-1.77-1.466-2.649-0.657-1.165-1.34-2.316-1.979-3.491-0.17-0.313-0.43-0.655-0.168-1.223 0.966 1.501 2.185 2.63 3.332 3.825 0.279 0.291 0.495 0.621 0.494 1.051-3e-3 0.821-1e-3 1.641-1e-3 2.462z" fill="#7494c6"/>
  </g>
  <g transform="matrix(1.9514 0 0 -1.9514 138.68 222.94)">
   <path d="M 0,0 C 0.643,1.767 1.809,3.251 2.733,4.872 2.885,5.138 2.955,5.392 2.894,5.695 2.723,6.533 2.566,7.374 2.399,8.232 1.872,7.594 -0.056,1.252 0,0" fill="#5860dc"/>
  </g>
  <g transform="matrix(1.9514 0 0 -1.9514 99.869 228.31)">
   <path d="M 0,0 C 1.147,0.817 2.162,1.814 3.425,2.412 5.148,3.228 5.009,4.857 5.308,6.331 3.634,4.13 1.302,2.5 0,0" fill="#6254fa"/>
  </g>
  <g transform="matrix(1.9514 0 0 -1.9514 131.44 194.3)">
   <path d="m0 0c1.651 5.412 2.383 10.884 0.975 16.476-0.623 2.476-1.538 4.83-3.063 6.91-0.342 0.466-0.711 0.901-1.235 1.185 0.534-0.874 1.134-1.687 1.587-2.586 1.446-2.864 1.991-5.965 2.213-9.116 0.139-1.979 7e-3 -3.966-0.155-5.955-0.251-3.06-0.957-5.989-1.936-8.878-0.978-2.885-2.305-5.623-3.481-8.425-0.855-2.037-1.762-4.052-2.163-6.243-0.08-0.436-0.277-0.883 0-1.396 0.226 0.195 0.237 0.421 0.304 0.616 0.423 1.237 0.927 2.435 1.623 3.548 0.998 1.597 1.936 3.228 2.743 4.931 0.496 1.046 0.993 2.092 1.159 3.255 0.277 1.943 0.859 3.808 1.429 5.678" fill="#567cf6"/>
  </g>
  <g transform="matrix(1.9514 0 0 -1.9514 142.9 195.75)">
   <path d="m0 0c-0.116 1.582 0.215 3.17 0.316 4.755 0.191 2.967 0.15 5.932-0.347 8.881-0.725 4.311-2.458 8.165-5.204 11.552-0.72 0.887-1.569 1.674-2.641 2.186 0.064-0.332 0.309-0.489 0.526-0.681 0.981-0.871 1.861-1.841 2.516-2.977 2.564-4.445 3.797-9.286 4.178-14.368 0.231-3.086 0.012-6.157-0.517-9.196-0.508-2.92-1.136-5.821-1.702-8.732-0.354-1.815-0.622-3.64-0.533-5.498 0.018-0.37-0.113-0.806 0.407-1.034 0.064 0.597 0.111 1.171 0.191 1.74 0.224 1.589 0.816 3.073 1.319 4.584 0.948 2.85 1.717 5.719 1.491 8.788" fill="#608ae0"/>
  </g>
  <g transform="matrix(1.9514 0 0 -1.9514 114.15 206.73)">
   <path d="m0 0c0.311 0.919 0.788 1.786 1.269 2.642 1.225 2.18 2.413 4.378 3.315 6.72 1.82 4.726 2.542 9.567 1.547 14.585-0.36 1.818-0.939 3.561-2.084 5.245-0.029-0.259-0.065-0.339-0.041-0.393 0.82-1.826 1.405-3.68 1.504-5.73 0.108-2.255 0.13-4.495-0.248-6.708-0.949-5.57-2.971-10.732-6.171-15.405-1.924-2.811-3.891-5.593-5.847-8.382-0.776-1.106-1.314-2.334-1.852-3.561-0.14-0.318-0.364-0.663-0.21-1.1 0.106 0.096 0.177 0.135 0.209 0.194 1.139 2.09 2.772 3.781 4.348 5.534 1.712 1.907 3.409 3.846 4.261 6.359" fill="#704ed0"/>
  </g>
  <g transform="matrix(1.9514 0 0 -1.9514 137.79 204.56)">
   <path d="m0 0c0.616 2.941 1.181 5.888 1.427 8.887 0.188 2.285 0.06 4.564-0.221 6.832-0.356 2.882-0.86 5.736-2.052 8.411-0.327 0.733-0.549 1.537-1.109 2.187-0.053-0.086-0.09-0.118-0.086-0.146 0.013-0.105 0.022-0.217 0.063-0.313 1.326-3.052 2.012-6.235 2.333-9.555 0.315-3.26 0.117-6.451-0.621-9.598-0.884-3.773-1.814-7.532-2.356-11.373-0.233-1.658-0.359-3.318 0.113-4.956 0.296-1.03 0.645-2.043 1.429-2.859 0.194 0.263 0.107 0.468 0.057 0.677-0.34 1.425-0.401 2.881-0.28 4.324 0.212 2.529 0.784 5.004 1.303 7.482" fill="#4a6cf0"/>
  </g>
  <g transform="matrix(1.9514 0 0 -1.9514 135.5 230.68)">
   <path d="m0 0c-1.7 2.107-2.34 4.505-2.139 7.2 0.157 2.102 0.597 4.149 0.953 6.214 0.509 2.961 1.387 5.838 1.943 8.794 0.609 3.231 0.39 6.421 6e-3 9.62-0.379 3.155-1.487 6.11-2.797 8.981-0.924 2.022-2.306 3.665-4.454 4.771 0.039-0.36 0.198-0.451 0.323-0.574 1.632-1.611 3.136-3.317 4.095-5.439 2.185-4.835 2.678-9.88 1.902-15.086-0.368-2.477-1.058-4.873-1.769-7.269-1.044-3.516-1.796-7.09-1.669-10.792 0.092-2.712 1.077-5 3.251-6.705 0.174-0.137 0.343-0.389 0.631-0.194-0.013 0.054-0.013 0.094-0.032 0.123-0.078 0.121-0.154 0.244-0.244 0.356" fill="#8092ce"/>
  </g>
  <g transform="matrix(1.9514 0 0 -1.9514 118.09 220.15)">
   <path d="m0 0c1.071 2.612 2.192 5.204 3.301 7.801 1.095 2.567 2.027 5.186 2.651 7.91 0.798 3.484 0.968 7.022 0.836 10.573-0.069 1.835-0.43 3.64-1.043 5.482-0.06-0.177-0.1-0.245-0.103-0.313-6e-3 -0.143-0.014-0.291 0.016-0.429 0.699-3.18 0.701-6.375 0.364-9.605-0.35-3.355-1.279-6.533-2.704-9.558-1.618-3.438-3.292-6.85-4.583-10.429-0.59-1.635-1.104-3.298-0.979-5.079 0.071-1.007 0.311-1.961 0.729-2.896 0.327 0.194 0.248 0.429 0.257 0.628 0.094 2.042 0.484 4.026 1.258 5.915" fill="#5e6ae6"/>
  </g>
  <g transform="matrix(1.9514 0 0 -1.9514 83.712 204.1)">
   <path d="m0 0c1.085 1.123 2.358 2.033 3.612 2.958 2.193 1.62 4.222 3.415 6.027 5.465 2.984 3.388 5.038 7.244 5.916 11.69 0.278 1.411 0.422 2.84 0.141 4.27-0.2-0.566-0.321-1.121-0.327-1.702-0.011-1.132-0.26-2.216-0.645-3.285-1.339-3.722-3.239-7.108-5.856-10.087-1.483-1.688-2.99-3.353-4.736-4.773-3.359-2.731-7.135-4.821-10.851-7.002-1.94-1.138-3.828-2.352-5.467-3.91-0.303-0.288-0.624-0.569-0.783-1.021 0.14 0.016 0.222 1e-3 0.264 0.035 1.805 1.444 3.913 2.31 6.003 3.234 2.414 1.067 4.816 2.175 6.702 4.128" fill="#6a5ed2"/>
  </g>
  <g transform="matrix(1.9514 0 0 -1.9514 81.26 212.43)">
   <path d="m0 0c2.013 2.094 4.187 4.005 6.417 5.856 1.648 1.367 3.174 2.861 4.645 4.409 1.561 1.643 2.621 3.643 3.753 5.58 1.776 3.041 2.679 6.395 3.388 9.812 0.263 1.262 0.16 2.525-0.041 3.768-0.111 0.686-0.275 1.409-0.817 2.046-0.117-0.472-0.026-0.846 0.038-1.234 0.213-1.288 0.382-2.591 0.249-3.894-0.414-4.041-1.794-7.743-4.079-11.097-2.249-3.301-5.097-6.024-8.291-8.395-3.069-2.278-5.918-4.787-8.231-7.849-1.517-2.009-2.291-4.267-1.951-6.813 0.073-0.546 0.113-1.14 0.522-1.629 0.243 0.267 0.156 0.525 0.154 0.756-0.026 2.449 0.705 4.626 2.274 6.521 0.623 0.753 1.292 1.458 1.97 2.163" fill="#625ce6"/>
  </g>
  <g transform="matrix(1.9514 0 0 -1.9514 76.783 210.74)">
   <path d="m0 0c-2.273-0.596-7.188-3.063-7.931-3.981 1.478 0.624 2.984 0.962 4.529 1.166 0.564 0.074 1.242 0.062 1.631 0.491 0.634 0.698 1.277 1.417 1.771 2.324" fill="#7e74d2"/>
  </g>
  <g transform="matrix(1.9514 0 0 -1.9514 65.593 210.79)">
   <path d="m0 0c2.337 1.451 4.719 2.828 7.074 4.25 2.452 1.48 4.794 3.111 6.962 4.995 1.955 1.699 3.567 3.699 5.184 5.696 1.236 1.525 2.202 3.229 3.011 5.018 0.142 0.316 0.363 0.618 0.268 0.999-0.251-0.018-0.324-0.231-0.416-0.409-2.932-5.655-7.176-10.054-12.752-13.116-3.3-1.813-6.615-3.595-9.755-5.677-1.639-1.087-3.124-2.349-4.094-4.121-0.456-0.833-0.752-1.743-0.708-2.478 0.09 0.08 0.188 0.137 0.245 0.222 1.302 1.928 3.028 3.408 4.981 4.621" fill="#9072ee"/>
  </g>
  <g transform="matrix(1.9514 0 0 -1.9514 107.7 202.25)">
   <path d="m0 0c2.137 2.797 4.133 5.645 5.386 8.998 1.651 4.42 2.358 8.947 2.084 13.633-0.108 1.842-0.819 3.492-1.922 4.959-0.069-0.03-0.138-0.059-0.207-0.089 0.191-0.538 0.378-1.077 0.575-1.613 0.35-0.953 0.659-1.915 0.829-2.919 0.525-3.093 0.202-6.145-0.586-9.141-1.33-5.058-4.121-9.307-7.545-13.174-2.463-2.782-4.631-5.768-6.224-9.131-1.214-2.564-1.449-5.206-0.199-7.852 0.129-0.273 0.178-0.686 0.677-0.692-0.018 0.155-0.016 0.299-0.053 0.433-0.722 2.574-0.376 5.021 0.885 7.355 1.78 3.295 4.035 6.269 6.3 9.233" fill="#6e74fe"/>
  </g>
  <g transform="matrix(1.9514 0 0 -1.9514 106.33 211.66)">
   <path d="m0 0c1.954 2.702 3.895 5.421 5.352 8.424 2.036 4.196 3.367 8.619 3.686 13.299 0.076 1.107 0.097 2.232-0.122 3.322-0.22-0.402-0.155-0.804-0.187-1.195-0.091-1.116-0.162-2.236-0.306-3.346-0.311-2.38-1.031-4.653-1.853-6.9-0.724-1.981-1.685-3.828-2.862-5.586-1.292-1.932-2.785-3.706-4.142-5.585-1.8-2.492-3.667-4.944-5.002-7.74-0.79-1.654-1.009-3.386-0.788-5.189 0.026-0.211 0.056-0.424 0.388-0.398 0.344 1.906 1.07 3.668 2.046 5.332 1.138 1.939 2.475 3.744 3.79 5.562" fill="#7268c6"/>
  </g>
  <g transform="matrix(1.9514 0 0 -1.9514 93.497 215)">
   <path d="m0 0c-1.723-0.772-6.468-4.554-6.976-5.551 1.472 1.088 3.107 1.674 4.719 2.312 0.368 0.147 0.794 0.259 0.989 0.629 0.431 0.817 0.811 1.661 1.268 2.61" fill="#4450da"/>
  </g>
  <g transform="matrix(1.9514 0 0 -1.9514 95.91 204.85)">
   <path d="m0 0c2.894 2.816 5.451 5.89 7.386 9.483 1.54 2.86 2.831 5.781 3.456 8.976 0.063 0.319 0.212 0.658-0.092 1.11-0.772-3.484-2.147-6.566-3.901-9.512-1.674-2.811-3.77-5.235-6.244-7.339-2.902-2.466-5.79-4.944-8.439-7.685-1.612-1.668-2.925-3.515-3.255-5.889-0.061-0.437-0.237-0.901-0.013-1.342 0.25 2e-3 0.241 0.179 0.295 0.3 1.011 2.248 2.467 4.169 4.275 5.835 2.184 2.013 4.403 3.992 6.532 6.063" fill="#806cca"/>
  </g>
  <g transform="matrix(1.9514 0 0 -1.9514 93.96 212.75)">
   <path d="m0 0c1.155 0.919 1.903 2.168 2.743 3.349 1.324 1.862 2.968 3.466 4.368 5.269 3.802 4.899 6.3 10.304 6.388 16.628 0.023 1.705-0.19 3.38-0.88 4.98-0.122-0.322-0.048-0.627 8e-3 -0.945 0.212-1.213 0.449-2.436 0.287-3.669-0.55-4.201-1.668-8.219-3.812-11.919-1.237-2.135-2.488-4.247-4.088-6.142-2.578-3.055-5.572-5.685-8.509-8.369-1.639-1.498-3.189-3.062-4.498-4.856-0.29-0.396-0.571-0.81-0.711-1.315 0.276-0.027 0.378 0.147 0.476 0.272 1.209 1.528 2.765 2.652 4.36 3.724 1.358 0.912 2.592 1.978 3.868 2.993" fill="#7a8ce6"/>
  </g>
  <g transform="matrix(1.9514 0 0 -1.9514 162.5 198.68)">
   <path d="m0 0c-0.321 0.927-0.551 1.874-0.815 2.814-0.718 2.548-1.236 5.138-1.701 7.742-0.477 2.675-0.998 5.344-2.069 7.856-0.495 1.163-1.14 2.262-1.728 3.385-1.985 3.79-4.804 6.883-8.139 9.505-1.411 1.11-3.094 1.681-4.894 1.807-0.029-0.07-0.058-0.139-0.087-0.209 0.63-0.251 1.26-0.502 1.891-0.752 1.458-0.578 2.81-1.336 4.019-2.343 3.448-2.873 5.883-6.451 7.469-10.638 1.347-3.554 1.886-7.271 2.371-11.011 0.41-3.17 1.209-6.257 2.468-9.2 0.786-1.839 2.044-3.336 3.783-4.37 0.888-0.529 1.837-0.918 2.935-0.98-0.072 0.333-0.295 0.352-0.434 0.423-2.529 1.283-4.15 3.315-5.069 5.971" fill="#4470dc"/>
  </g>
  <g transform="matrix(1.9514 0 0 -1.9514 189.74 157.76)">
   <path d="m0 0c-0.844 0.494-1.61 1.131-2.584 1.447 1.601-2.328 2.5-5.073 4.551-7.112-0.84 1.692-1.172 3.536-1.752 5.299-0.044 0.133-0.108 0.303-0.215 0.366" fill="#5c78e8"/>
  </g>
  <g transform="matrix(1.9514 0 0 -1.9514 189.69 152.99)">
   <path d="m0 0c-1.186 0.838-2.297 1.764-3.418 2.679-2.697 2.202-5.115 4.71-7.723 7.011-2.858 2.522-6.183 4.135-9.685 5.461-2.245 0.85-4.596 1.233-6.972 1.554-1.793 0.242-3.528 0.242-5.265-0.258-0.942-0.271-1.477-0.562-1.917-1.118 0.123 0.014 0.23 0.014 0.33 0.04 1.574 0.411 3.14 0.837 4.79 0.849 5.379 0.037 10.145-1.75 14.495-4.806 2.566-1.802 4.795-3.974 6.913-6.271 2.245-2.435 4.749-4.561 7.546-6.349 1.971-1.26 4.102-1.811 6.413-1.572 0.909 0.094 1.841 0.267 2.605 0.979-0.144 0.021-0.216 0.049-0.282 0.038-2.849-0.471-5.452 0.082-7.83 1.763" fill="#4e5ae8"/>
  </g>
  <g transform="matrix(1.9514 0 0 -1.9514 177.91 137.25)">
   <path d="m0 0c-3.333 2.884-6.959 5.311-11.076 6.964-2.563 1.03-5.155 1.947-7.921 2.212-0.855 0.082-1.715 0.342-2.668 0.177 0.724-0.476 1.482-0.349 2.184-0.472 2.836-0.499 5.497-1.475 8.131-2.629 2.971-1.303 5.562-3.13 7.882-5.324 2.791-2.641 5.584-5.273 8.59-7.669 1.753-1.396 3.676-2.454 5.945-2.719 0.581-0.068 1.195-0.178 1.796 0.128-0.099 0.122-0.131 0.207-0.183 0.221-2.352 0.653-4.356 1.929-6.213 3.467-2.204 1.826-4.304 3.772-6.467 5.644" fill="#4a5ee2"/>
  </g>
  <g transform="matrix(1.9514 0 0 -1.9514 186.05 166)">
   <path d="m0 0c-1.764 2.252-3.447 4.568-5.159 6.861-1.497 2.008-3.111 3.927-4.927 5.64-2.351 2.218-5.007 4.052-7.81 5.671-2.021 1.167-4.191 1.919-6.521 2.368 0.121-0.074 0.233-0.177 0.364-0.218 3.319-1.056 6.246-2.802 9.043-4.861 2.702-1.989 4.887-4.424 6.76-7.149 2.116-3.078 4.257-6.133 6.635-9.015 1.186-1.437 2.545-2.674 4.29-3.428 0.993-0.429 1.909-0.633 2.63-0.494-0.133 0.1-0.238 0.201-0.362 0.269-1.978 1.077-3.573 2.607-4.943 4.356" fill="#5e50d0"/>
  </g>
  <g transform="matrix(1.9514 0 0 -1.9514 185.94 159.23)">
   <path d="m0 0c-1.261 2.025-2.473 4.094-4.483 5.531-0.611 0.437-1.099 1.046-1.638 1.582-1.593 1.585-3.055 3.3-4.76 4.778-4.405 3.821-9.335 6.423-15.26 6.947-2.113 0.187-4.094-0.179-6.087-0.735-0.265-0.074-0.21-0.236-0.213-0.405 0.3 0.214 0.653 0.279 0.998 0.381 0.848 0.252 1.73 0.135 2.58 0.277 1.099 0.183 2.187 0.052 3.22-0.189 3.726-0.871 7.263-2.212 10.433-4.434 2.05-1.437 4.087-2.874 5.88-4.641 3.013-2.968 5.415-6.424 7.929-9.791 1.499-2.006 3.018-3.989 5.001-5.555 0.204-0.161 0.389-0.407 0.811-0.258-0.371 0.409-0.683 0.754-0.996 1.098-1.457 1.604-2.287 3.603-3.415 5.414" fill="#486cf4"/>
  </g>
  <g transform="matrix(1.9514 0 0 -1.9514 206.36 135.65)">
   <path d="m0 0c-2.312-0.773-4.604-0.817-6.904 0.087-3.56 1.4-6.816 3.365-10.055 5.358-3.031 1.864-6.113 3.556-9.604 4.471-4.527 1.187-9.072 1.415-13.669 0.672-1.822-0.294-3.415-1.129-4.759-2.393 0.034-0.075 0.069-0.15 0.103-0.224 0.64 0.312 1.278 0.629 1.921 0.935 1.853 0.881 3.8 1.341 5.852 1.495 1.126 0.084 2.231-0.042 3.345-0.026 1.533 0.021 3.025-0.255 4.501-0.631 4.384-1.119 8.285-3.22 11.932-5.846 2.926-2.107 6.066-3.831 9.454-5.07 1.947-0.712 3.95-0.899 5.966-0.254 0.951 0.304 1.889 0.648 2.6 1.466-0.137 0.044-0.209 0.092-0.271 0.081-0.14-0.025-0.276-0.076-0.412-0.121" fill="#4c50c8"/>
  </g>
  <g transform="matrix(1.9514 0 0 -1.9514 192.74 139.74)">
   <path d="m0 0c-0.919 0.365-1.854 0.691-2.782 1.031-0.041-0.062-0.083-0.125-0.124-0.187 1.927-1.744 3.378-3.927 5.354-5.621 0.257-0.22 0.501-0.541 0.946-0.535-0.436 0.598-0.881 1.126-1.233 1.71-0.577 0.958-1.096 1.951-1.633 2.934-0.14 0.256-0.255 0.56-0.528 0.668" fill="#7252e4"/>
  </g>
  <g transform="matrix(1.9514 0 0 -1.9514 154.48 221.96)">
   <path d="m0 0c-1.751 1.444-2.723 3.321-3.213 5.519-0.549 2.468-0.383 4.978-0.528 7.465-0.12 2.05 0.07 4.118 0.124 6.178 0.05 1.884-0.011 3.768-0.32 5.624-0.491 2.94-1.38 5.771-2.619 8.485-1.136 2.489-2.65 4.752-4.382 6.849-1.187 1.436-2.749 2.408-4.683 2.898 0.102-0.159 0.127-0.234 0.179-0.271 0.233-0.17 0.466-0.343 0.714-0.489 3.807-2.237 6.121-5.695 7.764-9.654 1.757-4.233 2.142-8.697 1.953-13.228-0.098-2.35-0.473-4.684-0.422-7.046 0.015-0.692 0.181-1.368 0.154-2.055-0.058-1.499 0.164-2.971 0.478-4.42 0.576-2.663 1.922-4.827 4.347-6.212 0.322-0.184 0.646-0.399 1.107-0.312-0.113 0.138-0.175 0.228-0.251 0.303-0.129 0.127-0.262 0.251-0.402 0.366" fill="#7e7ec4"/>
  </g>
  <g transform="matrix(1.9514 0 0 -1.9514 194.08 147.22)">
   <path d="m0 0c-1.41 1.603-2.783 3.247-4.387 4.67-0.702 0.622-1.333 1.336-2.19 1.767-1.623 0.816-3.157 1.777-4.634 2.834-1.77 1.266-3.603 2.427-5.541 3.432-4.853 2.517-9.958 3.678-15.418 2.941-1.498-0.202-2.969-0.567-4.431-1.482 0.281 0 0.396-0.031 0.484 4e-3 2.451 0.977 4.977 1.058 7.575 0.813 3.205-0.303 6.259-1.096 9.215-2.343 2.038-0.86 4.051-1.771 5.909-2.976 3.662-2.375 6.843-5.35 10.103-8.222 1.798-1.583 3.631-3.116 5.822-4.143 0.192-0.091 0.393-0.321 0.667-0.114-0.168 0.294-0.44 0.413-0.664 0.586-0.888 0.686-1.757 1.378-2.51 2.233" fill="#4878ce"/>
  </g>
  <g transform="matrix(1.9514 0 0 -1.9514 157.24 197.22)">
   <path d="m0 0c0.022-1.984-0.406-3.901-0.558-5.845-0.069-0.889-0.226-1.784 0.176-2.655 0.265 1.676 0.942 3.202 1.486 4.769 0.105 0.304 0.332 0.619 0.2 0.938-0.389 0.944-0.65 1.952-1.304 2.793" fill="#708efe"/>
  </g>
  <g transform="matrix(1.9514 0 0 -1.9514 110.3 167.88)">
   <path d="m0 0c-0.332-0.368-0.493-0.635-0.396-0.998 0.375 0.168 0.424 0.48 0.396 0.998" fill="#4e5ee2"/>
  </g>
  <g transform="matrix(1.9514 0 0 -1.9514 155.19 188.1)">
   <path d="m0 0c-0.409 1.387-0.548 2.841-0.702 4.28-0.433 4.062-1.359 7.99-3.144 11.686-1.47 3.044-3.496 5.671-6.078 7.848-1.471 1.24-3.125 2.181-5.04 2.566 0.227-0.105 0.456-0.208 0.681-0.316 1.678-0.808 3.291-1.751 4.502-3.174 2.429-2.853 4.435-5.951 5.785-9.505 1.628-4.284 2.523-8.681 2.702-13.234 0.137-3.472-4e-3 -6.951 0.216-10.424 0.078-1.239 0.298-2.443 0.602-3.636 0.048-0.186 6e-3 -0.522 0.385-0.531 0.025 0.118 0.075 0.225 0.064 0.326-0.236 2.32 0.128 4.604 0.341 6.905 0.222 2.399 0.39 4.821-0.314 7.209" fill="#4a6ad6"/>
  </g>
  <g transform="matrix(1.9514 0 0 -1.9514 181.97 167.88)">
   <path d="m0 0c-2.008 2.384-3.872 4.885-5.579 7.496-1.193 1.825-2.521 3.551-3.933 5.199-1.54 1.798-3.498 3.152-5.417 4.518-2.807 1.996-5.97 3.246-9.238 4.261-1.27 0.395-2.57 0.453-3.873 0.343-0.775-0.066-1.573-0.167-2.447-0.757 1.739 0.166 3.235 0.231 4.697 0.054 3.255-0.394 6.215-1.68 8.946-3.445 3.557-2.298 6.392-5.347 8.665-8.895 2.19-3.418 4.255-6.914 7.048-9.904 1.667-1.784 3.521-3.254 5.986-3.716 1.227-0.23 2.473-0.306 3.799 0.259-0.243 0.069-0.343 0.12-0.445 0.124-1.771 0.068-3.407 0.54-4.935 1.469-1.298 0.788-2.324 1.866-3.274 2.994" fill="#6c7cd4"/>
  </g>
  <g transform="matrix(1.9514 0 0 -1.9514 148.15 196.24)">
   <path d="m0 0c-0.025-0.978 0.179-1.941 0.158-2.924-0.036-1.63 0.103-3.25 0.434-4.857 0.239-1.162 0.73-2.205 1.36-3.176 0.377-0.58 0.782-1.19 1.434-1.54 0.185 0.239 0.017 0.387-0.045 0.541-0.366 0.907-0.695 1.821-0.917 2.78-0.669 2.888-0.573 5.831-0.604 8.756-0.037 3.402-0.026 6.801-0.614 10.165-0.829 4.75-2.331 9.256-5.021 13.304-0.503 0.756-0.954 1.566-1.689 2.185-0.046-0.104-0.078-0.142-0.069-0.164 0.041-0.099 0.081-0.202 0.143-0.288 2.069-2.89 3.437-6.095 4.446-9.493 0.929-3.129 1.222-6.306 1.137-9.542-0.05-1.915-0.105-3.831-0.153-5.747" fill="#4c72f0"/>
  </g>
  <g transform="matrix(1.9514 0 0 -1.9514 175.45 186.61)">
   <path d="m0 0c-0.865 1.265-1.536 2.628-2.208 3.987-1.315 2.661-2.415 5.421-3.571 8.155-0.888 2.099-1.873 4.163-3.264 6-2.899 3.832-6.354 7.027-10.582 9.361-1.315 0.726-2.667 1.296-4.163 1.468-0.785 0.09-1.58 0.179-2.413-0.064 0.249-0.333 0.53-0.257 0.767-0.299 1.353-0.236 2.713-0.435 4.002-0.949 3.369-1.343 6.175-3.478 8.561-6.17 3.027-3.417 5.021-7.419 6.466-11.715 1.194-3.55 2.696-6.951 4.785-10.076 0.841-1.258 1.889-2.296 3.178-3.074 1.418-0.856 2.936-1.349 4.658-1.088-0.149 0.333-0.444 0.311-0.663 0.37-2.385 0.646-4.168 2.068-5.553 4.094" fill="#8250e8"/>
  </g>
  <g transform="matrix(1.9514 0 0 -1.9514 182.76 174.48)">
   <path d="m0 0c-0.656 0.663-1.329 1.31-1.995 1.963-0.06-0.044-0.121-0.089-0.181-0.134 0.32-0.912 0.652-1.821 0.956-2.738 0.318-0.959 0.597-1.931 0.914-2.891 0.528-1.595 0.629-1.774 1.34-2.511-0.442 1.611-0.653 3.171-0.677 4.769-7e-3 0.499 0.069 1.111-0.357 1.542" fill="#7456fa"/>
  </g>
  <g transform="matrix(1.9514 0 0 -1.9514 177.82 182.31)">
   <path d="m0 0c-1.274 2.524-2.41 5.112-3.594 7.678-1.141 2.472-2.416 4.873-3.988 7.1-1.869 2.648-4.08 4.998-6.514 7.131-1.582 1.385-3.378 2.457-5.361 3.28 0.018-0.032 0.027-0.074 0.054-0.094 0.112-0.087 0.226-0.174 0.346-0.249 5.69-3.521 9.885-8.351 12.492-14.504 1.456-3.437 2.849-6.899 4.587-10.208 0.898-1.709 1.903-3.34 3.528-4.484 0.793-0.557 1.613-1.038 2.624-1.301-0.037 0.166-0.034 0.212-0.055 0.235-0.096 0.106-0.194 0.21-0.3 0.305-1.617 1.447-2.846 3.183-3.819 5.111" fill="#6456fe"/>
  </g>
  <g transform="matrix(1.9514 0 0 -1.9514 49.46 72.065)">
   <path d="m0 0c0.825-2.925 1.481-5.892 2.017-8.885 0.504-2.815 1.012-5.638 2.154-8.28 0.574-1.326 1.271-2.603 1.975-3.868 2.003-3.598 4.738-6.581 7.976-9.081 1.381-1.067 3.026-1.66 4.8-1.729 0.014 0.071 0.027 0.143 0.041 0.214-0.432 0.171-0.864 0.338-1.294 0.512-1.276 0.518-2.545 1.05-3.662 1.88-3.863 2.866-6.55 6.611-8.272 11.074-1.299 3.367-1.939 6.878-2.356 10.451-0.401 3.427-1.21 6.771-2.565 9.956-0.816 1.917-2.116 3.461-3.939 4.503-0.834 0.477-1.726 0.854-2.971 0.869 0.777-0.478 1.369-0.809 1.926-1.189 2.281-1.56 3.447-3.864 4.17-6.427" fill="#7458f4"/>
  </g>
  <g transform="matrix(1.9514 0 0 -1.9514 26.118 103.55)">
   <path d="m0 0c2.035-2.594 3.869-5.339 5.963-7.889 1.312-1.598 2.684-3.138 4.219-4.526 1.321-1.194 2.75-2.248 4.211-3.259 2.547-1.763 5.241-3.234 8.249-4.057 0.407-0.111 0.793-0.357 1.415-0.234-0.279 0.147-0.398 0.234-0.532 0.277-3.313 1.07-6.248 2.804-9.043 4.869-2.637 1.948-4.796 4.314-6.633 6.975-2.143 3.104-4.298 6.193-6.691 9.111-1.234 1.503-2.645 2.788-4.467 3.545-0.747 0.311-1.517 0.559-2.356 0.549 0.011-0.109 0-0.158 0.02-0.178 0.074-0.075 0.149-0.156 0.239-0.207 2.18-1.249 3.872-3.02 5.406-4.976" fill="#8a8cd0"/>
  </g>
  <g transform="matrix(1.9514 0 0 -1.9514 33.744 145.88)">
   <path d="m0 0c2.479-1.365 5.017-2.607 7.723-3.462 2.77-0.875 5.611-1.379 8.498-1.706 2.438-0.276 4.817-6e-3 7.439 0.354-0.576 0.219-0.927 0.196-1.285 0.162-0.72-0.07-1.442-0.187-2.161-0.172-2.574 0.05-5.104 0.393-7.632 0.932-3.278 0.7-6.256 2.053-9.093 3.744-2.366 1.41-4.673 2.921-7.119 4.193-2.271 1.181-4.479 2.534-7.133 2.764-1.192 0.103-2.312-0.04-3.436-0.417 0.109-0.304 0.254-0.343 0.397-0.346 2.272-0.051 4.329-0.866 6.292-1.892 2.534-1.325 5.004-2.774 7.51-4.154" fill="#7658de"/>
  </g>
  <g transform="matrix(1.9514 0 0 -1.9514 29.142 100.36)">
   <path d="m0 0c2.006-2.385 3.867-4.888 5.588-7.487 1.303-1.969 2.645-3.928 4.302-5.592 4.008-4.028 8.768-6.85 14.256-8.419 1.313-0.375 2.634-0.498 3.973-0.348 0.735 0.082 1.498 0.164 2.342 0.71-1.86-0.034-3.486-0.194-5.099 0.074-4.929 0.817-9.031 3.231-12.58 6.647-2.472 2.379-4.452 5.152-6.172 8.112-1.794 3.088-3.93 5.92-6.48 8.417-1.967 1.927-4.316 3.024-7.151 2.842-0.704-0.045-0.792-0.058-1.471-0.487 1.973-0.095 3.775-0.543 5.402-1.591 1.204-0.776 2.186-1.803 3.09-2.878" fill="#6a88ce"/>
  </g>
  <g transform="matrix(1.9514 0 0 -1.9514 21.795 115.55)">
   <path d="m0 0c2.833-2.04 5.393-4.396 7.913-6.797 1.706-1.625 3.418-3.255 5.368-4.576 2.745-1.86 5.745-3.237 8.93-4.167 2.686-0.784 5.44-1.252 8.244-1.205 1.601 0.027 3.121 0.482 4.546 1.434-0.296 0.158-0.43 0.092-0.569 0.056-1.54-0.4-3.071-0.824-4.687-0.843-4.946-0.057-9.407 1.462-13.523 4.109-3.011 1.938-5.576 4.389-7.986 7.017-2.191 2.388-4.656 4.451-7.379 6.217-1.927 1.249-3.995 1.867-6.283 1.678-0.998-0.082-1.979-0.278-2.852-0.95 0.15-0.07 0.216-0.13 0.268-0.12 2.946 0.572 5.593-0.113 8.01-1.853" fill="#6c92f8"/>
  </g>
  <g transform="matrix(1.9514 0 0 -1.9514 24.873 112.72)">
   <path d="m0 0c0.234-0.144 0.44-0.462 0.901-0.261-1.743 2.3-2.608 5.077-4.648 7.105 0.346-1.136 0.878-2.187 1.159-3.337 0.553-2.266 0.574-2.265 2.588-3.507" fill="#5c74d0"/>
  </g>
  <g transform="matrix(1.9514 0 0 -1.9514 18.689 128.72)">
   <path d="m0 0c0.895-0.323 1.792-0.639 2.817-1.004-1.226 1.732-5.03 5.654-6.08 6.169 1.057-1.346 1.759-2.891 2.566-4.374 0.173-0.318 0.324-0.656 0.697-0.791" fill="#6884cc"/>
  </g>
  <g transform="matrix(1.9514 0 0 -1.9514 21.652 134.21)">
   <path d="m0 0c2.9-1.409 5.706-2.992 8.435-4.713 2.422-1.527 4.891-2.976 7.636-3.857 4.645-1.492 9.389-2.026 14.25-1.434 1.53 0.186 2.987 0.576 4.324 1.333 0.633 0.357 1.27 0.751 1.769 1.432-0.529 3e-3 -0.842-0.261-1.186-0.427-0.848-0.41-1.683-0.846-2.585-1.132-3.984-1.266-7.994-1.123-11.994-0.141-4.429 1.087-8.35 3.241-12.024 5.894-2.654 1.917-5.512 3.474-8.545 4.706-2.199 0.893-4.446 1.29-6.781 0.575-1.004-0.307-1.938-0.75-2.62-1.639 0.239 0.067 0.484 0.116 0.715 0.204 0.993 0.381 2.02 0.517 3.08 0.569 1.99 0.099 3.79-0.527 5.526-1.37" fill="#546aec"/>
  </g>
  <g transform="matrix(1.9514 0 0 -1.9514 31.568 129.55)">
   <path d="m0 0c4.712-4.355 10.114-7.474 16.273-9.267 1.984-0.577 4.031-0.781 6.23-0.93-0.668 0.539-1.341 0.388-1.953 0.501-6.123 1.129-11.592 3.639-16.148 7.92-2.8 2.63-5.579 5.276-8.581 7.678-1.933 1.545-4.044 2.679-6.575 2.808-0.399 0.021-0.863 0.185-1.267-0.282 2.278-0.665 4.26-1.773 6.024-3.24 2.031-1.69 4.057-3.395 5.997-5.188" fill="#8274ca"/>
  </g>
  <g transform="matrix(1.9514 0 0 -1.9514 16.997 121.01)">
   <path d="m0 0c1.487-1.678 2.923-3.411 4.623-4.888 0.654-0.568 1.234-1.224 2.033-1.616 1.599-0.783 3.097-1.734 4.542-2.77 1.798-1.288 3.655-2.477 5.628-3.489 4.855-2.491 9.952-3.696 15.413-2.918 1.881 0.268 3.68 0.83 5.253 1.957-0.56-0.039-1.019-0.372-1.525-0.562-2.398-0.902-4.854-0.962-7.375-0.74-3.32 0.294-6.468 1.16-9.514 2.462-2.032 0.869-4.028 1.808-5.877 3.032-3.607 2.387-6.756 5.336-9.988 8.182-1.578 1.391-3.204 2.723-5.067 3.722-0.367 0.196-0.735 0.516-1.264 0.41 0.189-0.327 0.464-0.444 0.69-0.62 0.856-0.668 1.698-1.338 2.428-2.162" fill="#547eea"/>
  </g>
  <g transform="matrix(1.9514 0 0 -1.9514 28.139 93.507)">
   <path d="m0 0c0.703-0.692 1.325-1.478 2.364-2.187-0.391 1.135-0.713 2.037-1.013 2.947-0.293 0.89-0.547 1.792-0.848 2.68-0.656 1.94-0.668 1.945-1.306 2.434 0.375-1.614 0.593-3.21 0.603-4.834 2e-3 -0.346-0.074-0.77 0.2-1.04" fill="#8450da"/>
  </g>
  <g transform="matrix(1.9514 0 0 -1.9514 67.963 61.687)">
   <path d="m0 0c1.264 2.89 2.442 7.155 2.216 8.369-0.635-1.858-1.716-3.255-2.57-4.783-0.124-0.221-0.271-0.44-0.221-0.705 0.177-0.941 0.242-1.908 0.575-2.881" fill="#7a6cf2"/>
  </g>
  <g transform="matrix(1.9514 0 0 -1.9514 53.455 70.765)">
   <path d="m0 0c0.068 3e-3 0.137 6e-3 0.206 0.01 0.084 0.962 0.152 1.927 0.256 2.888 0.106 0.969 0.247 1.935 0.374 2.902 0.114 0.872 0.037 2.17-0.221 2.928-0.239-1.951-0.931-3.621-1.551-5.314-0.108-0.295-0.283-0.589-0.129-0.938 0.364-0.822 0.711-1.65 1.065-2.476" fill="#8c68f4"/>
  </g>
  <g transform="matrix(1.9514 0 0 -1.9514 63.465 60.476)">
   <path d="m0 0c0.21-2.526 0.292-5.064 0.258-7.602-0.029-2.129-0.087-4.257-0.099-6.387-0.022-3.705 1.024-7.148 2.283-10.552 0.911-2.464 2.339-4.647 3.824-6.805 0.987-1.434 2.149-2.642 3.63-3.531 0.562-0.338 1.153-0.703 2.123-0.672-0.632 0.433-1.065 0.747-1.516 1.034-1.769 1.129-3.186 2.608-4.391 4.314-3.207 4.544-4.467 9.682-4.64 15.149-0.066 2.102 0.183 4.189 0.333 6.283 0.201 2.82 0.168 5.649-0.193 8.464-0.228 1.776-0.625 3.5-1.621 5.021-0.989 1.508-2.235 2.713-3.973 3.294-0.054-0.073-0.108-0.146-0.162-0.219 0.142-0.111 0.285-0.221 0.428-0.333 2.422-1.896 3.47-4.501 3.716-7.458" fill="#705eea"/>
  </g>
  <g transform="matrix(1.9514 0 0 -1.9514 68.209 72.567)">
   <path d="m0 0c0.045-0.539 1e-3 -1.087-0.032-1.629-0.178-2.957-0.542-5.895-0.281-8.88 0.317-3.612 1.045-7.082 2.727-10.314 1.041-2.001 2.232-3.9 3.907-5.448 0.54-0.499 1.104-0.969 1.786-1.271-0.143 0.367-0.414 0.588-0.685 0.819-1.002 0.85-1.893 1.82-2.525 2.964-1.05 1.902-1.969 3.871-2.66 5.94-0.749 2.246-1.055 4.57-1.365 6.905-0.365 2.745-0.372 5.481-0.052 8.22 0.391 3.345 1.171 6.621 1.819 9.92 0.306 1.56 0.646 3.121 0.726 4.71 0.056 1.106 0.14 2.229-0.103 3.359-0.31-0.164-0.243-0.404-0.274-0.61-0.109-0.713-0.206-1.429-0.333-2.139-0.244-1.362-0.786-2.633-1.214-3.939-0.917-2.796-1.693-5.613-1.441-8.607" fill="#6c6ef0"/>
  </g>
  <g transform="matrix(1.9514 0 0 -1.9514 33.441 86.24)">
   <path d="m0 0c1.209-2.51 2.366-5.045 3.542-7.572 1.132-2.434 2.38-4.809 3.929-7.004 2.035-2.884 4.434-5.451 7.16-7.693 1.424-1.17 3.018-2.098 4.879-3.053-0.117 0.276-0.122 0.317-0.145 0.339-0.077 0.075-0.151 0.159-0.241 0.213-5.703 3.435-9.876 8.235-12.511 14.322-1.511 3.488-2.914 7.021-4.661 10.402-1.274 2.467-2.882 4.609-5.599 5.647-0.18 0.069-0.367 0.267-0.6-0.044 1.835-1.526 3.217-3.418 4.247-5.557" fill="#6c7ef6"/>
  </g>
  <g transform="matrix(1.9514 0 0 -1.9514 85.655 140.12)">
   <path d="m0 0c-2.417-0.041-4.715 0.372-6.92 1.48-3.375 1.694-6.326 3.894-8.96 6.598-3.255 3.341-5.703 7.2-7.668 11.388-1.292 2.752-2.461 5.561-3.863 8.26-0.727 1.4-1.58 2.729-2.731 3.872-0.199-0.31-5e-3 -0.495 0.096-0.655 1.001-1.578 1.596-3.322 2.116-5.099 0.919-3.143 2.044-6.186 4.263-8.692 0.071-0.081 0.128-0.176 0.186-0.268 1.079-1.718 2.107-3.47 3.243-5.148 3.146-4.649 7.032-8.466 12.324-10.632 1.882-0.77 3.804-1.421 5.88-1.349 0.87 0.03 1.737 0.05 2.608 0.031 0.516-0.011 1.1-0.129 1.539 0.394-0.695-0.246-1.408-0.168-2.113-0.18" fill="#6050d4"/>
  </g>
  <g transform="matrix(1.9514 0 0 -1.9514 35.782 81.868)">
   <path d="m0 0c2.019-3.158 3.457-6.599 4.885-10.042 0.959-2.31 1.93-4.614 3.256-6.741 1.233-1.977 2.794-3.7 4.409-5.363 2.473-2.549 5.396-4.492 8.579-6.028 1.574-0.759 3.275-0.936 5.056-0.704-0.193 0.441-0.535 0.314-0.793 0.359-1.245 0.22-2.497 0.398-3.693 0.843-3.514 1.306-6.408 3.503-8.872 6.274-2.882 3.242-4.855 7.023-6.239 11.108-0.932 2.752-2.015 5.434-3.381 7.994-0.887 1.662-1.832 3.303-3.254 4.59-1.76 1.593-3.767 2.526-6.322 2.295 0.224-0.327 0.469-0.316 0.659-0.366 2.467-0.65 4.343-2.081 5.71-4.219" fill="#8658ea"/>
  </g>
  <g transform="matrix(1.9514 0 0 -1.9514 72.205 69.413)">
   <path d="m0 0c-0.531-2.738-0.922-5.497-0.933-8.286-8e-3 -2.207 0.29-4.397 0.617-6.582 0.35-2.344 0.953-4.603 1.945-6.753 0.248-0.537 0.364-1.153 0.826-1.6 0.238 0.312-2e-3 0.528-0.092 0.733-1.639 3.744-2.127 7.715-2.323 11.743-0.122 2.486 0.369 4.909 0.904 7.305 0.946 4.235 2.063 8.426 2.416 12.782 0.176 2.179-0.402 4.063-1.458 5.881-0.076 0.13-0.184 0.21-0.322 0.188-0.132-0.09-0.102-0.207-0.073-0.307 0.506-1.739 0.478-3.521 0.298-5.287-0.337-3.317-1.172-6.55-1.805-9.817" fill="#5882e4"/>
  </g>
  <g transform="matrix(1.9514 0 0 -1.9514 48.485 186.54)">
   <path d="m0 0c1.575 0.226 3.174 0.29 4.742 0.549 3.797 0.628 7.484 1.615 10.966 3.329 2.58 1.271 5.089 2.63 7.234 4.567 0.518 0.468 1.124 0.871 1.37 1.585-0.093-0.053-0.199-0.09-0.278-0.159-5.047-4.404-10.948-6.91-17.574-7.545-3.709-0.357-7.427-0.606-11.111-1.186-2.166-0.341-4.254-0.882-6.018-2.287-0.624-0.497-1.179-1.039-1.493-1.8 1.055 0.551 2.1 1.033 3.197 1.413 2.906 1.007 5.964 1.104 8.965 1.534" fill="#665ae4"/>
  </g>
  <g transform="matrix(1.9514 0 0 -1.9514 43.914 191.2)">
   <path d="m0 0c2.399 0.015 4.769 0.171 7.022 1.136 0.693 0.297 1.45 0.451 2.185 0.64 2.589 0.667 5.214 1.193 7.721 2.173 3.724 1.456 7.117 3.405 9.9 6.324 1.586 1.664 3.002 3.444 3.901 5.583 0.142 0.339 0.435 0.672 0.194 1.145-0.219-0.21-0.31-0.437-0.422-0.664-0.531-1.073-1.065-2.158-1.889-3.037-2.824-3.014-5.988-5.572-9.789-7.286-2.181-0.983-4.36-1.96-6.68-2.577-4.004-1.065-8.123-1.392-12.216-1.888-2.191-0.266-4.389-0.494-6.481-1.259-0.495-0.181-1.04-0.28-1.466-0.701 0.306-0.181 0.552-0.042 0.77 9e-3 1.313 0.309 2.636 0.44 3.984 0.406 1.088-0.027 2.177-0.011 3.266-4e-3" fill="#524aec"/>
  </g>
  <g transform="matrix(1.9514 0 0 -1.9514 35.542 150.69)">
   <path d="m0 0c2.069-0.539 3.95-1.607 5.957-2.333 5.049-1.828 10.192-2.729 15.55-1.619 2.324 0.482 4.547 1.21 6.515 2.578 0.263 0.183 0.691 0.253 0.683 0.707-0.065-5e-3 -0.137 0-0.184-0.032-2.674-1.816-5.716-2.346-8.853-2.566-2.691-0.188-5.36-5e-3 -8.001 0.508-2.342 0.455-4.657 1.009-6.894 1.887-3.758 1.477-7.192 3.565-10.699 5.518-2.216 1.234-4.424 2.481-6.924 3.074-0.237 0.056-0.467 0.193-0.708 0.023 0.028-0.177 0.177-0.238 0.302-0.286 1.846-0.714 3.441-1.842 4.995-3.033 2.513-1.926 5.138-3.613 8.261-4.426" fill="#4a68f8"/>
  </g>
  <g transform="matrix(1.9514 0 0 -1.9514 61.141 208.78)">
   <path d="m0 0c2.961 2.299 6.195 4.161 9.506 5.873 4.043 2.089 7.633 4.703 10.589 8.186 2.376 2.797 4.127 5.954 5.452 9.345 0.678 1.738 0.809 3.573 0.194 5.411-0.217-0.33-0.151-0.694-0.183-1.048-0.107-1.224-0.176-2.45-0.499-3.647-0.997-3.695-2.973-6.824-5.562-9.582-2.947-3.137-6.512-5.41-10.394-7.198-3.636-1.675-7.113-3.595-10.135-6.258-1.632-1.438-2.679-3.216-3.092-5.356-0.147-0.765-0.125-1.529-0.021-2.318 0.468 0.111 0.402 0.417 0.448 0.638 0.511 2.434 1.719 4.418 3.697 5.954" fill="#4670f8"/>
  </g>
  <g transform="matrix(1.9514 0 0 -1.9514 35.7 183.95)">
   <path d="m0 0c1.698 0.367 3.414 0.629 5.135 0.824 2.407 0.274 4.822 0.481 7.236 0.683 1.697 0.142 3.387 0.361 5.038 0.748 2.333 0.546 4.525 1.519 6.682 2.545 3.043 1.449 5.632 3.56 8.06 5.851 1.415 1.335 2.299 3.035 2.662 5.204-0.524-0.448-0.646-0.878-0.833-1.262-1-2.052-2.385-3.804-4.107-5.289-4.874-4.203-10.687-5.933-16.971-6.388-2.131-0.155-4.276 0.021-6.404-0.229-2.661-0.312-5.328-0.616-7.863-1.541-2.566-0.936-4.537-2.544-5.505-5.19-0.074-0.201-0.276-0.427-0.05-0.659 0.219 0.049 0.316 0.206 0.416 0.356 1.563 2.355 3.756 3.753 6.504 4.347" fill="#6a6ad2"/>
  </g>
  <g transform="matrix(1.9514 0 0 -1.9514 70.179 197.69)">
   <path d="m0 0c0.73 0.52 1.579 0.882 2.397 1.267 2.489 1.174 4.968 2.357 7.255 3.915 3.909 2.662 7.061 5.969 9.108 10.278 0.611 1.286 1.071 2.611 1.344 4.001 0.084 0.426 0.23 0.878-0.098 1.527-0.415-2.723-1.531-4.907-2.985-6.976-2.067-2.94-4.617-5.335-7.472-7.5-3.545-2.688-7.494-4.487-11.646-5.934-2.869-0.999-5.788-1.86-8.602-3.014-1.369-0.562-2.667-1.252-3.817-2.184 0.042-0.061 0.083-0.123 0.125-0.184 0.527 0.229 1.052 0.461 1.58 0.688 1.746 0.751 3.634 0.927 5.459 1.362 2.562 0.61 5.138 1.175 7.352 2.754" fill="#464ae0"/>
  </g>
  <g transform="matrix(1.9514 0 0 -1.9514 57.291 206.82)">
   <path d="m0 0c0.72 0.579 1.4 1.207 2.096 1.815l-0.089 0.208c-2.674-0.826-5.527-0.919-8.091-2.236 0.105-0.011 0.214-0.045 0.314-0.028 1.467 0.252 2.933 0.254 4.408 0.042 0.457-0.066 0.972-0.115 1.362 0.199" fill="#8e4af2"/>
  </g>
  <g transform="matrix(1.9514 0 0 -1.9514 47.051 197.66)">
   <path d="m0 0c3.226 1.5 6.607 2.577 10.016 3.561 2.368 0.684 4.736 1.389 6.944 2.481 3.106 1.537 5.88 3.579 8.354 6.008 1.505 1.477 2.74 3.188 3.986 4.88 0.94 1.279 1.455 2.746 1.675 4.314 0.052 0.371 0.105 0.758-0.096 1.141-0.287-0.189-0.324-0.457-0.374-0.686-0.993-4.533-3.813-7.845-7.28-10.655-3.581-2.903-7.767-4.627-12.219-5.68-3.461-0.818-6.874-1.749-10.122-3.225-2.217-1.007-4.2-2.283-5.472-4.452-0.67-1.144-1.001-2.371-1.134-3.796 0.377 0.213 0.438 0.386 0.5 0.553 0.968 2.578 2.747 4.406 5.222 5.556" fill="#7c78e0"/>
  </g>
  <g transform="matrix(1.9514 0 0 -1.9514 31.818 180.87)">
   <path d="m0 0c0.949 0.286 1.954 0.42 2.832 0.942-1.524 0.293-3 0.623-4.477 0.955-1.38 0.311-2.766 0.726-4.253 0.446 0.31-0.275 0.697-0.235 1.026-0.332 1.293-0.38 2.465-1.021 3.664-1.609 0.386-0.189 0.811-0.522 1.208-0.402" fill="#6078ea"/>
  </g>
  <g transform="matrix(1.9514 0 0 -1.9514 66.164 195.41)">
   <path d="m0 0c2.7 0.95 5.333 2.043 7.824 3.468 1.514 0.867 2.907 1.906 4.299 2.948 2.546 1.904 4.743 4.148 6.528 6.783 0.111 0.163 0.375 0.339 0.168 0.624-0.097-0.062-0.176-0.086-0.216-0.14-1.993-2.713-4.405-4.985-7.198-6.857-1.594-1.068-3.161-2.18-4.963-2.893-2.626-1.04-5.341-1.802-8.035-2.637-2.936-0.91-5.868-1.847-8.611-3.277-1.73-0.902-2.982-2.268-3.909-3.957-0.068-0.124-0.13-0.266 1e-3 -0.398 0.163-0.046 0.263 0.061 0.36 0.159 1.243 1.261 2.759 2.114 4.349 2.828 3.043 1.367 6.264 2.245 9.403 3.349" fill="#5290e6"/>
  </g>
  <g transform="matrix(1.9514 0 0 -1.9514 43.428 195.07)">
   <path d="m0 0c0.818 0.437 1.638 0.87 2.458 1.305-0.012 0.078-0.023 0.156-0.035 0.234-2.974-0.377-5.998 0.219-9.18-0.458 0.839-0.333 1.499-0.171 2.136-0.251 1.261-0.158 2.437-0.64 3.68-0.849 0.326-0.055 0.627-0.148 0.941 0.019" fill="#526efa"/>
  </g>
  <g transform="matrix(1.9514 0 0 -1.9514 18.139 154.91)">
   <path d="m0 0c3.389-0.628 6.606-1.87 9.894-2.859 3.227-0.971 6.492-1.752 9.869-1.95 2.461-0.143 4.923-0.076 7.37 0.225 2.483 0.306 4.863 1.006 7.046 2.11-1.253-0.336-2.493-0.743-3.763-0.994-2.809-0.556-5.634-0.694-8.513-0.57-3.056 0.132-5.937 0.872-8.768 1.86-3.517 1.227-7.031 2.451-10.649 3.352-1.441 0.358-2.91 0.524-4.395 0.343-1.176-0.144-2.296-0.454-3.293-1.212 0.308-0.222 0.574-0.139 0.796-0.088 1.492 0.341 2.956 0.052 4.406-0.217" fill="#785afe"/>
  </g>
  <g transform="matrix(1.9514 0 0 -1.9514 19.792 151)">
   <path d="m0 0c2.383-0.331 4.64-1.092 6.923-1.775 3.256-0.975 6.387-2.333 9.699-3.14 1.199-0.293 2.412-0.497 3.634-0.578 4.486-0.296 8.878 0.167 13.163 1.626 1.5 0.511 2.894 1.145 4.079 2.188 0.567 0.498 1.142 1.017 1.565 1.867-0.585-0.178-0.842-0.49-1.146-0.729-1.027-0.805-2.056-1.61-3.253-2.154-3.767-1.714-7.699-2.357-11.837-2.024-3.952 0.318-7.683 1.396-11.288 2.955-3.371 1.458-6.829 2.596-10.464 3.145-2.282 0.345-4.484 0.088-6.509-1.104-0.769-0.452-1.468-0.996-1.962-1.815 0.401-0.128 0.598 0.133 0.83 0.272 2.037 1.217 4.208 1.594 6.566 1.266" fill="#6690fc"/>
  </g>
  <g transform="matrix(1.9514 0 0 -1.9514 19.776 146.99)">
   <path d="m0 0c0.892-0.097 1.78-0.233 2.669-0.353-1.261 1.02-2.514 1.933-3.75 2.871-0.777 0.589-1.546 1.203-2.419 1.651-0.235 0.121-0.466 0.39-0.863 0.127 1.291-1.14 2.376-2.442 3.465-3.741 0.229-0.273 0.494-0.511 0.898-0.555" fill="#7060de"/>
  </g>
  <g transform="matrix(1.9514 0 0 -1.9514 31.025 163.09)">
   <path d="m0 0c0.882-0.301 1.756-0.621 2.716-0.702 1.835-0.156 3.664-0.363 5.477-0.738 3.626-0.749 7.279-1.134 10.999-0.784 3.487 0.329 6.733 1.356 9.785 3.025 1.697 0.927 3.178 2.133 4.304 3.755-1.835-1.677-3.813-3.087-6.222-3.849-2.106-0.666-4.188-1.371-6.406-1.609-1.616-0.174-3.234-0.211-4.851-0.316-1.712-0.11-3.409 0.07-5.085 0.293-3.236 0.429-6.377 1.311-9.481 2.321-2.546 0.828-5.08 1.715-7.712 2.231-1.217 0.238-2.455 0.52-3.982 0.23 0.473-0.14 0.698-0.235 0.933-0.271 1.593-0.243 3.087-0.8 4.523-1.495 1.631-0.789 3.29-1.507 5.002-2.091" fill="#5a7ae8"/>
  </g>
  <g transform="matrix(1.9514 0 0 -1.9514 36.423 173.31)">
   <path d="m0 0c1.91-0.14 3.815-0.345 5.724-0.501 1.959-0.159 3.922-0.209 5.86-0.062 3.433 0.262 6.779 1.076 10.039 2.188 1.958 0.668 3.768 1.648 5.578 2.846-0.189 0.073-0.228 0.104-0.252 0.095-0.134-0.048-0.273-0.091-0.396-0.161-2.867-1.617-5.954-2.579-9.168-3.239-3.044-0.625-6.111-0.747-9.161-0.369-3.911 0.485-7.811 1.047-11.752 1.223-2.667 0.119-5.199-0.292-7.386-1.977-0.18-0.139-0.443-0.239-0.377-0.612 2.145 0.787 4.333 1.023 6.539 0.967 1.587-0.04 3.167-0.282 4.752-0.398" fill="#4a50da"/>
  </g>
  <g transform="matrix(1.9514 0 0 -1.9514 26.608 175.67)">
   <path d="m0 0c1.8-0.391 3.582-0.9 5.421-1.089 1.04-0.106 2.098-0.458 3.122-0.258 2.796 0.549 5.629 0.387 8.441 0.548 4.018 0.231 7.902 0.959 11.557 2.654 3.122 1.449 5.897 3.397 8.036 6.15 0.434 0.558 0.849 1.134 1.111 1.9-0.455-0.185-0.579-0.533-0.796-0.796-0.874-1.062-1.701-2.168-2.86-2.955-3.258-2.214-6.716-3.981-10.592-4.859-2.899-0.656-5.792-1.301-8.795-1.181-0.937 0.038-1.876-9e-3 -2.813 0.01-2.497 0.049-4.972 0.383-7.456 0.602-1.802 0.159-3.603 0.415-5.417 0.321-1.135-0.059-2.288-0.098-3.375-0.488 2e-3 -0.076 4e-3 -0.151 7e-3 -0.227 0.213 0 0.427-5e-3 0.64 1e-3 1.269 0.033 2.517-0.061 3.769-0.333" fill="#7866f6"/>
  </g>
  <g transform="matrix(1.9514 0 0 -1.9514 33.06 168.59)">
   <path d="m0 0c1.551-0.071 3.1-0.226 4.644-0.402 2.658-0.304 5.303-0.714 7.976-0.885 2.818-0.179 5.547 0.387 8.267 0.99 3.473 0.769 6.614 2.328 9.615 4.183 1.675 1.035 2.836 2.524 3.617 4.308l-0.18 0.132c-0.637-0.735-1.251-1.492-1.913-2.203-2.531-2.721-5.773-4.23-9.262-5.219-4.694-1.331-9.46-1.206-14.21-0.324-4.139 0.769-8.275 1.445-12.503 0.99-2.723-0.294-4.992-1.422-6.609-3.7-0.18-0.254-0.377-0.513-0.345-0.912 0.147 0.077 0.256 0.103 0.322 0.171 2.275 2.371 5.168 3.051 8.312 3.047 0.759-1e-3 1.508-0.141 2.269-0.176" fill="#5e8ef0"/>
  </g>
  <g transform="matrix(1.9514 0 0 -1.9514 23.987 164.5)">
   <path d="m0 0c0.931 0.041 1.862 0.095 2.792 0.144 0.021 0.098 0.042 0.195 0.063 0.293-2.781 0.768-5.151 2.584-8.056 3.046 0.86-0.62 1.791-1.107 2.616-1.755 0.57-0.447 1.132-0.905 1.704-1.348 0.259-0.199 0.534-0.395 0.881-0.38" fill="#5a7ac8"/>
  </g>
 </g>
</svg>
