<?xml version="1.0" encoding="UTF-8" standalone="no"?>
<svg
   xmlns:dc="http://purl.org/dc/elements/1.1/"
   xmlns:cc="http://creativecommons.org/ns#"
   xmlns:rdf="http://www.w3.org/1999/02/22-rdf-syntax-ns#"
   xmlns:svg="http://www.w3.org/2000/svg"
   xmlns="http://www.w3.org/2000/svg"
   xmlns:sodipodi="http://sodipodi.sourceforge.net/DTD/sodipodi-0.dtd"
   xmlns:inkscape="http://www.inkscape.org/namespaces/inkscape"
   inkscape:version="1.0 (4035a4fb49, 2020-05-01)"
   sodipodi:docname="mandala4.svg"
   id="svg73502"
   viewBox="0 0 184.52134 195.96339"
   version="1.1"
   height="195.96339mm"
   width="184.52135mm">
  <defs
     id="defs73506" />
  <sodipodi:namedview
     inkscape:current-layer="svg73502"
     inkscape:window-maximized="1"
     inkscape:window-y="41"
     inkscape:window-x="-9"
     inkscape:cy="379.35888"
     inkscape:cx="186.07516"
     inkscape:zoom="1.16668"
     showgrid="false"
     id="namedview73504"
     inkscape:window-height="1001"
     inkscape:window-width="1920"
     inkscape:pageshadow="2"
     inkscape:pageopacity="0"
     guidetolerance="10"
     gridtolerance="10"
     objecttolerance="10"
     borderopacity="1"
     bordercolor="#666666"
     pagecolor="#ffffff" />
  <metadata
     id="metadata72938">
    <rdf:RDF>
      <cc:Work
         rdf:about="">
        <dc:format>image/svg+xml</dc:format>
        <dc:type
           rdf:resource="http://purl.org/dc/dcmitype/StillImage" />
        <dc:title />
      </cc:Work>
    </rdf:RDF>
  </metadata>
  <g
     id="g73500"
     transform="rotate(10,336.65324,43.90476)">
    <g
       id="g72942"
       transform="matrix(1.8174,0,0,-1.8174,113.24,92.951)">
      <path
         id="path72940"
         fill="#c0e3a9"
         d="m 0,0 c -0.085,0.006 -0.171,0.011 -0.256,0.017 -0.737,-1.241 -1.449,-2.495 -2.087,-3.796 -0.335,-0.683 -0.414,-1.3 -0.12,-2.011 0.344,-0.833 0.585,-1.707 0.917,-2.546 0.723,-1.831 1.608,-3.581 2.778,-5.173 0.418,-0.569 0.494,-0.567 0.908,0 0.486,0.665 0.915,1.376 1.437,2.011 0.366,0.448 0.336,0.818 0.071,1.277 -1.569,2.708 -2.493,5.66 -3.249,8.674 C 0.269,-1.03 0.133,-0.516 0,0" />
    </g>
    <g
       id="g72946"
       transform="matrix(1.8174,0,0,-1.8174,137.09,123.73)">
      <path
         id="path72944"
         fill="#b8f595"
         d="m 0,0 c -1.485,-0.204 -2.899,-0.657 -4.338,-0.999 -0.944,-0.224 -1.607,-0.718 -1.994,-1.633 -0.259,-0.611 -0.68,-1.151 -0.962,-1.754 -0.541,-1.161 -1.155,-2.305 -1.265,-3.691 0.909,0 1.766,0.041 2.617,-0.013 0.651,-0.041 1.007,0.202 1.259,0.792 1.029,2.406 2.519,4.513 4.264,6.45 C -0.221,-0.628 0.045,-0.425 0,0" />
    </g>
    <g
       id="g72950"
       transform="matrix(1.8174,0,0,-1.8174,130.42,138.77)">
      <path
         id="path72948"
         fill="#b4e1a3"
         d="M 0,0 C 0.704,-0.063 1.414,-0.095 2.108,-0.219 2.872,-0.356 3.349,-0.143 3.723,0.574 4.49,2.049 5.6,3.287 6.663,4.554 7.904,6.033 9.362,7.302 10.894,8.927 9.933,8.88 9.244,8.841 8.554,8.816 7.648,8.782 6.741,8.776 5.836,8.724 5.359,8.696 4.929,8.543 4.603,8.133 3.574,6.84 2.411,5.654 1.498,4.267 0.762,3.147 0.05,2.016 -0.47,0.772 -0.69,0.244 -0.516,0.046 0,0" />
    </g>
    <g
       id="g72954"
       transform="matrix(1.8174,0,0,-1.8174,91.607,120.79)">
      <path
         id="path72952"
         fill="#d2d7af"
         d="m 0,0 c -2.602,-0.328 -5.174,-0.111 -7.729,0.425 -0.287,0.06 -0.585,0.238 -0.994,-0.077 1.246,-1.375 2.419,-2.783 3.856,-3.947 0.165,-0.134 0.348,-0.171 0.547,-0.174 2.281,-0.035 4.562,-0.069 6.976,0.732 -0.51,0.873 -0.997,1.626 -1.4,2.422 C 0.972,-0.058 0.562,0.071 0,0" />
    </g>
    <g
       id="g72958"
       transform="matrix(1.8174,0,0,-1.8174,60.873,156.29)">
      <path
         id="path72956"
         fill="#cce39d"
         d="m 0,0 c 0.149,-0.282 0.319,-0.273 0.467,-0.265 1.489,0.075 2.978,0.151 4.466,0.244 0.537,0.033 0.952,0.307 1.295,0.723 0.675,0.818 1.401,1.597 2.048,2.436 1.13,1.466 2.149,3.009 2.873,4.723 0.279,0.661 0.222,0.749 -0.466,0.834 C 9.905,8.792 9.115,8.805 8.344,8.935 7.737,9.037 7.395,8.826 7.114,8.311 6.567,7.309 5.874,6.405 5.178,5.499 3.642,3.497 1.788,1.797 0,0" />
    </g>
    <g
       id="g72962"
       transform="matrix(1.8174,0,0,-1.8174,105.26,98.798)">
      <path
         id="path72960"
         fill="#ceef95"
         d="m 0,0 c -1.976,-1.854 -3.848,-3.818 -5.921,-5.569 -0.6,-0.507 -1.177,-1.042 -1.786,-1.537 -0.297,-0.242 -0.346,-0.473 -0.184,-0.813 0.424,-0.885 0.835,-1.777 1.233,-2.675 0.208,-0.469 0.448,-0.529 0.905,-0.261 1.196,0.701 2.283,1.55 3.257,2.516 1.285,1.277 2.366,2.682 2.811,4.536 0.523,2.186 1.48,4.222 2.6,6.173 C 3.146,2.772 3.449,3.142 3.542,3.912 3.159,3.492 2.903,3.247 2.688,2.97 1.864,1.914 0.975,0.915 0,0" />
    </g>
    <g
       id="g72966"
       transform="matrix(1.8174,0,0,-1.8174,72.67,130.62)">
      <path
         id="path72964"
         fill="#ced5a1"
         d="m 0,0 c 0.249,-1.07 0.41,-2.159 0.636,-3.235 0.306,-1.46 0.132,-1.167 1.551,-1.441 0.73,-0.142 1.488,-0.032 2.226,-0.199 0.48,-0.109 0.59,0.228 0.61,0.635 0.055,1.11 -0.089,2.208 -0.341,3.274 -0.461,1.951 -1.014,3.85 -2.546,5.338 -1.122,1.09 -2.151,2.298 -3.013,3.619 -0.682,1.045 -1.304,2.13 -1.953,3.197 -0.067,-0.03 -0.135,-0.06 -0.202,-0.09 0.035,-0.143 0.055,-0.291 0.107,-0.427 C -1.614,7.206 -0.835,3.595 0,0" />
    </g>
    <g
       id="g72970"
       transform="matrix(1.8174,0,0,-1.8174,88.204,112.98)">
      <path
         id="path72968"
         fill="#c4ef99"
         d="m 0,0 c -3.293,-0.048 -6.449,0.726 -9.582,1.636 -0.358,0.104 -0.703,0.374 -1.242,0.169 0.892,-1.586 1.755,-3.149 2.898,-4.54 0.184,-0.224 0.46,-0.273 0.738,-0.32 1.197,-0.205 2.387,-0.463 3.59,-0.628 1.718,-0.236 3.452,-0.166 5.178,-0.085 0.795,0.037 0.834,0.139 0.533,0.849 C 1.806,-2.197 1.428,-1.504 1.147,-0.772 0.932,-0.212 0.598,0.009 0,0" />
    </g>
    <g
       id="g72974"
       transform="matrix(1.8174,0,0,-1.8174,126.02,104.59)">
      <path
         id="path72972"
         fill="#b6e3a1"
         d="m 0,0 c -1.322,2.95 -2.383,5.982 -2.933,9.183 -0.124,0.726 -0.178,1.478 -0.489,2.219 -0.415,-0.09 -0.553,-0.341 -0.713,-0.557 C -4.765,9.992 -5.353,9.105 -6.026,8.288 -6.506,7.705 -6.539,7.119 -6.395,6.426 -5.8,3.568 -4.93,0.802 -3.749,-1.868 c 0.299,-0.674 0.601,-1.343 1.17,-1.945 0.89,1.025 1.727,2.006 2.585,2.967 C 0.283,-0.536 0.135,-0.301 0,0" />
    </g>
    <g
       id="g72978"
       transform="matrix(1.8174,0,0,-1.8174,93.58,158.7)">
      <path
         id="path72976"
         fill="#c0dda9"
         d="M 0,0 C 0.262,-0.155 0.448,-0.033 0.577,0.198 1.018,0.983 1.455,1.77 1.887,2.56 2.015,2.794 1.993,3.03 1.759,3.178 0.75,3.818 -0.353,4.43 -1.541,4.068 -2.977,3.63 -4.332,2.923 -5.724,2.331 -5.687,2.262 -5.676,2.204 -5.649,2.196 -3.715,1.595 -1.762,1.044 0,0" />
    </g>
    <g
       id="g72982"
       transform="matrix(1.8174,0,0,-1.8174,127.82,140.67)">
      <path
         id="path72980"
         fill="#dae9af"
         d="M 0,0 C 0.008,0.341 -0.056,0.63 -0.499,0.625 -1.323,0.614 -2.147,0.628 -2.97,0.598 -3.283,0.586 -3.616,0.495 -3.648,0.087 c -0.097,-1.209 -0.009,-2.47 0.925,-3.278 1.081,-0.934 2.267,-1.77 3.587,-2.811 C 0.94,-5.07 0.529,-4.491 0.443,-3.845 0.272,-2.566 -0.03,-1.303 0,0" />
    </g>
    <g
       id="g72986"
       transform="matrix(1.8174,0,0,-1.8174,102.31,173.49)">
      <path
         id="path72984"
         fill="#d8df97"
         d="M 0,0 C 0.086,-0.259 0.103,-0.607 0.536,-0.843 1.203,0.96 1.715,2.712 2.068,4.511 2.124,4.798 1.948,5.046 1.814,5.279 0.719,7.186 -0.37,9.099 -2.199,10.706 -2.68,9.864 -3.068,9.097 -3.541,8.386 -3.901,7.844 -3.876,7.43 -3.482,6.912 -1.898,4.826 -0.823,2.476 0,0" />
    </g>
    <g
       id="g72990"
       transform="matrix(1.8174,0,0,-1.8174,82.872,138.26)">
      <path
         id="path72988"
         fill="#cee5b3"
         d="m 0,0 c -0.011,-0.348 -0.05,-0.766 0.477,-0.774 0.866,-0.013 1.733,-0.003 2.6,0.015 0.241,0.005 0.446,0.106 0.549,0.367 0.3,0.763 -0.14,2.931 -0.84,3.433 C 1.577,3.908 0.435,4.864 -0.889,5.881 -0.962,5.05 -0.576,4.547 -0.476,3.976 -0.245,2.658 0.044,1.351 0,0" />
    </g>
    <g
       id="g72994"
       transform="matrix(1.8174,0,0,-1.8174,73.619,155.59)">
      <path
         id="path72992"
         fill="#cee3a9"
         d="M 0,0 C 1.775,0.383 3.46,0.727 5.091,1.299 5.391,1.404 5.677,1.525 5.85,1.818 7.006,3.774 8.17,5.727 8.665,8.129 7.694,8.129 6.869,8.087 6.049,8.142 5.361,8.188 4.968,7.946 4.695,7.308 3.682,4.936 2.217,2.855 0.493,0.948 0.274,0.706 0.027,0.469 0,0" />
    </g>
    <g
       id="g72998"
       transform="matrix(1.8174,0,0,-1.8174,118.94,158.47)">
      <path
         id="path72996"
         fill="#baf1ad"
         d="M 0,0 C 2.721,0.379 5.401,0.105 8.067,-0.468 8.275,-0.513 8.516,-0.634 8.774,-0.347 8.187,0.618 7.257,1.308 6.544,2.179 5.581,3.356 4.409,4.122 2.781,3.802 2.591,3.765 2.388,3.799 2.191,3.796 0.85,3.775 -0.474,3.611 -1.777,3.294 -2.534,3.109 -2.545,3.076 -2.147,2.366 -1.802,1.749 -1.424,1.15 -1.084,0.529 -0.84,0.085 -0.47,-0.066 0,0" />
    </g>
    <g
       id="g73002"
       transform="matrix(1.8174,0,0,-1.8174,107,154.18)">
      <path
         id="path73000"
         fill="#d2d7b1"
         d="M 0,0 C -0.003,0.147 -0.072,0.31 -0.157,0.433 -0.855,1.443 -1.701,2.317 -2.651,3.091 -2.973,3.354 -3.209,3.295 -3.39,2.919 -3.647,2.387 -3.894,1.848 -4.194,1.34 -4.464,0.885 -4.387,0.559 -4.013,0.204 c 1.269,-1.202 2.242,-2.631 3.1,-4.143 0.13,-0.23 0.23,-0.505 0.599,-0.584 C 0.115,-3.033 0.034,-1.514 0,0" />
    </g>
    <g
       id="g73006"
       transform="matrix(1.8174,0,0,-1.8174,109.97,163.86)">
      <path
         id="path73004"
         fill="#d2d9a9"
         d="M 0,0 C 1.007,0.809 1.95,1.702 3.112,2.3 3.564,2.533 3.598,2.822 3.333,3.244 2.835,4.039 2.376,4.857 1.865,5.727 1.173,5.515 0.669,5.19 0.241,4.8 -0.271,4.335 -0.92,3.881 -0.995,3.146 -1.148,1.637 -1.422,0.145 -1.623,-1.44 -0.846,-1.125 -0.538,-0.433 0,0" />
    </g>
    <g
       id="g73010"
       transform="matrix(1.8174,0,0,-1.8174,151.77,121.77)">
      <path
         id="path73008"
         fill="#cadd93"
         d="m 0,0 c -0.107,0.157 -0.194,0.337 -0.434,0.325 -0.878,-0.048 -1.703,0.263 -2.539,0.435 -3.43,0.701 -6.78,1.713 -10.107,2.796 -0.935,0.304 -1.866,0.624 -2.781,0.982 -0.536,0.209 -0.885,0.094 -1.195,-0.382 -0.494,-0.759 -1.013,-1.502 -1.55,-2.23 -0.329,-0.445 -0.185,-0.672 0.25,-0.913 1.246,-0.691 2.552,-1.244 3.926,-1.584 1.522,-0.375 3.054,-0.74 4.647,-0.252 2.932,0.899 5.967,0.936 8.996,0.98 C -0.519,0.16 -0.236,0.183 0,0" />
    </g>
    <g
       id="g73014"
       transform="matrix(1.8174,0,0,-1.8174,166.45,122.11)">
      <path
         id="path73012"
         fill="#bae999"
         d="m 0,0 c -1.729,0.1 -3.403,0.123 -5.081,0.085 1.406,-0.477 2.889,-0.612 4.323,-0.963 C -0.181,-1.019 -0.064,-0.552 0,0" />
    </g>
    <g
       id="g73018"
       transform="matrix(1.8174,0,0,-1.8174,168.95,114.43)">
      <path
         id="path73016"
         fill="#b4f593"
         d="m 0,0 c -3.954,-0.221 -7.843,0.302 -11.701,1.098 -3.621,0.746 -7.204,1.629 -10.576,3.2 -0.375,0.175 -0.641,0.119 -0.938,-0.184 -0.827,-0.845 -1.588,-1.74 -2.281,-2.718 0.185,-0.367 0.453,-0.36 0.663,-0.439 2.76,-1.042 5.591,-1.848 8.429,-2.645 2.654,-0.744 5.329,-1.291 8.072,-1.607 1.92,-0.221 3.853,-0.052 5.762,-0.354 0.463,-0.074 0.937,0.002 1.4,0.14 0.294,0.088 0.488,0.24 0.596,0.513 0.334,0.841 0.678,1.679 0.988,2.529 C 0.538,-0.127 0.394,0.022 0,0" />
    </g>
    <g
       id="g73022"
       transform="matrix(1.8174,0,0,-1.8174,170.82,106.43)">
      <path
         id="path73020"
         fill="#c4dfb7"
         d="m 0,0 c -2.403,-0.151 -4.779,0.089 -7.158,0.398 -3.786,0.491 -7.488,1.341 -11.141,2.431 -0.745,0.222 -1.464,0.87 -2.207,0.656 -0.724,-0.209 -1.202,-0.982 -1.717,-1.568 -1.127,-1.281 -1.636,-1.283 0.47,-2.085 2.311,-0.881 4.692,-1.544 7.095,-2.13 3.748,-0.913 7.552,-1.424 11.406,-1.518 0.747,0 1.494,-0.006 2.241,0.002 0.529,0.005 0.883,0.221 1.017,0.783 0.183,0.763 0.444,1.507 0.623,2.27 C 0.778,-0.12 0.648,0.041 0,0" />
    </g>
    <g
       id="g73026"
       transform="matrix(1.8174,0,0,-1.8174,151.82,121.78)">
      <path
         id="path73024"
         fill="#daddb1"
         d="M 0,0 C 0.899,-0.02 1.797,-0.041 2.696,-0.061 1.807,0.247 0.901,0.069 0,0" />
    </g>
    <g
       id="g73030"
       transform="matrix(1.8174,0,0,-1.8174,172.22,98.673)">
      <path
         id="path73028"
         fill="#ccf1b3"
         d="m 0,0 c -0.156,-0.018 -0.313,-0.039 -0.468,-0.067 -2.71,-0.484 -5.418,-0.27 -8.098,0.17 -2.913,0.479 -5.746,1.304 -8.496,2.389 -0.329,0.13 -0.599,0.168 -0.868,-0.074 -0.898,-0.806 -1.878,-1.528 -2.748,-2.514 0.195,-0.125 0.256,-0.177 0.326,-0.206 2.225,-0.92 4.56,-1.437 6.899,-1.974 3.034,-0.697 6.086,-1.191 9.193,-1.389 0.624,-0.04 1.252,0.132 1.87,-0.066 0.751,-0.24 1.474,0.156 2.22,0.117 0.304,-0.016 0.388,0.264 0.427,0.482 0.149,0.851 0.277,1.706 0.392,2.562 C 0.713,-0.086 0.425,0.049 0,0" />
    </g>
    <g
       id="g73034"
       transform="matrix(1.8174,0,0,-1.8174,163.57,74.666)">
      <path
         id="path73032"
         fill="#c8f3ad"
         d="m 0,0 c 0.01,-0.037 0.037,-0.069 0.087,-0.155 1.534,-0.109 3.082,-0.106 4.626,0.287 0.6,0.153 0.781,0.43 0.646,0.997 C 5.095,2.234 4.84,3.34 4.576,4.465 2.994,2.959 1.498,1.535 0.004,0.109 -0.015,0.09 -0.009,0.034 0,0" />
    </g>
    <g
       id="g73038"
       transform="matrix(1.8174,0,0,-1.8174,171.74,89.853)">
      <path
         id="path73036"
         fill="#d4e7a3"
         d="m 0,0 c -2.84,-0.517 -5.698,-0.491 -8.561,-0.223 -1.533,0.143 -3.015,0.514 -4.491,0.925 -0.344,0.096 -0.714,0.242 -1.016,-0.018 -0.855,-0.737 -1.792,-1.389 -2.614,-2.392 2.41,-1.076 4.797,-1.716 7.217,-2.209 3.202,-0.653 6.424,-1.085 9.681,-0.325 0.833,0.195 0.918,0.218 0.936,1.051 0.015,0.671 0.114,1.329 0.164,1.993 C 1.418,0.178 1.31,0.238 0,0" />
    </g>
    <g
       id="g73042"
       transform="matrix(1.8174,0,0,-1.8174,146.14,139.83)">
      <path
         id="path73040"
         fill="#d8f5a1"
         d="M 0,0 C 2.007,2.835 4.325,5.388 7.033,7.579 7.403,7.878 7.895,8.107 8.079,8.709 6.512,9.21 4.932,9.124 3.396,9.339 3.014,9.393 2.843,9.077 2.613,8.887 1.096,7.63 -0.304,6.252 -1.559,4.73 -2.682,3.368 -3.86,2.044 -4.709,0.298 -3.477,-0.12 -2.273,-0.073 -1.165,-0.436 -0.614,-0.616 -0.328,-0.463 0,0" />
    </g>
    <g
       id="g73046"
       transform="matrix(1.8174,0,0,-1.8174,101.87,179.25)">
      <path
         id="path73044"
         fill="#dae1b1"
         d="m 0,0 c 0.283,0.61 0.356,1.171 0.1,1.813 -0.38,0.95 -0.658,1.94 -1.037,2.89 -0.703,1.761 -1.584,3.432 -2.701,4.97 -0.376,0.518 -0.498,0.518 -0.86,0.025 C -4.988,9.031 -5.43,8.329 -5.931,7.673 -6.293,7.199 -6.3,6.785 -5.989,6.276 -5.017,4.686 -4.417,2.932 -3.794,1.187 -3.199,-0.481 -2.86,-2.221 -2.243,-3.923 -1.417,-2.616 -0.63,-1.355 0,0" />
    </g>
    <g
       id="g73050"
       transform="matrix(1.8174,0,0,-1.8174,139.08,152.99)">
      <path
         id="path73048"
         fill="#bad399"
         d="m 0,0 c -0.514,1.982 -0.898,3.989 -1.239,6.004 -0.11,0.655 -0.403,0.975 -1.045,1.019 -0.784,0.053 -1.569,0.106 -2.353,0.174 -0.965,0.084 -1.008,0.089 -0.96,-0.898 0.07,-1.413 0.257,-2.818 0.676,-4.176 0.466,-1.509 1.049,-2.925 2.236,-4.085 1.092,-1.066 2.11,-2.235 2.949,-3.528 0.681,-1.051 1.319,-2.131 2.035,-3.292 0.19,0.379 0.064,0.556 -0.003,0.731 C 1.298,-5.434 0.701,-2.703 0,0" />
    </g>
    <g
       id="g73054"
       transform="matrix(1.8174,0,0,-1.8174,59.567,158.05)">
      <path
         id="path73052"
         fill="#b8df99"
         d="m 0,0 c 0.992,0.02 1.931,-0.293 2.884,-0.492 3.428,-0.716 6.779,-1.713 10.095,-2.831 0.857,-0.289 1.717,-0.573 2.562,-0.894 0.525,-0.2 0.885,-0.097 1.197,0.383 0.493,0.758 1.016,1.499 1.555,2.226 0.326,0.439 0.198,0.67 -0.239,0.913 -1.21,0.673 -2.479,1.226 -3.813,1.557 C 12.723,1.239 11.182,1.633 9.589,1.171 6.649,0.317 3.627,0.163 0.59,0.18 0.244,0.182 -0.12,0.115 -0.44,0.325 -0.335,0.162 -0.238,-0.005 0,0" />
    </g>
    <g
       id="g73058"
       transform="matrix(1.8174,0,0,-1.8174,44.346,157.12)">
      <path
         id="path73056"
         fill="#bae7a3"
         d="M 0,0 C 1.703,-0.123 3.363,-0.131 5.028,-0.101 4.994,-0.039 4.962,0.042 4.92,0.048 3.567,0.238 2.24,0.548 0.914,0.863 0.212,1.029 0.037,0.612 0,0" />
    </g>
    <g
       id="g73062"
       transform="matrix(1.8174,0,0,-1.8174,85.355,176.1)">
      <path
         id="path73060"
         fill="#b4d9a3"
         d="m 0,0 c 1.436,-3.161 2.383,-6.489 2.877,-9.936 0.032,-0.223 -0.031,-0.509 0.258,-0.601 0.287,-0.092 0.411,0.157 0.548,0.341 0.771,1.044 1.529,2.098 2.314,3.132 0.252,0.331 0.175,0.646 0.115,1.001 C 5.624,-3.137 4.684,-0.351 3.555,2.381 3.238,3.147 2.844,3.86 2.316,4.62 1.493,3.95 1.117,3.065 0.433,2.494 -0.468,1.74 -0.482,1.06 0,0" />
    </g>
    <g
       id="g73066"
       transform="matrix(1.8174,0,0,-1.8174,58.74,157.46)">
      <path
         id="path73064"
         fill="#b2efa7"
         d="M 0,0 C -0.91,0.087 -1.822,0.113 -2.734,0.059 -1.832,-0.25 -0.914,-0.06 0,0" />
    </g>
    <g
       id="g73070"
       transform="matrix(1.8174,0,0,-1.8174,71.522,139.52)">
      <path
         id="path73068"
         fill="#d2d59b"
         d="m 0,0 c -0.848,0.164 -1.713,0.262 -2.545,0.487 -0.647,0.176 -0.973,-0.025 -1.348,-0.554 -1.805,-2.543 -3.867,-4.858 -6.263,-6.87 -0.593,-0.499 -1.255,-0.938 -1.848,-1.703 1.653,-0.46 3.191,-0.431 4.693,-0.647 0.374,-0.054 0.57,0.162 0.813,0.368 1.564,1.328 3.033,2.747 4.333,4.339 0.921,1.128 1.89,2.219 2.619,3.49 C 0.969,-0.194 0.964,-0.186 0,0" />
    </g>
    <g
       id="g73074"
       transform="matrix(1.8174,0,0,-1.8174,122.57,166.26)">
      <path
         id="path73072"
         fill="#c6e3b1"
         d="M 0,0 C 2.696,0.066 5.305,-0.483 7.89,-1.178 8.824,-1.429 9.757,-1.682 10.945,-2.003 9.952,-0.267 9.095,1.255 8.019,2.646 7.813,2.911 7.519,2.999 7.196,3.053 5.958,3.261 4.727,3.529 3.483,3.695 1.801,3.919 0.103,3.863 -1.586,3.771 -2.394,3.727 -2.429,3.635 -2.124,2.919 -1.816,2.196 -1.427,1.506 -1.15,0.772 -0.935,0.202 -0.599,-0.015 0,0" />
    </g>
    <g
       id="g73078"
       transform="matrix(1.8174,0,0,-1.8174,101.9,184.22)">
      <path
         id="path73076"
         fill="#d4eb97"
         d="M 0,0 C 2.842,2.993 5.794,5.867 8.953,8.526 10.11,9.5 10.106,9.505 9.488,10.84 9.208,11.446 8.914,12.047 8.648,12.659 8.446,13.122 8.202,13.207 7.742,12.94 6.577,12.265 5.514,11.443 4.571,10.507 3.289,9.237 2.146,7.869 1.708,6.003 1.369,4.559 0.849,3.146 0.169,1.811 -0.362,0.768 -0.924,-0.26 -1.471,-1.294 -0.703,-1.133 -0.45,-0.474 0,0" />
    </g>
    <g
       id="g73082"
       transform="matrix(1.8174,0,0,-1.8174,98.2,138.88)">
      <path
         id="path73080"
         fill="#d4f1af"
         d="M 0,0 C 0.432,0.051 0.894,-0.07 1.463,0.187 0.635,0.619 -0.114,0.791 -0.857,1.014 -0.889,-0.093 -0.887,-0.104 0,0" />
    </g>
    <g
       id="g73086"
       transform="matrix(1.8174,0,0,-1.8174,112.48,139.21)">
      <path
         id="path73084"
         fill="#b6f3a5"
         d="M 0,0 C 0.3,-0.016 0.506,0.186 0.575,0.495 0.786,1.444 0.999,2.392 1.211,3.341 1.141,3.383 1.07,3.426 1,3.468 -0.277,2.311 -1.743,1.352 -2.852,-0.215 -1.776,-0.219 -0.9,0.048 0,0" />
    </g>
    <g
       id="g73090"
       transform="matrix(1.8174,0,0,-1.8174,119.62,139.87)">
      <path
         id="path73088"
         fill="#d0d39f"
         d="m 0,0 c -0.496,0.327 -1.134,-0.089 -1.727,-0.068 -0.721,0.026 -0.792,-0.152 -0.542,-0.87 0.118,-0.337 0.244,-0.68 0.579,-0.856 0.652,-0.344 1.279,-0.75 2.026,-0.932 0.173,0.393 0.06,0.734 -0.037,1.066 C 0.139,-1.106 0.558,-0.368 0,0" />
    </g>
    <g
       id="g73094"
       transform="matrix(1.8174,0,0,-1.8174,113.97,131.75)">
      <path
         id="path73092"
         fill="#c8e791"
         d="M 0,0 C 0.638,0.431 1.353,0.759 2.025,1.424 1.553,1.596 1.227,1.723 0.897,1.834 0.386,2.005 -0.07,2.616 -0.569,2.419 -1.102,2.209 -1.156,1.451 -1.47,0.963 -1.492,0.93 -1.511,0.895 -1.528,0.86 -1.826,0.231 -1.739,0.06 -1.031,-0.062 -0.685,-0.122 -0.306,-0.206 0,0" />
    </g>
    <g
       id="g73098"
       transform="matrix(1.8174,0,0,-1.8174,108.86,135.99)">
      <path
         id="path73096"
         fill="#caf1a5"
         d="M 0,0 C 0.675,0.48 1.325,0.883 1.676,1.656 0.574,1.842 0.34,1.605 0,0" />
    </g>
    <g
       id="g73102"
       transform="matrix(1.8174,0,0,-1.8174,103.91,127.92)">
      <path
         id="path73100"
         fill="#c6f797"
         d="m 0,0 c 0.343,-1.973 0.596,-3.721 1.286,-5.585 0.51,1.054 0.931,1.924 1.351,2.795 0.098,0.203 0.06,0.407 -0.114,0.526 C 1.651,-1.67 0.999,-0.824 0,0" />
    </g>
    <g
       id="g73106"
       transform="matrix(1.8174,0,0,-1.8174,85.966,102.87)">
      <path
         id="path73104"
         fill="#bed3b1"
         d="m 0,0 c -0.314,1.084 -0.683,2.121 -0.9,3.189 -0.147,0.724 -0.498,0.943 -1.181,1.035 -3.606,0.481 -7.112,1.329 -10.378,2.998 -0.204,0.104 -0.419,0.229 -0.861,0.149 0.166,-1.052 0.325,-2.053 0.483,-3.053 0.149,-0.937 0.657,-1.509 1.569,-1.865 C -8.58,1.404 -5.816,0.638 -2.981,0.158 -2.045,0 -1.078,-0.36 0,0" />
    </g>
    <g
       id="g73110"
       transform="matrix(1.8174,0,0,-1.8174,99.083,133.63)">
      <path
         id="path73108"
         fill="#b4e1af"
         d="m 0,0 c -0.72,-0.262 -1.536,-0.262 -2.314,-0.821 1.739,-0.67 3.348,-1.311 5.299,-1.636 -0.527,0.775 -0.919,1.35 -1.31,1.927 C 1.068,0.366 1.061,0.385 0,0" />
    </g>
    <g
       id="g73114"
       transform="matrix(1.8174,0,0,-1.8174,113.2,140.39)">
      <path
         id="path73112"
         fill="#c4e593"
         d="M 0,0 C -0.562,0.015 -1.143,0.076 -1.994,-0.153 -0.992,-0.521 -0.272,-0.838 0.612,-0.981 0.567,-0.486 0.581,-0.015 0,0" />
    </g>
    <g
       id="g73118"
       transform="matrix(1.8174,0,0,-1.8174,109.41,145.72)">
      <path
         id="path73116"
         fill="#b8f7b3"
         d="M 0,0 C 0.123,-0.18 0.303,-0.274 0.504,-0.212 1.493,0.091 2.477,0.411 3.733,0.811 1.865,1.561 0.254,2.162 -1.724,2.522 -1.047,1.532 -0.524,0.766 0,0" />
    </g>
    <g
       id="g73122"
       transform="matrix(1.8174,0,0,-1.8174,69.345,108.41)">
      <path
         id="path73120"
         fill="#cef1a7"
         d="m 0,0 c 2.573,-0.87 5.207,-1.467 7.895,-1.816 0.734,-0.096 1.468,-0.257 2.224,-0.192 0.476,0.042 0.768,0.123 0.553,0.703 -0.384,1.03 -0.741,2.07 -1.097,3.11 C 9.455,2.156 9.226,2.262 8.868,2.291 5.406,2.572 2.053,3.333 -1.201,4.553 -1.705,4.742 -2.196,5.018 -2.946,5.056 -2.547,3.703 -1.942,2.563 -1.447,1.376 -1.147,0.659 -0.73,0.247 0,0" />
    </g>
    <g
       id="g73126"
       transform="matrix(1.8174,0,0,-1.8174,165.12,144.83)">
      <path
         id="path73124"
         fill="#bcd3a7"
         d="m 0,0 c -0.173,-0.186 -0.405,-0.384 -0.371,-0.773 0.956,-0.469 2.013,-0.751 3.039,-1.112 0.319,-0.112 0.574,-0.054 0.835,0.222 1.335,1.414 2.943,2.478 4.566,3.526 0.927,0.599 1.874,1.154 2.855,1.658 0.986,0.508 0.984,0.56 0.087,1.315 C 10.349,5.394 9.669,5.931 9.006,6.488 8.634,6.799 8.342,6.829 7.873,6.547 4.91,4.765 2.344,2.517 0,0" />
    </g>
    <g
       id="g73130"
       transform="matrix(1.8174,0,0,-1.8174,182.87,150.86)">
      <path
         id="path73128"
         fill="#d6f191"
         d="m 0,0 c -0.311,-0.208 -0.701,-0.37 -0.835,-0.847 1.22,-0.616 2.498,-1.087 3.784,-1.54 0.318,-0.113 0.594,-0.112 0.877,0.105 1.221,0.937 2.604,1.596 3.986,2.248 C 8.291,0.192 8.25,0.431 7.984,0.772 7.527,1.36 7.078,1.954 6.622,2.542 6.019,3.319 6.007,3.34 5.104,2.9 3.342,2.041 1.629,1.091 0,0" />
    </g>
    <g
       id="g73134"
       transform="matrix(1.8174,0,0,-1.8174,155.66,143.39)">
      <path
         id="path73132"
         fill="#d0f1b5"
         d="m 0,0 c 1.099,-0.372 2.08,-0.66 3.024,-1.039 0.681,-0.273 1.105,-0.174 1.597,0.424 1.43,1.735 3.09,3.24 4.888,4.6 1.121,0.847 2.274,1.649 3.553,2.501 C 11.934,7.136 10.965,7.794 9.919,8.342 9.337,8.646 8.914,8.563 8.405,8.219 7.1,7.336 5.836,6.4 4.692,5.318 3.008,3.725 1.377,2.08 0,0" />
    </g>
    <g
       id="g73138"
       transform="matrix(1.8174,0,0,-1.8174,172.24,148.93)">
      <path
         id="path73136"
         fill="#d6e997"
         d="m 0,0 c 1.248,-0.501 2.443,-0.975 3.633,-1.461 0.437,-0.179 0.747,0.04 1.075,0.273 0.64,0.456 1.271,0.929 1.943,1.335 1.377,0.834 2.766,1.651 4.234,2.317 0.436,0.198 0.576,0.408 0.227,0.771 C 10.378,3.998 9.711,4.823 8.91,5.524 8.597,5.797 8.365,5.843 7.98,5.641 5.959,4.582 3.996,3.428 2.171,2.059 1.397,1.479 0.559,0.941 0,0" />
    </g>
    <g
       id="g73142"
       transform="matrix(1.8174,0,0,-1.8174,159.82,126.69)">
      <path
         id="path73140"
         fill="#d0e991"
         d="m 0,0 c -2.581,-2.091 -4.802,-4.519 -6.772,-7.184 -0.468,-0.634 -0.438,-0.735 0.295,-0.94 0.829,-0.233 1.69,-0.368 2.504,-0.643 0.762,-0.258 1.28,-0.099 1.658,0.601 0.092,0.17 0.244,0.308 0.364,0.463 2.036,2.628 4.377,4.934 7.142,6.797 0.248,0.168 0.586,0.257 0.676,0.69 C 5.375,0.218 4.708,0.344 4.107,0.588 1.838,1.509 1.843,1.493 0,0" />
    </g>
    <g
       id="g73146"
       transform="matrix(1.8174,0,0,-1.8174,131.61,176.95)">
      <path
         id="path73144"
         fill="#d6e5a5"
         d="m 0,0 c -1.006,0.179 -2.016,0.347 -3.031,0.452 -0.607,0.062 -0.725,-0.103 -0.572,-0.68 0.241,-0.912 0.585,-1.801 0.778,-2.722 0.142,-0.671 0.487,-0.863 1.12,-0.947 C 1.94,-4.381 5.479,-5.251 8.782,-6.931 8.953,-7.018 9.133,-7.117 9.474,-7.024 9.452,-5.875 9.236,-4.804 9.015,-3.73 8.846,-2.909 8.347,-2.464 7.59,-2.168 5.128,-1.202 2.603,-0.463 0,0" />
    </g>
    <g
       id="g73150"
       transform="matrix(1.8174,0,0,-1.8174,143.94,173.08)">
      <path
         id="path73148"
         fill="#cef393"
         d="m 0,0 c -0.245,0.659 -0.667,0.993 -1.31,1.211 -2.054,0.696 -4.144,1.25 -6.281,1.592 -1.313,0.209 -2.628,0.48 -3.975,0.437 -0.478,-0.015 -0.658,-0.207 -0.5,-0.662 0.375,-1.076 0.772,-2.146 1.138,-3.226 0.113,-0.334 0.345,-0.368 0.635,-0.395 3.499,-0.324 6.909,-1.044 10.194,-2.312 0.47,-0.181 0.956,-0.321 1.506,-0.504 0.109,0.53 -0.08,0.843 -0.218,1.161 C 0.796,-1.797 0.343,-0.919 0,0" />
    </g>
    <g
       id="g73154"
       transform="matrix(1.8174,0,0,-1.8174,99.232,149.65)">
      <path
         id="path73152"
         fill="#d6ddb1"
         d="M 0,0 C 0.152,0.305 0.519,0.614 0.31,0.954 0.057,1.367 -0.461,1.258 -0.883,1.301 -1.081,1.321 -1.274,1.27 -1.44,1.146 -2.033,0.703 -2.731,0.406 -3.371,-0.23 -2.863,-0.416 -2.45,-0.538 -2.063,-0.715 -0.678,-1.346 -0.678,-1.355 0,0" />
    </g>
    <g
       id="g73158"
       transform="matrix(1.8174,0,0,-1.8174,114.97,151.6)">
      <path
         id="path73156"
         fill="#c6df9f"
         d="M 0,0 C 0.987,0.291 2.011,0.346 3.018,0.505 3.939,0.65 4.877,0.518 5.93,0.725 4.739,2.002 3.372,2.838 1.922,3.337 0.826,3.714 -0.383,3.096 -1.506,2.755 -2.39,2.486 -2.41,2.376 -1.887,1.544 -1.657,1.177 -1.386,0.833 -1.183,0.452 -0.91,-0.062 -0.511,-0.151 0,0" />
    </g>
    <g
       id="g73162"
       transform="matrix(1.8174,0,0,-1.8174,124.44,127.32)">
      <path
         id="path73160"
         fill="#b2f799"
         d="m 0,0 c -1.48,-0.455 -2.806,-1.269 -4.113,-2.12 -0.09,-0.058 -0.136,-0.19 -0.189,-0.294 -0.615,-1.204 -0.952,-2.481 -1.086,-3.967 0.809,0.037 1.472,0.11 2.132,0.087 0.687,-0.023 0.994,0.312 1.145,0.925 0.42,1.699 1.209,3.238 2.087,4.736 C 0.073,-0.467 0.209,-0.31 0,0" />
    </g>
    <g
       id="g73166"
       transform="matrix(1.8174,0,0,-1.8174,126.49,124.11)">
      <path
         id="path73164"
         fill="#b6e5b1"
         d="M 0,0 C -1.214,0.192 -2.32,0.709 -3.461,1.128 -4.152,1.381 -4.822,2.184 -5.445,1.939 -6.112,1.676 -6.267,0.664 -6.703,0.013 c -0.13,-0.194 -0.208,-0.422 -0.314,-0.633 -0.097,-0.193 -0.096,-0.37 0.05,-0.543 0.579,-0.688 2.764,-1.216 3.637,-0.859 1.304,0.534 2.603,1.082 3.975,1.653 C 0.461,-0.105 0.236,-0.037 0,0" />
    </g>
    <g
       id="g73170"
       transform="matrix(1.8174,0,0,-1.8174,110.29,153.87)">
      <path
         id="path73168"
         fill="#c6d3a7"
         d="M 0,0 C 1.238,0.868 1.242,0.862 0.407,2.128 0.386,2.16 0.372,2.198 0.351,2.23 -0.219,3.089 -0.461,3.093 -1.036,2.255 -1.24,1.959 -1.397,1.644 -1.36,1.276 -1.293,0.601 -1.207,-0.072 -1.109,-0.918 -0.599,-0.493 -0.317,-0.222 0,0" />
    </g>
    <g
       id="g73174"
       transform="matrix(1.8174,0,0,-1.8174,104.05,117.83)">
      <path
         id="path73172"
         fill="#caf7a7"
         d="m 0,0 c -0.218,-1.326 -0.13,-2.664 -0.118,-3.998 10e-4,-0.114 0.02,-0.249 0.082,-0.339 0.807,-1.157 1.729,-2.199 3.002,-3.038 0.375,0.719 0.672,1.357 1.032,1.957 0.32,0.533 0.231,0.909 -0.22,1.325 C 2.732,-3.129 1.927,-1.967 1.177,-0.762 0.916,-0.343 0.754,0.159 0.372,0.47 0.078,0.384 0.027,0.167 0,0" />
    </g>
    <g
       id="g73178"
       transform="matrix(1.8174,0,0,-1.8174,162.77,73.555)">
      <path
         id="path73176"
         fill="#b2edad"
         d="M 0,0 C 1.426,1.226 2.777,2.529 3.97,3.984 4.427,4.542 4.329,4.794 3.589,4.839 2.495,4.907 1.396,4.865 0.299,4.887 -0.099,4.895 -0.282,4.664 -0.34,4.339 -0.599,2.876 -0.495,1.411 -0.453,0.079 -0.196,-0.149 -0.079,-0.068 0,0" />
    </g>
    <g
       id="g73182"
       transform="matrix(1.8174,0,0,-1.8174,102.44,133.16)">
      <path
         id="path73180"
         fill="#badf99"
         d="M 0,0 C 0.203,-0.315 0.357,-0.682 0.802,-0.894 0.861,-0.072 0.651,0.631 0.356,1.34 -0.44,0.695 -0.446,0.691 0,0" />
    </g>
    <g
       id="g73186"
       transform="matrix(1.8174,0,0,-1.8174,106.67,144.37)">
      <path
         id="path73184"
         fill="#bce99b"
         d="M 0,0 C 0.127,-0.797 0.227,-1.546 0.503,-2.275 1.461,-1.579 1.321,-0.932 0,0" />
    </g>
    <g
       id="g73190"
       transform="matrix(1.8174,0,0,-1.8174,108.33,105.37)">
      <path
         id="path73188"
         fill="#bcf3af"
         d="m 0,0 c -0.078,0.236 -0.089,0.536 -0.474,0.61 -0.607,-1.631 -1.096,-3.281 -1.461,-4.969 -0.087,-0.402 -0.021,-0.768 0.188,-1.13 1.097,-1.904 2.186,-3.813 4.015,-5.417 0.511,0.892 0.941,1.731 1.461,2.51 C 4.04,-7.929 3.903,-7.6 3.626,-7.237 1.962,-5.053 0.856,-2.59 0,0" />
    </g>
    <g
       id="g73194"
       transform="matrix(1.8174,0,0,-1.8174,102.84,128.19)">
      <path
         id="path73192"
         fill="#cee19b"
         d="M 0,0 C -0.022,0.764 -0.072,1.528 -0.118,2.445 -0.99,1.812 -1.729,1.275 -2.468,0.739 -2.264,0.081 -1.832,-0.385 -1.496,-0.904 -1.118,-1.49 -0.928,-1.476 -0.448,-0.929 -0.213,-0.66 0.011,-0.374 0,0" />
    </g>
    <g
       id="g73198"
       transform="matrix(1.8174,0,0,-1.8174,96.141,127.58)">
      <path
         id="path73196"
         fill="#cae9a9"
         d="m 0,0 c -1.94,-0.514 -3.914,-0.755 -5.966,-0.766 1.033,-1.278 2.467,-1.908 3.819,-2.657 0.096,-0.054 0.23,-0.075 0.341,-0.061 1.205,0.149 2.384,0.413 3.523,0.84 0.387,0.145 0.454,0.383 0.219,0.725 C 1.582,-1.402 1.225,-0.886 0.895,-0.354 0.674,0.001 0.393,0.104 0,0" />
    </g>
    <g
       id="g73202"
       transform="matrix(1.8174,0,0,-1.8174,94.058,135.99)">
      <path
         id="path73200"
         fill="#bedfb1"
         d="m 0,0 c -0.664,0.328 -1.322,0.667 -1.98,1.001 -0.19,-0.304 -0.067,-0.52 -0.021,-0.747 0.055,-0.268 0.084,-0.544 0.096,-0.818 0.066,-1.407 0.063,-1.406 1.412,-1.253 0.117,0.013 0.236,0.005 0.354,0.013 1.005,0.067 1.138,0.305 0.671,1.198 C 0.403,-0.36 0.266,-0.131 0,0" />
    </g>
    <g
       id="g73206"
       transform="matrix(1.8174,0,0,-1.8174,86.09,151.62)">
      <path
         id="path73204"
         fill="#cee795"
         d="M 0,0 C 0.08,-0.033 0.159,-0.098 0.217,-0.083 1.692,0.283 3.012,1.032 4.168,1.945 4.919,2.538 5.045,3.663 5.252,4.626 5.277,4.741 5.324,4.852 5.347,4.967 5.582,6.125 5.526,6.198 4.383,6.178 4.069,6.172 3.752,6.098 3.443,6.125 2.714,6.19 2.391,5.828 2.221,5.163 1.87,3.786 1.297,2.497 0.601,1.257 0.376,0.857 0.039,0.494 0,0" />
    </g>
    <g
       id="g73210"
       transform="matrix(1.8174,0,0,-1.8174,101.87,143.41)">
      <path
         id="path73208"
         fill="#d6e7a9"
         d="M 0,0 C -0.805,-0.399 -1.265,-0.938 -1.806,-1.518 -0.549,-1.79 -0.468,-1.72 0,0" />
    </g>
    <g
       id="g73214"
       transform="matrix(1.8174,0,0,-1.8174,102.09,114.06)">
      <path
         id="path73212"
         fill="#caf7ad"
         d="m 0,0 c -0.799,-0.87 -1.741,-1.566 -2.654,-2.303 -0.508,-0.411 -1.409,-0.511 -1.508,-1.188 -0.091,-0.63 0.545,-1.169 0.869,-1.743 0.813,-1.438 0.561,-1.478 2.116,-0.479 0.542,0.348 0.899,0.865 1.287,1.353 0.172,0.216 0.247,0.475 0.247,0.765 0,1.22 0.29,2.404 0.461,3.603 0.025,0.18 0.104,0.38 -0.102,0.536 C 0.372,0.51 0.201,0.219 0,0" />
    </g>
    <g
       id="g73218"
       transform="matrix(1.8174,0,0,-1.8174,103.58,139.63)">
      <path
         id="path73216"
         fill="#badfb1"
         d="M 0,0 C -1.147,-0.084 -2.064,-0.142 -2.978,-0.224 -3.285,-0.251 -3.505,-0.488 -3.525,-0.764 -3.59,-1.693 -4.059,-2.547 -4.061,-3.801 -2.556,-2.517 -1.2,-1.508 0,0" />
    </g>
    <g
       id="g73222"
       transform="matrix(1.8174,0,0,-1.8174,106.77,151.18)">
      <path
         id="path73220"
         fill="#c2dfa3"
         d="M 0,0 C -0.291,1.947 -0.588,3.624 -1.346,5.281 -1.765,4.416 -2.182,3.549 -2.603,2.684 -2.678,2.529 -2.692,2.383 -2.556,2.261 -1.766,1.559 -0.974,0.861 0,0" />
    </g>
    <g
       id="g73226"
       transform="matrix(1.8174,0,0,-1.8174,146.58,209.43)">
      <path
         id="path73224"
         fill="#bce5b1"
         d="m 0,0 c -2.305,1.449 -4.682,2.745 -7.243,3.689 -0.443,0.163 -0.876,0.3 -1.494,0.281 0.204,-1.295 0.435,-2.452 0.55,-3.62 0.057,-0.577 0.336,-0.819 0.806,-1.011 1.61,-0.658 3.077,-1.582 4.577,-2.448 0.738,-0.427 1.376,-1.031 2.306,-1.37 0.343,1.138 0.679,2.22 0.994,3.308 C 0.644,-0.661 0.497,-0.312 0,0" />
    </g>
    <g
       id="g73230"
       transform="matrix(1.8174,0,0,-1.8174,122.43,176.08)">
      <path
         id="path73228"
         fill="#c6d19d"
         d="M 0,0 C 0.325,0.246 0.441,0.49 0.314,0.902 -0.034,2.026 -0.415,3.135 -0.975,4.348 -1.37,4.052 -1.662,3.856 -1.927,3.629 -3.448,2.319 -4.918,0.954 -6.385,-0.417 c -2.942,-2.749 -5.731,-5.624 -7.947,-9.007 -0.928,-1.415 -1.813,-2.857 -2.719,-4.287 -0.405,-0.638 -0.407,-1.216 0.139,-1.805 0.479,-0.519 0.886,-1.105 1.328,-1.658 0.302,-0.379 0.539,-0.396 0.764,0.094 0.742,1.619 1.787,3.048 2.805,4.499 C -8.645,-7.778 -4.679,-3.549 0,0" />
    </g>
    <g
       id="g73234"
       transform="matrix(1.8174,0,0,-1.8174,72.072,192.52)">
      <path
         id="path73232"
         fill="#d6ed97"
         d="M 0,0 C -0.249,0.94 -0.381,1.931 -0.99,2.793 -2.017,2.241 -2.736,1.33 -3.639,0.651 -3.906,0.45 -3.871,0.196 -3.793,-0.09 c 0.155,-0.568 0.336,-1.137 0.405,-1.718 0.291,-2.452 0.637,-4.903 0.336,-7.384 -0.033,-0.268 -0.005,-0.544 -0.005,-0.993 1.457,0.243 2.635,0.882 3.87,1.359 0.409,0.158 0.281,0.501 0.284,0.804 C 1.12,-5.295 0.696,-2.627 0,0" />
    </g>
    <g
       id="g73238"
       transform="matrix(1.8174,0,0,-1.8174,89.784,195.59)">
      <path
         id="path73236"
         fill="#b2d997"
         d="M 0,0 C -0.441,2.964 -1.145,5.864 -2.199,8.667 -2.547,9.592 -2.787,10.598 -3.487,11.415 -4.451,10.78 -4.988,9.819 -5.79,9.139 -6.399,8.623 -6.555,8.098 -6.163,7.405 c 0.076,-0.136 0.11,-0.294 0.171,-0.439 1.102,-2.625 1.807,-5.352 2.224,-8.168 0.119,-0.804 0.006,-1.642 0.373,-2.576 1.137,0.791 2.124,1.557 2.982,2.485 C -0.068,-0.92 0.076,-0.509 0,0" />
    </g>
    <g
       id="g73242"
       transform="matrix(1.8174,0,0,-1.8174,77.51,182.4)">
      <path
         id="path73240"
         fill="#c2e995"
         d="m 0,0 c -0.272,0.569 -0.368,0.585 -0.836,0.175 -0.738,-0.646 -1.459,-1.31 -2.198,-1.955 -0.342,-0.297 -0.384,-0.578 -0.211,-1.024 0.845,-2.165 1.311,-4.425 1.64,-6.724 0.199,-1.392 0.289,-2.791 0.329,-4.363 1.164,0.508 2.133,1.069 3.099,1.649 0.619,0.371 0.822,0.849 0.783,1.551 C 2.501,-8.763 2.193,-6.872 1.703,-5.008 1.253,-3.298 0.765,-1.601 0,0" />
    </g>
    <g
       id="g73246"
       transform="matrix(1.8174,0,0,-1.8174,93.247,194.97)">
      <path
         id="path73244"
         fill="#bef797"
         d="m 0,0 c -0.719,-0.789 -1.458,-1.563 -2.152,-2.374 -0.442,-0.518 -0.046,-0.797 0.351,-1.091 0.377,0.588 0.731,1.102 1.045,1.64 C -0.431,-1.27 0.004,-0.764 0,0" />
    </g>
    <g
       id="g73250"
       transform="matrix(1.8174,0,0,-1.8174,124.83,184.76)">
      <path
         id="path73248"
         fill="#caeb9b"
         d="M 0,0 C 0.254,0.191 0.524,0.374 0.479,0.776 0.188,1.755 -0.085,2.738 -0.4,3.709 -0.62,4.389 -0.794,4.464 -1.402,4.024 -2.197,3.45 -2.965,2.83 -3.688,2.167 -7.471,-1.3 -10.89,-5.089 -13.738,-9.371 c -0.74,-1.113 -1.485,-2.224 -1.994,-3.475 -0.167,-0.411 -0.197,-0.712 0.16,-1.037 0.551,-0.505 1.053,-1.063 1.597,-1.575 0.697,-0.658 0.719,-0.654 1.156,0.172 1.461,2.761 3.274,5.286 5.306,7.641 C -5.177,-4.937 -2.883,-2.176 0,0" />
    </g>
    <g
       id="g73254"
       transform="matrix(1.8174,0,0,-1.8174,128.27,202)">
      <path
         id="path73252"
         fill="#d6e191"
         d="M 0,0 C 0.271,0.271 0.594,0.49 0.48,0.989 0.239,2.047 0.055,3.118 -0.149,4.166 -0.34,4.154 -0.427,4.172 -0.489,4.141 -0.628,4.07 -0.766,3.988 -0.885,3.887 c -3.045,-2.584 -5.863,-5.377 -8,-8.786 -0.86,-1.37 -1.657,-2.772 -2.124,-4.336 -0.104,-0.35 -0.205,-0.681 0.189,-0.938 0.924,-0.603 1.835,-1.224 2.759,-1.825 0.281,-0.183 0.518,-0.145 0.636,0.219 0.06,0.187 0.166,0.359 0.225,0.545 0.784,2.465 2.118,4.647 3.474,6.821 C -2.696,-2.762 -1.367,-1.366 0,0" />
    </g>
    <g
       id="g73258"
       transform="matrix(1.8174,0,0,-1.8174,127,193.29)">
      <path
         id="path73256"
         fill="#c2eda5"
         d="M 0,0 C 0.288,0.222 0.39,0.433 0.304,0.796 0.086,1.712 -0.08,2.641 -0.288,3.559 -0.473,4.375 -0.587,4.41 -1.255,3.879 -2.83,2.627 -4.18,1.148 -5.568,-0.302 c -2.291,-2.393 -4.346,-4.968 -6.213,-7.696 -0.71,-1.038 -1.323,-2.138 -1.909,-3.253 -0.184,-0.35 -0.316,-0.643 0.04,-0.932 0.815,-0.663 1.545,-1.444 2.485,-1.913 0.446,0.309 0.49,0.773 0.638,1.164 0.949,2.494 2.45,4.656 4.113,6.699 C -4.523,-3.911 -2.377,-1.831 0,0" />
    </g>
    <g
       id="g73262"
       transform="matrix(1.8174,0,0,-1.8174,52.251,202.04)">
      <path
         id="path73260"
         fill="#d6d9af"
         d="m 0,0 c -0.973,-0.668 -1.576,-1.383 -1.271,-2.717 0.186,-0.811 0.142,-1.722 -0.07,-2.582 -0.065,-0.262 -0.019,-0.549 -0.045,-0.823 -0.051,-0.519 0.19,-0.745 0.688,-0.678 0.856,0.115 1.706,0.287 2.564,0.37 0.475,0.046 0.552,0.297 0.612,0.687 0.128,0.82 0.052,1.646 0.15,2.472 C 2.822,-1.64 2.66,-0.008 2.353,1.721 1.43,1.198 0.766,0.526 0,0" />
    </g>
    <g
       id="g73266"
       transform="matrix(1.8174,0,0,-1.8174,39.214,189.37)">
      <path
         id="path73264"
         fill="#cce7ad"
         d="m 0,0 c 2.764,0.484 5.544,0.46 8.329,0.232 1.573,-0.129 3.091,-0.533 4.608,-0.938 0.389,-0.104 0.777,-0.228 1.118,0.076 0.813,0.724 1.719,1.352 2.527,2.332 C 16.161,1.88 15.876,2.008 15.587,2.122 13.276,3.03 10.879,3.655 8.445,4.09 5.541,4.61 2.616,4.931 -0.319,4.235 -1.11,4.048 -1.27,3.958 -1.298,3.183 -1.336,2.096 -1.307,1.006 -1.307,-0.148 -0.913,-0.169 -0.46,-0.08 0,0" />
    </g>
    <g
       id="g73270"
       transform="matrix(1.8174,0,0,-1.8174,37.95,197.19)">
      <path
         id="path73268"
         fill="#c0f59f"
         d="M 0,0 C 1.613,0.263 3.191,0.607 4.874,0.537 6.109,0.486 7.4,0.749 8.603,0.408 c 1.483,-0.42 2.569,0.039 3.56,1.073 0.448,0.467 1.122,0.71 1.48,1.465 C 12.27,3.414 10.996,3.65 9.728,3.887 9,4.022 8.242,4.016 7.496,4.029 6.282,4.05 5.067,4.016 3.853,4.039 2.505,4.064 1.199,3.805 -0.115,3.564 -0.719,3.453 -0.9,3.14 -0.854,2.588 -0.792,1.846 -0.737,1.103 -0.684,0.36 -0.649,-0.134 -0.315,-0.051 0,0" />
    </g>
    <g
       id="g73274"
       transform="matrix(1.8174,0,0,-1.8174,38.27,180.57)">
      <path
         id="path73272"
         fill="#b2d39f"
         d="m 0,0 c 0.196,0.021 0.395,0.019 0.587,0.055 2.672,0.51 5.349,0.294 7.988,-0.131 2.951,-0.474 5.83,-1.299 8.617,-2.405 0.32,-0.127 0.57,-0.178 0.865,0.063 0.935,0.768 1.854,1.551 2.859,2.559 C 20.204,0.413 19.692,0.608 19.18,0.803 17.112,1.59 14.937,1.962 12.792,2.45 11.567,2.729 10.326,2.949 9.088,3.166 6.758,3.575 4.396,3.624 2.043,3.761 1.462,3.795 0.872,3.676 0.287,3.62 0.061,3.598 -0.048,3.447 -0.085,3.232 -0.238,2.341 -0.404,1.453 -0.539,0.56 -0.597,0.181 -0.421,-0.044 0,0" />
    </g>
    <g
       id="g73278"
       transform="matrix(1.8174,0,0,-1.8174,47.584,204.38)">
      <path
         id="path73276"
         fill="#c4e393"
         d="m 0,0 c -1.902,0.209 -3.555,0.13 -5.19,-0.316 -0.367,-0.1 -0.522,-0.312 -0.436,-0.692 0.275,-1.214 0.491,-2.444 0.969,-3.745 C -3.185,-3.086 -1.625,-1.65 0,0" />
    </g>
    <g
       id="g73282"
       transform="matrix(1.8174,0,0,-1.8174,47.613,205.98)">
      <path
         id="path73280"
         fill="#c6f593"
         d="m 0,0 c -0.534,-0.46 -1.051,-0.942 -1.545,-1.445 -0.74,-0.755 -1.479,-1.514 -2.17,-2.313 -0.523,-0.605 -0.409,-0.853 0.405,-0.93 0.545,-0.052 1.098,-0.01 1.647,-0.01 v -0.014 c 0.549,0 1.098,0 1.648,-0.001 0.328,0 0.502,0.169 0.544,0.487 0.173,1.322 0.288,2.65 0.193,3.982 C 0.688,0.239 0.392,0.337 0,0" />
    </g>
    <g
       id="g73286"
       transform="matrix(1.8174,0,0,-1.8174,40.044,172.81)">
      <path
         id="path73284"
         fill="#dad7af"
         d="m 0,0 c 2.801,0.211 5.591,-0.074 8.328,-0.538 3.822,-0.648 7.656,-1.349 11.282,-2.816 0.601,-0.243 1.018,-0.226 1.448,0.281 0.406,0.479 0.896,0.886 1.322,1.349 1.004,1.091 0.966,1.281 -0.403,1.794 C 18.626,1.326 15.174,2.217 11.671,2.934 9.472,3.383 7.242,3.552 5.019,3.78 3.73,3.912 2.427,3.943 1.129,3.835 0.659,3.796 0.15,3.751 -0.007,3.177 -0.284,2.166 -0.688,1.181 -0.73,0.13 -0.473,-0.022 -0.234,-0.018 0,0" />
    </g>
    <g
       id="g73290"
       transform="matrix(1.8174,0,0,-1.8174,50.424,197.18)">
      <path
         id="path73288"
         fill="#c8f79b"
         d="m 0,0 c -0.824,-0.013 -1.652,-0.104 -2.47,-0.048 -1.515,0.105 -2.95,-0.323 -4.413,-0.557 -0.43,-0.069 -0.705,-0.272 -0.615,-0.801 0.098,-0.576 0.151,-1.164 0.168,-1.749 0.016,-0.524 0.3,-0.576 0.694,-0.474 1.74,0.446 3.51,0.273 5.271,0.253 0.326,-0.003 0.624,0.002 0.885,0.217 1.056,0.865 2.112,1.73 3.359,2.752 C 1.773,-0.106 0.896,0.015 0,0" />
    </g>
    <g
       id="g73294"
       transform="matrix(1.8174,0,0,-1.8174,63.858,192.89)">
      <path
         id="path73292"
         fill="#d2f395"
         d="m 0,0 c -0.923,-0.729 -1.787,-1.46 -2.704,-2.118 -0.554,-0.397 -0.686,-0.866 -0.632,-1.508 0.117,-1.366 0.321,-2.734 0.21,-4.108 -0.076,-0.938 -0.138,-1.874 -0.171,-2.815 -0.019,-0.542 0.16,-0.75 0.659,-0.64 0.993,0.221 1.978,0.48 2.968,0.717 0.421,0.101 0.507,0.389 0.553,0.782 0.256,2.157 0.066,4.31 -0.126,6.449 C 0.662,-2.183 0.682,-1.041 0,0" />
    </g>
    <g
       id="g73298"
       transform="matrix(1.8174,0,0,-1.8174,172.84,80.991)">
      <path
         id="path73296"
         fill="#d2efa7"
         d="M 0,0 C 0.383,0.128 0.595,0.335 0.564,0.766 0.522,1.353 0.484,1.942 0.49,2.53 0.496,3.03 0.256,3.153 -0.17,3.049 -1.945,2.617 -3.745,2.712 -5.543,2.786 -5.827,2.797 -6.084,2.802 -6.318,2.613 -7.409,1.729 -8.504,0.85 -9.751,-0.155 -7.218,-0.795 -2.013,-0.674 0,0" />
    </g>
    <g
       id="g73302"
       transform="matrix(1.8174,0,0,-1.8174,181.07,157.53)">
      <path
         id="path73300"
         fill="#ccefa9"
         d="m 0,0 c -0.426,0.832 -0.472,1.945 -1.169,2.514 -0.729,0.595 -1.767,0.82 -2.684,1.172 -0.316,0.121 -0.686,0.444 -0.99,0.214 -0.402,-0.305 0.048,-0.714 0.05,-1.085 0.001,-0.149 0.092,-0.297 0.133,-0.448 0.877,-3.238 2.559,-6.074 4.432,-8.807 0.465,-0.678 1.051,-1.273 1.578,-1.909 0.264,-0.319 0.557,-0.402 0.927,-0.166 0.696,0.445 1.402,0.874 2.098,1.317 0.091,0.058 0.154,0.16 0.231,0.244 C 4.473,-6.547 4.202,-6.27 3.937,-5.983 2.293,-4.208 1.095,-2.138 0,0" />
    </g>
    <g
       id="g73306"
       transform="matrix(1.8174,0,0,-1.8174,189.57,158.28)">
      <path
         id="path73304"
         fill="#c2e9a3"
         d="m 0,0 c -0.319,0.728 -0.731,1.132 -1.476,1.333 -0.642,0.174 -1.247,0.48 -1.877,0.704 -0.428,0.152 -0.81,0.476 -1.448,0.416 0.641,-2.337 1.954,-4.166 3.192,-6.023 0.52,-0.781 1.202,-1.454 1.807,-2.178 0.305,-0.365 0.62,-0.403 1.016,-0.112 0.597,0.438 1.262,0.785 1.768,1.306 C 2.923,-4.211 2.681,-4.052 2.501,-3.848 1.479,-2.688 0.616,-1.407 0,0" />
    </g>
    <g
       id="g73310"
       transform="matrix(1.8174,0,0,-1.8174,181.86,172.4)">
      <path
         id="path73308"
         fill="#d4e7a9"
         d="m 0,0 c -1.763,1.991 -3.035,4.292 -4.243,6.64 -0.836,1.624 -1.301,3.368 -1.79,5.109 -0.104,0.37 -0.117,0.781 -0.595,0.932 -0.937,0.295 -1.862,0.623 -2.796,0.927 -0.345,0.112 -0.529,-0.024 -0.516,-0.391 0.023,-0.083 0.052,-0.157 0.065,-0.233 0.676,-3.887 1.695,-7.667 3.533,-11.186 0.765,-1.466 1.586,-2.897 2.732,-4.112 0.238,-0.252 0.426,-0.621 0.863,-0.406 1.058,0.521 2.11,1.053 3.161,1.588 0.216,0.11 0.243,0.298 0.103,0.488 C 0.354,-0.422 0.182,-0.206 0,0" />
    </g>
    <g
       id="g73314"
       transform="matrix(1.8174,0,0,-1.8174,166.39,162.67)">
      <path
         id="path73312"
         fill="#d8f7a7"
         d="m 0,0 c -0.951,2.632 -1.612,5.338 -2.035,8.102 -0.043,0.28 -0.032,0.572 -0.355,0.676 -1.214,0.394 -2.381,0.955 -3.605,1.112 -0.202,-0.219 -0.121,-0.369 -0.1,-0.521 0.332,-2.427 1.093,-4.743 1.816,-7.07 1.171,-3.77 2.643,-7.409 4.658,-10.813 0.835,-1.412 0.854,-1.4 2.339,-0.82 0.403,0.157 0.813,0.299 1.212,0.465 0.823,0.342 0.848,0.414 0.256,1.128 C 2.275,-5.438 1.007,-2.789 0,0" />
    </g>
    <g
       id="g73318"
       transform="matrix(1.8174,0,0,-1.8174,197.72,151.8)">
      <path
         id="path73316"
         fill="#bed9b7"
         d="M 0,0 C -1.325,-0.633 -2.659,-1.252 -4.014,-2.279 -1.757,-3.106 0.333,-3.732 2.617,-3.998 2.388,-2.412 1.434,-1.337 0.729,-0.142 0.549,0.163 0.251,0.12 0,0" />
    </g>
    <g
       id="g73322"
       transform="matrix(1.8174,0,0,-1.8174,195.51,165.1)">
      <path
         id="path73320"
         fill="#c8d1a3"
         d="M 0,0 C 0.276,-0.264 0.487,-0.333 0.801,-0.081 1.798,0.718 2.676,1.631 3.717,2.672 1.391,3.048 -0.652,3.682 -2.894,4.35 -2.056,2.635 -1.237,1.185 0,0" />
    </g>
    <g
       id="g73326"
       transform="matrix(1.8174,0,0,-1.8174,165.33,177.28)">
      <path
         id="path73324"
         fill="#d4d795"
         d="m 0,0 c -2.282,4.032 -3.751,8.387 -5.083,12.798 -0.466,1.545 -0.755,3.126 -1.053,4.708 -0.07,0.373 -0.066,0.771 -0.594,0.894 -1.143,0.265 -2.265,0.625 -3.47,0.775 -0.2,-0.48 -0.175,-0.839 -0.114,-1.181 0.546,-3.015 1.269,-5.985 2.168,-8.918 0.82,-2.678 1.943,-5.228 3.1,-7.763 0.602,-1.318 1.262,-2.626 2.18,-3.774 0.225,-0.28 0.419,-0.575 0.862,-0.452 0.869,0.241 1.747,0.452 2.614,0.702 0.447,0.129 0.515,0.414 0.257,0.806 C 0.564,-0.946 0.271,-0.479 0,0" />
    </g>
    <g
       id="g73330"
       transform="matrix(1.8174,0,0,-1.8174,132.28,219.46)">
      <path
         id="path73328"
         fill="#b6d79d"
         d="M 0,0 C -0.238,1.312 -0.441,2.631 -0.667,4.014 -1.1,3.925 -1.228,3.669 -1.39,3.456 -2.901,1.471 -4.093,-0.692 -4.944,-3.037 c -0.802,-2.21 -0.98,-1.821 1.348,-2.941 0.505,-0.243 0.794,-0.157 0.96,0.406 0.52,1.757 1.41,3.33 2.47,4.81 C 0.009,-0.518 0.055,-0.301 0,0" />
    </g>
    <g
       id="g73334"
       transform="matrix(1.8174,0,0,-1.8174,143.85,217.9)">
      <path
         id="path73332"
         fill="#b6d7b1"
         d="m 0,0 c -1.743,1.138 -3.502,2.247 -5.397,3.122 -0.275,0.127 -0.539,0.337 -0.952,0.158 0.011,-1.345 0.329,-2.674 0.558,-4.014 0.056,-0.33 0.265,-0.56 0.579,-0.688 1.392,-0.57 2.613,-1.436 3.85,-2.263 0.501,-0.336 0.686,-0.173 0.863,0.272 0.291,0.728 0.523,1.487 0.893,2.173 C 0.728,-0.618 0.48,-0.313 0,0" />
    </g>
    <g
       id="g73338"
       transform="matrix(1.8174,0,0,-1.8174,137.55,223.4)">
      <path
         id="path73336"
         fill="#d0e3ad"
         d="m 0,0 c -0.561,0.379 -1.132,0.811 -2.043,0.895 0.369,-2.203 0.906,-4.248 1.728,-6.33 0.705,0.284 0.999,0.773 1.251,1.24 C 2.639,-1.033 2.821,-1.908 0,0" />
    </g>
    <g
       id="g73342"
       transform="matrix(1.8174,0,0,-1.8174,129.64,226.91)">
      <path
         id="path73340"
         fill="#bce5b3"
         d="M 0,0 C -0.292,-0.602 -0.531,-1.221 -0.693,-1.872 -0.779,-2.216 -0.781,-2.494 -0.394,-2.638 0.801,-3.083 2.015,-3.453 3.434,-3.742 2.702,-1.583 2.148,0.445 1.646,2.736 0.882,1.738 0.425,0.878 0,0" />
    </g>
    <g
       id="g73346"
       transform="matrix(1.8174,0,0,-1.8174,151.62,167.05)">
      <path
         id="path73344"
         fill="#dae38f"
         d="m 0,0 c -1.611,4.271 -2.93,8.641 -3.388,13.219 -0.036,0.359 -0.173,0.583 -0.54,0.665 -1.181,0.261 -2.353,0.572 -3.578,0.575 -0.193,-0.42 -0.029,-0.8 0.044,-1.173 0.376,-1.929 0.78,-3.85 1.222,-5.767 1.031,-4.468 2.377,-8.81 4.547,-12.867 0.594,-1.109 1.207,-2.207 1.826,-3.302 0.248,-0.439 0.606,-0.739 1.159,-0.616 0.947,0.211 1.942,0.179 2.831,0.528 0.072,0.214 0.023,0.364 -0.069,0.495 C 2.284,-5.702 1.08,-2.865 0,0" />
    </g>
    <g
       id="g73350"
       transform="matrix(1.8174,0,0,-1.8174,148.79,182.79)">
      <path
         id="path73348"
         fill="#c4f19f"
         d="M 0,0 C 0.232,-0.726 0.268,-0.715 1.252,-0.484 0.577,0.571 0.171,1.76 -0.793,2.944 -0.634,1.748 -0.281,0.88 0,0" />
    </g>
    <g
       id="g73354"
       transform="matrix(1.8174,0,0,-1.8174,147.72,190.74)">
      <path
         id="path73352"
         fill="#d6e3af"
         d="M 0,0 C -2.296,1.152 -4.715,1.938 -7.202,2.516 -8.49,2.815 -9.79,3.127 -11.2,3.091 c 0.092,-1.126 0.438,-2.132 0.566,-3.169 0.089,-0.729 0.466,-1.011 1.119,-1.101 1.287,-0.176 2.528,-0.54 3.762,-0.931 2.207,-0.699 4.311,-1.645 6.643,-2.817 0,1.302 -0.04,2.396 0.014,3.486 C 0.941,-0.704 0.655,-0.329 0,0" />
    </g>
    <g
       id="g73358"
       transform="matrix(1.8174,0,0,-1.8174,147.48,200.03)">
      <path
         id="path73356"
         fill="#bad797"
         d="m 0,0 c -2.691,1.418 -5.515,2.495 -8.481,3.17 -0.5,0.113 -1.035,0.395 -1.611,0.136 0.074,-1.06 0.389,-2.042 0.534,-3.049 0.077,-0.534 0.344,-0.731 0.807,-0.842 1.694,-0.404 3.255,-1.145 4.802,-1.922 1.369,-0.687 2.679,-1.478 4.136,-2.392 0.384,1.125 0.488,2.135 0.627,3.142 C 0.981,-0.544 1.01,-0.532 0,0" />
    </g>
    <g
       id="g73362"
       transform="matrix(1.8174,0,0,-1.8174,130.25,210.95)">
      <path
         id="path73360"
         fill="#bae7ab"
         d="m 0,0 c 0.17,0.172 0.307,0.359 0.268,0.622 -0.171,1.164 -0.325,2.33 -0.521,3.49 -0.063,0.372 -0.319,0.415 -0.596,0.156 -0.258,-0.242 -0.51,-0.491 -0.762,-0.74 -2.414,-2.389 -4.046,-5.297 -5.488,-8.325 -0.336,-0.706 -0.537,-1.476 -0.829,-2.205 -0.174,-0.433 -0.135,-0.752 0.303,-0.987 0.825,-0.442 1.615,-0.957 2.502,-1.238 0.377,0.342 0.396,0.804 0.555,1.198 0.337,0.838 0.554,1.739 0.988,2.52 1.064,1.916 2.008,3.92 3.58,5.509" />
    </g>
    <g
       id="g73366"
       transform="matrix(1.8174,0,0,-1.8174,80.024,69.233)">
      <path
         id="path73364"
         fill="#bce79d"
         d="m 0,0 c 0.172,-1.312 0.253,-2.641 0.645,-3.952 0.519,0.114 0.69,0.398 0.912,0.61 C 4.095,-0.91 5.832,2.067 7.32,5.206 7.671,5.947 7.912,6.741 8.199,7.513 8.354,7.928 8.312,8.287 7.878,8.517 7.184,8.884 6.49,9.25 5.795,9.616 5.426,9.81 5.205,9.687 5.094,9.299 5.04,9.111 4.961,8.931 4.899,8.745 3.896,5.737 2.429,2.988 0.333,0.592 0.18,0.417 -0.035,0.268 0,0" />
    </g>
    <g
       id="g73370"
       transform="matrix(1.8174,0,0,-1.8174,78.578,59.175)">
      <path
         id="path73368"
         fill="#ccefa9"
         d="m 0,0 c -0.155,-0.873 0.216,-1.843 0.382,-2.767 0.094,-0.52 -0.057,-1.1 0.32,-1.562 0.387,0.081 0.515,0.388 0.695,0.628 C 2.869,-1.753 4.051,0.354 4.87,2.661 5.674,4.926 6.036,4.463 3.527,5.648 2.986,5.904 2.72,5.734 2.584,5.219 2.311,4.186 1.83,3.242 1.318,2.317 0.884,1.533 0.146,0.824 0,0" />
    </g>
    <g
       id="g73374"
       transform="matrix(1.8174,0,0,-1.8174,82.396,77.361)">
      <path
         id="path73372"
         fill="#c0f19b"
         d="m 0,0 c -0.257,-0.238 -0.553,-0.456 -0.451,-0.884 0.252,-1.064 0.352,-2.163 0.744,-3.335 0.244,0.137 0.393,0.194 0.509,0.291 3.151,2.631 6.038,5.505 8.218,9.022 0.828,1.337 1.596,2.699 2.047,4.224 0.114,0.385 0.162,0.684 -0.201,0.926 -0.915,0.61 -1.833,1.217 -2.752,1.822 C 7.815,12.263 7.623,12.189 7.493,11.842 7.19,11.034 6.905,10.214 6.54,9.433 4.897,5.919 2.876,2.661 0,0" />
    </g>
    <g
       id="g73378"
       transform="matrix(1.8174,0,0,-1.8174,89.512,80.983)">
      <path
         id="path73376"
         fill="#d4dd97"
         d="m 0,0 c -0.968,-0.919 -2.007,-1.764 -3.02,-2.635 -0.237,-0.205 -0.534,-0.359 -0.465,-0.754 0.192,-0.961 0.366,-1.927 0.583,-2.883 0.187,-0.828 0.315,-0.869 0.963,-0.358 1.549,1.221 2.878,2.666 4.236,4.09 2.833,2.97 5.427,6.123 7.454,9.696 1.35,2.379 1.504,1.662 -0.585,3.387 -0.182,0.15 -0.347,0.322 -0.538,0.458 C 7.962,11.476 7.817,11.452 7.546,10.694 7.227,9.803 6.867,8.934 6.405,8.108 4.701,5.065 2.521,2.394 0,0" />
    </g>
    <g
       id="g73382"
       transform="matrix(1.8174,0,0,-1.8174,82.431,48.785)">
      <path
         id="path73380"
         fill="#c8eda5"
         d="m 0,0 c 0.102,0.386 -0.042,0.593 -0.393,0.719 -1.168,0.424 -2.355,0.78 -3.775,1.097 0.789,-2.16 1.234,-4.242 1.852,-6.476 C -1.229,-3.108 -0.437,-1.646 0,0" />
    </g>
    <g
       id="g73386"
       transform="matrix(1.8174,0,0,-1.8174,66.73,61.217)">
      <path
         id="path73384"
         fill="#cee19d"
         d="M 0,0 C 1.802,-1.186 3.627,-2.331 5.592,-3.236 5.872,-3.365 6.14,-3.539 6.47,-3.344 6.37,-2.041 6.17,-0.771 5.922,0.493 5.852,0.852 5.763,1.175 5.377,1.327 3.797,1.95 2.475,3.023 0.918,3.911 0.391,2.974 0.118,2.028 -0.304,1.153 -0.562,0.616 -0.475,0.313 0,0" />
    </g>
    <g
       id="g73390"
       transform="matrix(1.8174,0,0,-1.8174,88.861,92.045)">
      <path
         id="path73388"
         fill="#d4dbaf"
         d="m 0,0 c -0.695,-0.662 -1.923,-1.016 -2.007,-1.999 -0.078,-0.916 0.447,-1.889 0.738,-2.827 0.295,-0.949 0.436,-0.984 1.276,-0.406 0.162,0.111 0.318,0.234 0.466,0.363 1.803,1.58 3.576,3.184 5.229,4.934 2.305,2.44 4.42,5.018 6.301,7.79 0.794,1.17 1.589,2.342 2.121,3.673 0.176,0.441 0.15,0.725 -0.181,1.041 -0.57,0.544 -1.116,1.113 -1.677,1.667 -0.137,0.135 -0.294,0.251 -0.419,0.356 C 11.51,14.567 11.421,14.345 11.305,14.141 10.76,13.183 10.267,12.189 9.651,11.28 6.857,7.16 3.603,3.433 0,0" />
    </g>
    <g
       id="g73394"
       transform="matrix(1.8174,0,0,-1.8174,70.035,53.747)">
      <path
         id="path73392"
         fill="#d0e59b"
         d="M 0,0 C 0.969,-0.676 1.95,-1.333 3.007,-1.867 3.21,-1.97 3.41,-2.129 3.801,-1.928 3.421,0.142 2.877,2.204 2.088,4.271 1.481,4.069 1.234,3.698 1.014,3.336 0.565,2.597 0.184,1.817 -0.269,1.081 -0.57,0.592 -0.412,0.287 0,0" />
    </g>
    <g
       id="g73398"
       transform="matrix(1.8174,0,0,-1.8174,154.49,80.325)">
      <path
         id="path73396"
         fill="#b8e997"
         d="m 0,0 c 1.044,0.824 2.023,1.603 3.008,2.373 0.363,0.284 0.53,0.6 0.508,1.103 C 3.454,4.927 3.428,6.381 3.548,7.834 3.6,8.467 3.454,8.593 2.8,8.515 2.101,8.432 1.405,8.318 0.712,8.192 -0.192,8.029 -0.317,7.946 -0.336,7.012 -0.369,5.324 -0.562,3.635 -0.376,1.948 -0.309,1.34 -0.54,0.68 0,0" />
    </g>
    <g
       id="g73402"
       transform="matrix(1.8174,0,0,-1.8174,138.66,86.585)">
      <path
         id="path73400"
         fill="#c2e7a3"
         d="m 0,0 c 0.265,-0.963 0.396,-1.981 0.992,-2.892 1.056,0.627 1.812,1.492 2.69,2.205 0.326,0.265 0.143,0.546 0.068,0.853 C 3.074,2.937 2.898,5.755 3,8.597 3.017,9.066 3.106,9.537 2.885,10.114 2.627,10.04 2.438,10 2.259,9.933 1.449,9.63 0.64,9.323 -0.166,9.009 -1.109,8.642 -1.136,8.637 -1.111,7.682 -1.042,5.079 -0.692,2.513 0,0" />
    </g>
    <g
       id="g73406"
       transform="matrix(1.8174,0,0,-1.8174,155.08,89.104)">
      <path
         id="path73404"
         fill="#d6f195"
         d="m 0,0 c 0.65,-0.132 1.334,-0.081 2,-0.15 1.566,-0.16 3.13,0.022 4.695,0.008 1.072,-0.01 2.103,0.272 3.147,0.463 0.493,0.091 0.659,0.344 0.652,0.807 C 10.481,1.877 10.481,2.627 10.49,3.376 10.495,3.859 10.269,3.981 9.821,3.899 8.206,3.605 6.61,3.323 4.936,3.313 3.236,3.303 1.568,3.341 -0.099,3.641 -0.332,3.683 -0.584,3.787 -0.787,3.637 -1.853,2.851 -2.918,2.061 -4.002,1.014 -2.557,0.433 -1.266,0.257 0,0" />
    </g>
    <g
       id="g73410"
       transform="matrix(1.8174,0,0,-1.8174,146.89,86.374)">
      <path
         id="path73408"
         fill="#caef93"
         d="M 0,0 C 0.649,0.515 1.173,0.998 1.761,1.382 2.917,2.136 3.573,2.956 3.294,4.535 2.914,6.694 3.222,8.914 3.306,11.181 2.111,11.267 1.055,10.807 -0.041,10.579 -0.693,10.443 -0.899,10.094 -0.925,9.425 -1.027,6.784 -0.952,4.158 -0.514,1.547 -0.43,1.046 -0.345,0.555 0,0" />
    </g>
    <g
       id="g73414"
       transform="matrix(1.8174,0,0,-1.8174,64.028,69.707)">
      <path
         id="path73412"
         fill="#bce1a7"
         d="m 0,0 c 1.859,-1.189 3.776,-2.276 5.807,-3.138 0.789,-0.334 1.565,-0.743 2.452,-0.868 0.46,-0.144 0.54,0.128 0.488,0.501 C 8.595,-2.417 8.419,-1.332 8.278,-0.242 8.232,0.115 8.063,0.333 7.748,0.468 5.425,1.466 3.268,2.759 1.186,4.183 0.849,4.414 0.583,4.412 0.455,4.008 0.133,2.998 -0.151,1.976 -0.458,0.96 -0.599,0.493 -0.373,0.239 0,0" />
    </g>
    <g
       id="g73418"
       transform="matrix(1.8174,0,0,-1.8174,88.284,103.21)">
      <path
         id="path73416"
         fill="#cadbb3"
         d="m 0,0 c -0.276,-0.198 -0.432,-0.415 -0.311,-0.797 0.364,-1.153 0.736,-2.3 1.275,-3.404 0.468,0.061 0.732,0.37 1.018,0.621 1.423,1.244 2.806,2.533 4.202,3.807 3.393,3.095 6.468,6.449 8.928,10.341 0.694,1.098 1.383,2.2 2.035,3.323 0.204,0.353 0.458,0.748 0.109,1.202 -0.644,0.838 -1.266,1.691 -2.119,2.552 C 13.694,14.584 11.79,12.009 9.775,9.552 6.877,6.02 3.741,2.69 0,0" />
    </g>
    <g
       id="g73422"
       transform="matrix(1.8174,0,0,-1.8174,131.05,90.999)">
      <path
         id="path73420"
         fill="#c0e9ab"
         d="m 0,0 c 0.4,-1.265 0.759,-2.558 1.562,-3.793 0.969,0.867 1.899,1.696 2.826,2.528 0.293,0.264 0.179,0.55 0.057,0.86 C 3.797,1.249 3.363,2.965 3.07,4.713 2.753,6.607 2.487,8.51 2.45,10.62 1.261,10.168 0.351,9.559 -0.608,9.037 -1.366,8.623 -1.488,8.033 -1.421,7.272 -1.202,4.797 -0.748,2.367 0,0" />
    </g>
    <g
       id="g73426"
       transform="matrix(1.8174,0,0,-1.8174,121.12,80.432)">
      <path
         id="path73424"
         fill="#bed5a7"
         d="M 0,0 C 0.425,0.446 0.433,0.882 -0.166,1.416 -0.797,0.229 -1.636,-0.724 -2.017,-1.945 -1.281,-1.339 -0.639,-0.671 0,0" />
    </g>
    <g
       id="g73430"
       transform="matrix(1.8174,0,0,-1.8174,121.18,85.038)">
      <path
         id="path73428"
         fill="#bae995"
         d="m 0,0 c 0.57,-3.27 1.439,-6.445 2.736,-9.502 0.167,-0.394 0.264,-0.827 0.686,-1.115 0.758,0.508 1.221,1.341 1.922,1.877 1.077,0.823 1.06,1.692 0.46,2.73 -0.059,0.101 -0.098,0.215 -0.14,0.326 C 4.602,-2.875 3.776,-0.01 3.576,3.007 3.544,3.496 3.484,3.983 3.208,4.547 2.39,3.886 1.675,3.28 0.93,2.712 0.004,2.007 -0.196,1.127 0,0" />
    </g>
    <g
       id="g73434"
       transform="matrix(1.8174,0,0,-1.8174,62.67,88.285)">
      <path
         id="path73432"
         fill="#d2e993"
         d="m 0,0 c 1.486,-0.723 2.989,-1.398 4.579,-1.863 2.185,-0.639 4.376,-1.241 6.886,-1.37 -0.257,1.256 -0.503,2.364 -0.704,3.48 -0.082,0.456 -0.297,0.628 -0.75,0.724 C 8.743,1.24 7.475,1.526 6.237,1.906 4.091,2.564 2.024,3.431 0.034,4.474 -0.596,4.804 -0.701,4.744 -0.718,4.02 -0.741,3.035 -0.696,2.048 -0.736,1.065 -0.759,0.486 -0.47,0.229 0,0" />
    </g>
    <g
       id="g73438"
       transform="matrix(1.8174,0,0,-1.8174,38.613,130.33)">
      <path
         id="path73436"
         fill="#baf59f"
         d="m 0,0 c -1.242,0.492 -2.407,0.937 -3.557,1.418 -0.416,0.174 -0.743,0.13 -1.09,-0.141 -1.931,-1.511 -4.091,-2.642 -6.28,-3.719 -0.426,-0.209 -0.566,-0.418 -0.231,-0.779 0.721,-0.776 1.413,-1.579 2.198,-2.298 0.378,-0.346 0.663,-0.25 1.037,-0.053 1.565,0.825 3.104,1.696 4.558,2.704 C -2.177,-2.044 -0.956,-1.247 0,0" />
    </g>
    <g
       id="g73442"
       transform="matrix(1.8174,0,0,-1.8174,27.593,128.58)">
      <path
         id="path73440"
         fill="#c2f19b"
         d="M 0,0 C 0.382,0.251 0.825,0.459 1.055,1.005 -0.204,1.5 -1.443,1.985 -2.68,2.474 -3.076,2.632 -3.414,2.592 -3.77,2.32 -4.899,1.455 -6.19,0.864 -7.452,0.226 c -0.736,-0.372 -0.74,-0.378 -0.223,-1.079 0.374,-0.506 0.761,-1.001 1.147,-1.497 0.683,-0.877 0.692,-0.892 1.718,-0.379 C -3.16,-1.903 -1.542,-1.016 0,0" />
    </g>
    <g
       id="g73446"
       transform="matrix(1.8174,0,0,-1.8174,20.311,123.3)">
      <path
         id="path73444"
         fill="#b2ed97"
         d="m 0,0 c -2.248,0.853 -4.332,1.415 -6.528,1.738 -0.017,-0.225 -0.056,-0.342 -0.03,-0.443 0.334,-1.283 1.133,-2.32 1.825,-3.413 0.227,-0.358 0.554,-0.259 0.835,-0.118 C -2.639,-1.607 -1.349,-1.031 0,0" />
    </g>
    <g
       id="g73450"
       transform="matrix(1.8174,0,0,-1.8174,15.108,114.01)">
      <path
         id="path73448"
         fill="#bcd5b3"
         d="M 0,0 C -0.357,0.306 -0.568,0.135 -0.806,-0.06 -1.762,-0.844 -2.64,-1.706 -3.547,-2.713 -1.328,-3.173 0.734,-3.727 2.845,-4.388 2.362,-2.899 0.93,-0.798 0,0" />
    </g>
    <g
       id="g73454"
       transform="matrix(1.8174,0,0,-1.8174,22.4,122.74)">
      <path
         id="path73452"
         fill="#cae3a7"
         d="M 0,0 C 0.714,-0.453 1.583,-0.667 2.397,-0.952 2.933,-1.14 3.427,-1.496 4.148,-1.482 3.506,0.861 2.183,2.677 0.957,4.534 0.443,5.314 -0.226,5.995 -0.842,6.705 -1.042,6.936 -1.279,7.216 -1.64,6.974 -2.338,6.504 -3.102,6.114 -3.714,5.446 -2.761,4.39 -1.981,3.32 -1.272,2.187 -0.82,1.464 -0.736,0.467 0,0" />
    </g>
    <g
       id="g73458"
       transform="matrix(1.8174,0,0,-1.8174,45.928,134.03)">
      <path
         id="path73456"
         fill="#ceddaf"
         d="M 0,0 C 0.289,0.307 0.336,0.6 -0.196,0.768 -1.056,1.041 -1.9,1.365 -2.753,1.661 -3.11,1.785 -3.388,1.759 -3.687,1.43 -4.671,0.347 -5.864,-0.492 -7.069,-1.309 c -1.366,-0.926 -2.76,-1.803 -4.243,-2.538 -0.679,-0.336 -0.681,-0.516 -0.112,-1 0.749,-0.637 1.522,-1.244 2.29,-1.857 0.151,-0.122 0.325,-0.215 0.456,-0.301 0.299,0.004 0.473,0.174 0.675,0.291 1.95,1.125 3.706,2.514 5.366,4.017 C -1.706,-1.855 -0.862,-0.916 0,0" />
    </g>
    <g
       id="g73462"
       transform="matrix(1.8174,0,0,-1.8174,49.789,153.53)">
      <path
         id="path73460"
         fill="#b8dfaf"
         d="M 0,0 C 1.93,1.563 3.72,3.269 5.355,5.133 6.13,6.017 6.822,6.976 7.543,7.908 7.838,8.288 7.766,8.532 7.263,8.645 6.345,8.851 5.417,9.038 4.525,9.329 3.852,9.549 3.389,9.444 3.035,8.83 2.939,8.662 2.789,8.525 2.67,8.368 0.613,5.653 -1.796,3.307 -4.627,1.401 -4.846,1.254 -5.13,1.163 -5.232,0.739 -4.313,0.21 -3.287,-0.114 -2.264,-0.471 -1.374,-0.782 -0.704,-0.57 0,0" />
    </g>
    <g
       id="g73466"
       transform="matrix(1.8174,0,0,-1.8174,50.477,141.65)">
      <path
         id="path73464"
         fill="#c2d993"
         d="M 0,0 C 0.909,0.964 1.776,1.972 2.501,3.148 1.489,3.64 0.437,3.835 -0.531,4.246 c -0.636,0.27 -1.04,0.18 -1.501,-0.388 -1.442,-1.777 -3.141,-3.293 -4.965,-4.679 -1.092,-0.831 -2.217,-1.614 -3.484,-2.453 1.076,-0.682 2.042,-1.32 3.08,-1.859 0.557,-0.29 0.979,-0.267 1.509,0.079 C -3.706,-3.624 -1.783,-1.891 0,0" />
    </g>
    <g
       id="g73470"
       transform="matrix(1.8174,0,0,-1.8174,31.556,110.22)">
      <path
         id="path73468"
         fill="#ced5a9"
         d="m 0,0 c 2.062,-3.05 3.784,-6.262 4.57,-9.905 0.072,-0.336 0.113,-0.722 0.515,-0.869 1.059,-0.388 2.104,-0.823 3.211,-1.006 0.063,0.124 0.128,0.193 0.127,0.26 -0.003,0.235 -0.007,0.474 -0.05,0.703 C 7.656,-7.017 6.666,-3.304 4.846,0.141 4.072,1.606 3.226,3.021 2.098,4.252 1.802,4.574 1.551,4.749 1.09,4.494 0.195,3.999 -0.731,3.559 -1.653,3.115 -2.078,2.91 -2.15,2.703 -1.825,2.317 -1.192,1.565 -0.549,0.813 0,0" />
    </g>
    <g
       id="g73474"
       transform="matrix(1.8174,0,0,-1.8174,61.963,96.392)">
      <path
         id="path73472"
         fill="#c6dbb1"
         d="M 0,0 C -0.187,0.68 -0.599,0.738 -1.235,0.535 -0.631,-0.662 -0.042,-1.841 0.9,-2.882 0.597,-1.922 0.267,-0.97 0,0" />
    </g>
    <g
       id="g73478"
       transform="matrix(1.8174,0,0,-1.8174,29.661,121.6)">
      <path
         id="path73476"
         fill="#bae7b5"
         d="m 0,0 c 0.466,-0.88 0.47,-2.073 1.309,-2.651 0.82,-0.565 1.865,-0.803 2.813,-1.178 0.243,-0.096 0.505,-0.326 0.756,-0.087 0.233,0.223 0.085,0.526 0.014,0.777 C 4.31,-1.095 3.603,0.898 2.521,2.743 1.427,4.608 0.357,6.487 -1.138,8.077 -1.349,8.301 -1.506,8.601 -1.909,8.608 -2.466,8.384 -2.986,8.034 -3.512,7.692 -4.768,6.875 -4.766,6.877 -3.791,5.792 -2.23,4.056 -1.085,2.049 0,0" />
    </g>
    <g
       id="g73482"
       transform="matrix(1.8174,0,0,-1.8174,65.219,136.01)">
      <path
         id="path73480"
         fill="#d6ddaf"
         d="M 0,0 C 0.038,-0.337 0.085,-0.659 0.451,-0.741 1.698,-1.019 2.936,-1.38 4.279,-1.343 4.258,-1.113 4.255,-0.957 4.229,-0.806 3.856,1.366 3.393,3.519 2.893,5.667 1.836,10.209 0.43,14.622 -1.782,18.749 c -0.521,0.971 -1.057,1.935 -1.609,2.888 -0.264,0.456 -0.606,0.853 -1.224,0.736 -0.956,-0.182 -1.945,-0.199 -3.044,-0.591 1.257,-1.776 2.107,-3.588 2.93,-5.414 C -2.372,11.137 -0.648,5.723 0,0" />
    </g>
    <g
       id="g73486"
       transform="matrix(1.8174,0,0,-1.8174,47.699,164.77)">
      <path
         id="path73484"
         fill="#d6d99d"
         d="m 0,0 c 3.128,-0.274 6.25,-0.562 9.322,-1.29 3.289,-0.779 6.564,-1.579 9.651,-2.996 0.415,-0.19 0.696,-0.174 1.038,0.17 0.668,0.674 1.263,1.405 1.855,2.14 0.52,0.646 0.496,0.709 -0.326,1.018 C 18.005,0.372 14.364,1.348 10.719,2.318 6.928,3.327 3.035,3.401 -0.842,3.633 -1.24,3.657 -1.622,3.571 -2.008,3.487 -2.254,3.434 -2.487,3.362 -2.582,3.131 -2.998,2.126 -3.462,1.137 -3.757,-0.078 -2.349,0.121 -1.174,0.103 0,0" />
    </g>
    <g
       id="g73490"
       transform="matrix(1.8174,0,0,-1.8174,50.868,113.74)">
      <path
         id="path73488"
         fill="#c2f59f"
         d="m 0,0 c 1.338,-3.614 2.573,-7.275 3.143,-11.111 0.066,-0.451 0.193,-0.717 0.661,-0.823 1.109,-0.251 2.21,-0.537 3.424,-0.835 0.214,1.441 -0.163,2.622 -0.406,3.799 C 5.801,-4.012 4.194,0.758 1.992,5.317 1.395,6.554 0.763,7.783 -0.073,8.892 -0.4,9.327 -0.719,9.505 -1.271,9.315 -1.937,9.085 -2.639,8.961 -3.318,8.763 -4.174,8.513 -4.205,8.433 -3.692,7.644 -2.138,5.252 -0.982,2.654 0,0" />
    </g>
    <g
       id="g73494"
       transform="matrix(1.8174,0,0,-1.8174,63.472,79.353)">
      <path
         id="path73492"
         fill="#d6eb9d"
         d="m 0,0 c 1.548,-0.781 3.145,-1.44 4.765,-2.049 1.436,-0.539 2.924,-0.907 4.423,-1.225 0.81,-0.172 0.86,-0.105 0.703,0.767 C 9.758,-1.773 9.609,-1.041 9.485,-0.305 9.398,0.206 9.156,0.518 8.624,0.662 5.824,1.417 3.302,2.776 0.851,4.286 0.49,4.509 0.158,4.811 -0.392,4.831 -0.615,3.81 -0.775,2.776 -0.966,1.744 -1.136,0.82 -0.752,0.38 0,0" />
    </g>
    <g
       id="g73498"
       transform="matrix(1.8174,0,0,-1.8174,36.898,102.71)">
      <path
         id="path73496"
         fill="#b4f997"
         d="m 0,0 c 1.881,-2.227 3.105,-4.817 4.078,-7.528 0.957,-2.666 1.713,-5.392 2.031,-8.218 0.041,-0.356 0.141,-0.613 0.486,-0.716 1.162,-0.347 2.276,-0.854 3.535,-1.094 0.055,0.205 0.097,0.281 0.09,0.352 -0.024,0.234 -0.058,0.467 -0.102,0.699 C 9.297,-12.121 7.855,-7.93 6.132,-3.83 5.324,-1.907 4.374,-0.054 3.222,1.692 3.041,1.968 2.89,2.259 2.496,2.108 1.579,1.756 0.664,1.396 -0.245,1.024 -0.525,0.91 -0.55,0.696 -0.368,0.461 -0.248,0.305 -0.127,0.15 0,0" />
    </g>
  </g>
</svg>
