<?xml version="1.0" encoding="UTF-8"?>
<svg width="198.78mm" height="194.07mm" version="1.1" viewBox="0 0 198.78 194.07" xmlns="http://www.w3.org/2000/svg" xmlns:cc="http://creativecommons.org/ns#" xmlns:dc="http://purl.org/dc/elements/1.1/" xmlns:rdf="http://www.w3.org/1999/02/22-rdf-syntax-ns#">
 <metadata>
  <rdf:RDF>
   <cc:Work rdf:about="">
    <dc:format>image/svg+xml</dc:format>
    <dc:type rdf:resource="http://purl.org/dc/dcmitype/StillImage"/>
    <dc:title/>
   </cc:Work>
  </rdf:RDF>
 </metadata>
 <g transform="translate(-6.4519 -52.265)">
  <g transform="matrix(1.8214 0 0 -1.8214 138.94 190.66)">
   <path d="m0 0c0.151 1.682 0.145 3.337-0.096 5.004-0.401 2.777-1.165 5.431-2.423 7.939-0.434 0.866-0.945 1.682-1.581 2.419-0.207 0.24-0.366 0.285-0.623 0.044-0.578-0.542-1.185-1.052-1.79-1.584 0.244-0.493 0.69-0.779 1.014-1.167 1.105-1.323 1.838-2.858 2.607-4.38 1.237-2.449 2.137-5.004 2.557-7.721 0.034-0.219 0.035-0.456 0.335-0.554" fill="#72aefc"/>
  </g>
  <g transform="matrix(1.8214 0 0 -1.8214 130.46 158.56)">
   <path d="m0 0c-0.987-0.662-1.962-1.343-3.074-1.789-1.118-0.447-1.12-0.444-0.621-1.521 0.012-0.026 0.025-0.051 0.038-0.076 0.277-0.578 0.28-0.584 0.879-0.307 2.119 0.978 3.336 2.853 4.627 4.67-0.68-0.219-1.27-0.589-1.849-0.977" fill="#6ca4f0"/>
  </g>
  <g transform="matrix(1.8214 0 0 -1.8214 133.77 90.161)">
   <path d="m0 0c0.069 0.078 0.1 0.19 0.148 0.286-0.692-0.246-1.208-0.678-1.685-1.16-2.583-2.611-4.923-5.426-7.05-8.42-0.81-1.14-1.534-2.325-2.041-3.63-0.116-0.297-0.328-0.607-0.116-0.962 0.098 0.023 0.188 0.028 0.261 0.064 1.348 0.677 2.715 1.304 4.202 1.615 0.367 0.077 0.454 0.319 0.523 0.665 0.489 2.468 1.281 4.841 2.628 6.974 0.985 1.559 1.896 3.176 3.13 4.568" fill="#b0fae0"/>
  </g>
  <g transform="matrix(1.8214 0 0 -1.8214 129.31 112.41)">
   <path d="m0 0c-2.126 0.027-4.167-0.364-6.137-1.182-2.853-1.185-5.221-2.952-6.906-5.576-0.593-0.923-0.585-0.891 0.396-1.371 0.457-0.224 0.703-0.147 0.986 0.253 0.408 0.578 0.885 1.102 1.422 1.577 2.724 2.406 5.86 4.066 9.297 5.187 0.564 0.184 1.125 0.369 1.727 0.437 0.864 0.098 1.721 0.264 2.581 0.401 3e-3 0.058 5e-3 0.115 7e-3 0.172-0.13 0.019-0.26 0.043-0.391 0.055-0.993 0.098-1.988 0.034-2.982 0.047" fill="#60b6f0"/>
  </g>
  <g transform="matrix(1.8214 0 0 -1.8214 134.81 114.93)">
   <path d="m0 0c-1.447-0.579-2.873-1.2-4.21-2.013-1.678-1.021-3.177-2.281-4.686-3.522-1.14-0.937-2.137-2.028-2.908-3.305-0.135-0.224-0.278-0.405-0.103-0.691 0.313-0.509 0.452-0.567 1.02-0.248 0.814 0.458 1.598 0.982 2.563 1.081 0.306 0.031 0.403 0.283 0.526 0.504 0.332 0.595 0.686 1.174 1.119 1.704 1.676 2.051 3.526 3.918 5.713 5.433 0.477 0.331 0.942 0.682 1.436 1.042-0.215 0.155-0.357 0.06-0.47 0.015" fill="#5cb4f2"/>
  </g>
  <g transform="matrix(1.8214 0 0 -1.8214 135.32 86.729)">
   <path d="m0 0c-0.101-0.038-0.208-0.063-0.302-0.114-1.297-0.706-2.563-1.46-3.79-2.286-1.869-1.258-3.564-2.722-5.208-4.254-1.958-1.824-3.806-3.748-5.303-5.979-0.379-0.564-0.751-1.136-1.009-1.775-0.116-0.287-0.082-0.458 0.169-0.645 0.666-0.493 1.267-1.054 1.683-1.786 0.073-0.13 0.196-0.284 0.324-0.183 0.474 0.373 1.128 0.571 1.261 1.29 0.266 1.428 0.98 2.662 1.754 3.854 1.645 2.528 3.558 4.851 5.552 7.11 0.884 1 1.763 2.001 2.787 2.867 0.714 0.603 1.509 1.111 2.082 1.901" fill="#78ccce"/>
  </g>
  <g transform="matrix(1.8214 0 0 -1.8214 85.973 128.51)">
   <path d="m0 0c-1e-3 -1.193-0.021-2.385 0.3-3.55 0.176-0.638 0.176-0.637 0.783-0.478 0.52 0.137 1.041 0.268 1.56 0.409 0.601 0.162 0.613 0.169 0.433 0.726-0.52 1.607-0.73 3.257-0.708 4.943 0.012 0.966-8e-3 1.933 4e-3 2.899 0.02 1.622 0.231 3.218 0.649 4.788 0.18 0.676 0.333 1.359 0.499 2.04-0.655-0.643-1.101-1.399-1.424-2.201-1.239-3.07-2.093-6.231-2.096-9.576" fill="#84bee8"/>
  </g>
  <g transform="matrix(1.8214 0 0 -1.8214 90.745 106.34)">
   <path d="m0 0c-2.488-2.707-4.325-5.743-4.956-9.441-0.412-2.417-0.196-4.753 0.583-7.052 0.288-0.849 0.34-0.847 1.123-0.447 0.768 0.392 0.739 0.227 0.525 1.076-0.488 1.942-0.327 3.899-0.195 5.851 0.133 1.969 0.706 3.851 1.302 5.717 0.328 1.025 0.703 2.035 1.279 2.968 0.315 0.51 0.714 1.007 0.869 1.647-0.298-1e-3 -0.406-0.184-0.53-0.319" fill="#92f2f2"/>
  </g>
  <g transform="matrix(1.8214 0 0 -1.8214 98.027 108.41)">
   <path d="m0 0c-0.145 0.147-0.27 0.337-0.674 0.424 1.452-2.913 3.806-4.907 5.802-7.261 0.402 0.229 0.636 0.559 0.92 0.832 0.53 0.509 0.521 0.52 0.111 1.129-0.635 0.942-1.54 1.577-2.498 2.135-1.328 0.774-2.576 1.646-3.661 2.741" fill="#62f8e2"/>
  </g>
  <g transform="matrix(1.8214 0 0 -1.8214 96.128 110)">
   <path d="m0 0c0.578-2.302 1.591-4.413 2.837-6.419 0.388-0.625 0.777-1.252 1.278-1.798 0.198-0.216 0.346-0.242 0.521 0.043 0.266 0.434 0.562 0.851 0.857 1.266 0.388 0.545 0.394 0.543-0.02 1.087-0.085 0.113-0.181 0.218-0.278 0.321-0.699 0.742-1.432 1.456-2.093 2.231-1.096 1.286-2.18 2.584-3.068 4.15-0.201-0.394-0.095-0.639-0.034-0.881" fill="#b8fcfa"/>
  </g>
  <g transform="matrix(1.8214 0 0 -1.8214 96.695 127.14)">
   <path d="m0 0c0.546 0.395 0.668 0.919 0.943 1.334 0.434 0.658 0.535 0.683 1.19 0.26 0.322-0.209 0.635-0.448 1.18-0.579-1.052 1.567-1.942 3.058-2.718 4.618-0.793 1.597-1.162 3.331-1.707 5.015-0.333-3.604-0.08-7.133 1.112-10.648" fill="#b0bef0"/>
  </g>
  <g transform="matrix(1.8214 0 0 -1.8214 101.39 179.83)">
   <path d="m0 0c1.726 2.365 3.019 4.946 3.699 7.799 0.367 1.54 0.369 3.099-0.279 4.596-0.141 0.327-0.264 0.671-0.648 0.922-0.161-0.558 0.02-1.088-0.195-1.56-0.223-0.49-0.442-0.983-0.666-1.474-0.087-0.19-0.073-0.388-0.057-0.586 0.08-0.989 0.026-1.972-0.142-2.947-0.423-2.449-1.235-4.77-2.338-6.993-0.075-0.152-0.188-0.302-0.115-0.566 0.288 0.311 0.544 0.539 0.741 0.809" fill="#b4c6d0"/>
  </g>
  <g transform="matrix(1.8214 0 0 -1.8214 91.875 139.78)">
   <path d="m0 0c-0.085 2e-3 -0.171-2e-3 -0.256 1e-3 -1.571 0.06-3.093-0.398-4.654-0.443-0.123-3e-3 -0.272-0.049-0.375-0.214 1.881-0.997 3.905-1.502 5.987-1.784 1.112-0.152 1.119-0.101 0.923 1.029-0.22 1.271-0.338 1.374-1.625 1.411" fill="#78f4e8"/>
  </g>
  <g transform="matrix(1.8214 0 0 -1.8214 93.635 135.74)">
   <path d="m0 0c-2.459 0.169-4.423-1.128-6.469-2.28 0.492 0.035 0.983 0.066 1.474 0.108 1.241 0.106 2.457 0.429 3.714 0.404 0.402-8e-3 0.79-0.07 1.181-0.133 0.308-0.05 0.491 0.025 0.481 0.385-0.013 0.474-3e-3 0.948-3e-3 1.444-0.093 0.073-0.237 0.062-0.378 0.072" fill="#bcb2ea"/>
  </g>
  <g transform="matrix(1.8214 0 0 -1.8214 82.292 148.1)">
   <path d="m0 0c0.375-0.426 0.771-0.833 1.149-1.257 1.703-1.914 3.844-3.066 6.335-3.556 1.15-0.226 2.295-0.082 3.408 0.334-0.066 0.146-0.15 0.146-0.226 0.14-1.856-0.153-3.539 0.407-5.119 1.304-1.936 1.099-3.667 2.465-5.213 4.077-0.608 0.635-1.128 1.336-1.78 1.962 0.356-1.065 0.686-2.14 1.446-3.004" fill="#74b8d8"/>
  </g>
  <g transform="matrix(1.8214 0 0 -1.8214 81.446 143.33)">
   <path d="m0 0c0.123-0.19 0.272-0.363 0.418-0.536 1.35-1.597 2.955-2.898 4.685-4.059 1.529-1.027 3.156-1.791 5.015-1.969 0.849-0.082 1.657 0.047 2.418 0.523-0.721 0.102-1.342 0.399-1.84 0.855-0.617 0.564-1.324 0.844-2.122 0.975-0.166 0.027-0.329 0.081-0.492 0.126-2.555 0.712-4.796 2.026-6.903 3.596-0.427 0.319-0.853 0.641-1.347 1.012-0.042-0.322 0.095-0.41 0.168-0.523" fill="#92d8de"/>
  </g>
  <g transform="matrix(1.8214 0 0 -1.8214 95.863 143.7)">
   <path d="m0 0c0.278-0.932 0.61-1.825 1.113-2.654 0.592-0.977 1.426-1.742 2.264-2.056-1.151 1.301-1.839 2.78-2.156 4.421-0.482 2.498-0.469 5.008-0.123 7.524 0.108 0.783 0.353 1.533 0.429 2.336-0.553-0.799-1.119-1.6-1.349-2.527-0.577-2.325-0.886-4.667-0.178-7.044" fill="#8cf4de"/>
  </g>
  <g transform="matrix(1.8214 0 0 -1.8214 83.461 142.44)">
   <path d="m0 0c-0.139 0.059-0.278 0.212-0.506 4e-3 2.528-1.998 5.2-3.657 8.52-4.404-0.431 0.855-0.942 1.507-1.177 2.284-0.151 0.498-0.473 0.628-0.94 0.664-2.043 0.161-4.011 0.645-5.897 1.452" fill="#96bae6"/>
  </g>
  <g transform="matrix(1.8214 0 0 -1.8214 121.83 176.46)">
   <path d="m0 0c-0.259 0.292-0.519 0.584-0.778 0.876-1.288 1.455-2.778 2.67-4.431 3.684-0.498 0.306-0.517 0.281-0.67-0.263-0.069-0.245-0.132-0.492-0.206-0.736-0.319-1.058-0.316-1.072 0.616-1.609 0.123-0.071 0.255-0.125 0.378-0.194 1.57-0.882 3.381-1.106 4.982-1.9 0.036 0.048 0.073 0.095 0.109 0.142" fill="#a6a4de"/>
  </g>
  <g transform="matrix(1.8214 0 0 -1.8214 137.57 191.75)">
   <path d="m0 0c0.144 0.276 0.128 0.453 0.096 0.616-0.189 0.946-0.355 1.899-0.593 2.833-0.75 2.945-2.108 5.629-3.63 8.234-0.472 0.808-1.094 1.52-1.751 2.193-0.21 0.215-0.4 0.358-0.741 0.199-0.51-0.238-0.559-0.262-0.402-0.828 0.233-0.847 0.573-1.68 0.532-2.57-0.018-0.393 0.097-0.626 0.36-0.878 2.396-2.302 4.053-5.095 5.364-8.117 0.234-0.538 0.392-1.115 0.765-1.682" fill="#acf4da"/>
  </g>
  <g transform="matrix(1.8214 0 0 -1.8214 136 191.15)">
   <path d="m0 0c0.066 0.135 0.094 0.165 0.088 0.184-0.058 0.188-0.112 0.379-0.185 0.562-0.916 2.31-2.16 4.436-3.652 6.419-0.426 0.566-0.857 1.131-1.38 1.616-0.123 0.113-0.255 0.246-0.445 0.136-0.144-0.082-0.134-0.235-0.141-0.376-0.02-0.397-0.019-0.796-0.065-1.19-0.06-0.514-0.275-0.665-0.799-0.593-0.43 0.06-0.859 0.162-1.44 3e-3 3.171-1.782 5.934-3.823 8.019-6.761" fill="#8cd2ea"/>
  </g>
  <g transform="matrix(1.8214 0 0 -1.8214 80.176 133.15)">
   <path d="m0 0c-0.227 0.031-0.442 0.047-0.671 0.024-0.927-0.094-1.855-0.198-2.786-0.241-1.725-0.08-3.451-0.105-5.166 0.16-0.1 0.016-0.221 0.051-0.337-0.156 3.183-1.616 6.544-2.323 10.169-2.301-0.217 0.729-0.429 1.341-0.574 1.968-0.086 0.375-0.288 0.499-0.635 0.546" fill="#9ccad2"/>
  </g>
  <g transform="matrix(1.8214 0 0 -1.8214 104.7 179.27)">
   <path d="m0 0c1.646 1.96 2.895 4.128 3.27 6.705 0.232 1.598 0.137 3.169-0.628 4.641-0.081 0.156-0.149 0.315-0.444 0.478 0.451-1.646 0.431-3.166 0.029-4.662-0.84-3.133-2.214-6.001-4.366-8.462-0.092-0.105-0.203-0.198-0.182-0.566 0.853 0.661 1.701 1.127 2.321 1.866" fill="#bad8f0"/>
  </g>
  <g transform="matrix(1.8214 0 0 -1.8214 99.464 179.31)">
   <path d="m0 0c0.065-7e-3 0.131-0.014 0.196-0.021 1.353 2.877 2.393 5.833 2.296 9.209-0.653-0.641-1.17-1.256-1.858-1.66-0.459-0.27-0.574-0.612-0.497-1.13 0.205-1.375 0.253-2.762 0.136-4.149-0.063-0.752-0.18-1.499-0.273-2.249" fill="#bed4be"/>
  </g>
  <g transform="matrix(1.8214 0 0 -1.8214 65.341 180.99)">
   <path d="m0 0c3.004-1.484 6.128-2.264 9.527-1.895 2.081 0.225 3.973 0.879 5.773 1.874 1.117 0.617 1.112 0.768 0.257 1.675-0.213 0.225-0.383 0.275-0.658 0.131-0.502-0.263-1.005-0.526-1.551-0.695-2.899-0.897-5.854-1.271-8.889-1.053-1.644 0.118-3.277 0.253-4.855 0.77-0.504 0.165-1.013 0.316-1.52 0.473 0.516-0.667 1.235-0.944 1.916-1.28" fill="#5cfcec"/>
  </g>
  <g transform="matrix(1.8214 0 0 -1.8214 131.52 191.47)">
   <path d="m0 0c0.531-0.152 1.02-0.457 1.709-0.535-0.595 0.599-1.2 0.948-1.813 1.301-2.027 1.171-4.278 1.823-6.389 2.796-0.35 0.161-0.454 0.015-0.542-0.275-0.099-0.326-0.187-0.66-0.334-0.964-0.181-0.374-0.031-0.551 0.278-0.746 0.916-0.574 1.935-0.806 2.983-0.923 1.38-0.154 2.76-0.269 4.108-0.654" fill="#aad0fa"/>
  </g>
  <g transform="matrix(1.8214 0 0 -1.8214 119.94 179.48)">
   <path d="m0 0c-0.067-0.642-0.138-1.286-0.305-1.914-0.083-0.309-0.015-0.547 0.314-0.685 0.442-0.186 0.863-0.431 1.313-0.592 2.374-0.849 4.682-1.831 6.922-3.378-1.03 2.168-6.467 6.444-8.244 6.569" fill="#7eaeea"/>
  </g>
  <g transform="matrix(1.8214 0 0 -1.8214 135.88 198.66)">
   <path d="m0 0c1.073-0.064 2.148-0.133 3.223-0.136 3.174-0.01 6.348 0.02 9.493-0.531 0.366-0.065 0.735-0.272 1.141-0.131-0.074 0.209-0.241 0.258-0.385 0.337-2.08 1.139-4.3 1.878-6.617 2.349-1.334 0.271-2.67 0.501-4.034 0.538-0.251 7e-3 -0.476 0.032-0.675-0.227-0.491-0.638-0.513-0.613-1.207-0.186-0.417 0.256-0.837 0.529-1.404 0.602 0.127-0.7-0.049-1.305-0.119-1.919-0.072-0.632-0.072-0.657 0.584-0.696" fill="#aec4c4"/>
  </g>
  <g transform="matrix(1.8214 0 0 -1.8214 97.001 202)">
   <path d="m0 0c1.042 1.16 2.057 2.342 2.909 3.654 1.055 1.623 1.838 3.388 2.648 5.137 0.646 1.395 1.058 2.859 1.225 4.4 0.057 0.527-0.316 0.536-0.559 0.707-0.302 0.212-0.453-0.053-0.604-0.262-0.299-0.413-0.604-0.822-0.898-1.239-0.345-0.491-0.995-0.747-1.214-1.269-0.219-0.524-0.105-1.177-0.22-1.756-0.585-2.941-1.582-5.732-3.089-8.333-0.209-0.361-0.393-0.737-0.589-1.105l0.125-0.121c0.09 0.062 0.195 0.108 0.266 0.187" fill="#70e8e0"/>
  </g>
  <g transform="matrix(1.8214 0 0 -1.8214 141.86 175.1)">
   <path d="m0 0c-0.435 2.539-1.278 4.884-2.889 6.915-0.541 0.683-1.058 1.401-1.883 1.843-0.204-0.268-0.371-0.536-0.586-0.757-0.311-0.32-0.339-0.564-8e-3 -0.92 0.541-0.583 0.973-1.257 1.342-1.967 1.25-2.411 2.143-4.933 2.587-7.627 0.353-2.14 0.515-4.269 0.196-6.422-0.016-0.104-0.019-0.221 0.097-0.296 0.19 0.113 0.23 0.315 0.283 0.502 0.814 2.857 1.375 5.729 0.861 8.729" fill="#66dce0"/>
  </g>
  <g transform="matrix(1.8214 0 0 -1.8214 98.151 204.1)">
   <path d="m0 0c2.713 1.071 5.256 2.391 7.314 4.543 2.25 2.354 3.679 5.088 4.173 8.306 0.164 1.067 0.067 1.172-0.983 1.12-0.028-1e-3 -0.057-4e-3 -0.085 0-0.433 0.052-0.592-0.169-0.666-0.574-0.117-0.641-0.28-1.274-0.537-1.879-1.105-2.611-2.553-4.999-4.476-7.099-1.329-1.452-2.693-2.849-4.401-3.865-0.24-0.143-0.456-0.327-0.729-0.525 0.186-0.136 0.287-0.068 0.39-0.027" fill="#76def0"/>
  </g>
  <g transform="matrix(1.8214 0 0 -1.8214 140.91 165.68)">
   <path d="m0 0c1.201 0.465 2.123 1.309 2.978 2.221 0.585 0.625 1.195 1.211 1.857 1.752 0.632 0.517 1.334 0.936 2.092 1.438-0.735 0.014-1.295-0.155-2.046-0.467-2.263-0.94-4.288-2.317-6.467-3.466 0.139-0.457 0.545-0.739 0.702-1.165 0.168-0.46 0.475-0.471 0.884-0.313" fill="#9ec2ea"/>
  </g>
  <g transform="matrix(1.8214 0 0 -1.8214 161.91 120.78)">
   <path d="m0 0c-3.091 1.318-6.349 1.877-9.685 2.021-0.876 0.038-1.757 3e-3 -2.628-0.179-0.625-0.131-1.059-0.383-1.052-1.102 2e-3 -0.195-0.079-0.39-0.089-0.587-0.029-0.593 6e-3 -0.629 0.594-0.58 1.156 0.097 2.298 0.165 3.472 0.084 2.131-0.149 4.228-0.443 6.297-0.948 2.458-0.6 4.859-1.376 7.082-2.606 1.538-0.851 3.148-1.583 4.555-2.661 0.085-0.066 0.196-0.096 0.352-0.17 0.028 0.268-0.089 0.357-0.179 0.462-0.971 1.123-2.152 2.012-3.292 2.946-1.654 1.355-3.458 2.48-5.427 3.32" fill="#b6ccec"/>
  </g>
  <g transform="matrix(1.8214 0 0 -1.8214 79.174 128.58)">
   <path d="m0 0c-1.105 0.076-2.137-0.225-3.154-0.6-1.573-0.58-3.151-1.134-4.855-1.173-0.143-3e-3 -0.279-0.047-0.434-0.272 3.155-0.62 6.248-0.155 9.34 0.028 0.109 0.451-0.091 0.857-0.107 1.282-0.024 0.631-0.138 0.69-0.79 0.735" fill="#96b8f6"/>
  </g>
  <g transform="matrix(1.8214 0 0 -1.8214 158.07 158.87)">
   <path d="m0 0c0.162-0.207 0.343-0.143 0.506 0.021 0.14 0.141 0.293 0.27 0.421 0.421 0.956 1.122 1.932 2.228 2.853 3.378 1.702 2.128 3.448 4.21 5.506 6.012 0.237 0.208 0.594 0.329 0.661 0.705-0.04 0.021-0.069 0.05-0.089 0.045-0.109-0.028-0.221-0.053-0.324-0.098-3.519-1.529-6.484-3.809-9.028-6.661-0.164-0.183-0.228-0.341-0.153-0.604 0.204-0.719 0.174-0.723-0.563-0.998-0.468-0.174-0.942-0.347-1.42-0.679 0.597-0.521 1.178-0.965 1.63-1.542" fill="#6ee4fe"/>
  </g>
  <g transform="matrix(1.8214 0 0 -1.8214 134.49 151.46)">
   <path d="m0 0c0.216-0.457 0.666-0.682 0.997-1.018 0.538-0.545 0.545-0.703 0.016-1.255-0.257-0.267-0.598-0.47-0.778-1 3.402 1.359 6.757 2.275 10.327 2.051-2.312 1.196-8.956 1.958-10.562 1.222" fill="#78c4d0"/>
  </g>
  <g transform="matrix(1.8214 0 0 -1.8214 155.3 152.82)">
   <path d="m0 0c-1.004 0.786-2.031 1.208-3.019 1.686-2.219 1.072-4.62 1.544-7.005 2.067-1.514 0.332-3.036 0.4-4.577 0.287-0.458-0.033-0.624-0.255-0.731-0.667-0.125-0.482 0.236-0.524 0.5-0.633 0.787-0.326 1.602-0.612 2.26-1.166 0.323-0.273 0.646-0.339 1.019-0.276 1.412 0.237 2.82 0.137 4.241 0.06 2.145-0.116 4.208-0.581 6.257-1.174 0.291-0.085 0.573-0.243 1.055-0.184" fill="#94fed0"/>
  </g>
  <g transform="matrix(1.8214 0 0 -1.8214 102.22 182.63)">
   <path d="m0 0c-0.509-0.067-0.817-0.479-1.221-0.718-0.699-0.413-0.825-0.386-1.249 0.31-0.189 0.31-0.29 0.709-0.789 0.901 0.594-3.562 0.715-7.025-0.251-10.46 1.738 2.175 3.85 8.257 3.51 9.967" fill="#68c6fa"/>
  </g>
  <g transform="matrix(1.8214 0 0 -1.8214 100.76 128.93)">
   <path d="m0 0c-0.388-2.623 0.687-7.882 1.855-9.038 0.281 0.857 0.59 1.679 1.067 2.421 0.173 0.269 0.071 0.457-0.08 0.69-1.16 1.795-2.11 3.69-2.676 5.762-0.012 0.043-0.071 0.073-0.166 0.165" fill="#a4e0f0"/>
  </g>
  <g transform="matrix(1.8214 0 0 -1.8214 69.209 159.22)">
   <path d="m0 0c-0.701-0.748-1.092-1.66-1.403-2.604-0.595-1.808-1.265-3.575-2.348-5.169 0.61 0.359 1.118 0.79 1.578 1.304 1.651 1.841 2.883 3.983 4.358 5.952-0.282 0.325-0.665 0.466-0.996 0.679-0.669 0.432-0.662 0.401-1.189-0.162" fill="#6ceae0"/>
  </g>
  <g transform="matrix(1.8214 0 0 -1.8214 62.178 176.84)">
   <path d="m0 0c1.569-0.296 3.163-0.244 4.738-0.13 2.04 0.147 4.027 0.674 6.008 1.168 1.465 0.366 2.872 0.905 4.135 1.761 0.353 0.24 0.467 0.646 0.291 1.024-0.163 0.349-0.486 0.269-0.745 0.205-0.509-0.125-1.057-0.179-1.522-0.05-1.189 0.33-2.065-0.174-3.046-0.738-2.305-1.323-4.83-2.115-7.424-2.669-0.799-0.17-1.613-0.268-2.42-0.399-5e-3 -0.058-0.01-0.115-0.015-0.172" fill="#a6e2e2"/>
  </g>
  <g transform="matrix(1.8214 0 0 -1.8214 64.291 138.82)">
   <path d="m0 0c1.992-2.486 4.517-4.365 7.123-6.138 0.725-0.493 1.55-0.816 2.369-1.141 0.462-0.183 0.714-0.078 1.005 0.285 0.317 0.394-0.031 0.569-0.197 0.785-0.276 0.359-0.587 0.691-0.899 1.02-0.416 0.438-0.493 1.148-0.973 1.469-0.502 0.335-1.168 0.414-1.736 0.665-2.557 1.133-4.883 2.63-6.986 4.479-0.42 0.37-0.778 0.828-1.36 1.019 0.395-0.932 1.042-1.679 1.654-2.443" fill="#66a4f6"/>
  </g>
  <g transform="matrix(1.8214 0 0 -1.8214 70.093 140.05)">
   <path d="m0 0c1.247-0.778 2.51-1.547 3.89-2.085 0.325-0.127 0.647-0.313 1.058-0.201-0.088 0.556-0.362 0.997-0.521 1.478-0.19 0.576-0.119 0.74 0.434 0.962 0.433 0.174 0.919 0.232 1.391 0.621-3.688 0.22-7.159 0.872-10.367 2.616 1.219-1.327 2.604-2.448 4.115-3.391" fill="#8eb6f0"/>
  </g>
  <g transform="matrix(1.8214 0 0 -1.8214 66.372 190.18)">
   <path d="m0 0c0.859 0.79 1.63 1.665 2.335 2.595 0.446 0.589 0.433 0.589-0.225 0.843-0.582 0.226-1.153 0.478-1.734 0.705-1.116 0.435-0.929 0.641-1.539-0.59-1.488-3.006-3.583-5.51-6.215-7.575-0.57-0.447-1.135-0.901-1.788-1.419 0.483-0.031 0.787 0.148 1.078 0.289 2.896 1.4 5.699 2.955 8.088 5.152" fill="#62b2e6"/>
  </g>
  <g transform="matrix(1.8214 0 0 -1.8214 61.81 200.94)">
   <path d="m0 0c2.122 0.386 4.184 1.019 6.221 1.717 2.094 0.717 4.158 1.517 6.065 2.664 0.583 0.351 1.154 0.721 1.667 1.177 0.229 0.203 0.277 0.385 0.126 0.66-0.439 0.801-0.728 1.653-0.764 2.606-0.894-0.027-1.636-0.169-2.178-0.943-0.387-0.553-0.943-0.973-1.498-1.378-2.167-1.584-4.56-2.76-6.99-3.862-2.763-1.253-5.533-2.496-8.553-3.029-0.244-0.043-0.506-0.064-0.716-0.398 0.334 0.103 0.605 0.152 0.885 0.145 1.94-0.049 3.84 0.296 5.735 0.641" fill="#a0d6c2"/>
  </g>
  <g transform="matrix(1.8214 0 0 -1.8214 92.786 197.59)">
   <path d="m0 0c0.183-0.461 0.33-0.936 0.494-1.404 0.233 0.657 0.148 1.287 0.037 1.918-0.359 2.046-0.949 4.029-1.62 5.989-0.136 0.394-0.011 0.972-0.418 1.154-0.376 0.168-0.776-0.257-1.187-0.329-0.488-0.086-0.571-0.388-0.524-0.803 0.045-0.397 0.138-0.781 0.285-1.151 0.294-0.743 0.678-1.437 1.123-2.098 0.7-1.039 1.346-2.108 1.81-3.276" fill="#94e2f0"/>
  </g>
  <g transform="matrix(1.8214 0 0 -1.8214 94.904 180.92)">
   <path d="m0 0c-0.49-0.279-0.976-0.568-1.473-0.836-0.658-0.355-0.663-0.348-0.511-1.113 0.033-0.166 0.076-0.332 0.126-0.494 0.313-1.002 0.671-1.992 0.933-3.006 0.415-1.607 0.831-3.218 0.909-4.965 1.146 1.876 0.961 9.193 0.016 10.414" fill="#9eb4fa"/>
  </g>
  <g transform="matrix(1.8214 0 0 -1.8214 58.171 184.42)">
   <path d="m0 0c-0.437-0.956-0.871-1.914-1.339-2.856-0.456-0.917-1.001-1.785-1.61-2.609-0.604-0.816-1.231-1.615-1.967-2.575 0.29 0.106 0.377 0.12 0.441 0.165 2.591 1.812 4.773 4.025 6.476 6.691 0.472 0.739 0.843 1.544 1.241 2.328 0.109 0.215 0.241 0.464-0.106 0.648-0.676 0.358-1.338 0.743-2.105 1.173-0.373-1.039-0.607-2.037-1.031-2.965" fill="#64ece6"/>
  </g>
  <g transform="matrix(1.8214 0 0 -1.8214 79.895 185.3)">
   <path d="m0 0c-1.166-0.01-2.343-0.031-3.469 0.28-0.597 0.164-0.852-0.023-1.18-0.466-1.346-1.814-2.919-3.432-4.797-4.676-1.628-1.079-3.262-2.176-5.065-2.971-0.247-0.108-0.531-0.196-0.742-0.513 1.157 0.153 2.212 0.46 3.237 0.853 2.066 0.793 4.097 1.674 6.082 2.651 1.909 0.939 3.825 1.877 5.517 3.196 0.548 0.427 1.091 0.863 1.472 1.535-0.383 0.163-0.725 0.114-1.055 0.111" fill="#9ed4dc"/>
  </g>
  <g transform="matrix(1.8214 0 0 -1.8214 121.09 177.59)">
   <path d="m0 0c-1.936 1.084-4.231 1.29-6.105 2.755-0.239-0.456-0.423-0.804-0.605-1.153-0.31-0.591-0.301-0.582 0.249-0.904 0.832-0.489 1.77-0.595 2.689-0.748 1.25-0.208 2.503-0.032 3.772 0.05" fill="#b8d8d6"/>
  </g>
  <g transform="matrix(1.8214 0 0 -1.8214 176.23 134.71)">
   <path d="m0 0c-1.863 0.846-3.797 1.491-5.776 1.997-2.584 0.661-5.218 1.058-7.87 1.295-1.661 0.149-3.336 0.2-5.003 0.06-0.618-0.052-1.226-0.213-1.84-0.317-0.328-0.056-0.504-0.218-0.49-0.572 0.033-0.83-0.06-1.643-0.365-2.423-0.076-0.193-0.024-0.351 0.171-0.404 0.618-0.168 1.22-0.447 1.879-0.048 0.406 0.245 0.877 0.381 1.347 0.508 1.991 0.538 4.038 0.539 6.071 0.627 1.728 0.075 3.458-0.036 5.187-0.097 1.875-0.067 3.73-0.208 5.556-0.666 0.426-0.107 0.856-0.31 1.456-0.181-0.189 0.131-0.25 0.188-0.323 0.221" fill="#6cb6fe"/>
  </g>
  <g transform="matrix(1.8214 0 0 -1.8214 129.05 135.45)">
   <path d="m0 0c-1.198-0.065-1.32-0.285-0.967-1.353 0.114-0.347 0.304-0.431 0.623-0.412 0.885 0.054 1.758-0.08 2.619-0.242 3.219-0.603 6.18-1.864 8.943-3.604 0.768-0.483 1.516-0.988 2.187-1.616 0.483-0.451 0.897-1.01 1.537-1.284 0.114 0.171 3e-3 0.297-0.07 0.401-2.106 2.993-4.581 5.535-8.053 6.985-2.205 0.921-4.466 1.253-6.819 1.125" fill="#8cd6ea"/>
  </g>
  <g transform="matrix(1.8214 0 0 -1.8214 117.18 146.72)">
   <path d="m0 0c-1.798-0.183-3.418-0.756-4.622-2.155 0.1 0.045 0.203 0.084 0.299 0.135 1.256 0.67 2.634 0.931 4.019 0.946 1.035 0.011 2.089-0.102 3.124-0.296 2.184-0.409 4.313-0.976 6.279-2.048 0.139-0.076 0.274-0.229 0.516-0.022-0.696 0.63-1.339 1.329-2.169 1.752-2.332 1.188-4.773 1.961-7.446 1.688" fill="#66fec4"/>
  </g>
  <g transform="matrix(1.8214 0 0 -1.8214 150.33 142.07)">
   <path d="m0 0c0.525-0.586 1.034-1.187 1.578-1.756 1.046-1.093 0.601-1.046 1.74-0.161 2.3 1.788 4.863 3.023 7.655 3.796 1.111 0.308 2.245 0.529 3.38 0.791-2.728 0.763-11.584-0.352-14.353-2.67" fill="#a8cae2"/>
  </g>
  <g transform="matrix(1.8214 0 0 -1.8214 101.4 127.29)">
   <path d="m0 0c0.532-2.449 1.543-4.661 3.003-6.806 0.291 0.349 0.486 0.588 0.686 0.822 0.901 1.051 1.129 0.796 0.089 2.249-1.012 1.416-2.436 2.443-3.593 3.724-0.022 0.025-0.091 7e-3 -0.185 0.011" fill="#b8fed6"/>
  </g>
  <g transform="matrix(1.8214 0 0 -1.8214 172.81 136.08)">
   <path d="m0 0c0.313-0.012 0.628-2e-3 1.003-2e-3 -0.151 0.25-0.285 0.289-0.423 0.325-1.626 0.425-3.294 0.58-4.961 0.65-1.985 0.084-3.975 0.072-5.962 0.064-1.759-6e-3 -3.515-0.107-5.236-0.513-0.594-0.141-1.207-0.254-1.833-0.749 1.508-0.674 2.859-1.34 4.034-2.281 0.443-0.354 0.758-0.319 1.206-0.078 1.886 1.011 3.888 1.747 5.998 2.067 2.041 0.31 4.095 0.597 6.174 0.517" fill="#94b8c8"/>
  </g>
  <g transform="matrix(1.8214 0 0 -1.8214 135.09 140.33)">
   <path d="m0 0c-1.081 0.24-2.154 0.489-3.27 0.472-0.755-0.011-0.77-0.01-0.751-0.732 0.013-0.537 0.072-1.072 0.11-1.608 0.04-0.571 0.073-0.593 0.688-0.519 0.252 0.03 0.507 0.047 0.76 0.056 1.688 0.06 3.32-0.284 4.953-0.652 1.964-0.442 3.918-0.912 5.744-1.787 0.915-0.438 1.81-0.916 2.715-1.376 0.033 0.044 0.066 0.089 0.099 0.134-0.752 0.68-1.44 1.433-2.29 2.003-2.702 1.81-5.55 3.297-8.758 4.009" fill="#88e6ee"/>
  </g>
  <g transform="matrix(1.8214 0 0 -1.8214 139.6 161.26)">
   <path d="m0 0c0.049 0.028 0.095 0.062 0.145 0.09 2.25 1.316 4.473 2.689 7.018 3.398 0.036 0.01 0.052 0.09 0.078 0.137-1.938 0.558-8.918-1.078-10.046-2.348 0.291-0.31 0.595-0.609 0.869-0.932 0.821-0.967 0.817-0.971 1.936-0.345" fill="#b6e2d4"/>
  </g>
  <g transform="matrix(1.8214 0 0 -1.8214 89.192 172.74)">
   <path d="m0 0c-0.951-0.582-1.96-1.05-3.027-1.342-3.229-0.884-6.473-1.705-9.873-1.453-0.552 0.04-1.109 5e-3 -1.766 5e-3 4.627-2.168 13.553-1.499 16.501 0.634-0.334 0.653-0.663 1.313-1.007 1.965-0.272 0.516-0.286 0.523-0.828 0.191" fill="#6ecac8"/>
  </g>
  <g transform="matrix(1.8214 0 0 -1.8214 95.986 176.54)">
   <path d="m0 0c-0.334 0.87-0.695 1.732-0.869 2.654-0.074 0.387-0.132 0.778-0.187 1.169-0.043 0.299-0.135 0.413-0.497 0.358-1.463-0.222-1.624-0.441-1.1-1.8 0.704-1.828 1.962-3.273 3.299-4.663-0.099 0.81-0.365 1.548-0.646 2.282" fill="#98e4d0"/>
  </g>
  <g transform="matrix(1.8214 0 0 -1.8214 111.03 177.83)">
   <path d="m0 0c-0.366 0.087-0.529-0.049-0.55-0.42-0.02-0.339-0.076-0.673-0.143-1.008-0.477-2.372-1.636-4.464-2.695-6.594-0.594-1.196-1.308-2.325-2.151-3.365-0.588-0.726-1.193-1.437-1.81-2.178 0.196-0.096 0.277-3e-3 0.369 0.054 1.418 0.86 2.624 1.957 3.766 3.158 1.979 2.081 3.548 4.419 4.731 7.024 0.364 0.803 0.618 1.643 0.781 2.513 0.055 0.289 0.013 0.442-0.29 0.463-0.682 0.048-1.346 0.196-2.008 0.353" fill="#b2c2e6"/>
  </g>
  <g transform="matrix(1.8214 0 0 -1.8214 163.91 120.88)">
   <path d="m0 0c0.102-0.051 0.203-0.103 0.304-0.154 1.029-0.516 1.01-0.507 1.512 0.546 1.908 4.008 4.447 7.584 7.476 10.818 0.418 0.446 0.859 0.87 1.289 1.305-0.459 6e-3 -0.796-0.177-1.114-0.399-1.986-1.38-3.808-2.945-5.498-4.683-1.695-1.742-3.205-3.606-4.425-5.709-0.673-1.159-0.692-1.148 0.456-1.724" fill="#b2d4e2"/>
  </g>
  <g transform="matrix(1.8214 0 0 -1.8214 172.37 170.12)">
   <path d="m0 0c-1.259 0.117-2.53 0.186-3.816-0.18 0.297-0.812 0.577-1.58 0.861-2.348 0.221-0.595 0.26-0.621 0.862-0.5 1.644 0.331 3.308 0.438 4.979 0.492 0.8 0.025 1.583-0.118 2.372-0.185 1.693-0.144 3.386-0.303 5.046-0.698 0.873-0.208 1.745-0.423 2.617-0.634-1.805 1.02-3.708 1.731-5.654 2.353-2.38 0.761-4.769 1.468-7.267 1.7" fill="#82fed0"/>
  </g>
  <g transform="matrix(1.8214 0 0 -1.8214 171.7 152.56)">
   <path d="m0 0c0.927 1.696 1.601 3.507 2.401 5.26 0.229 0.501 0.631 0.924 0.748 1.485-0.248 0.084-0.349-0.093-0.466-0.191-1.307-1.096-2.517-2.296-3.64-3.576-0.992-1.13-1.906-2.327-2.874-3.477-0.912-1.085-1.849-2.149-2.777-3.221-0.146-0.168-0.36-0.307-0.172-0.575 0.408-0.58 0.813-1.162 1.22-1.743 0.144-0.206 0.324-0.207 0.514-0.077 0.141 0.095 0.274 0.202 0.408 0.308 1.993 1.579 3.43 3.598 4.638 5.807" fill="#aeaec6"/>
  </g>
  <g transform="matrix(1.8214 0 0 -1.8214 98.436 180.09)">
   <path d="m0 0c0.539 2.365 0.613 4.75 0.204 7.287-0.694-0.303-1.284-0.568-1.88-0.819-0.294-0.123-0.363-0.353-0.31-0.624 0.163-0.834 0.241-1.688 0.551-2.49 0.387-1.006 0.793-2.005 1.096-3.042 0.044-0.148 0.049-0.361 0.339-0.312" fill="#a4e4fe"/>
  </g>
  <g transform="matrix(1.8214 0 0 -1.8214 166.11 127.23)">
   <path d="m0 0c-3.952 1.761-8.139 2.642-12.464 2.835-0.938 0.041-1.875 1e-3 -2.802-0.178-0.23-0.044-0.464-0.093-0.483-0.386-0.066-1.019 0.106-2.003 0.351-3.012 2.141 0.578 4.22 0.538 6.288 0.419 2.236-0.128 4.459-0.425 6.659-0.854 2.567-0.501 5.074-1.209 7.481-2.25 0.588-0.255 1.187-0.485 1.781-0.727 0.035 0.052 0.071 0.104 0.107 0.155-0.117 0.077-0.238 0.148-0.351 0.232-2.042 1.511-4.263 2.739-6.567 3.766" fill="#a2f8e8"/>
  </g>
  <g transform="matrix(1.8214 0 0 -1.8214 109.24 225.77)">
   <path d="m0 0c-0.119-0.23-0.325-0.47-0.147-0.879 0.499 0.692 0.987 1.311 1.413 1.97 2.597 4.016 4.359 8.398 5.608 12.996 0.395 1.453 0.653 2.931 0.653 4.447 0 0.387-0.082 0.642-0.527 0.715-0.79 0.13-1.534 0.402-2.204 0.855-0.155 0.105-0.329 0.172-0.429-0.035-0.288-0.597-0.719-1.132-0.473-1.904 0.204-0.641 0.277-1.331 0.228-2.019-0.118-1.64-0.31-3.271-0.667-4.878-0.854-3.847-1.623-7.72-3.455-11.268" fill="#64d2fa"/>
  </g>
  <g transform="matrix(1.8214 0 0 -1.8214 196.25 175.76)">
   <path d="m0 0c-1.283 0.782-2.578 1.538-3.912 2.237-4.075 2.135-8.327 3.698-12.918 4.266-0.697 0.086-1.292 0.036-1.783-0.55 0.376-0.683 0.784-1.363 1.128-2.075 0.182-0.376 0.415-0.451 0.799-0.426 1.068 0.071 2.127 0.201 3.212 0.08 1.127-0.124 2.261-0.209 3.36-0.481 3.303-0.816 6.546-1.822 9.652-3.236 0.339-0.154 0.675-0.385 1.114-0.403-0.139 0.345-0.42 0.447-0.652 0.588" fill="#a2b2c0"/>
  </g>
  <g transform="matrix(1.8214 0 0 -1.8214 56.676 134.19)">
   <path d="m0 0c-3.028-1.211-6.16-1.95-9.443-1.932-0.697 4e-3 -1.394 1e-3 -2.116 1e-3 0.098-0.32 0.317-0.309 0.503-0.36 2.98-0.82 6.001-1.228 9.088-0.836 0.897 0.114 1.78 0.343 2.672 0.509 0.323 0.06 0.412 0.21 0.342 0.537-0.119 0.555-0.192 1.118-0.261 1.683-0.085 0.694-0.303 0.591-0.785 0.398" fill="#6cfce4"/>
  </g>
  <g transform="matrix(1.8214 0 0 -1.8214 136.87 118.33)">
   <path d="m0 0c-0.38-0.177-0.473-0.505-0.59-0.813-0.391-1.04-0.554-2.139-0.833-3.208-0.31-1.184-0.318-2.416-0.548-3.614-0.081-0.421-0.394-0.923-0.088-1.259 0.301-0.331 0.867-0.144 1.313-0.21 0.326-0.048 0.511 0.095 0.639 0.415 0.315 0.789 0.366 1.605 0.301 2.43-0.123 1.553-0.421 3.094-0.322 4.662 0.034 0.533 0.085 1.065 0.128 1.597" fill="#5eb2da"/>
  </g>
  <g transform="matrix(1.8214 0 0 -1.8214 93.297 107)">
   <path d="m0 0c-0.462-1.521-0.856-3.054-1.07-4.636-0.238-1.757-0.119-3.52-0.166-5.28-0.021-0.828 0.063-1.645 0.175-2.46 0.119-0.873 0.331-1.728 0.641-2.557 0.086-0.232 0.187-0.38 0.472-0.397 0.566-0.033 0.689 0.025 0.784 0.617 0.126 0.785 0.173 1.604 0.563 2.303 0.305 0.549 0.195 1-4e-3 1.519-0.742 1.927-0.996 3.956-1.161 5.995-0.137 1.697-0.072 3.397 0.088 5.152-0.224-0.048-0.291-0.154-0.322-0.256" fill="#7ecac2"/>
  </g>
  <g transform="matrix(1.8214 0 0 -1.8214 59.515 131.08)">
   <path d="m0 0c0.523-0.085 1.042-0.089 1.66-0.013-0.462 0.805-0.658 1.599-0.946 2.339-0.312 0.04-0.543-0.084-0.772-0.184-1.246-0.542-2.502-1.065-3.727-1.651-2.839-1.357-5.689-2.679-8.768-3.419-0.16-0.039-0.339-0.068-0.387-0.309 0.143-8e-3 0.279-0.017 0.416-0.022 2.018-0.071 4.024 0.065 5.995 0.499 1.742 0.382 3.472 0.824 5.106 1.566 0.264 0.12 0.475 0.223 0.526 0.579 0.093 0.643 0.248 0.72 0.897 0.615" fill="#5ce8f8"/>
  </g>
  <g transform="matrix(1.8214 0 0 -1.8214 60.261 146.75)">
   <path d="m0 0c-1.683-0.193-3.328 0.116-4.983 0.346-1.709 0.237-3.252 0.993-4.876 1.493-1.114 0.344-2.115 0.95-3.243 1.3 0.518-0.579 1.128-1.032 1.758-1.464 1.648-1.128 3.457-1.966 5.217-2.888 2.414-1.266 4.896-2.398 7.551-3.083 0.63-0.163 1.278-0.322 2.059-0.157-1.112 1.364-2.115 2.667-2.83 4.16-0.131 0.273-0.383 0.324-0.653 0.293" fill="#a8c6e8"/>
  </g>
  <g transform="matrix(1.8214 0 0 -1.8214 77.293 161.05)">
   <path d="m0 0c1.085-0.394 1.087-0.364 1.277 0.75 0.063 0.374 0.036 0.612-0.386 0.787-1.954 0.815-3.476 2.242-4.986 3.663-1.52 1.43-2.678 3.159-3.819 4.893-0.658 1.002-1.163 2.079-1.557 3.211-0.117 0.337-0.283 0.657-0.426 0.983-0.189-0.093-0.143-0.21-0.149-0.314-0.02-0.375 0.092-0.731 0.163-1.091 0.616-3.132 1.684-6.049 3.786-8.539 1.672-1.981 3.667-3.46 6.097-4.343" fill="#68a4e6"/>
  </g>
  <g transform="matrix(1.8214 0 0 -1.8214 175.13 138.29)">
   <path d="m0 0c-2.354-0.443-4.624-1.15-6.764-2.232-1.347-0.68-2.589-1.529-3.761-2.483-0.327-0.266-0.403-0.48-0.107-0.835 0.344-0.412 0.623-0.879 0.932-1.321 0.339-0.485 0.363-0.504 0.718-0.091 0.613 0.713 1.282 1.364 1.989 1.982 1.91 1.67 3.942 3.154 6.257 4.226 0.473 0.219 0.996 0.357 1.41 0.702-0.088 0.125-0.17 0.104-0.25 0.096-0.142-0.015-0.285-0.018-0.424-0.044" fill="#b8c4fa"/>
  </g>
  <g transform="matrix(1.8214 0 0 -1.8214 123.69 146.36)">
   <path d="m0 0c1.797-0.388 1.441-0.71 1.894 1.102 0.047 0.189 0.036 0.395 0.03 0.593-0.057 1.734-0.456 3.404-0.931 5.108-0.079-0.102-0.135-0.159-0.172-0.227-0.099-0.178-0.1-0.379-0.132-0.575-0.3-1.863-0.189-3.796-0.944-5.581-0.111-0.265 0.037-0.373 0.255-0.42" fill="#b6def4"/>
  </g>
  <g transform="matrix(1.8214 0 0 -1.8214 132.25 153.01)">
   <path d="m0 0c-0.252 0.128-0.516 0.234-0.78 0.339-2.392 0.948-4.875 1.508-7.445 1.608-1.403 0.055-2.776-0.186-4.037-0.846-0.539-0.281-1.088-0.583-1.404-1.225 1.048 0.349 2.02-2e-3 3.007-0.193 0.228-0.045 0.446 0.022 0.669 0.079 0.906 0.233 1.82 0.449 2.759 0.47 2.186 0.049 4.364 0 6.511-0.509 0.428-0.102 0.873-0.303 1.451-0.168-0.304 0.187-0.509 0.332-0.731 0.445" fill="#b0c0f0"/>
  </g>
  <g transform="matrix(1.8214 0 0 -1.8214 110.6 147)">
   <path d="m0 0c1.032 2.365 2.712 4.241 4.55 5.998 0.702 0.671 1.521 1.215 2.296 2.063-0.608-0.153-1.008-0.349-1.4-0.567-2.232-1.237-4.202-2.809-5.911-4.699-0.925-1.023-1.655-2.184-1.987-3.533-0.176-0.714-0.455-1.471 0.015-2.371 0.367 0.891 0.903 1.504 1.58 1.981 0.412 0.291 0.659 0.674 0.857 1.128" fill="#acd2f2"/>
  </g>
  <g transform="matrix(1.8214 0 0 -1.8214 117.33 144.86)">
   <path d="m0 0c0.615 1.896 1.467 3.679 2.63 5.305 0.1 0.139 0.306 0.275 0.089 0.547-2.437-1.983-4.581-4.185-5.885-7.101 0.816 0.206 1.567 0.469 2.356 0.546 0.478 0.046 0.672 0.276 0.81 0.703" fill="#bafcea"/>
  </g>
  <g transform="matrix(1.8214 0 0 -1.8214 107.53 140.17)">
   <path d="m0 0c-0.538-0.777-0.993-1.595-1.275-2.494-0.293-0.934-0.425-1.89-0.174-2.869 0.245 1.465 0.836 2.781 1.739 3.924 2.058 2.608 4.616 4.604 7.621 6.025 0.27 0.128 0.623 0.129 0.829 0.576-0.986-0.213-1.95-0.275-2.789-0.629-2.357-0.996-4.457-2.376-5.951-4.533" fill="#86e2e8"/>
  </g>
  <g transform="matrix(1.8214 0 0 -1.8214 119.53 145.83)">
   <path d="m0 0c1.556-0.293 1.544-0.206 1.977 1.391 0.453 1.668 0.329 3.414 0.603 5.119-1.658-1.896-2.766-4.053-3.482-6.433 0.34-0.142 0.628-0.025 0.902-0.077" fill="#aebae8"/>
  </g>
  <g transform="matrix(1.8214 0 0 -1.8214 86.875 155.29)">
   <path d="m0 0c-0.823-0.76-1.429-1.68-1.988-2.642-0.463-0.798-0.971-1.571-1.569-2.533 2.465 1.146 4.413 2.631 6.147 4.509-0.547 0.299-1.014 0.565-1.49 0.812-0.609 0.316-0.61 0.306-1.1-0.146" fill="#aefee0"/>
  </g>
  <g transform="matrix(1.8214 0 0 -1.8214 111.41 130.44)">
   <path d="m0 0c0.467-0.343 0.496-0.351 0.801 0.087 0.534 0.771 1.096 1.516 1.765 2.179 1.294 1.285 2.753 2.368 4.197 3.469 1.246 0.949 2.583 1.743 4.026 2.361 0.661 0.283 1.308 0.597 1.962 0.896-1.044-0.027-2.055-0.107-3.032-0.405-3.063-0.932-5.939-2.237-8.488-4.209-0.991-0.767-1.951-1.562-2.708-2.572-0.334-0.447-0.321-0.483 0.109-0.797 0.457-0.335 0.911-0.674 1.368-1.009" fill="#72faec"/>
  </g>
  <g transform="matrix(1.8214 0 0 -1.8214 110.33 135.81)">
   <path d="m0 0c0.222 0.162 0.357 0.26 0.491 0.36 1.179 0.871 1.186 1.026 0.095 2.043-0.021 0.02-0.04 0.04-0.062 0.059-1.421 1.259-3.138 1.992-4.91 2.677 1.375-1.79 3.318-3.067 4.386-5.139" fill="#5cd2c8"/>
  </g>
  <g transform="matrix(1.8214 0 0 -1.8214 82.245 165.12)">
   <path d="M 0,0 C 3.12,0.727 6.066,1.774 8.544,3.874 7.715,4.05 6.923,4.156 6.174,4.415 5.714,4.574 5.453,4.437 5.144,4.114 3.724,2.628 2.13,1.361 0.304,0.399 0.174,0.33 -0.029,0.306 0,0" fill="#78b6f2"/>
  </g>
  <g transform="matrix(1.8214 0 0 -1.8214 90.518 165.62)">
   <path d="m0 0c2.134 0.488 4.227 1.114 5.99 2.507 0.973 0.768 1.73 1.685 1.997 2.97-0.432-0.255-0.815-0.533-1.272-0.695-0.456-0.162-0.92-0.289-1.396-0.362-0.303-0.047-0.505-0.228-0.717-0.423-0.545-0.5-1.137-0.938-1.77-1.321-2.279-1.377-4.75-2.259-7.337-2.843-0.208-0.047-0.466-0.019-0.559-0.334 1.732-0.146 3.411 0.123 5.064 0.501" fill="#66b0dc"/>
  </g>
  <g transform="matrix(1.8214 0 0 -1.8214 124.77 176.29)">
   <path d="m0 0c-0.042 1.278 0.314 2.506-0.136 3.728-0.107 0.292-0.179 0.597-0.257 0.898-0.525 2.054-1.552 3.828-3.016 5.347-1.258 1.305-2.766 2.137-4.631 2.284 1.179-0.552 2.283-1.234 3.156-2.236 2.385-2.737 3.865-5.915 4.593-9.457 0.037-0.18-0.02-0.402 0.291-0.564" fill="#9efcfc"/>
  </g>
  <g transform="matrix(1.8214 0 0 -1.8214 79.672 164.05)">
   <path d="M 0,0 C 1.52,1.823 2.251,4.057 4.064,5.54 3.604,5.937 3.237,6.247 2.88,6.567 2.691,6.737 2.526,6.716 2.365,6.543 2.23,6.398 2.09,6.255 1.973,6.096 1.042,4.833 0.545,3.385 0.3,1.861 0.208,1.289 -0.116,0.751 0,0" fill="#90f2ec"/>
  </g>
  <g transform="matrix(1.8214 0 0 -1.8214 81.679 153.91)">
   <path d="m0 0c0.204 0.398 0.056 0.539-0.311 0.667-0.778 0.272-1.547 0.594-2.227 1.053-2.926 1.973-5.723 4.098-7.852 6.973-0.348 0.47-0.723 0.921-1.086 1.38 0.039-0.923 0.399-1.726 0.82-2.479 1.806-3.23 4.101-6.053 7.085-8.284 0.663-0.496 1.377-0.901 2.117-1.261 0.47-0.229 0.49-0.203 0.722 0.321 0.242 0.544 0.461 1.1 0.732 1.63" fill="#86c2ca"/>
  </g>
  <g transform="matrix(1.8214 0 0 -1.8214 81.494 168.88)">
   <path d="m0 0c-0.525 0.166-1.035 0.313-1.533 0.49-0.534 0.189-0.659 0.445-0.465 0.971 0.154 0.42 0.355 0.824 0.403 1.44-1.273-1.426-2.57-2.632-3.943-3.75-1.41-1.146-3.028-1.957-4.78-2.784 3.25 0.158 9.093 2.223 10.318 3.633" fill="#92bed8"/>
  </g>
  <g transform="matrix(1.8214 0 0 -1.8214 99.425 127.39)">
   <path d="m0 0c-0.069-0.215-0.158-0.426-0.207-0.646-0.589-2.635-0.607-5.286-0.215-7.948 0.142-0.963 0.42-1.884 0.82-2.768 0.453-1.002 1.094-1.859 1.996-2.504 0.149-0.106 0.294-0.269 0.569-0.116-0.522 0.814-0.556 1.717-0.52 2.63 0.013 0.323-0.076 0.601-0.227 0.888-1.38 2.619-1.894 5.448-1.992 8.372-0.024 0.726-3e-3 1.454-3e-3 2.166-0.159 0.022-0.2-8e-3 -0.221-0.074" fill="#8aa2ee"/>
  </g>
  <g transform="matrix(1.8214 0 0 -1.8214 78.388 162.22)">
   <path d="m0 0c-0.719 0.176-1.321 0.424-1.9 0.713-0.388 0.195-0.606 0.102-0.861-0.21-0.595-0.726-1.089-1.518-1.603-2.298-1.032-1.564-2.209-3.013-3.557-4.319-0.1-0.098-0.309-0.15-0.217-0.373 2.421 0.695 6.582 4.146 8.138 6.487" fill="#6eb2f4"/>
  </g>
  <g transform="matrix(1.8214 0 0 -1.8214 129.87 158.01)">
   <path d="m0 0c0.585 0.41 1.301 0.635 1.884 1.267-2.608 0.042-4.975-0.496-7.383-1.4 0.397-0.545 0.708-0.98 1.029-1.408 0.397-0.53 0.403-0.517 1.058-0.325 1.274 0.373 2.348 1.12 3.412 1.866" fill="#5efede"/>
  </g>
  <g transform="matrix(1.8214 0 0 -1.8214 104.94 158.71)">
   <path d="m0 0c-1.288-1.617-2.939-2.665-4.854-3.339-2.609-0.919-5.268-1.521-8.059-1.356-0.183 0.011-0.384 0.066-0.558-0.063 0.033-0.051 0.053-0.113 0.095-0.14 0.094-0.059 0.194-0.117 0.3-0.147 1.175-0.333 2.353-0.639 3.594-0.512 0.676 0.069 1.36 0.083 2.029 0.19 2.297 0.367 4.346 1.288 6.026 2.917 0.687 0.667 1.218 1.471 1.427 2.45" fill="#aeb4e2"/>
  </g>
  <g transform="matrix(1.8214 0 0 -1.8214 120.37 157.26)">
   <path d="m0 0c1.922 0.7 3.887 1.218 5.956 1.211 0.159 0 0.35-0.044 0.493 0.276-3.18 0.656-6.3 1.09-9.642 0.221 0.845-0.513 1.537-0.913 2.084-1.484 0.348-0.363 0.648-0.392 1.109-0.224" fill="#86a8da"/>
  </g>
  <g transform="matrix(1.8214 0 0 -1.8214 129.54 134.61)">
   <path d="m0 0c1.406 0.028 1.406 0.042 1.648 1.475 5e-3 0.028 8e-3 0.056 0.012 0.084 0.247 1.595 0.419 3.2 0.835 4.77 0.256 0.972 0.521 1.938 0.841 2.9-2.441-2.651-3.772-5.843-4.659-9.303 0.557-0.157 0.927 0.066 1.323 0.074" fill="#7cd8f4"/>
  </g>
  <g transform="matrix(1.8214 0 0 -1.8214 121.44 129.87)">
   <path d="m0 0 0.122-0.203c0.25 0.025 0.507 0.023 0.747 0.084 0.254 0.065 0.506 0.07 0.76 0.079 0.677 0.024 0.675-5e-3 0.835-0.649 0.101-0.404 0.038-0.84 0.32-1.398 0.553 1.807 1.178 3.432 1.916 5.014 0.739 1.585 1.831 2.935 2.791 4.385-3.001-1.936-5.555-4.313-7.491-7.312" fill="#acecde"/>
  </g>
  <g transform="matrix(1.8214 0 0 -1.8214 123.42 175.09)">
   <path d="m0 0c-0.69 3.307-2.097 6.283-4.254 8.874-1.013 1.218-2.307 2.094-3.914 2.399-0.183 0.035-0.373 0.079-0.586-0.124 0.85-0.581 1.292-1.4 1.669-2.257 0.11-0.249 0.271-0.418 0.483-0.57 2.266-1.62 3.835-3.824 5.222-6.189 0.439-0.75 0.734-1.583 1.303-2.347 0.06 0.163 0.082 0.191 0.077 0.214" fill="#88baf8"/>
  </g>
  <g transform="matrix(1.8214 0 0 -1.8214 112.65 167.44)">
   <path d="m0 0c1.698-1.046 3.272-2.253 4.569-3.789 0.095-0.112 0.184-0.291 0.48-0.213-1.418 2.88-3.086 5.522-5.812 7.639 0.187-0.991 0.219-1.781 0.162-2.566-0.038-0.528 0.166-0.803 0.601-1.071" fill="#94eec0"/>
  </g>
  <g transform="matrix(1.8214 0 0 -1.8214 62.233 236.59)">
   <path d="m0 0c0.408 0.748 0.821 1.495 1.182 2.266 1.439 3.073 2.532 6.261 3.042 9.626 0.118 0.781 0.231 1.571 0.196 2.371-0.031 0.718-0.027 0.732-0.705 0.752-0.427 0.012-0.854 0.013-1.28-1e-3 -0.628-0.02-0.701-0.078-0.661-0.697 0.1-1.565-0.036-3.124-0.2-4.67-0.367-3.481-1.086-6.891-2.327-10.178-0.055-0.146-0.187-0.299-0.056-0.523 0.361 0.293 0.598 0.668 0.809 1.054" fill="#9afcf6"/>
  </g>
  <g transform="matrix(1.8214 0 0 -1.8214 64.539 216.11)">
   <path d="m0 0c0.06 1.106 0.059 2.209 0.081 3.313 6e-3 0.354-0.13 0.505-0.48 0.541-0.506 0.052-1.01 0.135-1.512 0.22-0.607 0.102-0.679 0.058-0.762-0.548-0.019-0.14-8e-3 -0.284-0.017-0.425-0.08-1.366 0.08-2.724 0.2-4.077 0.217-2.45 0.239-4.898 0.165-7.352-0.029-0.988-0.035-1.976-0.223-2.956 0.058-0.017 0.117-0.034 0.176-0.051 0.071 0.117 0.17 0.226 0.21 0.353 0.64 2.03 1.246 4.068 1.58 6.176 0.253 1.594 0.494 3.186 0.582 4.806" fill="#5ee8ee"/>
  </g>
  <g transform="matrix(1.8214 0 0 -1.8214 100.7 225.64)">
   <path d="m0 0c-0.445 0.303-0.865 0.644-1.283 0.984-0.306 0.249-0.522 0.214-0.77-0.101-1.006-1.275-2.2-2.369-3.374-3.484-2.69-2.556-5.801-4.462-9.179-5.929-2.338-1.015-4.748-1.86-7.372-2.285 0.318-0.32 0.625-0.308 0.941-0.276 0.394 0.04 0.788 0.08 1.184 0.1 1.332 0.07 2.652 0.248 3.96 0.498 1.986 0.38 3.871 1.078 5.715 1.896 2.771 1.23 5.328 2.793 7.585 4.824 0.995 0.895 1.818 1.951 2.696 2.955 0.3 0.342 0.268 0.565-0.103 0.818" fill="#86f8ce"/>
  </g>
  <g transform="matrix(1.8214 0 0 -1.8214 58.967 209.16)">
   <path d="m0 0c0.043 0.32-0.025 0.476-0.345 0.544-0.527 0.113-1.053 0.232-1.568 0.387-0.358 0.108-0.53 4e-3 -0.614-0.347-0.285-1.193-0.467-2.399-0.311-3.624 0.248-1.944 0.728-3.839 1.28-5.718 0.415-1.413 0.892-2.812 1.136-4.269 0.129-0.775 0.205-1.559 0.305-2.338 0.269 0.769 0.422 1.541 0.407 2.334-0.02 1.04-0.031 2.088 0.038 3.116 0.114 1.709-0.121 3.387-0.189 5.079-0.065 1.612-0.358 3.219-0.139 4.836" fill="#62fcec"/>
  </g>
  <g transform="matrix(1.8214 0 0 -1.8214 88.873 205.23)">
   <path d="m0 0c-0.175 0.264-0.357 0.3-0.641 0.168-0.488-0.226-0.999-0.405-1.491-0.624-0.689-0.307-0.688-0.316-0.37-0.986 1.054-2.22 2.633-4.029 4.428-5.672 1.576-1.441 3.378-2.591 5.05-3.908 0.369-0.29 0.635-0.72 1.27-0.953-0.814 1.693-1.692 3.153-2.679 4.543-1.793 2.524-3.856 4.846-5.567 7.432" fill="#68c2f8"/>
  </g>
  <g transform="matrix(1.8214 0 0 -1.8214 75.142 216.63)">
   <path d="m0 0c0.442 1.262 0.81 2.538 0.929 3.874 0.05 0.562-0.014 0.611-0.535 0.535-0.672-0.098-1.341-0.233-2.017-0.285-0.479-0.036-0.615-0.22-0.617-0.691-3e-3 -1.305-0.165-2.601-0.432-3.878-0.708-3.378-1.863-6.599-3.466-9.658-0.128-0.243-0.274-0.481-0.28-0.869 0.139 0.155 0.216 0.231 0.282 0.314 1.097 1.38 2.055 2.851 2.945 4.371 1.19 2.033 2.407 4.047 3.191 6.287" fill="#80caf4"/>
  </g>
  <g transform="matrix(1.8214 0 0 -1.8214 115.64 222.62)">
   <path d="m0 0c1.376 1.531 2.568 3.18 3.618 4.938 1.479 2.476 2.585 5.119 3.414 7.877 0.352 1.17 0.616 2.358 0.692 3.585 0.025 0.408-0.115 0.568-0.493 0.611-0.76 0.088-1.518 0.192-2.278 0.284-0.35 0.043-0.515-0.097-0.525-0.473-0.019-0.651-0.042-1.307-0.132-1.951-0.343-2.46-1.097-4.812-1.96-7.129-1.314-3.526-2.904-6.912-5.176-9.942-0.335-0.447-0.635-0.92-0.952-1.381 1.47 1.021 2.634 2.291 3.792 3.581" fill="#96b6c6"/>
  </g>
  <g transform="matrix(1.8214 0 0 -1.8214 81.729 207.07)">
   <path d="m0 0c-0.536-0.193-1.073-0.382-1.632-0.477-0.455-0.077-0.574-0.315-0.611-0.751-0.111-1.335-0.416-2.634-0.876-3.893-1.219-3.336-3.049-6.342-5.016-9.272-0.614-0.913-1.273-1.795-2.003-2.819 0.345 0.082 0.454 0.215 0.572 0.333 1.107 1.104 2.17 2.245 3.202 3.424 2.851 3.259 5.16 6.846 6.814 10.848 0.227 0.549 0.421 1.119 0.551 1.698 0.165 0.738-0.309 1.159-1.001 0.909" fill="#5cbcca"/>
  </g>
  <g transform="matrix(1.8214 0 0 -1.8214 101.18 214.75)">
   <path d="m0 0c-0.73 1.542-1.505 3.06-2.546 4.425-0.192 0.252-0.333 0.488-0.739 0.442-0.637-0.073-0.767 0.071-0.812 0.736-0.036 0.525-0.096 1.04-0.341 1.593-0.569-0.472-1.096-0.844-1.665-1.159-0.479-0.265-0.49-0.339-0.181-0.776 0.903-1.275 1.826-2.534 2.803-3.754 1.758-2.196 3.472-4.425 4.772-6.938 0.113-0.218 0.19-0.473 0.486-0.627 0.097 0.272 0.034 0.464-4e-3 0.655-0.369 1.874-0.957 3.678-1.773 5.403" fill="#6ed2dc"/>
  </g>
  <g transform="matrix(1.8214 0 0 -1.8214 109.09 224.32)">
   <path d="m0 0c0.574 1.113 1.033 2.276 1.369 3.478 1.084 3.874 2.145 7.755 2.413 11.796 0.048 0.729-0.042 1.436-0.268 2.101-0.207 0.018-0.277-0.076-0.343-0.164-0.909-1.203-1.887-2.344-3.082-3.275-0.324-0.252-0.245-0.503-0.156-0.822 0.401-1.424 0.589-2.884 0.695-4.356 0.195-2.684-0.282-5.304-0.757-7.925-0.068-0.377-0.25-0.747-0.16-1.158 0.175 0.063 0.226 0.203 0.289 0.325" fill="#acf6e4"/>
  </g>
  <g transform="matrix(1.8214 0 0 -1.8214 109.15 205.22)">
   <path d="m0 0c-0.112 0.841-0.25 1.682-0.512 2.494-0.075 0.231-0.192 0.341-0.437 0.201-0.838-0.478-1.675-0.958-2.518-1.426-0.296-0.164-0.293-0.359-0.158-0.631 0.227-0.458 0.441-0.924 0.635-1.396 1.183-2.868 1.729-5.859 1.712-8.959-3e-3 -0.562-0.059-1.13 0.077-1.795 0.293 0.342 0.329 0.624 0.392 0.896 0.332 1.436 0.522 2.894 0.752 4.348 0.334 2.103 0.335 4.178 0.057 6.268" fill="#96a8f2"/>
  </g>
  <g transform="matrix(1.8214 0 0 -1.8214 101.93 204.6)">
   <path d="m0 0c-0.12 0.248-0.242 0.547-0.631 0.384-0.723-0.302-1.446-0.602-2.223-0.925 2.463-3.44 4.103-7.164 4.807-11.291 0.065 0.017 0.13 0.034 0.196 0.051 0.03 0.043 0.078 0.084 0.086 0.131 0.018 0.112 0.018 0.226 0.023 0.34 0.114 2.426-0.143 4.817-0.707 7.175-0.344 1.442-0.908 2.804-1.551 4.135" fill="#bac2ce"/>
  </g>
  <g transform="matrix(1.8214 0 0 -1.8214 45.559 190.79)">
   <path d="m0 0c-1.925 0.123-3.84 0.337-5.742 0.668-3.276 0.569-6.355 1.727-9.277 3.27-2.082 1.099-4.088 2.348-5.885 3.895-0.142 0.122-0.277 0.276-0.567 0.287 0.036-0.129 0.04-0.191 0.069-0.236 0.077-0.118 0.158-0.236 0.25-0.342 1.944-2.239 4.041-4.288 6.61-5.836 3.515-2.12 7.223-3.685 11.317-4.215 1.066-0.138 2.147-0.183 3.222-0.231 0.533-0.023 0.633 0.107 0.65 0.655 0.014 0.484 0.015 0.968-1e-3 1.451-0.02 0.586-0.042 0.595-0.646 0.634" fill="#7aeef4"/>
  </g>
  <g transform="matrix(1.8214 0 0 -1.8214 10.382 173.88)">
   <path d="m0 0c0.411-0.414 0.882-0.462 1.297-0.579 4.297-1.212 8.664-2.043 13.129-2.27 1.732-0.087 3.466-0.028 5.191 0.2 0.335 0.044 0.588 0.118 0.671 0.512 0.228 1.075 0.521 2.134 0.987 3.314-7.034-2.332-14.073-2.394-21.275-1.177" fill="#62d6c8"/>
  </g>
  <g transform="matrix(1.8214 0 0 -1.8214 45.817 179.48)">
   <path d="m0 0c-1.24-0.152-2.482-0.243-3.734-0.245-0.941-1e-3 -1.873 0.089-2.803 0.165-2.487 0.205-4.956 0.535-7.395 1.098-2.1 0.486-4.217 0.896-6.22 1.728-0.126 0.053-0.264 0.116-0.438-0.019 0.327-0.338 0.763-0.472 1.153-0.674 2.478-1.285 5.144-2.094 7.754-3.043 2.17-0.789 4.461-1.075 6.713-1.522 1.6-0.318 3.21-0.38 4.831-0.35 0.289 6e-3 0.598-0.023 0.585 0.412-0.018 0.628 0.084 1.244 0.163 1.865 0.071 0.561-0.053 0.653-0.609 0.585" fill="#96aee0"/>
  </g>
  <g transform="matrix(1.8214 0 0 -1.8214 30.046 154.52)">
   <path d="m0 0c0.261 0.259 0.547 0.497 0.84 0.72 0.491 0.371 1.29 0.617 1.388 1.149 0.106 0.575-0.474 1.173-0.727 1.773-0.159 0.375-0.367 0.365-0.667 0.216-0.736-0.367-1.477-0.729-2.119-1.251-1.759-1.433-3.072-3.255-4.385-5.073-1.391-1.926-2.603-3.995-4.488-5.553 0.848 0.267 1.579 0.751 2.267 1.271 2.765 2.09 5.427 4.304 7.891 6.748" fill="#62fcf0"/>
  </g>
  <g transform="matrix(1.8214 0 0 -1.8214 55.366 172.64)">
   <path d="m0 0c0.089 0.27 0.038 0.411-0.21 0.544-0.501 0.266-0.984 0.568-1.481 0.843-0.616 0.34-0.62 0.334-0.942-0.278-1.148-2.183-1.618-4.55-1.715-6.975-0.085-2.129-5e-3 -4.265 0.054-6.397 0.013-0.47-0.112-0.955 0.052-1.48 0.245 0.24 0.342 0.506 0.455 0.762 0.561 1.275 1.031 2.584 1.427 3.92 0.887 2.994 1.383 6.09 2.36 9.061" fill="#98e0e4"/>
  </g>
  <g transform="matrix(1.8214 0 0 -1.8214 84.261 209.54)">
   <path d="m0 0c-1.342-3.5-2.942-6.651-5.114-9.482-2.152-2.805-4.385-5.539-7.206-7.787 0.299-0.139 0.414 0.025 0.548 0.106 0.853 0.514 1.653 1.104 2.429 1.725 2.461 1.969 4.865 3.997 7.036 6.3 1.626 1.724 3.086 3.555 4.321 5.573 0.176 0.287 0.174 0.476-0.043 0.745-0.676 0.838-1.312 1.706-1.971 2.82" fill="#8ccaf4"/>
  </g>
  <g transform="matrix(1.8214 0 0 -1.8214 8.2605 176.18)">
   <path d="m0 0c0.873-0.681 1.768-1.325 2.694-1.938 2.813-1.863 5.82-3.302 9.05-4.257 2.839-0.839 5.751-1.273 8.71-1.378 0.558-0.019 0.594 0.019 0.613 0.548 0.016 0.455-0.012 0.91 7e-3 1.364 0.018 0.407-0.156 0.544-0.553 0.545-0.963 2e-3 -1.924-0.01-2.89 0.097-2.258 0.249-4.477 0.707-6.691 1.189-2.31 0.502-4.456 1.499-6.682 2.252-1.643 0.556-3.165 1.387-4.848 2.25 0.169-0.388 0.394-0.519 0.59-0.672" fill="#72eaf2"/>
  </g>
  <g transform="matrix(1.8214 0 0 -1.8214 81.464 231.97)">
   <path d="m0 0c-2.037-1.75-4.424-2.972-6.669-4.406-1.409-0.9-2.953-1.548-4.462-2.322 0.225-0.098 0.443-0.06 0.664-0.01 2.218 0.502 4.36 1.251 6.442 2.145 4.096 1.76 7.63 4.348 10.735 7.53 0.533 0.547 1.004 1.155 1.507 1.731 0.211 0.241 0.209 0.433-0.071 0.629-0.326 0.226-0.634 0.478-0.943 0.728-0.625 0.507-0.628 0.514-1.112-0.107-0.77-0.987-1.556-1.961-2.491-2.796-1.184-1.058-2.395-2.087-3.6-3.122" fill="#b2dae8"/>
  </g>
  <g transform="matrix(1.8214 0 0 -1.8214 49.45 197.41)">
   <path d="m0 0c1.272 1.461 2.37 3.043 3.232 4.779 0.795 1.601 1.548 3.221 1.998 4.962 0.086 0.332 0.163 0.62-0.135 0.937-0.397 0.424-0.343 0.538 0.062 0.981 0.367 0.403 0.805 0.757 1.051 1.342-0.863 0.162-1.615 0.479-2.43 0.769-0.109-0.307-0.219-0.565-0.291-0.834-0.375-1.393-0.778-2.781-1.099-4.187-0.651-2.848-1.363-5.673-2.559-8.353-0.078-0.174-0.272-0.372-0.083-0.635 0.094 0.087 0.182 0.156 0.254 0.239" fill="#5cfee0"/>
  </g>
  <g transform="matrix(1.8214 0 0 -1.8214 88.481 216.61)">
   <path d="m0 0c-0.4-0.621-0.781-1.256-1.216-1.852-2.157-2.956-4.732-5.516-7.526-7.859-1.937-1.623-3.851-3.28-6.079-4.514-0.092-0.051-0.258-0.122-0.113-0.412 6.615 3.192 12.65 7.099 17.204 12.79-0.63 0.698-1.179 1.31-1.731 1.919-0.212 0.234-0.381 0.173-0.539-0.072" fill="#70c0e6"/>
  </g>
  <g transform="matrix(1.8214 0 0 -1.8214 72.181 208.36)">
   <path d="m0 0c2.936 0.326 5.721 1.162 8.417 2.309 0.876 0.372 1.755 0.802 2.485 1.466 0.279 0.253 0.466 0.504 0.372 0.88-0.13 0.516-0.241 1.045-0.623 1.465-0.71-0.403-1.374-0.849-2.092-1.176-5.032-2.293-10.278-3.554-15.844-3.193-1.133 0.073-2.273-0.038-3.4 0.199-0.518 0.108-1.042 0.254-1.595 0.192 0.061-0.288 0.327-0.294 0.516-0.382 0.671-0.312 1.39-0.484 2.101-0.679 3.164-0.867 6.35-1.449 9.663-1.081" fill="#5cdaf8"/>
  </g>
  <g transform="matrix(1.8214 0 0 -1.8214 58.167 204.37)">
   <path d="m0 0c1.888-0.202 3.749-0.097 5.602 0.121 3.167 0.373 6.229 1.206 9.181 2.427 0.947 0.392 1.858 0.854 2.721 1.407 0.729 0.468 0.747 0.501 0.307 1.272-0.309 0.542-0.665 1.058-1.002 1.584-0.335 0.524-0.355 0.452-0.751 0.143-1.214-0.948-2.554-1.686-3.968-2.297-5.443-2.35-11.077-3.864-17.159-3.912 0.31-0.296 0.622-0.304 0.926-0.361 1.371-0.259 2.768-0.237 4.143-0.384" fill="#88fcc6"/>
  </g>
  <g transform="matrix(1.8214 0 0 -1.8214 127.96 213.23)">
   <path d="m0 0c1.067 1.759 1.814 3.656 2.524 5.569 0.474 1.278 0.751 2.614 0.945 3.965 0.155 1.08-0.096 1.509-1.109 1.841-0.16 0.053-0.335 0.067-0.493 0.126-0.334 0.125-0.466-4e-3 -0.497-0.335-0.05-0.536-0.073-1.08-0.187-1.603-0.691-3.182-1.872-6.185-3.419-9.043-1.827-3.376-4.259-6.28-7.049-8.898-0.133-0.125-0.327-0.223-0.322-0.458 0.229-0.119 0.383 0.056 0.54 0.148 1.917 1.126 3.654 2.498 5.278 4.004 1.482 1.375 2.735 2.946 3.789 4.684" fill="#acecec"/>
  </g>
  <g transform="matrix(1.8214 0 0 -1.8214 156.58 158.42)">
   <path d="m0 0c-0.283 0.321-0.609 0.599-0.986 0.804-0.169 0.092-0.36 0.236-0.559 0.126-0.53-0.291-1.121-0.507-1.431-0.985 5.578-6.103 8.339-13.286 8.891-21.455 0.243 0.195 0.284 0.351 0.322 0.519 0.167 0.726 0.152 1.463 0.189 2.2 0.134 2.706 0.066 5.397-0.618 8.034-1.052 4.058-3.038 7.622-5.808 10.757" fill="#a2e8e2"/>
  </g>
  <g transform="matrix(1.8214 0 0 -1.8214 176.22 175.56)">
   <path d="m0 0c-1.277-1e-3 -2.544-0.178-3.803-0.379-0.872-0.139-0.898-0.205-0.72-1.04 0.089-0.416 0.218-0.827 0.263-1.247 0.045-0.423 0.21-0.535 0.61-0.421 2.023 0.579 4.095 0.85 6.187 1.034 2.522 0.221 5.037 0.224 7.56 8e-3 0.671-0.057 1.342-0.155 2.025-0.136-0.522 0.4-1.113 0.598-1.707 0.763-3.406 0.947-6.88 1.421-10.415 1.418" fill="#b2a6f2"/>
  </g>
  <g transform="matrix(1.8214 0 0 -1.8214 192.54 181.97)">
   <path d="m0 0c-3.114-0.623-6.199-1.364-9.203-2.414-0.64-0.223-1.304-0.386-1.966-0.538-0.54-0.124-1.273 0.034-1.578-0.393-0.325-0.453-0.103-1.157-0.103-1.75 1e-3 -0.592 0.062-0.656 0.621-0.663 0.88-0.011 1.754 0.063 2.61 0.289 1.713 0.451 3.284 1.242 4.846 2.051 2.434 1.26 4.703 2.866 7.419 3.533 0.014 4e-3 0.018 0.052 0.048 0.149-0.926 0.049-1.817-0.089-2.694-0.264" fill="#bad8ec"/>
  </g>
  <g transform="matrix(1.8214 0 0 -1.8214 170.37 186.84)">
   <path d="m0 0c0.696 0.112 1.393 0.225 2.072 0.442 2.104 0.672 4.206 1.354 6.363 1.844 2.094 0.475 4.179 1.006 6.33 1.204-1.284 0.368-2.596 0.347-3.889 0.41-2.496 0.12-4.986-0.075-7.459-0.444-1.203-0.18-2.406-0.368-3.58-0.701-0.699-0.198-0.761-0.304-0.67-1.03 0.05-0.393 0.141-0.787 0.136-1.18-7e-3 -0.546 0.171-0.63 0.697-0.545" fill="#60c2c6"/>
  </g>
  <g transform="matrix(1.8214 0 0 -1.8214 155.7 184.59)">
   <path d="m0 0c-1.49 2.084-3.146 4.028-4.978 5.818-0.749 0.732-1.528 1.442-2.622 1.85-0.065-0.262-4e-3 -0.418 0.035-0.582 0.3-1.272 0.622-2.546 0.576-3.862-0.021-0.604 0.185-0.897 0.742-1.138 2.075-0.895 3.993-2.086 5.622-3.642 1.372-1.31 2.782-2.605 3.914-4.151 0.084-0.114 0.184-0.216 0.274-0.326 0.095-0.117 0.176-0.256 0.425-0.242-0.399 1.013-0.899 1.896-1.444 2.757-0.775 1.226-1.702 2.341-2.544 3.518" fill="#acf8e0"/>
  </g>
  <g transform="matrix(1.8214 0 0 -1.8214 157.44 168.03)">
   <path d="m0 0c-1.017 1.643-2.089 3.248-3.518 4.582-0.313 0.292-0.534 0.354-0.844 0.042-0.52-0.525-1.064-1.026-1.581-1.554-0.402-0.411-0.399-0.434 0.038-0.784 0.735-0.588 1.402-1.247 2.006-1.965 2.393-2.843 4.284-6.012 5.929-9.326 1.074-2.162 1.912-4.426 2.509-6.772 0.067-0.262 0.166-0.516 0.25-0.773l0.159 0.042c6e-3 0.111 0.02 0.222 0.019 0.333-0.023 2.515-0.531 4.968-1.146 7.38-0.796 3.122-2.123 6.051-3.821 8.795" fill="#88eade"/>
  </g>
  <g transform="matrix(1.8214 0 0 -1.8214 158.63 181.24)">
   <path d="m0 0c-1.426 2.559-2.973 5.037-4.863 7.284-0.62 0.737-1.305 1.42-2.083 2-0.224 0.168-0.436 0.274-0.683 0.058-0.647-0.567-1.352-1.032-2.182-1.293-0.14-0.044-0.289-0.153-0.204-0.308 0.274-0.502 0.274-1.153 0.932-1.446 1.617-0.723 2.852-1.948 4.018-3.237 1.619-1.789 3.11-3.681 4.542-5.626 1.335-1.813 2.595-3.656 3.501-5.726 0.112-0.255 0.196-0.536 0.64-0.83-0.276 0.968-0.472 1.791-0.746 2.586-0.776 2.257-1.707 4.448-2.872 6.538" fill="#9ef2ec"/>
  </g>
  <g transform="matrix(1.8214 0 0 -1.8214 198.5 175.47)">
   <path d="m0 0c-2.666 2.263-5.408 4.42-8.405 6.24-2.192 1.331-4.445 2.516-6.894 3.313-0.495 0.161-0.769 0.086-1.078-0.326-0.493-0.657-1.03-1.284-1.636-1.847-0.147-0.137-0.409-0.251-0.29-0.558 7.112-0.892 13.365-3.889 19.193-7.907 0.074 0.128 9e-3 0.188-0.044 0.242-0.279 0.284-0.544 0.586-0.846 0.843" fill="#64babe"/>
  </g>
  <g transform="matrix(1.8214 0 0 -1.8214 201.59 166.7)">
   <path d="m0 0c-1.758 3.615-4.202 6.716-7.185 9.416-1.641 1.485-3.512 2.584-5.456 3.588-0.675 0.349-0.705 0.332-1.033-0.317-0.205-0.404-0.399-0.816-0.57-1.236-0.227-0.558-0.217-0.565 0.294-0.841 3.598-1.94 6.876-4.285 9.629-7.348 1.988-2.211 3.638-4.638 5.08-7.223 0.397-0.711 0.668-1.49 1.139-2.178 0.118 0.133 0.115 0.245 0.087 0.357-0.488 1.987-1.091 3.944-1.985 5.782" fill="#8afade"/>
  </g>
  <g transform="matrix(1.8214 0 0 -1.8214 203.07 175.75)">
   <path d="m0 0c-1.952 3.763-4.383 7.173-7.522 10.042-2.149 1.964-4.536 3.604-7.108 4.967-0.917 0.486-0.798 0.508-1.194-0.395-0.126-0.286-0.272-0.563-0.405-0.847-0.258-0.554-0.261-0.564 0.288-0.818 1.11-0.513 2.196-1.073 3.218-1.748 3.501-2.313 6.653-5.028 9.503-8.112 1.273-1.379 2.449-2.829 3.686-4.256-0.017 0.077-0.022 0.16-0.052 0.232-0.133 0.314-0.257 0.633-0.414 0.935" fill="#7ec2cc"/>
  </g>
  <g transform="matrix(1.8214 0 0 -1.8214 193.17 167.15)">
   <path d="m0 0c-1.781 1.895-3.826 3.463-5.922 4.983-1.523 1.104-3.093 2.107-4.81 2.883-0.402 0.182-0.63 0.131-0.814-0.259-0.242-0.514-0.548-0.992-0.86-1.469-0.363-0.555-0.355-0.583 0.29-0.798 1.866-0.62 3.644-1.428 5.341-2.421 2.404-1.406 4.733-2.918 6.915-4.662 1.598-1.277 3.222-2.516 4.606-4.034 0.108-0.119 0.196-0.282 0.456-0.227-0.072 0.35-0.335 0.571-0.525 0.832-1.378 1.888-3.085 3.477-4.677 5.172" fill="#b8dcea"/>
  </g>
  <g transform="matrix(1.8214 0 0 -1.8214 158.57 202.83)">
   <path d="m0 0c-0.52-0.135-1.046-0.259-1.57-0.384-0.382-0.092-0.503-0.246-0.409-0.657 0.229-0.996 0.36-2.008 0.473-3.026 0.311-2.806 0.351-5.6-0.061-8.403-0.474-3.219-1.345-6.319-2.649-9.298-0.295-0.674-0.595-1.346-0.938-2.119 0.364 0.067 0.463 0.272 0.597 0.448 0.965 1.27 1.827 2.608 2.594 4.003 1.157 2.103 1.911 4.354 2.468 6.684 0.706 2.947 1.073 5.918 0.758 8.942-0.117 1.127-0.363 2.24-0.558 3.358-0.069 0.392-0.232 0.575-0.705 0.452" fill="#60baf4"/>
  </g>
  <g transform="matrix(1.8214 0 0 -1.8214 147.06 228.54)">
   <path d="m0 0c-0.095 1.64-0.297 3.276-0.492 4.908-0.284 2.375-0.81 4.694-1.665 6.934-0.144 0.377-0.339 0.534-0.75 0.524-0.993-0.023-1.99-0.047-2.973 0.159-0.081 0.017-0.167 6e-3 -0.239-0.154 3.765-6.131 5.291-12.968 5.807-20.131 0.213 0.2 0.178 0.415 0.185 0.602 0.037 0.936 0.18 1.863 0.16 2.805-0.031 1.451 0.05 2.906-0.033 4.353" fill="#a0fce4"/>
  </g>
  <g transform="matrix(1.8214 0 0 -1.8214 135.31 216.75)">
   <path d="m0 0c-0.656 1.069-1.402 2.07-2.331 2.923-0.388 0.356-0.442 0.349-0.691-0.066-0.365-0.608-0.703-1.234-1.096-1.824-0.246-0.369-0.18-0.578 0.157-0.842 0.807-0.63 1.55-1.343 2.219-2.115 2.472-2.851 4.473-6.005 5.988-9.465 0.118-0.269 0.188-0.574 0.508-0.813-0.111 0.881-0.379 1.655-0.624 2.432-1.065 3.388-2.26 6.723-4.13 9.77" fill="#bef8dc"/>
  </g>
  <g transform="matrix(1.8214 0 0 -1.8214 144.01 229.67)">
   <path d="m0 0c-0.558 2.614-1.173 5.208-2.238 7.67-0.745 1.721-1.479 3.449-2.547 5.006-0.16 0.234-0.295 0.489-0.541 0.651-0.583 0.384-0.955 0.285-1.157-0.374-0.159-0.52-0.359-1.023-0.596-1.503-0.215-0.436-0.143-0.71 0.198-1.037 0.821-0.789 1.534-1.674 2.166-2.625 2.005-3.016 3.16-6.41 4.32-9.796 0.439-1.281 0.738-2.61 1.112-3.958 0.172 0.24 0.142 0.466 0.11 0.674-0.264 1.766-0.453 3.541-0.827 5.292" fill="#90dee6"/>
  </g>
  <g transform="matrix(1.8214 0 0 -1.8214 142.82 238.85)">
   <path d="m0 0c-1.565 3.592-3.537 6.934-6.158 9.864-0.68 0.761-1.394 1.5-2.203 2.136-0.261 0.206-0.467 0.271-0.707-0.046-0.427-0.564-0.887-1.103-1.37-1.698 4.395-3.34 7.928-7.339 10.806-12.004 0.139 0.272 0.078 0.405 0.035 0.538-0.132 0.404-0.234 0.822-0.403 1.21" fill="#80d2f4"/>
  </g>
  <g transform="matrix(1.8214 0 0 -1.8214 127.68 224.26)">
   <path d="m0 0c-0.61 0.549-1.273 1.042-1.938 1.526-0.546 0.398-0.565 0.377-1.069-0.105-0.329-0.314-0.622-0.675-0.986-0.94-0.36-0.263-0.355-0.467-0.049-0.731 0.559-0.481 1.088-0.995 1.703-1.41 1.154-0.777 2.311-1.548 3.441-2.359 2.144-1.539 4.24-3.139 6.138-4.983 0.127-0.125 0.213-0.35 0.481-0.275 0.073 0.256-0.112 0.422-0.227 0.598-2.119 3.22-4.632 6.102-7.494 8.679" fill="#aedacc"/>
  </g>
  <g transform="matrix(1.8214 0 0 -1.8214 161.67 198.52)">
   <path d="m0 0c-1.815 1.564-3.774 2.909-5.95 3.926-1.421 0.664-2.908 1.122-4.433 1.464-0.219 0.049-0.499 0.126-0.578-0.17-0.208-0.778-0.567-1.519-0.654-2.384 4.215-0.326 8.207-1.269 11.981-3.447-0.09 0.408-0.24 0.502-0.366 0.611" fill="#bcb6e6"/>
  </g>
  <g transform="matrix(1.8214 0 0 -1.8214 141.38 199.59)">
   <path d="m0 0c-1.105-0.022-2.211 7e-3 -3.311 0.125-0.348 0.038-0.517-0.074-0.603-0.42-0.128-0.522-0.323-1.027-0.461-1.547-0.168-0.634-0.115-0.713 0.534-0.867 2.355-0.558 4.719-0.48 7.09-0.11 2.186 0.341 4.28 1.066 6.433 1.547 0.457 0.103 0.963 0.052 1.414 0.385-1.546 0.4-3.088 0.605-4.636 0.701-2.15 0.133-4.303 0.228-6.46 0.186" fill="#7ef8c4"/>
  </g>
  <g transform="matrix(1.8214 0 0 -1.8214 150.19 230.4)">
   <path d="m0 0c0.271 1.54 0.368 3.113 0.313 4.662-0.059 1.667-0.057 3.343-0.237 5.009-0.138 1.272-0.35 2.526-0.689 3.759-0.076 0.276-0.201 0.355-0.487 0.311-0.671-0.105-1.348-0.171-2.023-0.257-0.306-0.039-0.474-0.173-0.337-0.512 0.053-0.132 0.083-0.272 0.133-0.405 1.258-3.303 1.591-6.781 1.931-10.255 0.211-2.153 0.105-4.315 0.118-6.474 1e-3 -0.253-0.04-0.507-0.061-0.76-0.082-0.953-0.164-1.905-0.246-2.858 0.06-0.014 0.12-0.028 0.181-0.042 0.348 1.009 0.515 2.066 0.749 3.105 0.35 1.553 0.379 3.152 0.655 4.717" fill="#94b2e2"/>
  </g>
  <g transform="matrix(1.8214 0 0 -1.8214 143.06 181.13)">
   <path d="m0 0c-0.137-0.893-0.252-1.674-0.377-2.453-0.187-1.17-0.191-1.174 0.987-1.459 3.314-0.801 6.256-2.332 8.878-4.501 0.431-0.356 0.834-0.758 1.418-0.919-2.93 3.895-6.139 7.457-10.906 9.332" fill="#9ec4e0"/>
  </g>
  <g transform="matrix(1.8214 0 0 -1.8214 138.55 239.5)">
   <path d="m0 0c-2.329 1.945-4.702 3.837-7.256 5.485-1.121 0.724-2.227 1.467-3.161 2.429-0.204 0.21-0.344 0.238-0.567 0.056-0.461-0.375-0.928-0.745-1.407-1.098-0.253-0.185-0.222-0.37-0.052-0.565 0.612-0.704 1.164-1.457 1.933-2.019 1.455-1.062 3.074-1.805 4.701-2.541 2.471-1.119 5.128-1.853 7.365-3.509-0.384 0.723-0.961 1.265-1.556 1.762" fill="#aabefe"/>
  </g>
  <g transform="matrix(1.8214 0 0 -1.8214 154.08 230.21)">
   <path d="m0 0c0.505 2.364 0.821 4.749 0.795 7.178-0.012 1.14-0.13 2.268-0.21 3.398-0.075 1.071-0.22 2.144-0.485 3.192-0.14 0.555-0.193 0.581-0.766 0.446-0.413-0.098-0.827-0.195-1.244-0.275-0.344-0.066-0.503-0.239-0.4-0.594 0.598-2.063 0.741-4.185 0.821-6.316 0.037-0.992 0.162-1.989 0.108-2.976-0.093-1.724-0.239-3.445-0.461-5.163-0.282-2.17-0.568-4.331-1.136-6.447-0.036-0.135-0.075-0.276 0.072-0.571 0.077 0.129 0.123 0.199 0.162 0.272 0.132 0.251 0.278 0.497 0.391 0.757 1.006 2.292 1.829 4.648 2.353 7.099" fill="#84bcd6"/>
  </g>
  <g transform="matrix(1.8214 0 0 -1.8214 36.31 94.14)">
   <path d="m0 0c2.043-1.829 4.337-3.303 6.703-4.667 1.753-1.011 3.631-1.745 5.576-2.3 0.726-0.207 0.738-0.186 0.929 0.533 0.08 0.301 0.15 0.606 0.226 0.909 0.242 0.958 0.242 0.957-0.759 1.162-0.055 0.011-0.107 0.04-0.162 0.052-3.565 0.801-6.939 2.114-10.183 3.784-1.211 0.623-2.364 1.345-3.577 2.002 0.243-0.647 0.767-1.045 1.247-1.475" fill="#5eeeea"/>
  </g>
  <g transform="matrix(1.8214 0 0 -1.8214 106.3 79.709)">
   <path d="m0 0c-0.07-1.053 0.12-2.094 0.204-3.137 0.09-1.126 0.37-2.233 0.75-3.306 0.228-0.641 0.28-0.656 0.801-0.298 0.492 0.337 0.982 0.675 1.482 0.999 0.664 0.429 0.67 0.425 0.359 1.115-0.572 1.271-1.012 2.588-1.328 3.943-0.712 3.049-1.042 6.141-0.987 9.274 7e-3 0.409 0.074 0.832-0.084 1.234-0.142-0.04-0.154-0.126-0.168-0.208-0.246-1.393-0.542-2.78-0.65-4.193-0.138-1.807-0.259-3.615-0.379-5.423" fill="#82c8ee"/>
  </g>
  <g transform="matrix(1.8214 0 0 -1.8214 120.44 76.672)">
   <path d="m0 0c0.793-1.344 1.667-2.647 2.157-4.146 0.12-0.366 0.35-0.398 0.653-0.334 0.526 0.113 1.048 0.245 1.577 0.347 0.35 0.068 0.388 0.284 0.317 0.567-0.28 1.102-0.568 2.203-1.178 3.182-1.025 1.646-2.26 3.128-3.545 4.573-1.526 1.716-3.192 3.324-4.231 5.421-0.034 0.07-0.116 0.116-0.312 0.303 0.181-0.903 0.433-1.623 0.734-2.305 1.147-2.599 2.382-5.158 3.828-7.608" fill="#58cec2"/>
  </g>
  <g transform="matrix(1.8214 0 0 -1.8214 113.61 87.978)">
   <path d="m0 0c0.16-0.362 0.334-0.552 0.77-0.32 0.597 0.319 1.228 0.575 1.911 0.889-2.514 4.899-3.967 10.035-4.522 15.485-0.186-0.112-0.259-0.223-0.278-0.37-0.064-0.507-0.165-1.012-0.181-1.52-0.108-3.533 0.183-7.03 1.022-10.47 0.31-1.268 0.749-2.498 1.278-3.694" fill="#7cf8c8"/>
  </g>
  <g transform="matrix(1.8214 0 0 -1.8214 78.158 91.765)">
   <path d="m0 0c2.099-2.521 4.635-4.506 7.498-6.087 0.27-0.15 0.482-0.185 0.778-5e-3 0.492 0.3 0.649 0.237 0.951-0.254 0.291-0.474 0.572-0.951 1.139-1.386 0.203 0.904 0.807 1.496 1.19 2.22-0.152 0.214-0.36 0.308-0.556 0.416-1.344 0.739-2.696 1.461-4.079 2.125-2.563 1.23-5.097 2.51-7.38 4.23-0.166 0.126-0.332 0.294-0.586 0.267 0-0.074-0.022-0.143 4e-3 -0.177 0.342-0.453 0.678-0.913 1.041-1.349" fill="#66faec"/>
  </g>
  <g transform="matrix(1.8214 0 0 -1.8214 112.62 90.808)">
   <path d="m0 0c-1.909-1.166-3.537-2.661-5.137-4.189-0.986-0.941-1.852-2.003-2.565-3.171-0.753-1.232-0.631-1.66 0.544-2.526 0.298-0.22 0.409-0.146 0.58 0.135 1.497 2.456 3.517 4.449 5.683 6.298 2.038 1.739 4.242 3.264 6.67 4.394 1.899 0.884 3.81 1.774 5.846 2.329 0.154 0.042 0.352 0.019 0.442 0.329-0.386 0-0.732 0.046-1.062-7e-3 -1.791-0.289-3.578-0.609-5.322-1.114-1.998-0.58-3.893-1.387-5.679-2.478" fill="#b8a6c6"/>
  </g>
  <g transform="matrix(1.8214 0 0 -1.8214 105.62 103.29)">
   <path d="m0 0c-0.899-0.951-1.701-1.978-2.374-3.105-0.215-0.361-0.192-0.614 0.164-0.852 0.754-0.503 1.507-1.005 2.35-1.427 0.107 0.193 0.207 0.361 0.296 0.535 0.633 1.245 1.415 2.392 2.312 3.459 1.554 1.849 3.261 3.55 5.062 5.16 2.23 1.994 4.617 3.762 7.264 5.172 0.559 0.297 1.148 0.556 1.656 0.968-0.138 0.096-0.251 0.071-0.359 0.038-2.989-0.918-5.88-2.048-8.588-3.645-2.914-1.718-5.47-3.856-7.783-6.303" fill="#72f6ce"/>
  </g>
  <g transform="matrix(1.8214 0 0 -1.8214 107.37 62.154)">
   <path d="m0 0c0.06 0.31 0.268 0.635 0.047 0.998-0.182-0.134-0.23-0.324-0.293-0.509-0.497-1.449-0.952-2.908-1.336-4.393-0.54-2.088-0.964-4.196-1.235-6.335-0.262-2.063-0.16-4.137-0.148-6.207 4e-3 -0.587 0.122-1.187 0.279-1.756 0.216-0.776 0.706-0.879 1.279-0.343 0.434 0.406 0.874 0.809 1.338 1.18 0.269 0.215 0.296 0.412 0.189 0.728-0.244 0.725-0.5 1.454-0.642 2.203-0.396 2.091-0.561 4.192-0.401 6.335 0.204 2.714 0.405 5.422 0.923 8.099" fill="#96fae4"/>
  </g>
  <g transform="matrix(1.8214 0 0 -1.8214 77.269 88.467)">
   <path d="m0 0c1.086-0.826 2.233-1.563 3.412-2.249 1.816-1.057 3.737-1.91 5.612-2.854 0.987-0.497 1.945-1.054 2.917-1.582 0.22-0.119 0.421-0.285 0.664 6e-3 0.418 0.5 0.854 0.987 1.309 1.454 0.281 0.289 0.192 0.495-0.071 0.698-0.674 0.52-1.349 1.036-2.09 1.463-1.81 1.045-3.76 1.707-5.777 2.221-1.622 0.413-3.284 0.615-4.915 0.979-0.474 0.106-0.925 0.445-1.461 0.306 0.045-0.25 0.249-0.327 0.4-0.442" fill="#8efefe"/>
  </g>
  <g transform="matrix(1.8214 0 0 -1.8214 79.639 87.471)">
   <path d="m0 0c0.474-0.079 0.925-0.255 1.413-0.298 0.661-0.057 0.665-0.085 0.843 0.572 0.693 2.557 1.61 5.035 2.839 7.377 2.067 3.941 4.843 7.334 8.241 10.212 0.539 0.456 1.075 0.915 1.723 1.466-0.389 7e-3 -0.593-0.08-0.792-0.185-1.758-0.934-3.466-1.95-5.018-3.204-1.709-1.38-3.193-2.981-4.559-4.699-1.564-1.968-2.87-4.09-3.856-6.4-0.569-1.332-0.916-2.74-1.279-4.141-0.115-0.442 0.014-0.628 0.445-0.7" fill="#a2d6c2"/>
  </g>
  <g transform="matrix(1.8214 0 0 -1.8214 101.58 58.135)">
   <path d="m0 0c-2.328-2.239-4.347-4.721-5.955-7.522-1.505-2.622-2.605-5.417-3.396-8.334-0.187-0.688-0.169-0.839 0.546-0.876 0.307-0.015 0.609-0.126 0.913-0.198 0.729-0.174 0.793-0.155 0.934 0.529 0.74 3.571 2.223 6.862 3.988 10.005 1.776 3.163 3.715 6.244 6.253 8.975-0.31 0.114-0.412-0.068-0.534-0.16-0.978-0.736-1.867-1.571-2.749-2.419" fill="#aabcda"/>
  </g>
  <g transform="matrix(1.8214 0 0 -1.8214 107.13 55.034)">
   <path d="m0 0c-1.452-1.679-2.695-3.505-3.862-5.39-0.686-1.109-1.437-2.174-2.057-3.327-1.022-1.904-1.804-3.914-2.65-5.895-0.523-1.225-0.819-2.533-1.094-3.838-0.052-0.244-0.065-0.468 0.218-0.557 0.804-0.254 1.613-0.493 2.52-0.769 0.23 3.678 1.31 7.081 2.617 10.407 1.303 3.316 2.775 6.562 4.698 9.592-0.226 9e-3 -0.297-0.116-0.39-0.223" fill="#aac0f2"/>
  </g>
  <g transform="matrix(1.8214 0 0 -1.8214 106.76 58.067)">
   <path d="m0 0c-0.548-0.962-1.037-1.953-1.533-2.943-1.631-3.257-2.943-6.631-3.914-10.14-0.417-1.507-0.659-3.045-0.816-4.598-0.035-0.347-0.067-0.658 0.357-0.844 0.984-0.432 1.919-0.96 2.93-1.522-0.142 1.201-0.091 2.388-0.09 3.573 0 1.191-0.048 2.384 0.116 3.569 0.16 1.15 0.315 2.302 0.515 3.445 0.205 1.173 0.524 2.321 0.809 3.476 0.285 1.158 0.658 2.286 0.986 3.428 0.317 1.105 0.929 2.101 1.295 3.37-0.394-0.309-0.515-0.569-0.655-0.814" fill="#7cd4fa"/>
  </g>
  <g transform="matrix(1.8214 0 0 -1.8214 116.85 81.723)">
   <path d="m0 0c0.328-0.783 0.677-1.559 1.12-2.292 0.184-0.305 0.377-0.379 0.691-0.273 0.509 0.173 1.015 0.367 1.536 0.492 0.414 0.099 0.514 0.274 0.348 0.658-0.292 0.676-0.544 1.371-0.93 2.003-1.804 2.957-3.41 6.018-4.816 9.183-0.318 0.716-0.571 1.46-0.9 2.312-0.226-0.38-0.127-0.641-0.094-0.881 0.531-3.864 1.536-7.604 3.045-11.202" fill="#94cae6"/>
  </g>
  <g transform="matrix(1.8214 0 0 -1.8214 133.83 91.389)">
   <path d="m0 0c-1.498-1.969-2.909-3.996-3.919-6.27-0.636-1.431-1.119-2.916-1.423-4.454-0.093-0.473-0.013-0.551 0.477-0.528 0.878 0.043 1.755 0.115 2.633 0.151 0.377 0.015 0.473 0.196 0.476 0.54 9e-3 0.824-0.017 1.656 0.086 2.47 0.367 2.897 1.135 5.679 2.53 8.267 0.224 0.416 0.416 0.849 0.623 1.275-0.73-0.31-1.074-0.913-1.483-1.451" fill="#a2e0fe"/>
  </g>
  <g transform="matrix(1.8214 0 0 -1.8214 183.61 100.57)">
   <path d="m0 0c-1.362-2.075-2.337-4.348-3.373-6.59-1.095-2.37-1.741-4.933-3.174-7.219 0.584-0.47 1.098-0.871 1.597-1.29 0.283-0.238 0.477-0.196 0.695 0.098 0.728 0.982 1.435 1.966 1.831 3.149 0.741 2.219 1.131 4.511 1.505 6.809 0.287 1.767 0.563 3.535 1.346 5.173 0.036 0.075 1e-3 0.162-0.078 0.215-0.195-0.035-0.257-0.205-0.349-0.345" fill="#9ad0d8"/>
  </g>
  <g transform="matrix(1.8214 0 0 -1.8214 167.95 123.13)">
   <path d="m0 0c0.414-0.247 0.804-0.533 1.206-0.799 0.451-0.299 0.531-0.305 0.797 0.152 0.4 0.685 0.784 1.383 1.053 2.133 1.163 3.235 2.563 6.365 4.156 9.408 0.34 0.649 0.741 1.266 1.206 2.055-0.669-0.2-0.862-0.649-1.167-0.965-2.655-2.757-4.81-5.878-6.642-9.228-0.34-0.622-0.623-1.272-0.898-1.928-0.174-0.415-0.056-0.622 0.289-0.828" fill="#98e2ec"/>
  </g>
  <g transform="matrix(1.8214 0 0 -1.8214 183.4 93.225)">
   <path d="m0 0c-2.018 0.067-4.022-0.114-6.023-0.35-1.123-0.132-2.254-0.216-3.373-0.38-2.164-0.317-4.245-0.987-6.35-1.556-1.462-0.395-2.831-0.996-4.176-1.669-0.218-0.109-0.53-0.193-0.399-0.542 0.297-0.786 0.617-1.564 0.949-2.399 6.227 3.888 13.102 5.633 20.278 6.692-0.14 0.104-0.181 0.161-0.228 0.165-0.225 0.021-0.452 0.031-0.678 0.039" fill="#a8fce8"/>
  </g>
  <g transform="matrix(1.8214 0 0 -1.8214 181.65 94.871)">
   <path d="m0 0c-2.169-0.294-4.277-0.869-6.394-1.396-2.731-0.681-5.361-1.672-7.932-2.809-1.246-0.551-2.412-1.265-3.547-2.021-0.203-0.135-0.43-0.237-0.355-0.591 0.233-1.097 0.425-2.204 0.655-3.422 5.286 5.104 11.61 8.188 18.655 10.24-0.476 0.128-0.777 0.04-1.082-1e-3" fill="#60a4e8"/>
  </g>
  <g transform="matrix(1.8214 0 0 -1.8214 150.59 116.98)">
   <path d="m0 0c0.583-0.118 1.186-0.104 1.762-0.275 0.372-0.111 0.606-2e-3 0.822 0.366 0.357 0.611 0.783 1.186 1.227 1.738 1.729 2.15 3.904 3.786 6.168 5.321 2.181 1.479 4.432 2.837 6.974 4.052-0.283 0-0.389 0.019-0.486-4e-3 -0.22-0.052-0.439-0.115-0.653-0.189-3.065-1.06-6.017-2.378-8.838-3.977-2.558-1.45-4.885-3.211-6.97-5.287-0.2-0.199-0.409-0.409-0.539-0.653-0.314-0.592-0.126-0.959 0.533-1.092" fill="#72e4fe"/>
  </g>
  <g transform="matrix(1.8214 0 0 -1.8214 131.42 110.57)">
   <path d="m0 0c-1e-3 -0.251 0.011-0.56 0.372-0.555 0.684 0.01 1.359-0.075 2.035-0.147 0.307-0.032 0.438 0.122 0.371 0.4-0.228 0.945-0.244 1.91-0.34 2.869-0.211 2.112-0.022 4.194 0.319 6.27 0.151 0.916 0.382 1.818 0.599 2.826-0.341-0.119-0.392-0.323-0.485-0.493-1.143-2.11-1.962-4.341-2.476-6.685-0.324-1.478-0.386-2.98-0.395-4.485" fill="#76b2de"/>
  </g>
  <g transform="matrix(1.8214 0 0 -1.8214 143.89 96.155)">
   <path d="m0 0c0.28-0.592 0.51-1.078 0.739-1.564 0.302-0.641 0.312-0.66 0.93-0.336 2.746 1.437 5.745 2.103 8.715 2.843 1.82 0.453 3.702 0.51 5.555 0.747 2.213 0.284 4.416 0.293 6.631 0.272 0.145-1e-3 0.315-0.069 0.454 0.17-7.942 1.926-15.578 1.32-23.024-2.132" fill="#b0a6e4"/>
  </g>
  <g transform="matrix(1.8214 0 0 -1.8214 136.82 108.71)">
   <path d="m0 0c0.052-0.477 0.181-0.945 0.259-1.42 0.041-0.247 0.149-0.39 0.394-0.492 0.623-0.26 0.655-0.37 0.414-0.997-0.182-0.474-0.306-0.961-0.39-1.597 0.765 0.22 1.494 0.192 2.209 0.322 0.397 0.071 0.395 0.338 0.335 0.641-0.306 1.526-0.536 3.067-0.899 4.583-0.714 2.981-1.32 5.978-1.29 9.066 2e-3 0.11-0.029 0.22-0.057 0.419-0.263-0.374-0.319-0.734-0.408-1.081-0.797-3.111-0.91-6.265-0.567-9.444" fill="#a6fcce"/>
  </g>
  <g transform="matrix(1.8214 0 0 -1.8214 142.99 94.656)">
   <path d="m0 0c0.165-0.343 0.362-0.435 0.735-0.247 1.192 0.604 2.464 1.006 3.73 1.428 2.049 0.683 4.14 1.245 6.28 1.425 2.081 0.175 4.174 0.344 6.283 0.12 2.058-0.218 4.117-0.37 6.125-0.907 0.149-0.04 0.327-0.092 0.487 0.034-0.065 0.227-0.279 0.266-0.449 0.34-0.651 0.282-1.301 0.567-1.964 0.82-2.912 1.11-5.917 1.727-9.045 1.763-2.334 0.026-4.645-0.113-6.942-0.553-2-0.383-3.85-1.156-5.682-2.001-0.306-0.142-0.556-0.288-0.324-0.702 0.276-0.494 0.52-1.009 0.766-1.52" fill="#aacce4"/>
  </g>
  <g transform="matrix(1.8214 0 0 -1.8214 140.03 97.889)">
   <path d="m0 0c0.501-3.249 1.424-6.416 1.906-9.67 0.038-0.262 0.098-0.422 0.398-0.421 0.595 2e-3 1.177-0.159 1.778-0.135 0.634 0.025 0.633-1e-3 0.655 0.655 0.082 2.427-0.537 4.714-1.415 6.942-0.947 2.401-2.371 4.566-3.428 6.985-0.244-0.205-0.196-0.385-0.198-0.546-0.019-1.279 0.11-2.551 0.304-3.81" fill="#7af6f8"/>
  </g>
  <g transform="matrix(1.8214 0 0 -1.8214 32.784 97.111)">
   <path d="m0 0c1.437-3.031 2.97-6.009 4.843-8.802 1.288-1.92 2.715-3.717 4.411-5.292 0.16-0.149 0.292-0.364 0.576-0.213 1.013 0.536 2.1 0.906 3.288 1.388-6.112 3.989-10.49 9.378-13.981 15.581-0.165-0.25-0.056-0.435 0.016-0.614 0.276-0.685 0.531-1.381 0.847-2.048" fill="#98aeea"/>
  </g>
  <g transform="matrix(1.8214 0 0 -1.8214 36.23 135.76)">
   <path d="m0 0c1.478 0.4 2.938 0.857 4.359 1.434 2.915 1.185 5.669 2.733 8.624 3.829 0.266 0.099 0.419 0.224 0.34 0.566-0.12 0.523-0.165 1.064-0.258 1.594-0.125 0.714-0.171 0.752-0.88 0.598-2.281-0.494-4.309-1.542-6.23-2.835-1.891-1.271-3.515-2.869-5.275-4.3-0.337-0.275-0.82-0.397-1.029-0.836 0.127-0.089 0.238-0.08 0.349-0.05" fill="#a0b0da"/>
  </g>
  <g transform="matrix(1.8214 0 0 -1.8214 45.482 143.72)">
   <path d="m0 0c1.909-0.723 3.879-1.067 5.886-1.256 0.645-0.06 1.305-0.123 1.959-0.024 0.516 0.078 0.53 0.093 0.389 0.575-0.191 0.654-0.395 1.304-0.579 1.96-0.295 1.049-0.291 1.051-1.374 0.804-0.028-6e-3 -0.054-0.019-0.081-0.025-2.842-0.618-5.694-0.612-8.545-0.098-1.164 0.21-2.313 0.51-3.468 0.769-2e-3 -0.042-4e-3 -0.084-6e-3 -0.125 0.069-0.047 0.135-0.097 0.207-0.139 1.78-1.022 3.698-1.717 5.612-2.441" fill="#6ec2d0"/>
  </g>
  <g transform="matrix(1.8214 0 0 -1.8214 33.569 106.35)">
   <path d="m0 0c0.206-0.647 0.484-1.272 0.744-1.901 0.846-2.051 1.983-3.954 3.044-5.893 0.599-1.096 1.377-2.081 2.192-3.031 0.177-0.207 0.33-0.399 0.629-0.19 0.672 0.467 1.349 0.928 2.118 1.456-2.69 2.483-4.688 5.437-6.483 8.534-1.788 3.084-3.393 6.262-4.551 9.802-0.192-0.438-0.068-0.699-0.022-0.966 0.466-2.696 1.506-5.222 2.329-7.811" fill="#84beea"/>
  </g>
  <g transform="matrix(1.8214 0 0 -1.8214 42.405 149.28)">
   <path d="m0 0c2.742-2.268 5.718-4.195 8.89-5.811 1.163-0.592 2.376-1.062 3.659-1.347 0.391-0.087 0.654-0.049 0.816 0.353 0.336 0.826 0.835 1.544 1.612 2.193-0.644 0.414-0.954 1.093-1.717 1.064-1.479-0.057-2.874 0.332-4.218 0.874-4.692 1.892-9.285 3.976-13.228 7.241-0.136 0.113-0.277 0.235-0.542 0.149 1.422-1.788 3.026-3.308 4.728-4.716" fill="#5cf8e4"/>
  </g>
  <g transform="matrix(1.8214 0 0 -1.8214 37.242 133.31)">
   <path d="m0 0c0.553 0.482 1.157 0.905 1.686 1.471-2.377 3.231-4.354 6.655-5.578 10.488-1.22 3.822-1.732 7.744-1.729 11.788-0.295-0.132-0.317-0.307-0.345-0.47-0.105-0.615-0.211-1.229-0.305-1.845-0.199-1.317-0.357-2.645-0.346-3.975 0.018-2.128 0.288-4.231 0.759-6.314 0.83-3.669 2.152-7.109 4.492-10.102 0.245-0.313 0.47-0.641 0.717-0.952 0.18-0.227 0.385-0.319 0.649-0.089" fill="#78d6f0"/>
  </g>
  <g transform="matrix(1.8214 0 0 -1.8214 28.409 100.06)">
   <path d="m0 0c0.285-2.582 0.959-5.063 1.808-7.502 0.835-2.401 2.13-4.576 3.444-6.735 0.397-0.653 0.886-1.251 1.339-1.87 0.194-0.266 0.388-0.367 0.686-0.079 0.346 0.333 0.742 0.615 1.125 0.908 0.277 0.212 0.351 0.43 0.091 0.707-0.096 0.103-0.166 0.231-0.258 0.338-1.999 2.3-3.3 5.032-4.611 7.731-1.352 2.783-2.209 5.77-3.059 8.743-0.301 1.052-0.487 2.136-0.74 3.273-0.217-0.305-0.144-0.59-0.149-0.854-0.026-1.563 0.153-3.109 0.324-4.66" fill="#b0fef8"/>
  </g>
  <g transform="matrix(1.8214 0 0 -1.8214 16.437 171.8)">
   <path d="m0 0c-0.327-0.066-0.641-0.135-1.004-0.357 1.427-0.057 2.754 0.097 4.079 0.212 1.043 0.091 2.079 0.274 3.117 0.42 2.309 0.326 4.584 0.795 6.754 1.682 1.019 0.416 2.012 0.882 2.926 1.616-0.669 0.626-1.308 1.183-1.895 1.789-0.34 0.352-0.582 0.306-0.935 0.03-0.805-0.632-1.668-1.185-2.567-1.677-3.292-1.799-6.808-2.973-10.475-3.715" fill="#a0cede"/>
  </g>
  <g transform="matrix(1.8214 0 0 -1.8214 14.155 169.59)">
   <path d="m0 0c2.916 1.069 5.678 2.454 8.291 4.125 1.337 0.855 2.665 1.732 3.842 2.81 0.477 0.436 0.48 0.439 0.176 0.977-0.238 0.42-0.479 0.838-0.73 1.25-0.276 0.452-0.334 0.47-0.798 0.166-0.928-0.61-1.77-1.329-2.56-2.107-2.291-2.257-4.79-4.265-7.35-6.202-0.54-0.409-1.183-0.67-1.776-1.205 0.398-0.064 0.647 0.091 0.905 0.186" fill="#a6f8f2"/>
  </g>
  <g transform="matrix(1.8214 0 0 -1.8214 83.341 103.12)">
   <path d="m0 0c0.751-0.817 1.622-1.505 2.479-2.206 0.135-0.11 0.321-0.321 0.516-0.109 0.566 0.613 1.112 1.244 1.714 1.922-3.757 2.073-6.885 4.726-9.295 8.194-0.051-0.039-0.102-0.078-0.154-0.118 0.037-0.131 0.062-0.267 0.114-0.392 1.125-2.695 2.649-5.139 4.626-7.291" fill="#9ebcbe"/>
  </g>
  <g transform="matrix(1.8214 0 0 -1.8214 11.915 171.47)">
   <path d="m0 0c0.359-0.071 0.712-0.065 1.064 1e-3 0.779 0.144 1.563 0.266 2.333 0.448 3.967 0.939 7.777 2.268 11.179 4.587 0.304 0.207 0.599 0.429 0.887 0.658 0.177 0.142 0.214 0.297 0.046 0.505-0.391 0.486-0.769 0.985-1.129 1.494-0.239 0.337-0.448 0.256-0.687 0.017-0.969-0.968-2.116-1.709-3.247-2.458-3.155-2.091-6.499-3.813-10.121-4.958-0.137-0.044-0.27-0.086-0.325-0.294" fill="#b6ccf4"/>
  </g>
  <g transform="matrix(1.8214 0 0 -1.8214 47.726 166.09)">
   <path d="m0 0c1.797-1.302 3.622-2.576 5.726-3.333 1.699-0.611 1.916-0.811 2.83 1.202 0.01 0.023 1e-3 0.054 1e-3 0.133-3.769 1.245-6.958 3.504-9.943 6.07-2.997 2.577-5.26 5.767-7.309 9.137-0.216-0.217-0.124-0.373-0.081-0.533 0.32-1.184 0.864-2.278 1.366-3.387 1.685-3.722 4.083-6.878 7.41-9.289" fill="#82ccbc"/>
  </g>
  <g transform="matrix(1.8214 0 0 -1.8214 41.82 154.24)">
   <path d="m0 0c2.596-2.799 5.619-5.018 8.948-6.845 0.794-0.437 1.633-0.788 2.495-1.074 0.655-0.217 0.7-0.204 0.951 0.415 0.266 0.656 0.481 1.334 0.733 1.996 0.144 0.381 0.059 0.553-0.367 0.649-1.304 0.294-2.55 0.772-3.734 1.388-4.872 2.529-9.334 5.608-12.997 9.75-0.374 0.422-0.758 0.834-1.212 1.331-0.087-0.428 0.107-0.622 0.229-0.83 1.425-2.425 3.033-4.709 4.954-6.78" fill="#8ededa"/>
  </g>
  <g transform="matrix(1.8214 0 0 -1.8214 70.393 109.44)">
   <path d="m0 0c0.165-2.153 0.457-4.281 0.906-6.389 0.261-1.224 0.632-2.413 1.202-3.532 0.11-0.216 0.199-0.527 0.54-0.426 0.855 0.253 1.724 0.325 2.608 0.266 0.16-0.011 0.292 0.037 0.297 0.215 0.018 0.608 0.205 1.212-0.286 1.779-0.827 0.956-1.317 2.117-1.716 3.303-0.761 2.258-1.356 4.559-1.8 6.903-0.529 2.789-1.096 5.569-0.964 8.433 8e-3 0.158 0.043 0.333-0.144 0.531-0.05-0.195-0.092-0.351-0.131-0.508-0.364-1.462-0.494-2.961-0.594-4.454-0.136-2.038-0.075-4.079 0.082-6.121" fill="#72d6c0"/>
  </g>
  <g transform="matrix(1.8214 0 0 -1.8214 65.27 110.3)">
   <path d="m0 0c-0.137-2.529 0.081-5.051 0.505-7.549 0.161-0.951 0.406-1.887 0.739-2.796 0.29-0.792 0.364-0.832 1.186-0.567 0.594 0.192 1.177 0.419 1.759 0.645 0.518 0.202 0.521 0.214 0.289 0.728-0.539 1.196-0.947 2.433-1.215 3.719-0.565 2.7-0.868 5.427-0.984 8.184-0.095 2.248-0.02 4.484 0.284 6.712 0.146 1.063 0.341 2.12 0.534 3.299-0.295-0.194-0.342-0.39-0.425-0.569-0.761-1.661-1.153-3.439-1.682-5.175-0.661-2.165-0.869-4.397-0.99-6.631" fill="#68fcfa"/>
  </g>
  <g transform="matrix(1.8214 0 0 -1.8214 73.691 91.028)">
   <path d="m0 0c0.717-3.016 1.55-5.995 3.067-8.726 0.676-1.217 1.457-2.371 2.381-3.422 0.164-0.187 0.309-0.369 0.52-0.059 0.619 0.912 1.238 1.824 1.883 2.775-3.599 2.646-6.026 6.154-7.728 10.322-0.194-0.24-0.172-0.353-0.162-0.466 0.013-0.142 6e-3 -0.287 0.039-0.424" fill="#5ef0cc"/>
  </g>
  <g transform="matrix(1.8214 0 0 -1.8214 74.929 108.28)">
   <path d="m0 0c0.504-2.267 1.041-4.535 2.02-6.663 0.294-0.64 0.61-1.265 1.108-1.78 0.216 0.162 0.259 0.354 0.293 0.544 0.246 1.375 0.652 2.703 1.246 3.965 0.178 0.378 0.135 0.656-0.142 0.912-0.443 0.41-0.776 0.907-1.115 1.394-1.218 1.752-2.292 3.577-2.932 5.638-0.487 1.569-1.09 3.101-1.422 4.717-0.031 0.153-0.016 0.344-0.283 0.483-0.115-0.898-0.044-1.756 0.051-2.607 0.249-2.226 0.691-4.421 1.176-6.603" fill="#94f0fe"/>
  </g>
  <g transform="matrix(1.8214 0 0 -1.8214 60.281 112.57)">
   <path d="m0 0c-0.098-1.959 0.086-3.911 0.363-5.85 0.165-1.151 0.415-2.292 0.881-3.364 0.419-0.963 0.78-1.123 1.808-0.917 0.139 0.028 0.275 0.067 0.414 0.098 0.299 0.065 0.343 0.234 0.235 0.502-0.244 0.606-0.444 1.227-0.585 1.866-0.717 3.261-0.934 6.548-0.724 9.886 0.226 3.582 1.13 6.983 2.368 10.321 0.082 0.222 0.243 0.452 0.139 0.721-0.237-0.044-0.319-0.241-0.428-0.397-1.028-1.474-1.776-3.099-2.517-4.726-1.176-2.585-1.812-5.31-1.954-8.14" fill="#9cb4de"/>
  </g>
  <g transform="matrix(1.8214 0 0 -1.8214 38.509 96.953)">
   <path d="m0 0c-0.583 0.443-1.097 0.976-1.833 1.264 0.083-0.109 0.164-0.22 0.25-0.327 1.218-1.504 2.591-2.856 4-4.18 1.597-1.499 3.213-2.965 5.074-4.137 1.226-0.771 2.5-1.431 3.966-1.845 0.064 0.643 0.141 1.227 0.175 1.814 0.026 0.444 0.284 0.962 0.033 1.31-0.254 0.351-0.828 0.298-1.259 0.428-3.865 1.167-7.225 3.254-10.406 5.673" fill="#8ac2e6"/>
  </g>
  <g transform="matrix(1.8214 0 0 -1.8214 38.424 102.01)">
   <path d="m0 0c1.837-2.468 3.811-4.804 6.166-6.794 1.258-1.062 2.529-2.113 3.966-2.937 0.323-0.185 0.637-0.36 1.037-0.3 0.497 0.073 0.584 0.144 0.56 0.65-0.027 0.566-0.184 1.116-0.167 1.691 0.021 0.717 0 0.726-0.66 0.962-1.263 0.451-2.458 1.037-3.589 1.755-1.857 1.177-3.51 2.608-5.083 4.132-1.1 1.066-2.265 2.067-3.222 3.279-0.541 0.686-1.154 1.315-1.734 1.97-1e-3 -0.476 0.233-0.794 0.447-1.119 0.734-1.114 1.481-2.216 2.279-3.289" fill="#6efcee"/>
  </g>
  <g transform="matrix(1.8214 0 0 -1.8214 62.34 96.832)">
   <path d="m0 0c-0.629 0.168-1.253 0.375-1.892 0.487-1.453 0.254-2.918 0.437-4.371 0.688-2.74 0.474-5.463 1.023-8.086 1.98-0.108 0.04-0.218 0.063-0.346-0.035 0.177-0.311 0.507-0.431 0.787-0.6 2.415-1.458 4.961-2.647 7.617-3.585 1.709-0.604 3.432-1.172 5.236-1.46 0.487-0.077 0.679 0.072 0.82 0.479 0.168 0.482 0.342 0.964 0.551 1.428 0.168 0.372 0.013 0.53-0.316 0.618" fill="#ace6ea"/>
  </g>
  <g transform="matrix(1.8214 0 0 -1.8214 14.281 173.78)">
   <path d="m0 0c1.042-0.106 2.084-0.271 3.129-0.3 3.547-0.099 7.101-0.238 10.611 0.477 1.693 0.345 3.398 0.663 5.01 1.326 0.316 0.13 0.635 0.233 0.838 0.544 0.331 0.508 0.322 0.61-0.178 0.955-0.467 0.323-0.971 0.6-1.4 0.967-0.361 0.309-0.614 0.348-1.033 0.074-1.166-0.764-2.425-1.345-3.754-1.788-3.502-1.167-7.131-1.579-10.783-1.849-1.007-0.075-2.023-0.012-3.146-0.012 0.259-0.326 0.481-0.371 0.706-0.394" fill="#68ecfa"/>
  </g>
  <g transform="matrix(1.8214 0 0 -1.8214 36.666 90.435)">
   <path d="m0 0c1.086-0.415 2.206-0.709 3.337-0.973 2.152-0.503 4.31-0.958 6.501-1.266 1.511-0.212 3.044-0.355 4.488-0.893 0.377-0.14 0.514-0.013 0.651 0.279 0.206 0.437 0.431 0.863 0.632 1.302 0.243 0.531 0.236 0.535-0.292 0.813-1.458 0.767-3.01 1.156-4.657 1.136-1.929-0.024-3.854 0.016-5.785-0.14-1.883-0.152-3.79-0.244-5.726 0.28 0.244-0.38 0.564-0.428 0.851-0.538" fill="#86f6c6"/>
  </g>
  <g transform="matrix(1.8214 0 0 -1.8214 174.83 102.74)">
   <path d="m0 0c0.946 0.853 1.977 1.61 3.017 2.45-0.141 0.019-0.174 0.034-0.193 0.024-3.706-1.887-7.189-4.109-10.283-6.906-1.101-0.995-2.038-2.13-2.827-3.39-0.191-0.304-0.232-0.488 0.188-0.607 0.708-0.201 1.41-0.427 2.104-0.673 0.397-0.141 0.614-0.046 0.803 0.337 1.716 3.478 4.354 6.208 7.191 8.765" fill="#5afaf8"/>
  </g>
 </g>
</svg>
