<?xml version="1.0" encoding="UTF-8"?>
<svg width="30.553mm" height="25.586mm" version="1.1" viewBox="0 0 30.553 25.586" xmlns="http://www.w3.org/2000/svg" xmlns:cc="http://creativecommons.org/ns#" xmlns:dc="http://purl.org/dc/elements/1.1/" xmlns:rdf="http://www.w3.org/1999/02/22-rdf-syntax-ns#">
 <metadata>
  <rdf:RDF>
   <cc:Work rdf:about="">
    <dc:format>image/svg+xml</dc:format>
    <dc:type rdf:resource="http://purl.org/dc/dcmitype/StillImage"/>
    <dc:title/>
   </cc:Work>
  </rdf:RDF>
 </metadata>
 <g transform="translate(-76.194 -100.6)">
  <path d="m89.468 117.07c0.09701-0.11924 0.33126-0.21555 0.09948-0.4819-1.5088 1.3049-3.3221 2.068-5.0959 2.902-2.3357 1.0982-4.2478 2.7069-5.734 4.8115-0.34996 0.4953-0.61278 1.052-0.91546 1.5804 0.05856 0.0339 0.11677 0.0674 0.17533 0.10125 2.1816-1.9784 4.6965-3.4854 7.137-5.098 1.62-1.0703 3.1016-2.3029 4.3335-3.8153" fill="#a863f0"/>
  <path d="m78.175 124.33c1.5931-2.4462 3.7603-4.2129 6.4093-5.4063 1.0234-0.46108 2.0158-0.98214 3.0046-1.512 0.77435-0.41522 1.4443-0.95638 1.9872-1.6482-0.88759 0.37077-1.7561 0.7994-2.667 1.0993-1.4877 0.48966-2.8952 1.1451-4.2785 1.8648-1.5434 0.80293-2.8857 1.8454-3.8749 3.2981-0.5461 0.80222-0.87348 1.6884-1.0386 2.6631 0.31221-9e-3 0.36089-0.2099 0.45791-0.35877" fill="#e6a1de"/>
  <path d="m84.89 121.59c-1.5289 0.96485-3.0184 1.995-4.4976 3.0356-0.61524 0.43286-1.24 0.88018-1.6736 1.5483 0.71967-0.20743 1.4002-0.48366 2.0846-0.75036 1.8323-0.71402 3.6453-1.4612 5.292-2.5658 2.2077-1.4806 3.6572-3.4992 4.3229-6.1034-0.07056 0.0575-0.15416 0.10478-0.21026 0.17428-1.5018 1.8634-3.2949 3.3842-5.3181 4.6612" fill="#a2a1fe"/>
  <path d="m86.692 109.81c-1.2929-0.76165-2.7238-1.2661-4.0224-2.0052-2.213-1.2601-4.1984-2.8265-5.7302-4.9018-0.17251-0.23354-0.32491-0.48683-0.74542-0.67239 0.42192 1.4245 0.9264 2.6494 1.5699 3.8308 0.6798 1.2485 1.6309 2.2186 2.8452 2.9115 1.3847 0.79023 2.8074 1.5279 4.3991 1.8175 1.6718 0.30444 3.284 0.75282 4.7519 1.6947-0.78352-1.18-1.8888-1.9805-3.0681-2.6751" fill="#9c7dfa"/>
  <path d="m83.615 104.24c-2.1078-1.1539-4.2908-2.1689-6.3564-3.404-0.17074-0.1023-0.33937-0.28151-0.58244-0.18803-0.0381 0.23601 0.14605 0.33408 0.26458 0.46108 0.70908 0.76059 1.5663 1.3398 2.4292 1.899 1.6775 1.0873 3.4406 2.0306 5.1897 2.9961 1.4005 0.77294 2.6864 1.6993 3.8467 2.8081 0.67063 0.64064 1.2167 1.3864 1.9269 2.2151-0.08749-0.68086-0.38488-1.0792-0.64241-1.4912-1.4884-2.3798-3.6703-3.9793-6.0759-5.2962" fill="#aa85f6"/>
  <path d="m93.57 116.06c1.4467 1.3398 3.2403 2.086 4.9858 2.9161 1.8186 0.86536 3.4636 1.9653 4.8264 3.4738 0.68827 0.76235 1.2735 1.5998 1.9036 2.5012 0.0353-0.17745 0.0825-0.27023 0.0642-0.34678-0.43356-1.7854-1.3321-3.2784-2.7785-4.4334-1.7794-1.4213-3.8142-2.353-5.9369-3.1143-0.82232-0.29492-1.6471-0.57926-2.4246-0.98495-0.26423-0.13794-0.54716-0.23989-0.83785-0.36548-0.02893 0.24095 0.11289 0.27517 0.19791 0.35384" fill="#a2a1c8"/>
  <path d="m84.584 106.55c-1.6185-0.9398-3.2484-1.8598-4.8761-2.7831-0.96802-0.54893-1.826-1.2591-2.7848-1.8362 1.6411 2.6243 3.9642 4.4813 6.6865 5.8131 2.1915 1.0721 4.3875 2.1018 6.1807 3.8061 0.05327 0.0508 0.1076 0.024 0.15628-0.0984-0.04445-0.0783-0.09772-0.18521-0.16263-0.28505-1.307-2.0186-3.1563-3.43-5.1999-4.6164" fill="#e063f4"/>
  <path d="m99.352 107.79c1.9198-0.90241 3.5616-2.1946 5.0804-3.6421 0.65581-0.62548 1.233-1.3501 1.7392-2.214-0.18803 0.0166-0.26105 0-0.29668 0.0293-1.7748 1.4534-3.7701 2.5587-5.7722 3.6516-1.7297 0.94474-3.4311 1.9258-4.9071 3.2561-0.9017 0.8128-1.6133 1.7596-2.1985 2.8138 0.42792-0.27516 0.80151-0.5969 1.1719-0.92145 1.5282-1.3392 3.3757-2.1237 5.183-2.9732" fill="#c265e8"/>
  <path d="m106 103.01c-1.8464 2.358-4.1504 4.1307-6.8612 5.3894-0.79234 0.3676-1.5879 0.73378-2.3537 1.1518-1.3444 0.73413-2.5785 1.6168-3.5581 2.8067 0.03951 0.0487 0.07902 0.0974 0.11889 0.1464 0.26705-0.15063 0.53587-0.2988 0.80116-0.45261 0.95568-0.55492 1.9794-0.9331 3.0685-1.0993 1.9526-0.29845 3.7056-1.1056 5.3792-2.0962 1.1476-0.67945 2.0246-1.6312 2.6762-2.8187 0.54469-0.99306 0.97226-2.0249 1.343-3.0872 0.0762-0.21802 0.21025-0.4371 0.0815-0.71226-0.3168 0.20567-0.48789 0.50694-0.69533 0.77188" fill="#e69fd8"/>
  <path d="m96.864 122.81c2.2137 1.5159 4.7523 2.3156 7.1864 3.3479 0.0815 0.0346 0.18133 0.0515 0.2607-0.037-0.0243-0.24765-0.23777-0.34537-0.39899-0.48331-1.3536-1.1589-2.8416-2.1315-4.3251-3.1094-1.6641-1.0971-3.3747-2.1241-4.8313-3.5126-0.76129-0.72566-1.4414-1.524-2.1336-2.299-0.14852 0.10513-0.11642 0.20214-0.08855 0.2861 0.79904 2.4158 2.2169 4.36 4.3303 5.8074" fill="#d07bd0"/>
  <path d="m97.887 120.87c2.4254 1.5953 4.9156 3.0999 7.0905 5.0479 0.0303 0.0272 0.10583 4e-3 0.23248 4e-3 -0.37782-0.73343-0.75177-1.433-1.2407-2.0701-1.6358-2.1308-3.7049-3.6848-6.1793-4.7244-0.74648-0.31362-1.4464-0.73731-2.1791-1.0855-0.80116-0.381-1.4711-0.96908-2.2239-1.4563-0.09737 0.26494 0.05927 0.35243 0.15275 0.46461 1.2506 1.499 2.7196 2.7496 4.3473 3.8202" fill="#c899ce"/>
  <path d="m98.895 105.77c1.6196-0.87524 3.2131-1.8045 4.7756-2.7788 1.0224-0.63747 2.0352-1.3208 2.8236-2.3611-0.27975-0.0699-0.37606 0.0106-0.48295 0.073-1.5102 0.88195-3.0586 1.6926-4.6119 2.4977-1.5226 0.78952-3.0734 1.5346-4.4475 2.5887-1.3966 1.0717-2.7016 2.2236-3.6223 3.7504-0.25047 0.41522-0.53481 0.81739-0.65017 1.427 0.16969-0.13829 0.25435-0.18274 0.30445-0.25189 1.5494-2.1523 3.5983-3.6953 5.9111-4.9449" fill="#ce6fd2"/>
 </g>
</svg>
