<?xml version="1.0" encoding="iso-8859-1"?>
<!-- Generator: Adobe Illustrator 19.1.0, SVG Export Plug-In . SVG Version: 6.00 Build 0)  -->
<svg version="1.1" id="Capa_1" xmlns="http://www.w3.org/2000/svg" xmlns:xlink="http://www.w3.org/1999/xlink" x="0px" y="0px"
	 viewBox="0 0 64 64" style="enable-background:new 0 0 64 64;" xml:space="preserve">
<g>
	<g id="group-23svg">
		<path id="path-1_15_" style="fill:#99746A;" d="M32.001,51.969c-0.771,0-1.542-0.294-2.129-0.881L0.586,21.803
			c-0.781-0.782-0.781-2.047,0-2.829c0.781-0.781,2.047-0.781,2.829,0l28.586,28.585l28.585-28.585c0.781-0.781,2.047-0.781,2.829,0
			c0.781,0.782,0.781,2.047,0,2.829L34.129,51.088C33.543,51.675,32.772,51.969,32.001,51.969z"/>
		<path id="path-2_14_" style="fill:#E56A77;" d="M32.001,38.244c-0.398,0-0.78-0.158-1.061-0.44L7.729,14.593
			c-0.586-0.586-0.586-1.536,0-2.122c0.585-0.585,1.535-0.585,2.121,0l22.151,22.152l22.15-22.152c0.586-0.585,1.536-0.585,2.122,0
			c0.585,0.586,0.585,1.536,0,2.122L33.061,37.804C32.78,38.086,32.398,38.244,32.001,38.244z"/>
	</g>
</g>
<g>
</g>
<g>
</g>
<g>
</g>
<g>
</g>
<g>
</g>
<g>
</g>
<g>
</g>
<g>
</g>
<g>
</g>
<g>
</g>
<g>
</g>
<g>
</g>
<g>
</g>
<g>
</g>
<g>
</g>
</svg>
